%FSLAX45Y45*%
G04 Gerber Fmt 4.5, Leading zero omitted, Abs format (unit mm)*
G04 Created by KiCad (PCBNEW (5.1.5)-3) date 2021-05-14 14:22:50*
%MOMM*%
%LPD*%
G04 APERTURE LIST*
%TA.AperFunction,Profile*%
%ADD10C,0.050000*%
%TD*%
%ADD11C,0.200000*%
%ADD12C,0.300000*%
G04 APERTURE END LIST*
D10*
X10000000Y-14930000D02*
X10000000Y-7000000D01*
X18750000Y-14930000D02*
X10000000Y-14930000D01*
X18750000Y-7000000D02*
X18750000Y-14930000D01*
X10000000Y-7000000D02*
X18750000Y-7000000D01*
D11*
X18040000Y-14130000D02*
X18360000Y-14450000D01*
X18360000Y-14130000D02*
X18040000Y-14450000D01*
X10390000Y-14120000D02*
X10710000Y-14440000D01*
X10710000Y-14120000D02*
X10390000Y-14440000D01*
X18040000Y-7400000D02*
X18360000Y-7720000D01*
X18360000Y-7400000D02*
X18040000Y-7720000D01*
X12380000Y-7225000D02*
X12700000Y-7545000D01*
X12700000Y-7225000D02*
X12380000Y-7545000D01*
X10390000Y-7430000D02*
X10710000Y-7750000D01*
X10710000Y-7430000D02*
X10390000Y-7750000D01*
X12360000Y-9360000D02*
X12680000Y-9680000D01*
X12680000Y-9360000D02*
X12360000Y-9680000D01*
X15775000Y-7205000D02*
X16095000Y-7525000D01*
X16095000Y-7205000D02*
X15775000Y-7525000D01*
D12*
X10283928Y-15398214D02*
X10283928Y-15098214D01*
X10355357Y-15098214D01*
X10398214Y-15112500D01*
X10426786Y-15141071D01*
X10441071Y-15169643D01*
X10455357Y-15226786D01*
X10455357Y-15269643D01*
X10441071Y-15326786D01*
X10426786Y-15355357D01*
X10398214Y-15383929D01*
X10355357Y-15398214D01*
X10283928Y-15398214D01*
X10583928Y-15398214D02*
X10583928Y-15198214D01*
X10583928Y-15255357D02*
X10598214Y-15226786D01*
X10612500Y-15212500D01*
X10641071Y-15198214D01*
X10669643Y-15198214D01*
X10769643Y-15398214D02*
X10769643Y-15198214D01*
X10769643Y-15098214D02*
X10755357Y-15112500D01*
X10769643Y-15126786D01*
X10783928Y-15112500D01*
X10769643Y-15098214D01*
X10769643Y-15126786D01*
X10955357Y-15398214D02*
X10926786Y-15383929D01*
X10912500Y-15355357D01*
X10912500Y-15098214D01*
X11112500Y-15398214D02*
X11083928Y-15383929D01*
X11069643Y-15355357D01*
X11069643Y-15098214D01*
X11455357Y-15398214D02*
X11455357Y-15098214D01*
X11555357Y-15312500D01*
X11655357Y-15098214D01*
X11655357Y-15398214D01*
X11926786Y-15398214D02*
X11926786Y-15241071D01*
X11912500Y-15212500D01*
X11883928Y-15198214D01*
X11826786Y-15198214D01*
X11798214Y-15212500D01*
X11926786Y-15383929D02*
X11898214Y-15398214D01*
X11826786Y-15398214D01*
X11798214Y-15383929D01*
X11783928Y-15355357D01*
X11783928Y-15326786D01*
X11798214Y-15298214D01*
X11826786Y-15283929D01*
X11898214Y-15283929D01*
X11926786Y-15269643D01*
X12069643Y-15198214D02*
X12069643Y-15498214D01*
X12069643Y-15212500D02*
X12098214Y-15198214D01*
X12155357Y-15198214D01*
X12183928Y-15212500D01*
X12198214Y-15226786D01*
X12212500Y-15255357D01*
X12212500Y-15341071D01*
X12198214Y-15369643D01*
X12183928Y-15383929D01*
X12155357Y-15398214D01*
X12098214Y-15398214D01*
X12069643Y-15383929D01*
X12341071Y-15369643D02*
X12355357Y-15383929D01*
X12341071Y-15398214D01*
X12326786Y-15383929D01*
X12341071Y-15369643D01*
X12341071Y-15398214D01*
X12341071Y-15212500D02*
X12355357Y-15226786D01*
X12341071Y-15241071D01*
X12326786Y-15226786D01*
X12341071Y-15212500D01*
X12341071Y-15241071D01*
X9677500Y-15732500D02*
X9997500Y-16052500D01*
X9997500Y-15732500D02*
X9677500Y-16052500D01*
X10255357Y-15728214D02*
X10441071Y-15728214D01*
X10341071Y-15842500D01*
X10383928Y-15842500D01*
X10412500Y-15856786D01*
X10426786Y-15871071D01*
X10441071Y-15899643D01*
X10441071Y-15971071D01*
X10426786Y-15999643D01*
X10412500Y-16013929D01*
X10383928Y-16028214D01*
X10298214Y-16028214D01*
X10269643Y-16013929D01*
X10255357Y-15999643D01*
X10569643Y-15999643D02*
X10583928Y-16013929D01*
X10569643Y-16028214D01*
X10555357Y-16013929D01*
X10569643Y-15999643D01*
X10569643Y-16028214D01*
X10698214Y-15756786D02*
X10712500Y-15742500D01*
X10741071Y-15728214D01*
X10812500Y-15728214D01*
X10841071Y-15742500D01*
X10855357Y-15756786D01*
X10869643Y-15785357D01*
X10869643Y-15813929D01*
X10855357Y-15856786D01*
X10683928Y-16028214D01*
X10869643Y-16028214D01*
X11055357Y-15728214D02*
X11083928Y-15728214D01*
X11112500Y-15742500D01*
X11126786Y-15756786D01*
X11141071Y-15785357D01*
X11155357Y-15842500D01*
X11155357Y-15913929D01*
X11141071Y-15971071D01*
X11126786Y-15999643D01*
X11112500Y-16013929D01*
X11083928Y-16028214D01*
X11055357Y-16028214D01*
X11026786Y-16013929D01*
X11012500Y-15999643D01*
X10998214Y-15971071D01*
X10983928Y-15913929D01*
X10983928Y-15842500D01*
X10998214Y-15785357D01*
X11012500Y-15756786D01*
X11026786Y-15742500D01*
X11055357Y-15728214D01*
X11283928Y-16028214D02*
X11283928Y-15828214D01*
X11283928Y-15856786D02*
X11298214Y-15842500D01*
X11326786Y-15828214D01*
X11369643Y-15828214D01*
X11398214Y-15842500D01*
X11412500Y-15871071D01*
X11412500Y-16028214D01*
X11412500Y-15871071D02*
X11426786Y-15842500D01*
X11455357Y-15828214D01*
X11498214Y-15828214D01*
X11526786Y-15842500D01*
X11541071Y-15871071D01*
X11541071Y-16028214D01*
X11683928Y-16028214D02*
X11683928Y-15828214D01*
X11683928Y-15856786D02*
X11698214Y-15842500D01*
X11726786Y-15828214D01*
X11769643Y-15828214D01*
X11798214Y-15842500D01*
X11812500Y-15871071D01*
X11812500Y-16028214D01*
X11812500Y-15871071D02*
X11826786Y-15842500D01*
X11855357Y-15828214D01*
X11898214Y-15828214D01*
X11926786Y-15842500D01*
X11941071Y-15871071D01*
X11941071Y-16028214D01*
X12526786Y-15713929D02*
X12269643Y-16099643D01*
X12912500Y-15728214D02*
X12941071Y-15728214D01*
X12969643Y-15742500D01*
X12983928Y-15756786D01*
X12998214Y-15785357D01*
X13012500Y-15842500D01*
X13012500Y-15913929D01*
X12998214Y-15971071D01*
X12983928Y-15999643D01*
X12969643Y-16013929D01*
X12941071Y-16028214D01*
X12912500Y-16028214D01*
X12883928Y-16013929D01*
X12869643Y-15999643D01*
X12855357Y-15971071D01*
X12841071Y-15913929D01*
X12841071Y-15842500D01*
X12855357Y-15785357D01*
X12869643Y-15756786D01*
X12883928Y-15742500D01*
X12912500Y-15728214D01*
X13141071Y-15999643D02*
X13155357Y-16013929D01*
X13141071Y-16028214D01*
X13126786Y-16013929D01*
X13141071Y-15999643D01*
X13141071Y-16028214D01*
X13441071Y-16028214D02*
X13269643Y-16028214D01*
X13355357Y-16028214D02*
X13355357Y-15728214D01*
X13326786Y-15771071D01*
X13298214Y-15799643D01*
X13269643Y-15813929D01*
X13555357Y-15756786D02*
X13569643Y-15742500D01*
X13598214Y-15728214D01*
X13669643Y-15728214D01*
X13698214Y-15742500D01*
X13712500Y-15756786D01*
X13726786Y-15785357D01*
X13726786Y-15813929D01*
X13712500Y-15856786D01*
X13541071Y-16028214D01*
X13726786Y-16028214D01*
X13983928Y-15728214D02*
X13926786Y-15728214D01*
X13898214Y-15742500D01*
X13883928Y-15756786D01*
X13855357Y-15799643D01*
X13841071Y-15856786D01*
X13841071Y-15971071D01*
X13855357Y-15999643D01*
X13869643Y-16013929D01*
X13898214Y-16028214D01*
X13955357Y-16028214D01*
X13983928Y-16013929D01*
X13998214Y-15999643D01*
X14012500Y-15971071D01*
X14012500Y-15899643D01*
X13998214Y-15871071D01*
X13983928Y-15856786D01*
X13955357Y-15842500D01*
X13898214Y-15842500D01*
X13869643Y-15856786D01*
X13855357Y-15871071D01*
X13841071Y-15899643D01*
X14126786Y-15728214D02*
X14126786Y-15785357D01*
X14241071Y-15728214D02*
X14241071Y-15785357D01*
X14683928Y-16142500D02*
X14669643Y-16128214D01*
X14641071Y-16085357D01*
X14626786Y-16056786D01*
X14612500Y-16013929D01*
X14598214Y-15942500D01*
X14598214Y-15885357D01*
X14612500Y-15813929D01*
X14626786Y-15771071D01*
X14641071Y-15742500D01*
X14669643Y-15699643D01*
X14683928Y-15685357D01*
X14769643Y-15728214D02*
X14969643Y-15728214D01*
X14841071Y-16028214D01*
X15312500Y-16028214D02*
X15312500Y-15728214D01*
X15441071Y-16028214D02*
X15441071Y-15871071D01*
X15426786Y-15842500D01*
X15398214Y-15828214D01*
X15355357Y-15828214D01*
X15326786Y-15842500D01*
X15312500Y-15856786D01*
X15626786Y-16028214D02*
X15598214Y-16013929D01*
X15583928Y-15999643D01*
X15569643Y-15971071D01*
X15569643Y-15885357D01*
X15583928Y-15856786D01*
X15598214Y-15842500D01*
X15626786Y-15828214D01*
X15669643Y-15828214D01*
X15698214Y-15842500D01*
X15712500Y-15856786D01*
X15726786Y-15885357D01*
X15726786Y-15971071D01*
X15712500Y-15999643D01*
X15698214Y-16013929D01*
X15669643Y-16028214D01*
X15626786Y-16028214D01*
X15898214Y-16028214D02*
X15869643Y-16013929D01*
X15855357Y-15985357D01*
X15855357Y-15728214D01*
X16126786Y-16013929D02*
X16098214Y-16028214D01*
X16041071Y-16028214D01*
X16012500Y-16013929D01*
X15998214Y-15985357D01*
X15998214Y-15871071D01*
X16012500Y-15842500D01*
X16041071Y-15828214D01*
X16098214Y-15828214D01*
X16126786Y-15842500D01*
X16141071Y-15871071D01*
X16141071Y-15899643D01*
X15998214Y-15928214D01*
X16255357Y-16013929D02*
X16283928Y-16028214D01*
X16341071Y-16028214D01*
X16369643Y-16013929D01*
X16383928Y-15985357D01*
X16383928Y-15971071D01*
X16369643Y-15942500D01*
X16341071Y-15928214D01*
X16298214Y-15928214D01*
X16269643Y-15913929D01*
X16255357Y-15885357D01*
X16255357Y-15871071D01*
X16269643Y-15842500D01*
X16298214Y-15828214D01*
X16341071Y-15828214D01*
X16369643Y-15842500D01*
X16483928Y-16142500D02*
X16498214Y-16128214D01*
X16526786Y-16085357D01*
X16541071Y-16056786D01*
X16555357Y-16013929D01*
X16569643Y-15942500D01*
X16569643Y-15885357D01*
X16555357Y-15813929D01*
X16541071Y-15771071D01*
X16526786Y-15742500D01*
X16498214Y-15699643D01*
X16483928Y-15685357D01*
X17026786Y-16142500D02*
X17012500Y-16128214D01*
X16983928Y-16085357D01*
X16969643Y-16056786D01*
X16955357Y-16013929D01*
X16941071Y-15942500D01*
X16941071Y-15885357D01*
X16955357Y-15813929D01*
X16969643Y-15771071D01*
X16983928Y-15742500D01*
X17012500Y-15699643D01*
X17026786Y-15685357D01*
X17141071Y-15828214D02*
X17141071Y-16028214D01*
X17141071Y-15856786D02*
X17155357Y-15842500D01*
X17183928Y-15828214D01*
X17226786Y-15828214D01*
X17255357Y-15842500D01*
X17269643Y-15871071D01*
X17269643Y-16028214D01*
X17455357Y-16028214D02*
X17426786Y-16013929D01*
X17412500Y-15999643D01*
X17398214Y-15971071D01*
X17398214Y-15885357D01*
X17412500Y-15856786D01*
X17426786Y-15842500D01*
X17455357Y-15828214D01*
X17498214Y-15828214D01*
X17526786Y-15842500D01*
X17541071Y-15856786D01*
X17555357Y-15885357D01*
X17555357Y-15971071D01*
X17541071Y-15999643D01*
X17526786Y-16013929D01*
X17498214Y-16028214D01*
X17455357Y-16028214D01*
X17641071Y-15828214D02*
X17755357Y-15828214D01*
X17683928Y-15728214D02*
X17683928Y-15985357D01*
X17698214Y-16013929D01*
X17726786Y-16028214D01*
X17755357Y-16028214D01*
X18083928Y-15828214D02*
X18083928Y-16128214D01*
X18083928Y-15842500D02*
X18112500Y-15828214D01*
X18169643Y-15828214D01*
X18198214Y-15842500D01*
X18212500Y-15856786D01*
X18226786Y-15885357D01*
X18226786Y-15971071D01*
X18212500Y-15999643D01*
X18198214Y-16013929D01*
X18169643Y-16028214D01*
X18112500Y-16028214D01*
X18083928Y-16013929D01*
X18398214Y-16028214D02*
X18369643Y-16013929D01*
X18355357Y-15985357D01*
X18355357Y-15728214D01*
X18641071Y-16028214D02*
X18641071Y-15871071D01*
X18626786Y-15842500D01*
X18598214Y-15828214D01*
X18541071Y-15828214D01*
X18512500Y-15842500D01*
X18641071Y-16013929D02*
X18612500Y-16028214D01*
X18541071Y-16028214D01*
X18512500Y-16013929D01*
X18498214Y-15985357D01*
X18498214Y-15956786D01*
X18512500Y-15928214D01*
X18541071Y-15913929D01*
X18612500Y-15913929D01*
X18641071Y-15899643D01*
X18741071Y-15828214D02*
X18855357Y-15828214D01*
X18783928Y-15728214D02*
X18783928Y-15985357D01*
X18798214Y-16013929D01*
X18826786Y-16028214D01*
X18855357Y-16028214D01*
X19069643Y-16013929D02*
X19041071Y-16028214D01*
X18983928Y-16028214D01*
X18955357Y-16013929D01*
X18941071Y-15985357D01*
X18941071Y-15871071D01*
X18955357Y-15842500D01*
X18983928Y-15828214D01*
X19041071Y-15828214D01*
X19069643Y-15842500D01*
X19083928Y-15871071D01*
X19083928Y-15899643D01*
X18941071Y-15928214D01*
X19341071Y-16028214D02*
X19341071Y-15728214D01*
X19341071Y-16013929D02*
X19312500Y-16028214D01*
X19255357Y-16028214D01*
X19226786Y-16013929D01*
X19212500Y-15999643D01*
X19198214Y-15971071D01*
X19198214Y-15885357D01*
X19212500Y-15856786D01*
X19226786Y-15842500D01*
X19255357Y-15828214D01*
X19312500Y-15828214D01*
X19341071Y-15842500D01*
X19455357Y-16142500D02*
X19469643Y-16128214D01*
X19498214Y-16085357D01*
X19512500Y-16056786D01*
X19526786Y-16013929D01*
X19541071Y-15942500D01*
X19541071Y-15885357D01*
X19526786Y-15813929D01*
X19512500Y-15771071D01*
X19498214Y-15742500D01*
X19469643Y-15699643D01*
X19455357Y-15685357D01*
M02*
