%FSLAX45Y45*%
G04 Gerber Fmt 4.5, Leading zero omitted, Abs format (unit mm)*
G04 Created by KiCad (PCBNEW (5.1.5)-3) date 2021-05-14 19:35:11*
%MOMM*%
%LPD*%
G04 APERTURE LIST*
%TA.AperFunction,Profile*%
%ADD10C,0.050000*%
%TD*%
%ADD11C,0.200000*%
%ADD12C,0.300000*%
G04 APERTURE END LIST*
D10*
X10000000Y-14930000D02*
X10000000Y-7000000D01*
X18750000Y-14930000D02*
X10000000Y-14930000D01*
X18750000Y-7000000D02*
X18750000Y-14930000D01*
X10000000Y-7000000D02*
X18750000Y-7000000D01*
D11*
X15180130Y-11194930D02*
X15220130Y-11234930D01*
X15220130Y-11194930D02*
X15180130Y-11234930D01*
X16683100Y-12240000D02*
G75*
G03X16683100Y-12240000I-38100J0D01*
G01*
X16693100Y-8280000D02*
G75*
G03X16693100Y-8280000I-38100J0D01*
G01*
X18443100Y-8280000D02*
G75*
G03X18443100Y-8280000I-38100J0D01*
G01*
X18443100Y-12240000D02*
G75*
G03X18443100Y-12240000I-38100J0D01*
G01*
X15780000Y-10350000D02*
X15780000Y-10430000D01*
X15740000Y-10390000D02*
X15820000Y-10390000D01*
X16130000Y-10350000D02*
X16130000Y-10430000D01*
X16090000Y-10390000D02*
X16170000Y-10390000D01*
X12730000Y-11270000D02*
X12730000Y-11350000D01*
X12690000Y-11310000D02*
X12770000Y-11310000D01*
X14000000Y-11270000D02*
X14000000Y-11350000D01*
X13960000Y-11310000D02*
X14040000Y-11310000D01*
X14930000Y-10020000D02*
X14930000Y-10100000D01*
X14890000Y-10060000D02*
X14970000Y-10060000D01*
X14930000Y-11290000D02*
X14930000Y-11370000D01*
X14890000Y-11330000D02*
X14970000Y-11330000D01*
X10590000Y-12835000D02*
X10590000Y-12915000D01*
X10550000Y-12875000D02*
X10630000Y-12875000D01*
X10840000Y-12835000D02*
X10840000Y-12915000D01*
X10800000Y-12875000D02*
X10880000Y-12875000D01*
X14530000Y-10020000D02*
X14530000Y-10100000D01*
X14490000Y-10060000D02*
X14570000Y-10060000D01*
X14530000Y-11290000D02*
X14530000Y-11370000D01*
X14490000Y-11330000D02*
X14570000Y-11330000D01*
X16111820Y-7911820D02*
X16111820Y-7848180D01*
X16048180Y-7848180D01*
X16048180Y-7911820D01*
X16111820Y-7911820D01*
X16111820Y-8161820D02*
X16111820Y-8098180D01*
X16048180Y-8098180D01*
X16048180Y-8161820D01*
X16111820Y-8161820D01*
X16111820Y-8411820D02*
X16111820Y-8348180D01*
X16048180Y-8348180D01*
X16048180Y-8411820D01*
X16111820Y-8411820D01*
X16111820Y-8661820D02*
X16111820Y-8598180D01*
X16048180Y-8598180D01*
X16048180Y-8661820D01*
X16111820Y-8661820D01*
X16111820Y-8911820D02*
X16111820Y-8848180D01*
X16048180Y-8848180D01*
X16048180Y-8911820D01*
X16111820Y-8911820D01*
X16111820Y-9161820D02*
X16111820Y-9098180D01*
X16048180Y-9098180D01*
X16048180Y-9161820D01*
X16111820Y-9161820D01*
X16111820Y-9411820D02*
X16111820Y-9348180D01*
X16048180Y-9348180D01*
X16048180Y-9411820D01*
X16111820Y-9411820D01*
X12616820Y-10416820D02*
X12616820Y-10353180D01*
X12553180Y-10353180D01*
X12553180Y-10416820D01*
X12616820Y-10416820D01*
X12870820Y-10416820D02*
X12870820Y-10353180D01*
X12807180Y-10353180D01*
X12807180Y-10416820D01*
X12870820Y-10416820D01*
X13631820Y-10421820D02*
X13631820Y-10358180D01*
X13568180Y-10358180D01*
X13568180Y-10421820D01*
X13631820Y-10421820D01*
X13885820Y-10421820D02*
X13885820Y-10358180D01*
X13822180Y-10358180D01*
X13822180Y-10421820D01*
X13885820Y-10421820D01*
X13635000Y-13895800D02*
X13685800Y-13845000D01*
X13635000Y-13794200D01*
X13584200Y-13845000D01*
X13635000Y-13895800D01*
X13985000Y-13395800D02*
X14035800Y-13345000D01*
X13985000Y-13294200D01*
X13934200Y-13345000D01*
X13985000Y-13395800D01*
X14335000Y-13895800D02*
X14385800Y-13845000D01*
X14335000Y-13794200D01*
X14284200Y-13845000D01*
X14335000Y-13895800D01*
X17025000Y-13405800D02*
X17075800Y-13355000D01*
X17025000Y-13304200D01*
X16974200Y-13355000D01*
X17025000Y-13405800D01*
X17375000Y-13905800D02*
X17425800Y-13855000D01*
X17375000Y-13804200D01*
X17324200Y-13855000D01*
X17375000Y-13905800D01*
X10338000Y-8727800D02*
X10388800Y-8677000D01*
X10338000Y-8626200D01*
X10287200Y-8677000D01*
X10338000Y-8727800D01*
X10338000Y-8981800D02*
X10388800Y-8931000D01*
X10338000Y-8880200D01*
X10287200Y-8931000D01*
X10338000Y-8981800D01*
X10338000Y-9235800D02*
X10388800Y-9185000D01*
X10338000Y-9134200D01*
X10287200Y-9185000D01*
X10338000Y-9235800D01*
X10338000Y-9489800D02*
X10388800Y-9439000D01*
X10338000Y-9388200D01*
X10287200Y-9439000D01*
X10338000Y-9489800D01*
X10338000Y-9743800D02*
X10388800Y-9693000D01*
X10338000Y-9642200D01*
X10287200Y-9693000D01*
X10338000Y-9743800D01*
X10338000Y-9997800D02*
X10388800Y-9947000D01*
X10338000Y-9896200D01*
X10287200Y-9947000D01*
X10338000Y-9997800D01*
X10338000Y-10251800D02*
X10388800Y-10201000D01*
X10338000Y-10150200D01*
X10287200Y-10201000D01*
X10338000Y-10251800D01*
X10338000Y-10505800D02*
X10388800Y-10455000D01*
X10338000Y-10404200D01*
X10287200Y-10455000D01*
X10338000Y-10505800D01*
X10338000Y-10759800D02*
X10388800Y-10709000D01*
X10338000Y-10658200D01*
X10287200Y-10709000D01*
X10338000Y-10759800D01*
X10338000Y-11013800D02*
X10388800Y-10963000D01*
X10338000Y-10912200D01*
X10287200Y-10963000D01*
X10338000Y-11013800D01*
X10338000Y-11267800D02*
X10388800Y-11217000D01*
X10338000Y-11166200D01*
X10287200Y-11217000D01*
X10338000Y-11267800D01*
X10338000Y-11521800D02*
X10388800Y-11471000D01*
X10338000Y-11420200D01*
X10287200Y-11471000D01*
X10338000Y-11521800D01*
X10338000Y-11775800D02*
X10388800Y-11725000D01*
X10338000Y-11674200D01*
X10287200Y-11725000D01*
X10338000Y-11775800D01*
X10338000Y-12029800D02*
X10388800Y-11979000D01*
X10338000Y-11928200D01*
X10287200Y-11979000D01*
X10338000Y-12029800D01*
X10338000Y-12283800D02*
X10388800Y-12233000D01*
X10338000Y-12182200D01*
X10287200Y-12233000D01*
X10338000Y-12283800D01*
X11862000Y-8727800D02*
X11912800Y-8677000D01*
X11862000Y-8626200D01*
X11811200Y-8677000D01*
X11862000Y-8727800D01*
X11862000Y-8981800D02*
X11912800Y-8931000D01*
X11862000Y-8880200D01*
X11811200Y-8931000D01*
X11862000Y-8981800D01*
X11862000Y-9235800D02*
X11912800Y-9185000D01*
X11862000Y-9134200D01*
X11811200Y-9185000D01*
X11862000Y-9235800D01*
X11862000Y-9489800D02*
X11912800Y-9439000D01*
X11862000Y-9388200D01*
X11811200Y-9439000D01*
X11862000Y-9489800D01*
X11862000Y-9743800D02*
X11912800Y-9693000D01*
X11862000Y-9642200D01*
X11811200Y-9693000D01*
X11862000Y-9743800D01*
X11862000Y-9997800D02*
X11912800Y-9947000D01*
X11862000Y-9896200D01*
X11811200Y-9947000D01*
X11862000Y-9997800D01*
X11862000Y-10251800D02*
X11912800Y-10201000D01*
X11862000Y-10150200D01*
X11811200Y-10201000D01*
X11862000Y-10251800D01*
X11862000Y-10505800D02*
X11912800Y-10455000D01*
X11862000Y-10404200D01*
X11811200Y-10455000D01*
X11862000Y-10505800D01*
X11862000Y-10759800D02*
X11912800Y-10709000D01*
X11862000Y-10658200D01*
X11811200Y-10709000D01*
X11862000Y-10759800D01*
X11862000Y-11013800D02*
X11912800Y-10963000D01*
X11862000Y-10912200D01*
X11811200Y-10963000D01*
X11862000Y-11013800D01*
X11862000Y-11267800D02*
X11912800Y-11217000D01*
X11862000Y-11166200D01*
X11811200Y-11217000D01*
X11862000Y-11267800D01*
X11862000Y-11521800D02*
X11912800Y-11471000D01*
X11862000Y-11420200D01*
X11811200Y-11471000D01*
X11862000Y-11521800D01*
X11862000Y-11775800D02*
X11912800Y-11725000D01*
X11862000Y-11674200D01*
X11811200Y-11725000D01*
X11862000Y-11775800D01*
X11862000Y-12029800D02*
X11912800Y-11979000D01*
X11862000Y-11928200D01*
X11811200Y-11979000D01*
X11862000Y-12029800D01*
X11862000Y-12283800D02*
X11912800Y-12233000D01*
X11862000Y-12182200D01*
X11811200Y-12233000D01*
X11862000Y-12283800D01*
X15700000Y-13400800D02*
X15750800Y-13350000D01*
X15700000Y-13299200D01*
X15649200Y-13350000D01*
X15700000Y-13400800D01*
X16050000Y-13900800D02*
X16100800Y-13850000D01*
X16050000Y-13799200D01*
X15999200Y-13850000D01*
X16050000Y-13900800D01*
X11390000Y-13380800D02*
X11440800Y-13330000D01*
X11390000Y-13279200D01*
X11339200Y-13330000D01*
X11390000Y-13380800D01*
X11740000Y-13880800D02*
X11790800Y-13830000D01*
X11740000Y-13779200D01*
X11689200Y-13830000D01*
X11740000Y-13880800D01*
X12090000Y-13380800D02*
X12140800Y-13330000D01*
X12090000Y-13279200D01*
X12039200Y-13330000D01*
X12090000Y-13380800D01*
X12440000Y-13880800D02*
X12490800Y-13830000D01*
X12440000Y-13779200D01*
X12389200Y-13830000D01*
X12440000Y-13880800D01*
X13550000Y-12145000D02*
X13700000Y-12295000D01*
X13700000Y-12145000D02*
X13550000Y-12295000D01*
X13700000Y-12220000D02*
G75*
G03X13700000Y-12220000I-75000J0D01*
G01*
X15810000Y-12145000D02*
X15960000Y-12295000D01*
X15960000Y-12145000D02*
X15810000Y-12295000D01*
X15960000Y-12220000D02*
G75*
G03X15960000Y-12220000I-75000J0D01*
G01*
D12*
X10283928Y-15398214D02*
X10283928Y-15098214D01*
X10355357Y-15098214D01*
X10398214Y-15112500D01*
X10426786Y-15141071D01*
X10441071Y-15169643D01*
X10455357Y-15226786D01*
X10455357Y-15269643D01*
X10441071Y-15326786D01*
X10426786Y-15355357D01*
X10398214Y-15383929D01*
X10355357Y-15398214D01*
X10283928Y-15398214D01*
X10583928Y-15398214D02*
X10583928Y-15198214D01*
X10583928Y-15255357D02*
X10598214Y-15226786D01*
X10612500Y-15212500D01*
X10641071Y-15198214D01*
X10669643Y-15198214D01*
X10769643Y-15398214D02*
X10769643Y-15198214D01*
X10769643Y-15098214D02*
X10755357Y-15112500D01*
X10769643Y-15126786D01*
X10783928Y-15112500D01*
X10769643Y-15098214D01*
X10769643Y-15126786D01*
X10955357Y-15398214D02*
X10926786Y-15383929D01*
X10912500Y-15355357D01*
X10912500Y-15098214D01*
X11112500Y-15398214D02*
X11083928Y-15383929D01*
X11069643Y-15355357D01*
X11069643Y-15098214D01*
X11455357Y-15398214D02*
X11455357Y-15098214D01*
X11555357Y-15312500D01*
X11655357Y-15098214D01*
X11655357Y-15398214D01*
X11926786Y-15398214D02*
X11926786Y-15241071D01*
X11912500Y-15212500D01*
X11883928Y-15198214D01*
X11826786Y-15198214D01*
X11798214Y-15212500D01*
X11926786Y-15383929D02*
X11898214Y-15398214D01*
X11826786Y-15398214D01*
X11798214Y-15383929D01*
X11783928Y-15355357D01*
X11783928Y-15326786D01*
X11798214Y-15298214D01*
X11826786Y-15283929D01*
X11898214Y-15283929D01*
X11926786Y-15269643D01*
X12069643Y-15198214D02*
X12069643Y-15498214D01*
X12069643Y-15212500D02*
X12098214Y-15198214D01*
X12155357Y-15198214D01*
X12183928Y-15212500D01*
X12198214Y-15226786D01*
X12212500Y-15255357D01*
X12212500Y-15341071D01*
X12198214Y-15369643D01*
X12183928Y-15383929D01*
X12155357Y-15398214D01*
X12098214Y-15398214D01*
X12069643Y-15383929D01*
X12341071Y-15369643D02*
X12355357Y-15383929D01*
X12341071Y-15398214D01*
X12326786Y-15383929D01*
X12341071Y-15369643D01*
X12341071Y-15398214D01*
X12341071Y-15212500D02*
X12355357Y-15226786D01*
X12341071Y-15241071D01*
X12326786Y-15226786D01*
X12341071Y-15212500D01*
X12341071Y-15241071D01*
X9957500Y-15872500D02*
X9997500Y-15912500D01*
X9997500Y-15872500D02*
X9957500Y-15912500D01*
X10341071Y-15728214D02*
X10369643Y-15728214D01*
X10398214Y-15742500D01*
X10412500Y-15756786D01*
X10426786Y-15785357D01*
X10441071Y-15842500D01*
X10441071Y-15913929D01*
X10426786Y-15971071D01*
X10412500Y-15999643D01*
X10398214Y-16013929D01*
X10369643Y-16028214D01*
X10341071Y-16028214D01*
X10312500Y-16013929D01*
X10298214Y-15999643D01*
X10283928Y-15971071D01*
X10269643Y-15913929D01*
X10269643Y-15842500D01*
X10283928Y-15785357D01*
X10298214Y-15756786D01*
X10312500Y-15742500D01*
X10341071Y-15728214D01*
X10569643Y-15999643D02*
X10583928Y-16013929D01*
X10569643Y-16028214D01*
X10555357Y-16013929D01*
X10569643Y-15999643D01*
X10569643Y-16028214D01*
X10841071Y-15828214D02*
X10841071Y-16028214D01*
X10769643Y-15713929D02*
X10698214Y-15928214D01*
X10883928Y-15928214D01*
X11055357Y-15728214D02*
X11083928Y-15728214D01*
X11112500Y-15742500D01*
X11126786Y-15756786D01*
X11141071Y-15785357D01*
X11155357Y-15842500D01*
X11155357Y-15913929D01*
X11141071Y-15971071D01*
X11126786Y-15999643D01*
X11112500Y-16013929D01*
X11083928Y-16028214D01*
X11055357Y-16028214D01*
X11026786Y-16013929D01*
X11012500Y-15999643D01*
X10998214Y-15971071D01*
X10983928Y-15913929D01*
X10983928Y-15842500D01*
X10998214Y-15785357D01*
X11012500Y-15756786D01*
X11026786Y-15742500D01*
X11055357Y-15728214D01*
X11283928Y-16028214D02*
X11283928Y-15828214D01*
X11283928Y-15856786D02*
X11298214Y-15842500D01*
X11326786Y-15828214D01*
X11369643Y-15828214D01*
X11398214Y-15842500D01*
X11412500Y-15871071D01*
X11412500Y-16028214D01*
X11412500Y-15871071D02*
X11426786Y-15842500D01*
X11455357Y-15828214D01*
X11498214Y-15828214D01*
X11526786Y-15842500D01*
X11541071Y-15871071D01*
X11541071Y-16028214D01*
X11683928Y-16028214D02*
X11683928Y-15828214D01*
X11683928Y-15856786D02*
X11698214Y-15842500D01*
X11726786Y-15828214D01*
X11769643Y-15828214D01*
X11798214Y-15842500D01*
X11812500Y-15871071D01*
X11812500Y-16028214D01*
X11812500Y-15871071D02*
X11826786Y-15842500D01*
X11855357Y-15828214D01*
X11898214Y-15828214D01*
X11926786Y-15842500D01*
X11941071Y-15871071D01*
X11941071Y-16028214D01*
X12526786Y-15713929D02*
X12269643Y-16099643D01*
X12912500Y-15728214D02*
X12941071Y-15728214D01*
X12969643Y-15742500D01*
X12983928Y-15756786D01*
X12998214Y-15785357D01*
X13012500Y-15842500D01*
X13012500Y-15913929D01*
X12998214Y-15971071D01*
X12983928Y-15999643D01*
X12969643Y-16013929D01*
X12941071Y-16028214D01*
X12912500Y-16028214D01*
X12883928Y-16013929D01*
X12869643Y-15999643D01*
X12855357Y-15971071D01*
X12841071Y-15913929D01*
X12841071Y-15842500D01*
X12855357Y-15785357D01*
X12869643Y-15756786D01*
X12883928Y-15742500D01*
X12912500Y-15728214D01*
X13141071Y-15999643D02*
X13155357Y-16013929D01*
X13141071Y-16028214D01*
X13126786Y-16013929D01*
X13141071Y-15999643D01*
X13141071Y-16028214D01*
X13341071Y-15728214D02*
X13369643Y-15728214D01*
X13398214Y-15742500D01*
X13412500Y-15756786D01*
X13426786Y-15785357D01*
X13441071Y-15842500D01*
X13441071Y-15913929D01*
X13426786Y-15971071D01*
X13412500Y-15999643D01*
X13398214Y-16013929D01*
X13369643Y-16028214D01*
X13341071Y-16028214D01*
X13312500Y-16013929D01*
X13298214Y-15999643D01*
X13283928Y-15971071D01*
X13269643Y-15913929D01*
X13269643Y-15842500D01*
X13283928Y-15785357D01*
X13298214Y-15756786D01*
X13312500Y-15742500D01*
X13341071Y-15728214D01*
X13726786Y-16028214D02*
X13555357Y-16028214D01*
X13641071Y-16028214D02*
X13641071Y-15728214D01*
X13612500Y-15771071D01*
X13583928Y-15799643D01*
X13555357Y-15813929D01*
X13983928Y-15728214D02*
X13926786Y-15728214D01*
X13898214Y-15742500D01*
X13883928Y-15756786D01*
X13855357Y-15799643D01*
X13841071Y-15856786D01*
X13841071Y-15971071D01*
X13855357Y-15999643D01*
X13869643Y-16013929D01*
X13898214Y-16028214D01*
X13955357Y-16028214D01*
X13983928Y-16013929D01*
X13998214Y-15999643D01*
X14012500Y-15971071D01*
X14012500Y-15899643D01*
X13998214Y-15871071D01*
X13983928Y-15856786D01*
X13955357Y-15842500D01*
X13898214Y-15842500D01*
X13869643Y-15856786D01*
X13855357Y-15871071D01*
X13841071Y-15899643D01*
X14126786Y-15728214D02*
X14126786Y-15785357D01*
X14241071Y-15728214D02*
X14241071Y-15785357D01*
X14683928Y-16142500D02*
X14669643Y-16128214D01*
X14641071Y-16085357D01*
X14626786Y-16056786D01*
X14612500Y-16013929D01*
X14598214Y-15942500D01*
X14598214Y-15885357D01*
X14612500Y-15813929D01*
X14626786Y-15771071D01*
X14641071Y-15742500D01*
X14669643Y-15699643D01*
X14683928Y-15685357D01*
X14955357Y-16028214D02*
X14783928Y-16028214D01*
X14869643Y-16028214D02*
X14869643Y-15728214D01*
X14841071Y-15771071D01*
X14812500Y-15799643D01*
X14783928Y-15813929D01*
X15312500Y-16028214D02*
X15312500Y-15728214D01*
X15441071Y-16028214D02*
X15441071Y-15871071D01*
X15426786Y-15842500D01*
X15398214Y-15828214D01*
X15355357Y-15828214D01*
X15326786Y-15842500D01*
X15312500Y-15856786D01*
X15626786Y-16028214D02*
X15598214Y-16013929D01*
X15583928Y-15999643D01*
X15569643Y-15971071D01*
X15569643Y-15885357D01*
X15583928Y-15856786D01*
X15598214Y-15842500D01*
X15626786Y-15828214D01*
X15669643Y-15828214D01*
X15698214Y-15842500D01*
X15712500Y-15856786D01*
X15726786Y-15885357D01*
X15726786Y-15971071D01*
X15712500Y-15999643D01*
X15698214Y-16013929D01*
X15669643Y-16028214D01*
X15626786Y-16028214D01*
X15898214Y-16028214D02*
X15869643Y-16013929D01*
X15855357Y-15985357D01*
X15855357Y-15728214D01*
X16126786Y-16013929D02*
X16098214Y-16028214D01*
X16041071Y-16028214D01*
X16012500Y-16013929D01*
X15998214Y-15985357D01*
X15998214Y-15871071D01*
X16012500Y-15842500D01*
X16041071Y-15828214D01*
X16098214Y-15828214D01*
X16126786Y-15842500D01*
X16141071Y-15871071D01*
X16141071Y-15899643D01*
X15998214Y-15928214D01*
X16241071Y-16142500D02*
X16255357Y-16128214D01*
X16283928Y-16085357D01*
X16298214Y-16056786D01*
X16312500Y-16013929D01*
X16326786Y-15942500D01*
X16326786Y-15885357D01*
X16312500Y-15813929D01*
X16298214Y-15771071D01*
X16283928Y-15742500D01*
X16255357Y-15699643D01*
X16241071Y-15685357D01*
X9997500Y-16288500D02*
G75*
G03X9997500Y-16288500I-38100J0D01*
G01*
X10341071Y-16124214D02*
X10369643Y-16124214D01*
X10398214Y-16138500D01*
X10412500Y-16152786D01*
X10426786Y-16181357D01*
X10441071Y-16238500D01*
X10441071Y-16309929D01*
X10426786Y-16367071D01*
X10412500Y-16395643D01*
X10398214Y-16409929D01*
X10369643Y-16424214D01*
X10341071Y-16424214D01*
X10312500Y-16409929D01*
X10298214Y-16395643D01*
X10283928Y-16367071D01*
X10269643Y-16309929D01*
X10269643Y-16238500D01*
X10283928Y-16181357D01*
X10298214Y-16152786D01*
X10312500Y-16138500D01*
X10341071Y-16124214D01*
X10569643Y-16395643D02*
X10583928Y-16409929D01*
X10569643Y-16424214D01*
X10555357Y-16409929D01*
X10569643Y-16395643D01*
X10569643Y-16424214D01*
X10683928Y-16124214D02*
X10883928Y-16124214D01*
X10755357Y-16424214D01*
X11126786Y-16124214D02*
X11069643Y-16124214D01*
X11041071Y-16138500D01*
X11026786Y-16152786D01*
X10998214Y-16195643D01*
X10983928Y-16252786D01*
X10983928Y-16367071D01*
X10998214Y-16395643D01*
X11012500Y-16409929D01*
X11041071Y-16424214D01*
X11098214Y-16424214D01*
X11126786Y-16409929D01*
X11141071Y-16395643D01*
X11155357Y-16367071D01*
X11155357Y-16295643D01*
X11141071Y-16267071D01*
X11126786Y-16252786D01*
X11098214Y-16238500D01*
X11041071Y-16238500D01*
X11012500Y-16252786D01*
X10998214Y-16267071D01*
X10983928Y-16295643D01*
X11283928Y-16424214D02*
X11283928Y-16224214D01*
X11283928Y-16252786D02*
X11298214Y-16238500D01*
X11326786Y-16224214D01*
X11369643Y-16224214D01*
X11398214Y-16238500D01*
X11412500Y-16267071D01*
X11412500Y-16424214D01*
X11412500Y-16267071D02*
X11426786Y-16238500D01*
X11455357Y-16224214D01*
X11498214Y-16224214D01*
X11526786Y-16238500D01*
X11541071Y-16267071D01*
X11541071Y-16424214D01*
X11683928Y-16424214D02*
X11683928Y-16224214D01*
X11683928Y-16252786D02*
X11698214Y-16238500D01*
X11726786Y-16224214D01*
X11769643Y-16224214D01*
X11798214Y-16238500D01*
X11812500Y-16267071D01*
X11812500Y-16424214D01*
X11812500Y-16267071D02*
X11826786Y-16238500D01*
X11855357Y-16224214D01*
X11898214Y-16224214D01*
X11926786Y-16238500D01*
X11941071Y-16267071D01*
X11941071Y-16424214D01*
X12526786Y-16109929D02*
X12269643Y-16495643D01*
X12912500Y-16124214D02*
X12941071Y-16124214D01*
X12969643Y-16138500D01*
X12983928Y-16152786D01*
X12998214Y-16181357D01*
X13012500Y-16238500D01*
X13012500Y-16309929D01*
X12998214Y-16367071D01*
X12983928Y-16395643D01*
X12969643Y-16409929D01*
X12941071Y-16424214D01*
X12912500Y-16424214D01*
X12883928Y-16409929D01*
X12869643Y-16395643D01*
X12855357Y-16367071D01*
X12841071Y-16309929D01*
X12841071Y-16238500D01*
X12855357Y-16181357D01*
X12869643Y-16152786D01*
X12883928Y-16138500D01*
X12912500Y-16124214D01*
X13141071Y-16395643D02*
X13155357Y-16409929D01*
X13141071Y-16424214D01*
X13126786Y-16409929D01*
X13141071Y-16395643D01*
X13141071Y-16424214D01*
X13341071Y-16124214D02*
X13369643Y-16124214D01*
X13398214Y-16138500D01*
X13412500Y-16152786D01*
X13426786Y-16181357D01*
X13441071Y-16238500D01*
X13441071Y-16309929D01*
X13426786Y-16367071D01*
X13412500Y-16395643D01*
X13398214Y-16409929D01*
X13369643Y-16424214D01*
X13341071Y-16424214D01*
X13312500Y-16409929D01*
X13298214Y-16395643D01*
X13283928Y-16367071D01*
X13269643Y-16309929D01*
X13269643Y-16238500D01*
X13283928Y-16181357D01*
X13298214Y-16152786D01*
X13312500Y-16138500D01*
X13341071Y-16124214D01*
X13541071Y-16124214D02*
X13726786Y-16124214D01*
X13626786Y-16238500D01*
X13669643Y-16238500D01*
X13698214Y-16252786D01*
X13712500Y-16267071D01*
X13726786Y-16295643D01*
X13726786Y-16367071D01*
X13712500Y-16395643D01*
X13698214Y-16409929D01*
X13669643Y-16424214D01*
X13583928Y-16424214D01*
X13555357Y-16409929D01*
X13541071Y-16395643D01*
X13912500Y-16124214D02*
X13941071Y-16124214D01*
X13969643Y-16138500D01*
X13983928Y-16152786D01*
X13998214Y-16181357D01*
X14012500Y-16238500D01*
X14012500Y-16309929D01*
X13998214Y-16367071D01*
X13983928Y-16395643D01*
X13969643Y-16409929D01*
X13941071Y-16424214D01*
X13912500Y-16424214D01*
X13883928Y-16409929D01*
X13869643Y-16395643D01*
X13855357Y-16367071D01*
X13841071Y-16309929D01*
X13841071Y-16238500D01*
X13855357Y-16181357D01*
X13869643Y-16152786D01*
X13883928Y-16138500D01*
X13912500Y-16124214D01*
X14126786Y-16124214D02*
X14126786Y-16181357D01*
X14241071Y-16124214D02*
X14241071Y-16181357D01*
X14683928Y-16538500D02*
X14669643Y-16524214D01*
X14641071Y-16481357D01*
X14626786Y-16452786D01*
X14612500Y-16409929D01*
X14598214Y-16338500D01*
X14598214Y-16281357D01*
X14612500Y-16209929D01*
X14626786Y-16167071D01*
X14641071Y-16138500D01*
X14669643Y-16095643D01*
X14683928Y-16081357D01*
X14926786Y-16224214D02*
X14926786Y-16424214D01*
X14855357Y-16109929D02*
X14783928Y-16324214D01*
X14969643Y-16324214D01*
X15312500Y-16424214D02*
X15312500Y-16124214D01*
X15441071Y-16424214D02*
X15441071Y-16267071D01*
X15426786Y-16238500D01*
X15398214Y-16224214D01*
X15355357Y-16224214D01*
X15326786Y-16238500D01*
X15312500Y-16252786D01*
X15626786Y-16424214D02*
X15598214Y-16409929D01*
X15583928Y-16395643D01*
X15569643Y-16367071D01*
X15569643Y-16281357D01*
X15583928Y-16252786D01*
X15598214Y-16238500D01*
X15626786Y-16224214D01*
X15669643Y-16224214D01*
X15698214Y-16238500D01*
X15712500Y-16252786D01*
X15726786Y-16281357D01*
X15726786Y-16367071D01*
X15712500Y-16395643D01*
X15698214Y-16409929D01*
X15669643Y-16424214D01*
X15626786Y-16424214D01*
X15898214Y-16424214D02*
X15869643Y-16409929D01*
X15855357Y-16381357D01*
X15855357Y-16124214D01*
X16126786Y-16409929D02*
X16098214Y-16424214D01*
X16041071Y-16424214D01*
X16012500Y-16409929D01*
X15998214Y-16381357D01*
X15998214Y-16267071D01*
X16012500Y-16238500D01*
X16041071Y-16224214D01*
X16098214Y-16224214D01*
X16126786Y-16238500D01*
X16141071Y-16267071D01*
X16141071Y-16295643D01*
X15998214Y-16324214D01*
X16255357Y-16409929D02*
X16283928Y-16424214D01*
X16341071Y-16424214D01*
X16369643Y-16409929D01*
X16383928Y-16381357D01*
X16383928Y-16367071D01*
X16369643Y-16338500D01*
X16341071Y-16324214D01*
X16298214Y-16324214D01*
X16269643Y-16309929D01*
X16255357Y-16281357D01*
X16255357Y-16267071D01*
X16269643Y-16238500D01*
X16298214Y-16224214D01*
X16341071Y-16224214D01*
X16369643Y-16238500D01*
X16483928Y-16538500D02*
X16498214Y-16524214D01*
X16526786Y-16481357D01*
X16541071Y-16452786D01*
X16555357Y-16409929D01*
X16569643Y-16338500D01*
X16569643Y-16281357D01*
X16555357Y-16209929D01*
X16541071Y-16167071D01*
X16526786Y-16138500D01*
X16498214Y-16095643D01*
X16483928Y-16081357D01*
X9957500Y-16644500D02*
X9957500Y-16724500D01*
X9917500Y-16684500D02*
X9997500Y-16684500D01*
X10341071Y-16520214D02*
X10369643Y-16520214D01*
X10398214Y-16534500D01*
X10412500Y-16548786D01*
X10426786Y-16577357D01*
X10441071Y-16634500D01*
X10441071Y-16705929D01*
X10426786Y-16763071D01*
X10412500Y-16791643D01*
X10398214Y-16805929D01*
X10369643Y-16820214D01*
X10341071Y-16820214D01*
X10312500Y-16805929D01*
X10298214Y-16791643D01*
X10283928Y-16763071D01*
X10269643Y-16705929D01*
X10269643Y-16634500D01*
X10283928Y-16577357D01*
X10298214Y-16548786D01*
X10312500Y-16534500D01*
X10341071Y-16520214D01*
X10569643Y-16791643D02*
X10583928Y-16805929D01*
X10569643Y-16820214D01*
X10555357Y-16805929D01*
X10569643Y-16791643D01*
X10569643Y-16820214D01*
X10755357Y-16648786D02*
X10726786Y-16634500D01*
X10712500Y-16620214D01*
X10698214Y-16591643D01*
X10698214Y-16577357D01*
X10712500Y-16548786D01*
X10726786Y-16534500D01*
X10755357Y-16520214D01*
X10812500Y-16520214D01*
X10841071Y-16534500D01*
X10855357Y-16548786D01*
X10869643Y-16577357D01*
X10869643Y-16591643D01*
X10855357Y-16620214D01*
X10841071Y-16634500D01*
X10812500Y-16648786D01*
X10755357Y-16648786D01*
X10726786Y-16663071D01*
X10712500Y-16677357D01*
X10698214Y-16705929D01*
X10698214Y-16763071D01*
X10712500Y-16791643D01*
X10726786Y-16805929D01*
X10755357Y-16820214D01*
X10812500Y-16820214D01*
X10841071Y-16805929D01*
X10855357Y-16791643D01*
X10869643Y-16763071D01*
X10869643Y-16705929D01*
X10855357Y-16677357D01*
X10841071Y-16663071D01*
X10812500Y-16648786D01*
X11055357Y-16520214D02*
X11083928Y-16520214D01*
X11112500Y-16534500D01*
X11126786Y-16548786D01*
X11141071Y-16577357D01*
X11155357Y-16634500D01*
X11155357Y-16705929D01*
X11141071Y-16763071D01*
X11126786Y-16791643D01*
X11112500Y-16805929D01*
X11083928Y-16820214D01*
X11055357Y-16820214D01*
X11026786Y-16805929D01*
X11012500Y-16791643D01*
X10998214Y-16763071D01*
X10983928Y-16705929D01*
X10983928Y-16634500D01*
X10998214Y-16577357D01*
X11012500Y-16548786D01*
X11026786Y-16534500D01*
X11055357Y-16520214D01*
X11283928Y-16820214D02*
X11283928Y-16620214D01*
X11283928Y-16648786D02*
X11298214Y-16634500D01*
X11326786Y-16620214D01*
X11369643Y-16620214D01*
X11398214Y-16634500D01*
X11412500Y-16663071D01*
X11412500Y-16820214D01*
X11412500Y-16663071D02*
X11426786Y-16634500D01*
X11455357Y-16620214D01*
X11498214Y-16620214D01*
X11526786Y-16634500D01*
X11541071Y-16663071D01*
X11541071Y-16820214D01*
X11683928Y-16820214D02*
X11683928Y-16620214D01*
X11683928Y-16648786D02*
X11698214Y-16634500D01*
X11726786Y-16620214D01*
X11769643Y-16620214D01*
X11798214Y-16634500D01*
X11812500Y-16663071D01*
X11812500Y-16820214D01*
X11812500Y-16663071D02*
X11826786Y-16634500D01*
X11855357Y-16620214D01*
X11898214Y-16620214D01*
X11926786Y-16634500D01*
X11941071Y-16663071D01*
X11941071Y-16820214D01*
X12526786Y-16505929D02*
X12269643Y-16891643D01*
X12912500Y-16520214D02*
X12941071Y-16520214D01*
X12969643Y-16534500D01*
X12983928Y-16548786D01*
X12998214Y-16577357D01*
X13012500Y-16634500D01*
X13012500Y-16705929D01*
X12998214Y-16763071D01*
X12983928Y-16791643D01*
X12969643Y-16805929D01*
X12941071Y-16820214D01*
X12912500Y-16820214D01*
X12883928Y-16805929D01*
X12869643Y-16791643D01*
X12855357Y-16763071D01*
X12841071Y-16705929D01*
X12841071Y-16634500D01*
X12855357Y-16577357D01*
X12869643Y-16548786D01*
X12883928Y-16534500D01*
X12912500Y-16520214D01*
X13141071Y-16791643D02*
X13155357Y-16805929D01*
X13141071Y-16820214D01*
X13126786Y-16805929D01*
X13141071Y-16791643D01*
X13141071Y-16820214D01*
X13341071Y-16520214D02*
X13369643Y-16520214D01*
X13398214Y-16534500D01*
X13412500Y-16548786D01*
X13426786Y-16577357D01*
X13441071Y-16634500D01*
X13441071Y-16705929D01*
X13426786Y-16763071D01*
X13412500Y-16791643D01*
X13398214Y-16805929D01*
X13369643Y-16820214D01*
X13341071Y-16820214D01*
X13312500Y-16805929D01*
X13298214Y-16791643D01*
X13283928Y-16763071D01*
X13269643Y-16705929D01*
X13269643Y-16634500D01*
X13283928Y-16577357D01*
X13298214Y-16548786D01*
X13312500Y-16534500D01*
X13341071Y-16520214D01*
X13541071Y-16520214D02*
X13726786Y-16520214D01*
X13626786Y-16634500D01*
X13669643Y-16634500D01*
X13698214Y-16648786D01*
X13712500Y-16663071D01*
X13726786Y-16691643D01*
X13726786Y-16763071D01*
X13712500Y-16791643D01*
X13698214Y-16805929D01*
X13669643Y-16820214D01*
X13583928Y-16820214D01*
X13555357Y-16805929D01*
X13541071Y-16791643D01*
X14012500Y-16820214D02*
X13841071Y-16820214D01*
X13926786Y-16820214D02*
X13926786Y-16520214D01*
X13898214Y-16563071D01*
X13869643Y-16591643D01*
X13841071Y-16605929D01*
X14126786Y-16520214D02*
X14126786Y-16577357D01*
X14241071Y-16520214D02*
X14241071Y-16577357D01*
X14683928Y-16934500D02*
X14669643Y-16920214D01*
X14641071Y-16877357D01*
X14626786Y-16848786D01*
X14612500Y-16805929D01*
X14598214Y-16734500D01*
X14598214Y-16677357D01*
X14612500Y-16605929D01*
X14626786Y-16563071D01*
X14641071Y-16534500D01*
X14669643Y-16491643D01*
X14683928Y-16477357D01*
X14955357Y-16820214D02*
X14783928Y-16820214D01*
X14869643Y-16820214D02*
X14869643Y-16520214D01*
X14841071Y-16563071D01*
X14812500Y-16591643D01*
X14783928Y-16605929D01*
X15141071Y-16520214D02*
X15169643Y-16520214D01*
X15198214Y-16534500D01*
X15212500Y-16548786D01*
X15226786Y-16577357D01*
X15241071Y-16634500D01*
X15241071Y-16705929D01*
X15226786Y-16763071D01*
X15212500Y-16791643D01*
X15198214Y-16805929D01*
X15169643Y-16820214D01*
X15141071Y-16820214D01*
X15112500Y-16805929D01*
X15098214Y-16791643D01*
X15083928Y-16763071D01*
X15069643Y-16705929D01*
X15069643Y-16634500D01*
X15083928Y-16577357D01*
X15098214Y-16548786D01*
X15112500Y-16534500D01*
X15141071Y-16520214D01*
X15598214Y-16820214D02*
X15598214Y-16520214D01*
X15726786Y-16820214D02*
X15726786Y-16663071D01*
X15712500Y-16634500D01*
X15683928Y-16620214D01*
X15641071Y-16620214D01*
X15612500Y-16634500D01*
X15598214Y-16648786D01*
X15912500Y-16820214D02*
X15883928Y-16805929D01*
X15869643Y-16791643D01*
X15855357Y-16763071D01*
X15855357Y-16677357D01*
X15869643Y-16648786D01*
X15883928Y-16634500D01*
X15912500Y-16620214D01*
X15955357Y-16620214D01*
X15983928Y-16634500D01*
X15998214Y-16648786D01*
X16012500Y-16677357D01*
X16012500Y-16763071D01*
X15998214Y-16791643D01*
X15983928Y-16805929D01*
X15955357Y-16820214D01*
X15912500Y-16820214D01*
X16183928Y-16820214D02*
X16155357Y-16805929D01*
X16141071Y-16777357D01*
X16141071Y-16520214D01*
X16412500Y-16805929D02*
X16383928Y-16820214D01*
X16326786Y-16820214D01*
X16298214Y-16805929D01*
X16283928Y-16777357D01*
X16283928Y-16663071D01*
X16298214Y-16634500D01*
X16326786Y-16620214D01*
X16383928Y-16620214D01*
X16412500Y-16634500D01*
X16426786Y-16663071D01*
X16426786Y-16691643D01*
X16283928Y-16720214D01*
X16541071Y-16805929D02*
X16569643Y-16820214D01*
X16626786Y-16820214D01*
X16655357Y-16805929D01*
X16669643Y-16777357D01*
X16669643Y-16763071D01*
X16655357Y-16734500D01*
X16626786Y-16720214D01*
X16583928Y-16720214D01*
X16555357Y-16705929D01*
X16541071Y-16677357D01*
X16541071Y-16663071D01*
X16555357Y-16634500D01*
X16583928Y-16620214D01*
X16626786Y-16620214D01*
X16655357Y-16634500D01*
X16769643Y-16934500D02*
X16783928Y-16920214D01*
X16812500Y-16877357D01*
X16826786Y-16848786D01*
X16841071Y-16805929D01*
X16855357Y-16734500D01*
X16855357Y-16677357D01*
X16841071Y-16605929D01*
X16826786Y-16563071D01*
X16812500Y-16534500D01*
X16783928Y-16491643D01*
X16769643Y-16477357D01*
X9984320Y-17112320D02*
X9984320Y-17048680D01*
X9920680Y-17048680D01*
X9920680Y-17112320D01*
X9984320Y-17112320D01*
X10341071Y-16916214D02*
X10369643Y-16916214D01*
X10398214Y-16930500D01*
X10412500Y-16944786D01*
X10426786Y-16973357D01*
X10441071Y-17030500D01*
X10441071Y-17101929D01*
X10426786Y-17159072D01*
X10412500Y-17187643D01*
X10398214Y-17201929D01*
X10369643Y-17216214D01*
X10341071Y-17216214D01*
X10312500Y-17201929D01*
X10298214Y-17187643D01*
X10283928Y-17159072D01*
X10269643Y-17101929D01*
X10269643Y-17030500D01*
X10283928Y-16973357D01*
X10298214Y-16944786D01*
X10312500Y-16930500D01*
X10341071Y-16916214D01*
X10569643Y-17187643D02*
X10583928Y-17201929D01*
X10569643Y-17216214D01*
X10555357Y-17201929D01*
X10569643Y-17187643D01*
X10569643Y-17216214D01*
X10726786Y-17216214D02*
X10783928Y-17216214D01*
X10812500Y-17201929D01*
X10826786Y-17187643D01*
X10855357Y-17144786D01*
X10869643Y-17087643D01*
X10869643Y-16973357D01*
X10855357Y-16944786D01*
X10841071Y-16930500D01*
X10812500Y-16916214D01*
X10755357Y-16916214D01*
X10726786Y-16930500D01*
X10712500Y-16944786D01*
X10698214Y-16973357D01*
X10698214Y-17044786D01*
X10712500Y-17073357D01*
X10726786Y-17087643D01*
X10755357Y-17101929D01*
X10812500Y-17101929D01*
X10841071Y-17087643D01*
X10855357Y-17073357D01*
X10869643Y-17044786D01*
X11055357Y-16916214D02*
X11083928Y-16916214D01*
X11112500Y-16930500D01*
X11126786Y-16944786D01*
X11141071Y-16973357D01*
X11155357Y-17030500D01*
X11155357Y-17101929D01*
X11141071Y-17159072D01*
X11126786Y-17187643D01*
X11112500Y-17201929D01*
X11083928Y-17216214D01*
X11055357Y-17216214D01*
X11026786Y-17201929D01*
X11012500Y-17187643D01*
X10998214Y-17159072D01*
X10983928Y-17101929D01*
X10983928Y-17030500D01*
X10998214Y-16973357D01*
X11012500Y-16944786D01*
X11026786Y-16930500D01*
X11055357Y-16916214D01*
X11283928Y-17216214D02*
X11283928Y-17016214D01*
X11283928Y-17044786D02*
X11298214Y-17030500D01*
X11326786Y-17016214D01*
X11369643Y-17016214D01*
X11398214Y-17030500D01*
X11412500Y-17059072D01*
X11412500Y-17216214D01*
X11412500Y-17059072D02*
X11426786Y-17030500D01*
X11455357Y-17016214D01*
X11498214Y-17016214D01*
X11526786Y-17030500D01*
X11541071Y-17059072D01*
X11541071Y-17216214D01*
X11683928Y-17216214D02*
X11683928Y-17016214D01*
X11683928Y-17044786D02*
X11698214Y-17030500D01*
X11726786Y-17016214D01*
X11769643Y-17016214D01*
X11798214Y-17030500D01*
X11812500Y-17059072D01*
X11812500Y-17216214D01*
X11812500Y-17059072D02*
X11826786Y-17030500D01*
X11855357Y-17016214D01*
X11898214Y-17016214D01*
X11926786Y-17030500D01*
X11941071Y-17059072D01*
X11941071Y-17216214D01*
X12526786Y-16901929D02*
X12269643Y-17287643D01*
X12912500Y-16916214D02*
X12941071Y-16916214D01*
X12969643Y-16930500D01*
X12983928Y-16944786D01*
X12998214Y-16973357D01*
X13012500Y-17030500D01*
X13012500Y-17101929D01*
X12998214Y-17159072D01*
X12983928Y-17187643D01*
X12969643Y-17201929D01*
X12941071Y-17216214D01*
X12912500Y-17216214D01*
X12883928Y-17201929D01*
X12869643Y-17187643D01*
X12855357Y-17159072D01*
X12841071Y-17101929D01*
X12841071Y-17030500D01*
X12855357Y-16973357D01*
X12869643Y-16944786D01*
X12883928Y-16930500D01*
X12912500Y-16916214D01*
X13141071Y-17187643D02*
X13155357Y-17201929D01*
X13141071Y-17216214D01*
X13126786Y-17201929D01*
X13141071Y-17187643D01*
X13141071Y-17216214D01*
X13341071Y-16916214D02*
X13369643Y-16916214D01*
X13398214Y-16930500D01*
X13412500Y-16944786D01*
X13426786Y-16973357D01*
X13441071Y-17030500D01*
X13441071Y-17101929D01*
X13426786Y-17159072D01*
X13412500Y-17187643D01*
X13398214Y-17201929D01*
X13369643Y-17216214D01*
X13341071Y-17216214D01*
X13312500Y-17201929D01*
X13298214Y-17187643D01*
X13283928Y-17159072D01*
X13269643Y-17101929D01*
X13269643Y-17030500D01*
X13283928Y-16973357D01*
X13298214Y-16944786D01*
X13312500Y-16930500D01*
X13341071Y-16916214D01*
X13541071Y-16916214D02*
X13726786Y-16916214D01*
X13626786Y-17030500D01*
X13669643Y-17030500D01*
X13698214Y-17044786D01*
X13712500Y-17059072D01*
X13726786Y-17087643D01*
X13726786Y-17159072D01*
X13712500Y-17187643D01*
X13698214Y-17201929D01*
X13669643Y-17216214D01*
X13583928Y-17216214D01*
X13555357Y-17201929D01*
X13541071Y-17187643D01*
X13998214Y-16916214D02*
X13855357Y-16916214D01*
X13841071Y-17059072D01*
X13855357Y-17044786D01*
X13883928Y-17030500D01*
X13955357Y-17030500D01*
X13983928Y-17044786D01*
X13998214Y-17059072D01*
X14012500Y-17087643D01*
X14012500Y-17159072D01*
X13998214Y-17187643D01*
X13983928Y-17201929D01*
X13955357Y-17216214D01*
X13883928Y-17216214D01*
X13855357Y-17201929D01*
X13841071Y-17187643D01*
X14126786Y-16916214D02*
X14126786Y-16973357D01*
X14241071Y-16916214D02*
X14241071Y-16973357D01*
X14683928Y-17330500D02*
X14669643Y-17316214D01*
X14641071Y-17273357D01*
X14626786Y-17244786D01*
X14612500Y-17201929D01*
X14598214Y-17130500D01*
X14598214Y-17073357D01*
X14612500Y-17001929D01*
X14626786Y-16959072D01*
X14641071Y-16930500D01*
X14669643Y-16887643D01*
X14683928Y-16873357D01*
X14955357Y-17216214D02*
X14783928Y-17216214D01*
X14869643Y-17216214D02*
X14869643Y-16916214D01*
X14841071Y-16959072D01*
X14812500Y-16987643D01*
X14783928Y-17001929D01*
X15241071Y-17216214D02*
X15069643Y-17216214D01*
X15155357Y-17216214D02*
X15155357Y-16916214D01*
X15126786Y-16959072D01*
X15098214Y-16987643D01*
X15069643Y-17001929D01*
X15598214Y-17216214D02*
X15598214Y-16916214D01*
X15726786Y-17216214D02*
X15726786Y-17059072D01*
X15712500Y-17030500D01*
X15683928Y-17016214D01*
X15641071Y-17016214D01*
X15612500Y-17030500D01*
X15598214Y-17044786D01*
X15912500Y-17216214D02*
X15883928Y-17201929D01*
X15869643Y-17187643D01*
X15855357Y-17159072D01*
X15855357Y-17073357D01*
X15869643Y-17044786D01*
X15883928Y-17030500D01*
X15912500Y-17016214D01*
X15955357Y-17016214D01*
X15983928Y-17030500D01*
X15998214Y-17044786D01*
X16012500Y-17073357D01*
X16012500Y-17159072D01*
X15998214Y-17187643D01*
X15983928Y-17201929D01*
X15955357Y-17216214D01*
X15912500Y-17216214D01*
X16183928Y-17216214D02*
X16155357Y-17201929D01*
X16141071Y-17173357D01*
X16141071Y-16916214D01*
X16412500Y-17201929D02*
X16383928Y-17216214D01*
X16326786Y-17216214D01*
X16298214Y-17201929D01*
X16283928Y-17173357D01*
X16283928Y-17059072D01*
X16298214Y-17030500D01*
X16326786Y-17016214D01*
X16383928Y-17016214D01*
X16412500Y-17030500D01*
X16426786Y-17059072D01*
X16426786Y-17087643D01*
X16283928Y-17116214D01*
X16541071Y-17201929D02*
X16569643Y-17216214D01*
X16626786Y-17216214D01*
X16655357Y-17201929D01*
X16669643Y-17173357D01*
X16669643Y-17159072D01*
X16655357Y-17130500D01*
X16626786Y-17116214D01*
X16583928Y-17116214D01*
X16555357Y-17101929D01*
X16541071Y-17073357D01*
X16541071Y-17059072D01*
X16555357Y-17030500D01*
X16583928Y-17016214D01*
X16626786Y-17016214D01*
X16655357Y-17030500D01*
X16769643Y-17330500D02*
X16783928Y-17316214D01*
X16812500Y-17273357D01*
X16826786Y-17244786D01*
X16841071Y-17201929D01*
X16855357Y-17130500D01*
X16855357Y-17073357D01*
X16841071Y-17001929D01*
X16826786Y-16959072D01*
X16812500Y-16930500D01*
X16783928Y-16887643D01*
X16769643Y-16873357D01*
X9946700Y-17527300D02*
X9997500Y-17476500D01*
X9946700Y-17425700D01*
X9895900Y-17476500D01*
X9946700Y-17527300D01*
X10441071Y-17612214D02*
X10269643Y-17612214D01*
X10355357Y-17612214D02*
X10355357Y-17312214D01*
X10326786Y-17355072D01*
X10298214Y-17383643D01*
X10269643Y-17397929D01*
X10569643Y-17583643D02*
X10583928Y-17597929D01*
X10569643Y-17612214D01*
X10555357Y-17597929D01*
X10569643Y-17583643D01*
X10569643Y-17612214D01*
X10769643Y-17312214D02*
X10798214Y-17312214D01*
X10826786Y-17326500D01*
X10841071Y-17340786D01*
X10855357Y-17369357D01*
X10869643Y-17426500D01*
X10869643Y-17497929D01*
X10855357Y-17555072D01*
X10841071Y-17583643D01*
X10826786Y-17597929D01*
X10798214Y-17612214D01*
X10769643Y-17612214D01*
X10741071Y-17597929D01*
X10726786Y-17583643D01*
X10712500Y-17555072D01*
X10698214Y-17497929D01*
X10698214Y-17426500D01*
X10712500Y-17369357D01*
X10726786Y-17340786D01*
X10741071Y-17326500D01*
X10769643Y-17312214D01*
X10983928Y-17340786D02*
X10998214Y-17326500D01*
X11026786Y-17312214D01*
X11098214Y-17312214D01*
X11126786Y-17326500D01*
X11141071Y-17340786D01*
X11155357Y-17369357D01*
X11155357Y-17397929D01*
X11141071Y-17440786D01*
X10969643Y-17612214D01*
X11155357Y-17612214D01*
X11283928Y-17612214D02*
X11283928Y-17412214D01*
X11283928Y-17440786D02*
X11298214Y-17426500D01*
X11326786Y-17412214D01*
X11369643Y-17412214D01*
X11398214Y-17426500D01*
X11412500Y-17455072D01*
X11412500Y-17612214D01*
X11412500Y-17455072D02*
X11426786Y-17426500D01*
X11455357Y-17412214D01*
X11498214Y-17412214D01*
X11526786Y-17426500D01*
X11541071Y-17455072D01*
X11541071Y-17612214D01*
X11683928Y-17612214D02*
X11683928Y-17412214D01*
X11683928Y-17440786D02*
X11698214Y-17426500D01*
X11726786Y-17412214D01*
X11769643Y-17412214D01*
X11798214Y-17426500D01*
X11812500Y-17455072D01*
X11812500Y-17612214D01*
X11812500Y-17455072D02*
X11826786Y-17426500D01*
X11855357Y-17412214D01*
X11898214Y-17412214D01*
X11926786Y-17426500D01*
X11941071Y-17455072D01*
X11941071Y-17612214D01*
X12526786Y-17297929D02*
X12269643Y-17683643D01*
X12912500Y-17312214D02*
X12941071Y-17312214D01*
X12969643Y-17326500D01*
X12983928Y-17340786D01*
X12998214Y-17369357D01*
X13012500Y-17426500D01*
X13012500Y-17497929D01*
X12998214Y-17555072D01*
X12983928Y-17583643D01*
X12969643Y-17597929D01*
X12941071Y-17612214D01*
X12912500Y-17612214D01*
X12883928Y-17597929D01*
X12869643Y-17583643D01*
X12855357Y-17555072D01*
X12841071Y-17497929D01*
X12841071Y-17426500D01*
X12855357Y-17369357D01*
X12869643Y-17340786D01*
X12883928Y-17326500D01*
X12912500Y-17312214D01*
X13141071Y-17583643D02*
X13155357Y-17597929D01*
X13141071Y-17612214D01*
X13126786Y-17597929D01*
X13141071Y-17583643D01*
X13141071Y-17612214D01*
X13341071Y-17312214D02*
X13369643Y-17312214D01*
X13398214Y-17326500D01*
X13412500Y-17340786D01*
X13426786Y-17369357D01*
X13441071Y-17426500D01*
X13441071Y-17497929D01*
X13426786Y-17555072D01*
X13412500Y-17583643D01*
X13398214Y-17597929D01*
X13369643Y-17612214D01*
X13341071Y-17612214D01*
X13312500Y-17597929D01*
X13298214Y-17583643D01*
X13283928Y-17555072D01*
X13269643Y-17497929D01*
X13269643Y-17426500D01*
X13283928Y-17369357D01*
X13298214Y-17340786D01*
X13312500Y-17326500D01*
X13341071Y-17312214D01*
X13698214Y-17412214D02*
X13698214Y-17612214D01*
X13626786Y-17297929D02*
X13555357Y-17512214D01*
X13741071Y-17512214D01*
X13912500Y-17312214D02*
X13941071Y-17312214D01*
X13969643Y-17326500D01*
X13983928Y-17340786D01*
X13998214Y-17369357D01*
X14012500Y-17426500D01*
X14012500Y-17497929D01*
X13998214Y-17555072D01*
X13983928Y-17583643D01*
X13969643Y-17597929D01*
X13941071Y-17612214D01*
X13912500Y-17612214D01*
X13883928Y-17597929D01*
X13869643Y-17583643D01*
X13855357Y-17555072D01*
X13841071Y-17497929D01*
X13841071Y-17426500D01*
X13855357Y-17369357D01*
X13869643Y-17340786D01*
X13883928Y-17326500D01*
X13912500Y-17312214D01*
X14126786Y-17312214D02*
X14126786Y-17369357D01*
X14241071Y-17312214D02*
X14241071Y-17369357D01*
X14683928Y-17726500D02*
X14669643Y-17712214D01*
X14641071Y-17669357D01*
X14626786Y-17640786D01*
X14612500Y-17597929D01*
X14598214Y-17526500D01*
X14598214Y-17469357D01*
X14612500Y-17397929D01*
X14626786Y-17355072D01*
X14641071Y-17326500D01*
X14669643Y-17283643D01*
X14683928Y-17269357D01*
X14926786Y-17412214D02*
X14926786Y-17612214D01*
X14855357Y-17297929D02*
X14783928Y-17512214D01*
X14969643Y-17512214D01*
X15241071Y-17612214D02*
X15069643Y-17612214D01*
X15155357Y-17612214D02*
X15155357Y-17312214D01*
X15126786Y-17355072D01*
X15098214Y-17383643D01*
X15069643Y-17397929D01*
X15598214Y-17612214D02*
X15598214Y-17312214D01*
X15726786Y-17612214D02*
X15726786Y-17455072D01*
X15712500Y-17426500D01*
X15683928Y-17412214D01*
X15641071Y-17412214D01*
X15612500Y-17426500D01*
X15598214Y-17440786D01*
X15912500Y-17612214D02*
X15883928Y-17597929D01*
X15869643Y-17583643D01*
X15855357Y-17555072D01*
X15855357Y-17469357D01*
X15869643Y-17440786D01*
X15883928Y-17426500D01*
X15912500Y-17412214D01*
X15955357Y-17412214D01*
X15983928Y-17426500D01*
X15998214Y-17440786D01*
X16012500Y-17469357D01*
X16012500Y-17555072D01*
X15998214Y-17583643D01*
X15983928Y-17597929D01*
X15955357Y-17612214D01*
X15912500Y-17612214D01*
X16183928Y-17612214D02*
X16155357Y-17597929D01*
X16141071Y-17569357D01*
X16141071Y-17312214D01*
X16412500Y-17597929D02*
X16383928Y-17612214D01*
X16326786Y-17612214D01*
X16298214Y-17597929D01*
X16283928Y-17569357D01*
X16283928Y-17455072D01*
X16298214Y-17426500D01*
X16326786Y-17412214D01*
X16383928Y-17412214D01*
X16412500Y-17426500D01*
X16426786Y-17455072D01*
X16426786Y-17483643D01*
X16283928Y-17512214D01*
X16541071Y-17597929D02*
X16569643Y-17612214D01*
X16626786Y-17612214D01*
X16655357Y-17597929D01*
X16669643Y-17569357D01*
X16669643Y-17555072D01*
X16655357Y-17526500D01*
X16626786Y-17512214D01*
X16583928Y-17512214D01*
X16555357Y-17497929D01*
X16541071Y-17469357D01*
X16541071Y-17455072D01*
X16555357Y-17426500D01*
X16583928Y-17412214D01*
X16626786Y-17412214D01*
X16655357Y-17426500D01*
X16769643Y-17726500D02*
X16783928Y-17712214D01*
X16812500Y-17669357D01*
X16826786Y-17640786D01*
X16841071Y-17597929D01*
X16855357Y-17526500D01*
X16855357Y-17469357D01*
X16841071Y-17397929D01*
X16826786Y-17355072D01*
X16812500Y-17326500D01*
X16783928Y-17283643D01*
X16769643Y-17269357D01*
X9847500Y-17797500D02*
X9997500Y-17947500D01*
X9997500Y-17797500D02*
X9847500Y-17947500D01*
X9997500Y-17872500D02*
G75*
G03X9997500Y-17872500I-75000J0D01*
G01*
X10441071Y-18008214D02*
X10269643Y-18008214D01*
X10355357Y-18008214D02*
X10355357Y-17708214D01*
X10326786Y-17751072D01*
X10298214Y-17779643D01*
X10269643Y-17793929D01*
X10569643Y-17979643D02*
X10583928Y-17993929D01*
X10569643Y-18008214D01*
X10555357Y-17993929D01*
X10569643Y-17979643D01*
X10569643Y-18008214D01*
X10855357Y-17708214D02*
X10712500Y-17708214D01*
X10698214Y-17851072D01*
X10712500Y-17836786D01*
X10741071Y-17822500D01*
X10812500Y-17822500D01*
X10841071Y-17836786D01*
X10855357Y-17851072D01*
X10869643Y-17879643D01*
X10869643Y-17951072D01*
X10855357Y-17979643D01*
X10841071Y-17993929D01*
X10812500Y-18008214D01*
X10741071Y-18008214D01*
X10712500Y-17993929D01*
X10698214Y-17979643D01*
X11055357Y-17708214D02*
X11083928Y-17708214D01*
X11112500Y-17722500D01*
X11126786Y-17736786D01*
X11141071Y-17765357D01*
X11155357Y-17822500D01*
X11155357Y-17893929D01*
X11141071Y-17951072D01*
X11126786Y-17979643D01*
X11112500Y-17993929D01*
X11083928Y-18008214D01*
X11055357Y-18008214D01*
X11026786Y-17993929D01*
X11012500Y-17979643D01*
X10998214Y-17951072D01*
X10983928Y-17893929D01*
X10983928Y-17822500D01*
X10998214Y-17765357D01*
X11012500Y-17736786D01*
X11026786Y-17722500D01*
X11055357Y-17708214D01*
X11283928Y-18008214D02*
X11283928Y-17808214D01*
X11283928Y-17836786D02*
X11298214Y-17822500D01*
X11326786Y-17808214D01*
X11369643Y-17808214D01*
X11398214Y-17822500D01*
X11412500Y-17851072D01*
X11412500Y-18008214D01*
X11412500Y-17851072D02*
X11426786Y-17822500D01*
X11455357Y-17808214D01*
X11498214Y-17808214D01*
X11526786Y-17822500D01*
X11541071Y-17851072D01*
X11541071Y-18008214D01*
X11683928Y-18008214D02*
X11683928Y-17808214D01*
X11683928Y-17836786D02*
X11698214Y-17822500D01*
X11726786Y-17808214D01*
X11769643Y-17808214D01*
X11798214Y-17822500D01*
X11812500Y-17851072D01*
X11812500Y-18008214D01*
X11812500Y-17851072D02*
X11826786Y-17822500D01*
X11855357Y-17808214D01*
X11898214Y-17808214D01*
X11926786Y-17822500D01*
X11941071Y-17851072D01*
X11941071Y-18008214D01*
X12526786Y-17693929D02*
X12269643Y-18079643D01*
X12912500Y-17708214D02*
X12941071Y-17708214D01*
X12969643Y-17722500D01*
X12983928Y-17736786D01*
X12998214Y-17765357D01*
X13012500Y-17822500D01*
X13012500Y-17893929D01*
X12998214Y-17951072D01*
X12983928Y-17979643D01*
X12969643Y-17993929D01*
X12941071Y-18008214D01*
X12912500Y-18008214D01*
X12883928Y-17993929D01*
X12869643Y-17979643D01*
X12855357Y-17951072D01*
X12841071Y-17893929D01*
X12841071Y-17822500D01*
X12855357Y-17765357D01*
X12869643Y-17736786D01*
X12883928Y-17722500D01*
X12912500Y-17708214D01*
X13141071Y-17979643D02*
X13155357Y-17993929D01*
X13141071Y-18008214D01*
X13126786Y-17993929D01*
X13141071Y-17979643D01*
X13141071Y-18008214D01*
X13341071Y-17708214D02*
X13369643Y-17708214D01*
X13398214Y-17722500D01*
X13412500Y-17736786D01*
X13426786Y-17765357D01*
X13441071Y-17822500D01*
X13441071Y-17893929D01*
X13426786Y-17951072D01*
X13412500Y-17979643D01*
X13398214Y-17993929D01*
X13369643Y-18008214D01*
X13341071Y-18008214D01*
X13312500Y-17993929D01*
X13298214Y-17979643D01*
X13283928Y-17951072D01*
X13269643Y-17893929D01*
X13269643Y-17822500D01*
X13283928Y-17765357D01*
X13298214Y-17736786D01*
X13312500Y-17722500D01*
X13341071Y-17708214D01*
X13712500Y-17708214D02*
X13569643Y-17708214D01*
X13555357Y-17851072D01*
X13569643Y-17836786D01*
X13598214Y-17822500D01*
X13669643Y-17822500D01*
X13698214Y-17836786D01*
X13712500Y-17851072D01*
X13726786Y-17879643D01*
X13726786Y-17951072D01*
X13712500Y-17979643D01*
X13698214Y-17993929D01*
X13669643Y-18008214D01*
X13598214Y-18008214D01*
X13569643Y-17993929D01*
X13555357Y-17979643D01*
X13869643Y-18008214D02*
X13926786Y-18008214D01*
X13955357Y-17993929D01*
X13969643Y-17979643D01*
X13998214Y-17936786D01*
X14012500Y-17879643D01*
X14012500Y-17765357D01*
X13998214Y-17736786D01*
X13983928Y-17722500D01*
X13955357Y-17708214D01*
X13898214Y-17708214D01*
X13869643Y-17722500D01*
X13855357Y-17736786D01*
X13841071Y-17765357D01*
X13841071Y-17836786D01*
X13855357Y-17865357D01*
X13869643Y-17879643D01*
X13898214Y-17893929D01*
X13955357Y-17893929D01*
X13983928Y-17879643D01*
X13998214Y-17865357D01*
X14012500Y-17836786D01*
X14126786Y-17708214D02*
X14126786Y-17765357D01*
X14241071Y-17708214D02*
X14241071Y-17765357D01*
X14683928Y-18122500D02*
X14669643Y-18108214D01*
X14641071Y-18065357D01*
X14626786Y-18036786D01*
X14612500Y-17993929D01*
X14598214Y-17922500D01*
X14598214Y-17865357D01*
X14612500Y-17793929D01*
X14626786Y-17751072D01*
X14641071Y-17722500D01*
X14669643Y-17679643D01*
X14683928Y-17665357D01*
X14783928Y-17736786D02*
X14798214Y-17722500D01*
X14826786Y-17708214D01*
X14898214Y-17708214D01*
X14926786Y-17722500D01*
X14941071Y-17736786D01*
X14955357Y-17765357D01*
X14955357Y-17793929D01*
X14941071Y-17836786D01*
X14769643Y-18008214D01*
X14955357Y-18008214D01*
X15312500Y-18008214D02*
X15312500Y-17708214D01*
X15441071Y-18008214D02*
X15441071Y-17851072D01*
X15426786Y-17822500D01*
X15398214Y-17808214D01*
X15355357Y-17808214D01*
X15326786Y-17822500D01*
X15312500Y-17836786D01*
X15626786Y-18008214D02*
X15598214Y-17993929D01*
X15583928Y-17979643D01*
X15569643Y-17951072D01*
X15569643Y-17865357D01*
X15583928Y-17836786D01*
X15598214Y-17822500D01*
X15626786Y-17808214D01*
X15669643Y-17808214D01*
X15698214Y-17822500D01*
X15712500Y-17836786D01*
X15726786Y-17865357D01*
X15726786Y-17951072D01*
X15712500Y-17979643D01*
X15698214Y-17993929D01*
X15669643Y-18008214D01*
X15626786Y-18008214D01*
X15898214Y-18008214D02*
X15869643Y-17993929D01*
X15855357Y-17965357D01*
X15855357Y-17708214D01*
X16126786Y-17993929D02*
X16098214Y-18008214D01*
X16041071Y-18008214D01*
X16012500Y-17993929D01*
X15998214Y-17965357D01*
X15998214Y-17851072D01*
X16012500Y-17822500D01*
X16041071Y-17808214D01*
X16098214Y-17808214D01*
X16126786Y-17822500D01*
X16141071Y-17851072D01*
X16141071Y-17879643D01*
X15998214Y-17908214D01*
X16255357Y-17993929D02*
X16283928Y-18008214D01*
X16341071Y-18008214D01*
X16369643Y-17993929D01*
X16383928Y-17965357D01*
X16383928Y-17951072D01*
X16369643Y-17922500D01*
X16341071Y-17908214D01*
X16298214Y-17908214D01*
X16269643Y-17893929D01*
X16255357Y-17865357D01*
X16255357Y-17851072D01*
X16269643Y-17822500D01*
X16298214Y-17808214D01*
X16341071Y-17808214D01*
X16369643Y-17822500D01*
X16483928Y-18122500D02*
X16498214Y-18108214D01*
X16526786Y-18065357D01*
X16541071Y-18036786D01*
X16555357Y-17993929D01*
X16569643Y-17922500D01*
X16569643Y-17865357D01*
X16555357Y-17793929D01*
X16541071Y-17751072D01*
X16526786Y-17722500D01*
X16498214Y-17679643D01*
X16483928Y-17665357D01*
M02*
