G04 #@! TF.GenerationSoftware,KiCad,Pcbnew,(5.1.5)-3*
G04 #@! TF.CreationDate,2021-05-03T11:12:42+02:00*
G04 #@! TF.ProjectId,GSM-Alarmanlage,47534d2d-416c-4617-926d-616e6c616765,rev?*
G04 #@! TF.SameCoordinates,Original*
G04 #@! TF.FileFunction,Soldermask,Bot*
G04 #@! TF.FilePolarity,Negative*
%FSLAX46Y46*%
G04 Gerber Fmt 4.6, Leading zero omitted, Abs format (unit mm)*
G04 Created by KiCad (PCBNEW (5.1.5)-3) date 2021-05-03 11:12:42*
%MOMM*%
%LPD*%
G04 APERTURE LIST*
%ADD10C,0.100000*%
G04 APERTURE END LIST*
D10*
G36*
X182375256Y-141291298D02*
G01*
X182481579Y-141312447D01*
X182782042Y-141436903D01*
X183052451Y-141617585D01*
X183282415Y-141847549D01*
X183463097Y-142117958D01*
X183546132Y-142318421D01*
X183587553Y-142418422D01*
X183631109Y-142637389D01*
X183651000Y-142737391D01*
X183651000Y-143062609D01*
X183587553Y-143381579D01*
X183463097Y-143682042D01*
X183282415Y-143952451D01*
X183052451Y-144182415D01*
X182782042Y-144363097D01*
X182481579Y-144487553D01*
X182375256Y-144508702D01*
X182162611Y-144551000D01*
X181837389Y-144551000D01*
X181624744Y-144508702D01*
X181518421Y-144487553D01*
X181217958Y-144363097D01*
X180947549Y-144182415D01*
X180717585Y-143952451D01*
X180536903Y-143682042D01*
X180412447Y-143381579D01*
X180349000Y-143062609D01*
X180349000Y-142737391D01*
X180368892Y-142637389D01*
X180412447Y-142418422D01*
X180453869Y-142318421D01*
X180536903Y-142117958D01*
X180717585Y-141847549D01*
X180947549Y-141617585D01*
X181217958Y-141436903D01*
X181518421Y-141312447D01*
X181624744Y-141291298D01*
X181837389Y-141249000D01*
X182162611Y-141249000D01*
X182375256Y-141291298D01*
G37*
G36*
X105875256Y-141191298D02*
G01*
X105981579Y-141212447D01*
X106282042Y-141336903D01*
X106552451Y-141517585D01*
X106782415Y-141747549D01*
X106782416Y-141747551D01*
X106963098Y-142017960D01*
X107087553Y-142318422D01*
X107151000Y-142637389D01*
X107151000Y-142962611D01*
X107108702Y-143175256D01*
X107087553Y-143281579D01*
X106963097Y-143582042D01*
X106782415Y-143852451D01*
X106552451Y-144082415D01*
X106282042Y-144263097D01*
X105981579Y-144387553D01*
X105875256Y-144408702D01*
X105662611Y-144451000D01*
X105337389Y-144451000D01*
X105124744Y-144408702D01*
X105018421Y-144387553D01*
X104717958Y-144263097D01*
X104447549Y-144082415D01*
X104217585Y-143852451D01*
X104036903Y-143582042D01*
X103912447Y-143281579D01*
X103891298Y-143175256D01*
X103849000Y-142962611D01*
X103849000Y-142637389D01*
X103912447Y-142318422D01*
X104036902Y-142017960D01*
X104217584Y-141747551D01*
X104217585Y-141747549D01*
X104447549Y-141517585D01*
X104717958Y-141336903D01*
X105018421Y-141212447D01*
X105124744Y-141191298D01*
X105337389Y-141149000D01*
X105662611Y-141149000D01*
X105875256Y-141191298D01*
G37*
G36*
X173987144Y-137768242D02*
G01*
X174135103Y-137829529D01*
X174268257Y-137918499D01*
X174381503Y-138031745D01*
X174470473Y-138164899D01*
X174531760Y-138312858D01*
X174563002Y-138469925D01*
X174563002Y-138630075D01*
X174531760Y-138787142D01*
X174470473Y-138935101D01*
X174381503Y-139068255D01*
X174268257Y-139181501D01*
X174135103Y-139270471D01*
X173987144Y-139331758D01*
X173830077Y-139363000D01*
X173669927Y-139363000D01*
X173512860Y-139331758D01*
X173364901Y-139270471D01*
X173231747Y-139181501D01*
X173118501Y-139068255D01*
X173029531Y-138935101D01*
X172968244Y-138787142D01*
X172937002Y-138630075D01*
X172937002Y-138469925D01*
X172968244Y-138312858D01*
X173029531Y-138164899D01*
X173118501Y-138031745D01*
X173231747Y-137918499D01*
X173364901Y-137829529D01*
X173512860Y-137768242D01*
X173669927Y-137737000D01*
X173830077Y-137737000D01*
X173987144Y-137768242D01*
G37*
G36*
X160737144Y-137718242D02*
G01*
X160885103Y-137779529D01*
X161018257Y-137868499D01*
X161131503Y-137981745D01*
X161220473Y-138114899D01*
X161281760Y-138262858D01*
X161313002Y-138419925D01*
X161313002Y-138580075D01*
X161281760Y-138737142D01*
X161220473Y-138885101D01*
X161131503Y-139018255D01*
X161018257Y-139131501D01*
X160885103Y-139220471D01*
X160737144Y-139281758D01*
X160580077Y-139313000D01*
X160419927Y-139313000D01*
X160262860Y-139281758D01*
X160114901Y-139220471D01*
X159981747Y-139131501D01*
X159868501Y-139018255D01*
X159779531Y-138885101D01*
X159718244Y-138737142D01*
X159687002Y-138580075D01*
X159687002Y-138419925D01*
X159718244Y-138262858D01*
X159779531Y-138114899D01*
X159868501Y-137981745D01*
X159981747Y-137868499D01*
X160114901Y-137779529D01*
X160262860Y-137718242D01*
X160419927Y-137687000D01*
X160580077Y-137687000D01*
X160737144Y-137718242D01*
G37*
G36*
X143587143Y-137668242D02*
G01*
X143735102Y-137729529D01*
X143868256Y-137818499D01*
X143981502Y-137931745D01*
X144070472Y-138064899D01*
X144131759Y-138212858D01*
X144163001Y-138369925D01*
X144163001Y-138530075D01*
X144131759Y-138687142D01*
X144070472Y-138835101D01*
X143981502Y-138968255D01*
X143868256Y-139081501D01*
X143735102Y-139170471D01*
X143587143Y-139231758D01*
X143430076Y-139263000D01*
X143269926Y-139263000D01*
X143112859Y-139231758D01*
X142964900Y-139170471D01*
X142831746Y-139081501D01*
X142718500Y-138968255D01*
X142629530Y-138835101D01*
X142568243Y-138687142D01*
X142537001Y-138530075D01*
X142537001Y-138369925D01*
X142568243Y-138212858D01*
X142629530Y-138064899D01*
X142718500Y-137931745D01*
X142831746Y-137818499D01*
X142964900Y-137729529D01*
X143112859Y-137668242D01*
X143269926Y-137637000D01*
X143430076Y-137637000D01*
X143587143Y-137668242D01*
G37*
G36*
X136587142Y-137668242D02*
G01*
X136735101Y-137729529D01*
X136868255Y-137818499D01*
X136981501Y-137931745D01*
X137070471Y-138064899D01*
X137131758Y-138212858D01*
X137163000Y-138369925D01*
X137163000Y-138530075D01*
X137131758Y-138687142D01*
X137070471Y-138835101D01*
X136981501Y-138968255D01*
X136868255Y-139081501D01*
X136735101Y-139170471D01*
X136587142Y-139231758D01*
X136430075Y-139263000D01*
X136269925Y-139263000D01*
X136112858Y-139231758D01*
X135964899Y-139170471D01*
X135831745Y-139081501D01*
X135718499Y-138968255D01*
X135629529Y-138835101D01*
X135568242Y-138687142D01*
X135537000Y-138530075D01*
X135537000Y-138369925D01*
X135568242Y-138212858D01*
X135629529Y-138064899D01*
X135718499Y-137931745D01*
X135831745Y-137818499D01*
X135964899Y-137729529D01*
X136112858Y-137668242D01*
X136269925Y-137637000D01*
X136430075Y-137637000D01*
X136587142Y-137668242D01*
G37*
G36*
X124637146Y-137518242D02*
G01*
X124785105Y-137579529D01*
X124918259Y-137668499D01*
X125031505Y-137781745D01*
X125120475Y-137914899D01*
X125181762Y-138062858D01*
X125213004Y-138219925D01*
X125213004Y-138380075D01*
X125181762Y-138537142D01*
X125120475Y-138685101D01*
X125031505Y-138818255D01*
X124918259Y-138931501D01*
X124785105Y-139020471D01*
X124637146Y-139081758D01*
X124480079Y-139113000D01*
X124319929Y-139113000D01*
X124162862Y-139081758D01*
X124014903Y-139020471D01*
X123881749Y-138931501D01*
X123768503Y-138818255D01*
X123679533Y-138685101D01*
X123618246Y-138537142D01*
X123587004Y-138380075D01*
X123587004Y-138219925D01*
X123618246Y-138062858D01*
X123679533Y-137914899D01*
X123768503Y-137781745D01*
X123881749Y-137668499D01*
X124014903Y-137579529D01*
X124162862Y-137518242D01*
X124319929Y-137487000D01*
X124480079Y-137487000D01*
X124637146Y-137518242D01*
G37*
G36*
X117637145Y-137518242D02*
G01*
X117785104Y-137579529D01*
X117918258Y-137668499D01*
X118031504Y-137781745D01*
X118120474Y-137914899D01*
X118181761Y-138062858D01*
X118213003Y-138219925D01*
X118213003Y-138380075D01*
X118181761Y-138537142D01*
X118120474Y-138685101D01*
X118031504Y-138818255D01*
X117918258Y-138931501D01*
X117785104Y-139020471D01*
X117637145Y-139081758D01*
X117480078Y-139113000D01*
X117319928Y-139113000D01*
X117162861Y-139081758D01*
X117014902Y-139020471D01*
X116881748Y-138931501D01*
X116768502Y-138818255D01*
X116679532Y-138685101D01*
X116618245Y-138537142D01*
X116587003Y-138380075D01*
X116587003Y-138219925D01*
X116618245Y-138062858D01*
X116679532Y-137914899D01*
X116768502Y-137781745D01*
X116881748Y-137668499D01*
X117014902Y-137579529D01*
X117162861Y-137518242D01*
X117319928Y-137487000D01*
X117480078Y-137487000D01*
X117637145Y-137518242D01*
G37*
G36*
X170487141Y-132768242D02*
G01*
X170635100Y-132829529D01*
X170768254Y-132918499D01*
X170881500Y-133031745D01*
X170970470Y-133164899D01*
X171031757Y-133312858D01*
X171062999Y-133469925D01*
X171062999Y-133630075D01*
X171031757Y-133787142D01*
X170970470Y-133935101D01*
X170881500Y-134068255D01*
X170768254Y-134181501D01*
X170635100Y-134270471D01*
X170487141Y-134331758D01*
X170330074Y-134363000D01*
X170169924Y-134363000D01*
X170012857Y-134331758D01*
X169864898Y-134270471D01*
X169731744Y-134181501D01*
X169618498Y-134068255D01*
X169529528Y-133935101D01*
X169468241Y-133787142D01*
X169436999Y-133630075D01*
X169436999Y-133469925D01*
X169468241Y-133312858D01*
X169529528Y-133164899D01*
X169618498Y-133031745D01*
X169731744Y-132918499D01*
X169864898Y-132829529D01*
X170012857Y-132768242D01*
X170169924Y-132737000D01*
X170330074Y-132737000D01*
X170487141Y-132768242D01*
G37*
G36*
X157237141Y-132718242D02*
G01*
X157385100Y-132779529D01*
X157518254Y-132868499D01*
X157631500Y-132981745D01*
X157720470Y-133114899D01*
X157781757Y-133262858D01*
X157812999Y-133419925D01*
X157812999Y-133580075D01*
X157781757Y-133737142D01*
X157720470Y-133885101D01*
X157631500Y-134018255D01*
X157518254Y-134131501D01*
X157385100Y-134220471D01*
X157237141Y-134281758D01*
X157080074Y-134313000D01*
X156919924Y-134313000D01*
X156762857Y-134281758D01*
X156614898Y-134220471D01*
X156481744Y-134131501D01*
X156368498Y-134018255D01*
X156279528Y-133885101D01*
X156218241Y-133737142D01*
X156186999Y-133580075D01*
X156186999Y-133419925D01*
X156218241Y-133262858D01*
X156279528Y-133114899D01*
X156368498Y-132981745D01*
X156481744Y-132868499D01*
X156614898Y-132779529D01*
X156762857Y-132718242D01*
X156919924Y-132687000D01*
X157080074Y-132687000D01*
X157237141Y-132718242D01*
G37*
G36*
X140087143Y-132668242D02*
G01*
X140235102Y-132729529D01*
X140368256Y-132818499D01*
X140481502Y-132931745D01*
X140570472Y-133064899D01*
X140631759Y-133212858D01*
X140663001Y-133369925D01*
X140663001Y-133530075D01*
X140631759Y-133687142D01*
X140570472Y-133835101D01*
X140481502Y-133968255D01*
X140368256Y-134081501D01*
X140235102Y-134170471D01*
X140087143Y-134231758D01*
X139930076Y-134263000D01*
X139769926Y-134263000D01*
X139612859Y-134231758D01*
X139464900Y-134170471D01*
X139331746Y-134081501D01*
X139218500Y-133968255D01*
X139129530Y-133835101D01*
X139068243Y-133687142D01*
X139037001Y-133530075D01*
X139037001Y-133369925D01*
X139068243Y-133212858D01*
X139129530Y-133064899D01*
X139218500Y-132931745D01*
X139331746Y-132818499D01*
X139464900Y-132729529D01*
X139612859Y-132668242D01*
X139769926Y-132637000D01*
X139930076Y-132637000D01*
X140087143Y-132668242D01*
G37*
G36*
X121137146Y-132518242D02*
G01*
X121285105Y-132579529D01*
X121418259Y-132668499D01*
X121531505Y-132781745D01*
X121620475Y-132914899D01*
X121681762Y-133062858D01*
X121713004Y-133219925D01*
X121713004Y-133380075D01*
X121681762Y-133537142D01*
X121620475Y-133685101D01*
X121531505Y-133818255D01*
X121418259Y-133931501D01*
X121285105Y-134020471D01*
X121137146Y-134081758D01*
X120980079Y-134113000D01*
X120819929Y-134113000D01*
X120662862Y-134081758D01*
X120514903Y-134020471D01*
X120381749Y-133931501D01*
X120268503Y-133818255D01*
X120179533Y-133685101D01*
X120118246Y-133537142D01*
X120087004Y-133380075D01*
X120087004Y-133219925D01*
X120118246Y-133062858D01*
X120179533Y-132914899D01*
X120268503Y-132781745D01*
X120381749Y-132668499D01*
X120514903Y-132579529D01*
X120662862Y-132518242D01*
X120819929Y-132487000D01*
X120980079Y-132487000D01*
X121137146Y-132518242D01*
G37*
G36*
X114137145Y-132518242D02*
G01*
X114285104Y-132579529D01*
X114418258Y-132668499D01*
X114531504Y-132781745D01*
X114620474Y-132914899D01*
X114681761Y-133062858D01*
X114713003Y-133219925D01*
X114713003Y-133380075D01*
X114681761Y-133537142D01*
X114620474Y-133685101D01*
X114531504Y-133818255D01*
X114418258Y-133931501D01*
X114285104Y-134020471D01*
X114137145Y-134081758D01*
X113980078Y-134113000D01*
X113819928Y-134113000D01*
X113662861Y-134081758D01*
X113514902Y-134020471D01*
X113381748Y-133931501D01*
X113268502Y-133818255D01*
X113179532Y-133685101D01*
X113118245Y-133537142D01*
X113087003Y-133380075D01*
X113087003Y-133219925D01*
X113118245Y-133062858D01*
X113179532Y-132914899D01*
X113268502Y-132781745D01*
X113381748Y-132668499D01*
X113514902Y-132579529D01*
X113662861Y-132518242D01*
X113819928Y-132487000D01*
X113980078Y-132487000D01*
X114137145Y-132518242D01*
G37*
G36*
X108648228Y-127931703D02*
G01*
X108803100Y-127995853D01*
X108942481Y-128088985D01*
X109061015Y-128207519D01*
X109154147Y-128346900D01*
X109218297Y-128501772D01*
X109251000Y-128666184D01*
X109251000Y-128833816D01*
X109218297Y-128998228D01*
X109154147Y-129153100D01*
X109061015Y-129292481D01*
X108942481Y-129411015D01*
X108803100Y-129504147D01*
X108648228Y-129568297D01*
X108483816Y-129601000D01*
X108316184Y-129601000D01*
X108151772Y-129568297D01*
X107996900Y-129504147D01*
X107857519Y-129411015D01*
X107738985Y-129292481D01*
X107645853Y-129153100D01*
X107581703Y-128998228D01*
X107549000Y-128833816D01*
X107549000Y-128666184D01*
X107581703Y-128501772D01*
X107645853Y-128346900D01*
X107738985Y-128207519D01*
X107857519Y-128088985D01*
X107996900Y-127995853D01*
X108151772Y-127931703D01*
X108316184Y-127899000D01*
X108483816Y-127899000D01*
X108648228Y-127931703D01*
G37*
G36*
X106148228Y-127931703D02*
G01*
X106303100Y-127995853D01*
X106442481Y-128088985D01*
X106561015Y-128207519D01*
X106654147Y-128346900D01*
X106718297Y-128501772D01*
X106751000Y-128666184D01*
X106751000Y-128833816D01*
X106718297Y-128998228D01*
X106654147Y-129153100D01*
X106561015Y-129292481D01*
X106442481Y-129411015D01*
X106303100Y-129504147D01*
X106148228Y-129568297D01*
X105983816Y-129601000D01*
X105816184Y-129601000D01*
X105651772Y-129568297D01*
X105496900Y-129504147D01*
X105357519Y-129411015D01*
X105238985Y-129292481D01*
X105145853Y-129153100D01*
X105081703Y-128998228D01*
X105049000Y-128833816D01*
X105049000Y-128666184D01*
X105081703Y-128501772D01*
X105145853Y-128346900D01*
X105238985Y-128207519D01*
X105357519Y-128088985D01*
X105496900Y-127995853D01*
X105651772Y-127931703D01*
X105816184Y-127899000D01*
X105983816Y-127899000D01*
X106148228Y-127931703D01*
G37*
G36*
X159152585Y-120678802D02*
G01*
X159302410Y-120708604D01*
X159584674Y-120825521D01*
X159838705Y-120995259D01*
X160054741Y-121211295D01*
X160224479Y-121465326D01*
X160341396Y-121747590D01*
X160401000Y-122047240D01*
X160401000Y-122352760D01*
X160341396Y-122652410D01*
X160224479Y-122934674D01*
X160054741Y-123188705D01*
X159838705Y-123404741D01*
X159584674Y-123574479D01*
X159302410Y-123691396D01*
X159152585Y-123721198D01*
X159002761Y-123751000D01*
X158697239Y-123751000D01*
X158547415Y-123721198D01*
X158397590Y-123691396D01*
X158115326Y-123574479D01*
X157861295Y-123404741D01*
X157645259Y-123188705D01*
X157475521Y-122934674D01*
X157358604Y-122652410D01*
X157299000Y-122352760D01*
X157299000Y-122047240D01*
X157358604Y-121747590D01*
X157475521Y-121465326D01*
X157645259Y-121211295D01*
X157861295Y-120995259D01*
X158115326Y-120825521D01*
X158397590Y-120708604D01*
X158547415Y-120678802D01*
X158697239Y-120649000D01*
X159002761Y-120649000D01*
X159152585Y-120678802D01*
G37*
G36*
X136552585Y-120678802D02*
G01*
X136702410Y-120708604D01*
X136984674Y-120825521D01*
X137238705Y-120995259D01*
X137454741Y-121211295D01*
X137624479Y-121465326D01*
X137741396Y-121747590D01*
X137801000Y-122047240D01*
X137801000Y-122352760D01*
X137741396Y-122652410D01*
X137624479Y-122934674D01*
X137454741Y-123188705D01*
X137238705Y-123404741D01*
X136984674Y-123574479D01*
X136702410Y-123691396D01*
X136552585Y-123721198D01*
X136402761Y-123751000D01*
X136097239Y-123751000D01*
X135947415Y-123721198D01*
X135797590Y-123691396D01*
X135515326Y-123574479D01*
X135261295Y-123404741D01*
X135045259Y-123188705D01*
X134875521Y-122934674D01*
X134758604Y-122652410D01*
X134699000Y-122352760D01*
X134699000Y-122047240D01*
X134758604Y-121747590D01*
X134875521Y-121465326D01*
X135045259Y-121211295D01*
X135261295Y-120995259D01*
X135515326Y-120825521D01*
X135797590Y-120708604D01*
X135947415Y-120678802D01*
X136097239Y-120649000D01*
X136402761Y-120649000D01*
X136552585Y-120678802D01*
G37*
G36*
X103711694Y-121428633D02*
G01*
X103884095Y-121480931D01*
X104042983Y-121565858D01*
X104182249Y-121680151D01*
X104296542Y-121819417D01*
X104381469Y-121978305D01*
X104433767Y-122150706D01*
X104451425Y-122330000D01*
X104433767Y-122509294D01*
X104381469Y-122681695D01*
X104296542Y-122840583D01*
X104182249Y-122979849D01*
X104042983Y-123094142D01*
X103884095Y-123179069D01*
X103711694Y-123231367D01*
X103577331Y-123244600D01*
X103182669Y-123244600D01*
X103048306Y-123231367D01*
X102875905Y-123179069D01*
X102717017Y-123094142D01*
X102577751Y-122979849D01*
X102463458Y-122840583D01*
X102378531Y-122681695D01*
X102326233Y-122509294D01*
X102308575Y-122330000D01*
X102326233Y-122150706D01*
X102378531Y-121978305D01*
X102463458Y-121819417D01*
X102577751Y-121680151D01*
X102717017Y-121565858D01*
X102875905Y-121480931D01*
X103048306Y-121428633D01*
X103182669Y-121415400D01*
X103577331Y-121415400D01*
X103711694Y-121428633D01*
G37*
G36*
X118951694Y-121428633D02*
G01*
X119124095Y-121480931D01*
X119282983Y-121565858D01*
X119422249Y-121680151D01*
X119536542Y-121819417D01*
X119621469Y-121978305D01*
X119673767Y-122150706D01*
X119691425Y-122330000D01*
X119673767Y-122509294D01*
X119621469Y-122681695D01*
X119536542Y-122840583D01*
X119422249Y-122979849D01*
X119282983Y-123094142D01*
X119124095Y-123179069D01*
X118951694Y-123231367D01*
X118817331Y-123244600D01*
X118422669Y-123244600D01*
X118288306Y-123231367D01*
X118115905Y-123179069D01*
X117957017Y-123094142D01*
X117817751Y-122979849D01*
X117703458Y-122840583D01*
X117618531Y-122681695D01*
X117566233Y-122509294D01*
X117548575Y-122330000D01*
X117566233Y-122150706D01*
X117618531Y-121978305D01*
X117703458Y-121819417D01*
X117817751Y-121680151D01*
X117957017Y-121565858D01*
X118115905Y-121480931D01*
X118288306Y-121428633D01*
X118422669Y-121415400D01*
X118817331Y-121415400D01*
X118951694Y-121428633D01*
G37*
G36*
X166687142Y-121618242D02*
G01*
X166835101Y-121679529D01*
X166968255Y-121768499D01*
X167081501Y-121881745D01*
X167170471Y-122014899D01*
X167231758Y-122162858D01*
X167263000Y-122319925D01*
X167263000Y-122480075D01*
X167231758Y-122637142D01*
X167170471Y-122785101D01*
X167081501Y-122918255D01*
X166968255Y-123031501D01*
X166835101Y-123120471D01*
X166687142Y-123181758D01*
X166530075Y-123213000D01*
X166369925Y-123213000D01*
X166212858Y-123181758D01*
X166064899Y-123120471D01*
X165931745Y-123031501D01*
X165818499Y-122918255D01*
X165729529Y-122785101D01*
X165668242Y-122637142D01*
X165637000Y-122480075D01*
X165637000Y-122319925D01*
X165668242Y-122162858D01*
X165729529Y-122014899D01*
X165818499Y-121881745D01*
X165931745Y-121768499D01*
X166064899Y-121679529D01*
X166212858Y-121618242D01*
X166369925Y-121587000D01*
X166530075Y-121587000D01*
X166687142Y-121618242D01*
G37*
G36*
X184287142Y-121618242D02*
G01*
X184435101Y-121679529D01*
X184568255Y-121768499D01*
X184681501Y-121881745D01*
X184770471Y-122014899D01*
X184831758Y-122162858D01*
X184863000Y-122319925D01*
X184863000Y-122480075D01*
X184831758Y-122637142D01*
X184770471Y-122785101D01*
X184681501Y-122918255D01*
X184568255Y-123031501D01*
X184435101Y-123120471D01*
X184287142Y-123181758D01*
X184130075Y-123213000D01*
X183969925Y-123213000D01*
X183812858Y-123181758D01*
X183664899Y-123120471D01*
X183531745Y-123031501D01*
X183418499Y-122918255D01*
X183329529Y-122785101D01*
X183268242Y-122637142D01*
X183237000Y-122480075D01*
X183237000Y-122319925D01*
X183268242Y-122162858D01*
X183329529Y-122014899D01*
X183418499Y-121881745D01*
X183531745Y-121768499D01*
X183664899Y-121679529D01*
X183812858Y-121618242D01*
X183969925Y-121587000D01*
X184130075Y-121587000D01*
X184287142Y-121618242D01*
G37*
G36*
X118951694Y-118888633D02*
G01*
X119124095Y-118940931D01*
X119282983Y-119025858D01*
X119422249Y-119140151D01*
X119536542Y-119279417D01*
X119621469Y-119438305D01*
X119673767Y-119610706D01*
X119691425Y-119790000D01*
X119673767Y-119969294D01*
X119621469Y-120141695D01*
X119536542Y-120300583D01*
X119422249Y-120439849D01*
X119282983Y-120554142D01*
X119124095Y-120639069D01*
X118951694Y-120691367D01*
X118817331Y-120704600D01*
X118422669Y-120704600D01*
X118288306Y-120691367D01*
X118115905Y-120639069D01*
X117957017Y-120554142D01*
X117817751Y-120439849D01*
X117703458Y-120300583D01*
X117618531Y-120141695D01*
X117566233Y-119969294D01*
X117548575Y-119790000D01*
X117566233Y-119610706D01*
X117618531Y-119438305D01*
X117703458Y-119279417D01*
X117817751Y-119140151D01*
X117957017Y-119025858D01*
X118115905Y-118940931D01*
X118288306Y-118888633D01*
X118422669Y-118875400D01*
X118817331Y-118875400D01*
X118951694Y-118888633D01*
G37*
G36*
X103711694Y-118888633D02*
G01*
X103884095Y-118940931D01*
X104042983Y-119025858D01*
X104182249Y-119140151D01*
X104296542Y-119279417D01*
X104381469Y-119438305D01*
X104433767Y-119610706D01*
X104451425Y-119790000D01*
X104433767Y-119969294D01*
X104381469Y-120141695D01*
X104296542Y-120300583D01*
X104182249Y-120439849D01*
X104042983Y-120554142D01*
X103884095Y-120639069D01*
X103711694Y-120691367D01*
X103577331Y-120704600D01*
X103182669Y-120704600D01*
X103048306Y-120691367D01*
X102875905Y-120639069D01*
X102717017Y-120554142D01*
X102577751Y-120439849D01*
X102463458Y-120300583D01*
X102378531Y-120141695D01*
X102326233Y-119969294D01*
X102308575Y-119790000D01*
X102326233Y-119610706D01*
X102378531Y-119438305D01*
X102463458Y-119279417D01*
X102577751Y-119140151D01*
X102717017Y-119025858D01*
X102875905Y-118940931D01*
X103048306Y-118888633D01*
X103182669Y-118875400D01*
X103577331Y-118875400D01*
X103711694Y-118888633D01*
G37*
G36*
X103711694Y-116348633D02*
G01*
X103884095Y-116400931D01*
X104042983Y-116485858D01*
X104182249Y-116600151D01*
X104296542Y-116739417D01*
X104381469Y-116898305D01*
X104433767Y-117070706D01*
X104451425Y-117250000D01*
X104433767Y-117429294D01*
X104381469Y-117601695D01*
X104296542Y-117760583D01*
X104182249Y-117899849D01*
X104042983Y-118014142D01*
X103884095Y-118099069D01*
X103711694Y-118151367D01*
X103577331Y-118164600D01*
X103182669Y-118164600D01*
X103048306Y-118151367D01*
X102875905Y-118099069D01*
X102717017Y-118014142D01*
X102577751Y-117899849D01*
X102463458Y-117760583D01*
X102378531Y-117601695D01*
X102326233Y-117429294D01*
X102308575Y-117250000D01*
X102326233Y-117070706D01*
X102378531Y-116898305D01*
X102463458Y-116739417D01*
X102577751Y-116600151D01*
X102717017Y-116485858D01*
X102875905Y-116400931D01*
X103048306Y-116348633D01*
X103182669Y-116335400D01*
X103577331Y-116335400D01*
X103711694Y-116348633D01*
G37*
G36*
X118951694Y-116348633D02*
G01*
X119124095Y-116400931D01*
X119282983Y-116485858D01*
X119422249Y-116600151D01*
X119536542Y-116739417D01*
X119621469Y-116898305D01*
X119673767Y-117070706D01*
X119691425Y-117250000D01*
X119673767Y-117429294D01*
X119621469Y-117601695D01*
X119536542Y-117760583D01*
X119422249Y-117899849D01*
X119282983Y-118014142D01*
X119124095Y-118099069D01*
X118951694Y-118151367D01*
X118817331Y-118164600D01*
X118422669Y-118164600D01*
X118288306Y-118151367D01*
X118115905Y-118099069D01*
X117957017Y-118014142D01*
X117817751Y-117899849D01*
X117703458Y-117760583D01*
X117618531Y-117601695D01*
X117566233Y-117429294D01*
X117548575Y-117250000D01*
X117566233Y-117070706D01*
X117618531Y-116898305D01*
X117703458Y-116739417D01*
X117817751Y-116600151D01*
X117957017Y-116485858D01*
X118115905Y-116400931D01*
X118288306Y-116348633D01*
X118422669Y-116335400D01*
X118817331Y-116335400D01*
X118951694Y-116348633D01*
G37*
G36*
X118951694Y-113808633D02*
G01*
X119124095Y-113860931D01*
X119282983Y-113945858D01*
X119422249Y-114060151D01*
X119536542Y-114199417D01*
X119621469Y-114358305D01*
X119673767Y-114530706D01*
X119691425Y-114710000D01*
X119673767Y-114889294D01*
X119621469Y-115061695D01*
X119536542Y-115220583D01*
X119422249Y-115359849D01*
X119282983Y-115474142D01*
X119124095Y-115559069D01*
X118951694Y-115611367D01*
X118817331Y-115624600D01*
X118422669Y-115624600D01*
X118288306Y-115611367D01*
X118115905Y-115559069D01*
X117957017Y-115474142D01*
X117817751Y-115359849D01*
X117703458Y-115220583D01*
X117618531Y-115061695D01*
X117566233Y-114889294D01*
X117548575Y-114710000D01*
X117566233Y-114530706D01*
X117618531Y-114358305D01*
X117703458Y-114199417D01*
X117817751Y-114060151D01*
X117957017Y-113945858D01*
X118115905Y-113860931D01*
X118288306Y-113808633D01*
X118422669Y-113795400D01*
X118817331Y-113795400D01*
X118951694Y-113808633D01*
G37*
G36*
X103711694Y-113808633D02*
G01*
X103884095Y-113860931D01*
X104042983Y-113945858D01*
X104182249Y-114060151D01*
X104296542Y-114199417D01*
X104381469Y-114358305D01*
X104433767Y-114530706D01*
X104451425Y-114710000D01*
X104433767Y-114889294D01*
X104381469Y-115061695D01*
X104296542Y-115220583D01*
X104182249Y-115359849D01*
X104042983Y-115474142D01*
X103884095Y-115559069D01*
X103711694Y-115611367D01*
X103577331Y-115624600D01*
X103182669Y-115624600D01*
X103048306Y-115611367D01*
X102875905Y-115559069D01*
X102717017Y-115474142D01*
X102577751Y-115359849D01*
X102463458Y-115220583D01*
X102378531Y-115061695D01*
X102326233Y-114889294D01*
X102308575Y-114710000D01*
X102326233Y-114530706D01*
X102378531Y-114358305D01*
X102463458Y-114199417D01*
X102577751Y-114060151D01*
X102717017Y-113945858D01*
X102875905Y-113860931D01*
X103048306Y-113808633D01*
X103182669Y-113795400D01*
X103577331Y-113795400D01*
X103711694Y-113808633D01*
G37*
G36*
X118951694Y-111268633D02*
G01*
X119124095Y-111320931D01*
X119282983Y-111405858D01*
X119422249Y-111520151D01*
X119536542Y-111659417D01*
X119621469Y-111818305D01*
X119673767Y-111990706D01*
X119691425Y-112170000D01*
X119673767Y-112349294D01*
X119621469Y-112521695D01*
X119536542Y-112680583D01*
X119422249Y-112819849D01*
X119282983Y-112934142D01*
X119124095Y-113019069D01*
X118951694Y-113071367D01*
X118817331Y-113084600D01*
X118422669Y-113084600D01*
X118288306Y-113071367D01*
X118115905Y-113019069D01*
X117957017Y-112934142D01*
X117817751Y-112819849D01*
X117703458Y-112680583D01*
X117618531Y-112521695D01*
X117566233Y-112349294D01*
X117548575Y-112170000D01*
X117566233Y-111990706D01*
X117618531Y-111818305D01*
X117703458Y-111659417D01*
X117817751Y-111520151D01*
X117957017Y-111405858D01*
X118115905Y-111320931D01*
X118288306Y-111268633D01*
X118422669Y-111255400D01*
X118817331Y-111255400D01*
X118951694Y-111268633D01*
G37*
G36*
X103711694Y-111268633D02*
G01*
X103884095Y-111320931D01*
X104042983Y-111405858D01*
X104182249Y-111520151D01*
X104296542Y-111659417D01*
X104381469Y-111818305D01*
X104433767Y-111990706D01*
X104451425Y-112170000D01*
X104433767Y-112349294D01*
X104381469Y-112521695D01*
X104296542Y-112680583D01*
X104182249Y-112819849D01*
X104042983Y-112934142D01*
X103884095Y-113019069D01*
X103711694Y-113071367D01*
X103577331Y-113084600D01*
X103182669Y-113084600D01*
X103048306Y-113071367D01*
X102875905Y-113019069D01*
X102717017Y-112934142D01*
X102577751Y-112819849D01*
X102463458Y-112680583D01*
X102378531Y-112521695D01*
X102326233Y-112349294D01*
X102308575Y-112170000D01*
X102326233Y-111990706D01*
X102378531Y-111818305D01*
X102463458Y-111659417D01*
X102577751Y-111520151D01*
X102717017Y-111405858D01*
X102875905Y-111320931D01*
X103048306Y-111268633D01*
X103182669Y-111255400D01*
X103577331Y-111255400D01*
X103711694Y-111268633D01*
G37*
G36*
X153019059Y-110177860D02*
G01*
X153155732Y-110234472D01*
X153278735Y-110316660D01*
X153383340Y-110421265D01*
X153465528Y-110544268D01*
X153465529Y-110544270D01*
X153522140Y-110680941D01*
X153551000Y-110826032D01*
X153551000Y-110973968D01*
X153522140Y-111119059D01*
X153506950Y-111155732D01*
X153465528Y-111255732D01*
X153383340Y-111378735D01*
X153278735Y-111483340D01*
X153155732Y-111565528D01*
X153155731Y-111565529D01*
X153155730Y-111565529D01*
X153019059Y-111622140D01*
X152873968Y-111651000D01*
X152726032Y-111651000D01*
X152580941Y-111622140D01*
X152444270Y-111565529D01*
X152444269Y-111565529D01*
X152444268Y-111565528D01*
X152321265Y-111483340D01*
X152216660Y-111378735D01*
X152134472Y-111255732D01*
X152093051Y-111155732D01*
X152077860Y-111119059D01*
X152049000Y-110973968D01*
X152049000Y-110826032D01*
X152077860Y-110680941D01*
X152134471Y-110544270D01*
X152134472Y-110544268D01*
X152216660Y-110421265D01*
X152321265Y-110316660D01*
X152444268Y-110234472D01*
X152580941Y-110177860D01*
X152726032Y-110149000D01*
X152873968Y-110149000D01*
X153019059Y-110177860D01*
G37*
G36*
X145399059Y-110177860D02*
G01*
X145535732Y-110234472D01*
X145658735Y-110316660D01*
X145763340Y-110421265D01*
X145845528Y-110544268D01*
X145845529Y-110544270D01*
X145902140Y-110680941D01*
X145931000Y-110826032D01*
X145931000Y-110973968D01*
X145902140Y-111119059D01*
X145886950Y-111155732D01*
X145845528Y-111255732D01*
X145763340Y-111378735D01*
X145658735Y-111483340D01*
X145535732Y-111565528D01*
X145535731Y-111565529D01*
X145535730Y-111565529D01*
X145399059Y-111622140D01*
X145253968Y-111651000D01*
X145106032Y-111651000D01*
X144960941Y-111622140D01*
X144824270Y-111565529D01*
X144824269Y-111565529D01*
X144824268Y-111565528D01*
X144701265Y-111483340D01*
X144596660Y-111378735D01*
X144514472Y-111255732D01*
X144473051Y-111155732D01*
X144457860Y-111119059D01*
X144429000Y-110973968D01*
X144429000Y-110826032D01*
X144457860Y-110680941D01*
X144514471Y-110544270D01*
X144514472Y-110544268D01*
X144596660Y-110421265D01*
X144701265Y-110316660D01*
X144824268Y-110234472D01*
X144960941Y-110177860D01*
X145106032Y-110149000D01*
X145253968Y-110149000D01*
X145399059Y-110177860D01*
G37*
G36*
X133799059Y-110127860D02*
G01*
X133919770Y-110177860D01*
X133935732Y-110184472D01*
X134058735Y-110266660D01*
X134163340Y-110371265D01*
X134235372Y-110479069D01*
X134245529Y-110494270D01*
X134302140Y-110630941D01*
X134331000Y-110776032D01*
X134331000Y-110923968D01*
X134312085Y-111019059D01*
X134302140Y-111069059D01*
X134245528Y-111205732D01*
X134163340Y-111328735D01*
X134058735Y-111433340D01*
X133935732Y-111515528D01*
X133935731Y-111515529D01*
X133935730Y-111515529D01*
X133799059Y-111572140D01*
X133653968Y-111601000D01*
X133506032Y-111601000D01*
X133360941Y-111572140D01*
X133224270Y-111515529D01*
X133224269Y-111515529D01*
X133224268Y-111515528D01*
X133101265Y-111433340D01*
X132996660Y-111328735D01*
X132914472Y-111205732D01*
X132857860Y-111069059D01*
X132847915Y-111019059D01*
X132829000Y-110923968D01*
X132829000Y-110776032D01*
X132857860Y-110630941D01*
X132914471Y-110494270D01*
X132924628Y-110479069D01*
X132996660Y-110371265D01*
X133101265Y-110266660D01*
X133224268Y-110184472D01*
X133240231Y-110177860D01*
X133360941Y-110127860D01*
X133506032Y-110099000D01*
X133653968Y-110099000D01*
X133799059Y-110127860D01*
G37*
G36*
X141419059Y-110127860D02*
G01*
X141539770Y-110177860D01*
X141555732Y-110184472D01*
X141678735Y-110266660D01*
X141783340Y-110371265D01*
X141855372Y-110479069D01*
X141865529Y-110494270D01*
X141922140Y-110630941D01*
X141951000Y-110776032D01*
X141951000Y-110923968D01*
X141932085Y-111019059D01*
X141922140Y-111069059D01*
X141865528Y-111205732D01*
X141783340Y-111328735D01*
X141678735Y-111433340D01*
X141555732Y-111515528D01*
X141555731Y-111515529D01*
X141555730Y-111515529D01*
X141419059Y-111572140D01*
X141273968Y-111601000D01*
X141126032Y-111601000D01*
X140980941Y-111572140D01*
X140844270Y-111515529D01*
X140844269Y-111515529D01*
X140844268Y-111515528D01*
X140721265Y-111433340D01*
X140616660Y-111328735D01*
X140534472Y-111205732D01*
X140477860Y-111069059D01*
X140467915Y-111019059D01*
X140449000Y-110923968D01*
X140449000Y-110776032D01*
X140477860Y-110630941D01*
X140534471Y-110494270D01*
X140544628Y-110479069D01*
X140616660Y-110371265D01*
X140721265Y-110266660D01*
X140844268Y-110184472D01*
X140860231Y-110177860D01*
X140980941Y-110127860D01*
X141126032Y-110099000D01*
X141273968Y-110099000D01*
X141419059Y-110127860D01*
G37*
G36*
X123399059Y-110077860D02*
G01*
X123519770Y-110127860D01*
X123535732Y-110134472D01*
X123658735Y-110216660D01*
X123763340Y-110321265D01*
X123763341Y-110321267D01*
X123845529Y-110444270D01*
X123902140Y-110580941D01*
X123931000Y-110726032D01*
X123931000Y-110873968D01*
X123911109Y-110973967D01*
X123902140Y-111019059D01*
X123845528Y-111155732D01*
X123763340Y-111278735D01*
X123658735Y-111383340D01*
X123535732Y-111465528D01*
X123535731Y-111465529D01*
X123535730Y-111465529D01*
X123399059Y-111522140D01*
X123253968Y-111551000D01*
X123106032Y-111551000D01*
X122960941Y-111522140D01*
X122824270Y-111465529D01*
X122824269Y-111465529D01*
X122824268Y-111465528D01*
X122701265Y-111383340D01*
X122596660Y-111278735D01*
X122514472Y-111155732D01*
X122457860Y-111019059D01*
X122448891Y-110973967D01*
X122429000Y-110873968D01*
X122429000Y-110726032D01*
X122457860Y-110580941D01*
X122514471Y-110444270D01*
X122596659Y-110321267D01*
X122596660Y-110321265D01*
X122701265Y-110216660D01*
X122824268Y-110134472D01*
X122840231Y-110127860D01*
X122960941Y-110077860D01*
X123106032Y-110049000D01*
X123253968Y-110049000D01*
X123399059Y-110077860D01*
G37*
G36*
X131019059Y-110077860D02*
G01*
X131139770Y-110127860D01*
X131155732Y-110134472D01*
X131278735Y-110216660D01*
X131383340Y-110321265D01*
X131383341Y-110321267D01*
X131465529Y-110444270D01*
X131522140Y-110580941D01*
X131551000Y-110726032D01*
X131551000Y-110873968D01*
X131531109Y-110973967D01*
X131522140Y-111019059D01*
X131465528Y-111155732D01*
X131383340Y-111278735D01*
X131278735Y-111383340D01*
X131155732Y-111465528D01*
X131155731Y-111465529D01*
X131155730Y-111465529D01*
X131019059Y-111522140D01*
X130873968Y-111551000D01*
X130726032Y-111551000D01*
X130580941Y-111522140D01*
X130444270Y-111465529D01*
X130444269Y-111465529D01*
X130444268Y-111465528D01*
X130321265Y-111383340D01*
X130216660Y-111278735D01*
X130134472Y-111155732D01*
X130077860Y-111019059D01*
X130068891Y-110973967D01*
X130049000Y-110873968D01*
X130049000Y-110726032D01*
X130077860Y-110580941D01*
X130134471Y-110444270D01*
X130216659Y-110321267D01*
X130216660Y-110321265D01*
X130321265Y-110216660D01*
X130444268Y-110134472D01*
X130460231Y-110127860D01*
X130580941Y-110077860D01*
X130726032Y-110049000D01*
X130873968Y-110049000D01*
X131019059Y-110077860D01*
G37*
G36*
X103711694Y-108728633D02*
G01*
X103884095Y-108780931D01*
X104042983Y-108865858D01*
X104182249Y-108980151D01*
X104296542Y-109119417D01*
X104381469Y-109278305D01*
X104433767Y-109450706D01*
X104451425Y-109630000D01*
X104433767Y-109809294D01*
X104381469Y-109981695D01*
X104296542Y-110140583D01*
X104182249Y-110279849D01*
X104042983Y-110394142D01*
X103884095Y-110479069D01*
X103711694Y-110531367D01*
X103577331Y-110544600D01*
X103182669Y-110544600D01*
X103048306Y-110531367D01*
X102875905Y-110479069D01*
X102717017Y-110394142D01*
X102577751Y-110279849D01*
X102463458Y-110140583D01*
X102378531Y-109981695D01*
X102326233Y-109809294D01*
X102308575Y-109630000D01*
X102326233Y-109450706D01*
X102378531Y-109278305D01*
X102463458Y-109119417D01*
X102577751Y-108980151D01*
X102717017Y-108865858D01*
X102875905Y-108780931D01*
X103048306Y-108728633D01*
X103182669Y-108715400D01*
X103577331Y-108715400D01*
X103711694Y-108728633D01*
G37*
G36*
X118951694Y-108728633D02*
G01*
X119124095Y-108780931D01*
X119282983Y-108865858D01*
X119422249Y-108980151D01*
X119536542Y-109119417D01*
X119621469Y-109278305D01*
X119673767Y-109450706D01*
X119691425Y-109630000D01*
X119673767Y-109809294D01*
X119621469Y-109981695D01*
X119536542Y-110140583D01*
X119422249Y-110279849D01*
X119282983Y-110394142D01*
X119124095Y-110479069D01*
X118951694Y-110531367D01*
X118817331Y-110544600D01*
X118422669Y-110544600D01*
X118288306Y-110531367D01*
X118115905Y-110479069D01*
X117957017Y-110394142D01*
X117817751Y-110279849D01*
X117703458Y-110140583D01*
X117618531Y-109981695D01*
X117566233Y-109809294D01*
X117548575Y-109630000D01*
X117566233Y-109450706D01*
X117618531Y-109278305D01*
X117703458Y-109119417D01*
X117817751Y-108980151D01*
X117957017Y-108865858D01*
X118115905Y-108780931D01*
X118288306Y-108728633D01*
X118422669Y-108715400D01*
X118817331Y-108715400D01*
X118951694Y-108728633D01*
G37*
G36*
X118951694Y-106188633D02*
G01*
X119124095Y-106240931D01*
X119282983Y-106325858D01*
X119422249Y-106440151D01*
X119536542Y-106579417D01*
X119621469Y-106738305D01*
X119673767Y-106910706D01*
X119691425Y-107090000D01*
X119673767Y-107269294D01*
X119621469Y-107441695D01*
X119536542Y-107600583D01*
X119422249Y-107739849D01*
X119282983Y-107854142D01*
X119124095Y-107939069D01*
X118951694Y-107991367D01*
X118817331Y-108004600D01*
X118422669Y-108004600D01*
X118288306Y-107991367D01*
X118115905Y-107939069D01*
X117957017Y-107854142D01*
X117817751Y-107739849D01*
X117703458Y-107600583D01*
X117618531Y-107441695D01*
X117566233Y-107269294D01*
X117548575Y-107090000D01*
X117566233Y-106910706D01*
X117618531Y-106738305D01*
X117703458Y-106579417D01*
X117817751Y-106440151D01*
X117957017Y-106325858D01*
X118115905Y-106240931D01*
X118288306Y-106188633D01*
X118422669Y-106175400D01*
X118817331Y-106175400D01*
X118951694Y-106188633D01*
G37*
G36*
X103711694Y-106188633D02*
G01*
X103884095Y-106240931D01*
X104042983Y-106325858D01*
X104182249Y-106440151D01*
X104296542Y-106579417D01*
X104381469Y-106738305D01*
X104433767Y-106910706D01*
X104451425Y-107090000D01*
X104433767Y-107269294D01*
X104381469Y-107441695D01*
X104296542Y-107600583D01*
X104182249Y-107739849D01*
X104042983Y-107854142D01*
X103884095Y-107939069D01*
X103711694Y-107991367D01*
X103577331Y-108004600D01*
X103182669Y-108004600D01*
X103048306Y-107991367D01*
X102875905Y-107939069D01*
X102717017Y-107854142D01*
X102577751Y-107739849D01*
X102463458Y-107600583D01*
X102378531Y-107441695D01*
X102326233Y-107269294D01*
X102308575Y-107090000D01*
X102326233Y-106910706D01*
X102378531Y-106738305D01*
X102463458Y-106579417D01*
X102577751Y-106440151D01*
X102717017Y-106325858D01*
X102875905Y-106240931D01*
X103048306Y-106188633D01*
X103182669Y-106175400D01*
X103577331Y-106175400D01*
X103711694Y-106188633D01*
G37*
G36*
X118951694Y-103648633D02*
G01*
X119124095Y-103700931D01*
X119282983Y-103785858D01*
X119422249Y-103900151D01*
X119536542Y-104039417D01*
X119621469Y-104198305D01*
X119673767Y-104370706D01*
X119691425Y-104550000D01*
X119673767Y-104729294D01*
X119621469Y-104901695D01*
X119536542Y-105060583D01*
X119422249Y-105199849D01*
X119282983Y-105314142D01*
X119124095Y-105399069D01*
X118951694Y-105451367D01*
X118817331Y-105464600D01*
X118422669Y-105464600D01*
X118288306Y-105451367D01*
X118115905Y-105399069D01*
X117957017Y-105314142D01*
X117817751Y-105199849D01*
X117703458Y-105060583D01*
X117618531Y-104901695D01*
X117566233Y-104729294D01*
X117548575Y-104550000D01*
X117566233Y-104370706D01*
X117618531Y-104198305D01*
X117703458Y-104039417D01*
X117817751Y-103900151D01*
X117957017Y-103785858D01*
X118115905Y-103700931D01*
X118288306Y-103648633D01*
X118422669Y-103635400D01*
X118817331Y-103635400D01*
X118951694Y-103648633D01*
G37*
G36*
X103711694Y-103648633D02*
G01*
X103884095Y-103700931D01*
X104042983Y-103785858D01*
X104182249Y-103900151D01*
X104296542Y-104039417D01*
X104381469Y-104198305D01*
X104433767Y-104370706D01*
X104451425Y-104550000D01*
X104433767Y-104729294D01*
X104381469Y-104901695D01*
X104296542Y-105060583D01*
X104182249Y-105199849D01*
X104042983Y-105314142D01*
X103884095Y-105399069D01*
X103711694Y-105451367D01*
X103577331Y-105464600D01*
X103182669Y-105464600D01*
X103048306Y-105451367D01*
X102875905Y-105399069D01*
X102717017Y-105314142D01*
X102577751Y-105199849D01*
X102463458Y-105060583D01*
X102378531Y-104901695D01*
X102326233Y-104729294D01*
X102308575Y-104550000D01*
X102326233Y-104370706D01*
X102378531Y-104198305D01*
X102463458Y-104039417D01*
X102577751Y-103900151D01*
X102717017Y-103785858D01*
X102875905Y-103700931D01*
X103048306Y-103648633D01*
X103182669Y-103635400D01*
X103577331Y-103635400D01*
X103711694Y-103648633D01*
G37*
G36*
X136951000Y-104851000D02*
G01*
X135049000Y-104851000D01*
X135049000Y-102949000D01*
X136951000Y-102949000D01*
X136951000Y-104851000D01*
G37*
G36*
X138817395Y-102985546D02*
G01*
X138990466Y-103057234D01*
X138990467Y-103057235D01*
X139146227Y-103161310D01*
X139278690Y-103293773D01*
X139321284Y-103357520D01*
X139382766Y-103449534D01*
X139454454Y-103622605D01*
X139491000Y-103806333D01*
X139491000Y-103993667D01*
X139454454Y-104177395D01*
X139382766Y-104350466D01*
X139382765Y-104350467D01*
X139278690Y-104506227D01*
X139146227Y-104638690D01*
X139123092Y-104654148D01*
X138990466Y-104742766D01*
X138817395Y-104814454D01*
X138633667Y-104851000D01*
X138446333Y-104851000D01*
X138262605Y-104814454D01*
X138089534Y-104742766D01*
X137956908Y-104654148D01*
X137933773Y-104638690D01*
X137801310Y-104506227D01*
X137697235Y-104350467D01*
X137697234Y-104350466D01*
X137625546Y-104177395D01*
X137589000Y-103993667D01*
X137589000Y-103806333D01*
X137625546Y-103622605D01*
X137697234Y-103449534D01*
X137758716Y-103357520D01*
X137801310Y-103293773D01*
X137933773Y-103161310D01*
X138089533Y-103057235D01*
X138089534Y-103057234D01*
X138262605Y-102985546D01*
X138446333Y-102949000D01*
X138633667Y-102949000D01*
X138817395Y-102985546D01*
G37*
G36*
X128667395Y-102935546D02*
G01*
X128840466Y-103007234D01*
X128840467Y-103007235D01*
X128996227Y-103111310D01*
X129128690Y-103243773D01*
X129128691Y-103243775D01*
X129232766Y-103399534D01*
X129304454Y-103572605D01*
X129341000Y-103756333D01*
X129341000Y-103943667D01*
X129304454Y-104127395D01*
X129232766Y-104300466D01*
X129232765Y-104300467D01*
X129128690Y-104456227D01*
X128996227Y-104588690D01*
X128921396Y-104638690D01*
X128840466Y-104692766D01*
X128667395Y-104764454D01*
X128483667Y-104801000D01*
X128296333Y-104801000D01*
X128112605Y-104764454D01*
X127939534Y-104692766D01*
X127858604Y-104638690D01*
X127783773Y-104588690D01*
X127651310Y-104456227D01*
X127547235Y-104300467D01*
X127547234Y-104300466D01*
X127475546Y-104127395D01*
X127439000Y-103943667D01*
X127439000Y-103756333D01*
X127475546Y-103572605D01*
X127547234Y-103399534D01*
X127651309Y-103243775D01*
X127651310Y-103243773D01*
X127783773Y-103111310D01*
X127939533Y-103007235D01*
X127939534Y-103007234D01*
X128112605Y-102935546D01*
X128296333Y-102899000D01*
X128483667Y-102899000D01*
X128667395Y-102935546D01*
G37*
G36*
X126801000Y-104801000D02*
G01*
X124899000Y-104801000D01*
X124899000Y-102899000D01*
X126801000Y-102899000D01*
X126801000Y-104801000D01*
G37*
G36*
X161548228Y-103081703D02*
G01*
X161703100Y-103145853D01*
X161842481Y-103238985D01*
X161961015Y-103357519D01*
X162054147Y-103496900D01*
X162118297Y-103651772D01*
X162151000Y-103816184D01*
X162151000Y-103983816D01*
X162118297Y-104148228D01*
X162054147Y-104303100D01*
X161961015Y-104442481D01*
X161842481Y-104561015D01*
X161703100Y-104654147D01*
X161548228Y-104718297D01*
X161383816Y-104751000D01*
X161216184Y-104751000D01*
X161051772Y-104718297D01*
X160896900Y-104654147D01*
X160757519Y-104561015D01*
X160638985Y-104442481D01*
X160545853Y-104303100D01*
X160481703Y-104148228D01*
X160449000Y-103983816D01*
X160449000Y-103816184D01*
X160481703Y-103651772D01*
X160545853Y-103496900D01*
X160638985Y-103357519D01*
X160757519Y-103238985D01*
X160896900Y-103145853D01*
X161051772Y-103081703D01*
X161216184Y-103049000D01*
X161383816Y-103049000D01*
X161548228Y-103081703D01*
G37*
G36*
X158651000Y-104751000D02*
G01*
X156949000Y-104751000D01*
X156949000Y-103049000D01*
X158651000Y-103049000D01*
X158651000Y-104751000D01*
G37*
G36*
X118951694Y-101108633D02*
G01*
X119124095Y-101160931D01*
X119282983Y-101245858D01*
X119422249Y-101360151D01*
X119536542Y-101499417D01*
X119621469Y-101658305D01*
X119673767Y-101830706D01*
X119691425Y-102010000D01*
X119673767Y-102189294D01*
X119621469Y-102361695D01*
X119536542Y-102520583D01*
X119422249Y-102659849D01*
X119282983Y-102774142D01*
X119124095Y-102859069D01*
X118951694Y-102911367D01*
X118817331Y-102924600D01*
X118422669Y-102924600D01*
X118288306Y-102911367D01*
X118115905Y-102859069D01*
X117957017Y-102774142D01*
X117817751Y-102659849D01*
X117703458Y-102520583D01*
X117618531Y-102361695D01*
X117566233Y-102189294D01*
X117548575Y-102010000D01*
X117566233Y-101830706D01*
X117618531Y-101658305D01*
X117703458Y-101499417D01*
X117817751Y-101360151D01*
X117957017Y-101245858D01*
X118115905Y-101160931D01*
X118288306Y-101108633D01*
X118422669Y-101095400D01*
X118817331Y-101095400D01*
X118951694Y-101108633D01*
G37*
G36*
X103711694Y-101108633D02*
G01*
X103884095Y-101160931D01*
X104042983Y-101245858D01*
X104182249Y-101360151D01*
X104296542Y-101499417D01*
X104381469Y-101658305D01*
X104433767Y-101830706D01*
X104451425Y-102010000D01*
X104433767Y-102189294D01*
X104381469Y-102361695D01*
X104296542Y-102520583D01*
X104182249Y-102659849D01*
X104042983Y-102774142D01*
X103884095Y-102859069D01*
X103711694Y-102911367D01*
X103577331Y-102924600D01*
X103182669Y-102924600D01*
X103048306Y-102911367D01*
X102875905Y-102859069D01*
X102717017Y-102774142D01*
X102577751Y-102659849D01*
X102463458Y-102520583D01*
X102378531Y-102361695D01*
X102326233Y-102189294D01*
X102308575Y-102010000D01*
X102326233Y-101830706D01*
X102378531Y-101658305D01*
X102463458Y-101499417D01*
X102577751Y-101360151D01*
X102717017Y-101245858D01*
X102875905Y-101160931D01*
X103048306Y-101108633D01*
X103182669Y-101095400D01*
X103577331Y-101095400D01*
X103711694Y-101108633D01*
G37*
G36*
X118951694Y-98568633D02*
G01*
X119124095Y-98620931D01*
X119282983Y-98705858D01*
X119422249Y-98820151D01*
X119536542Y-98959417D01*
X119621469Y-99118305D01*
X119673767Y-99290706D01*
X119691425Y-99470000D01*
X119673767Y-99649294D01*
X119621469Y-99821695D01*
X119536542Y-99980583D01*
X119422249Y-100119849D01*
X119282983Y-100234142D01*
X119124095Y-100319069D01*
X118951694Y-100371367D01*
X118817331Y-100384600D01*
X118422669Y-100384600D01*
X118288306Y-100371367D01*
X118115905Y-100319069D01*
X117957017Y-100234142D01*
X117817751Y-100119849D01*
X117703458Y-99980583D01*
X117618531Y-99821695D01*
X117566233Y-99649294D01*
X117548575Y-99470000D01*
X117566233Y-99290706D01*
X117618531Y-99118305D01*
X117703458Y-98959417D01*
X117817751Y-98820151D01*
X117957017Y-98705858D01*
X118115905Y-98620931D01*
X118288306Y-98568633D01*
X118422669Y-98555400D01*
X118817331Y-98555400D01*
X118951694Y-98568633D01*
G37*
G36*
X103711694Y-98568633D02*
G01*
X103884095Y-98620931D01*
X104042983Y-98705858D01*
X104182249Y-98820151D01*
X104296542Y-98959417D01*
X104381469Y-99118305D01*
X104433767Y-99290706D01*
X104451425Y-99470000D01*
X104433767Y-99649294D01*
X104381469Y-99821695D01*
X104296542Y-99980583D01*
X104182249Y-100119849D01*
X104042983Y-100234142D01*
X103884095Y-100319069D01*
X103711694Y-100371367D01*
X103577331Y-100384600D01*
X103182669Y-100384600D01*
X103048306Y-100371367D01*
X102875905Y-100319069D01*
X102717017Y-100234142D01*
X102577751Y-100119849D01*
X102463458Y-99980583D01*
X102378531Y-99821695D01*
X102326233Y-99649294D01*
X102308575Y-99470000D01*
X102326233Y-99290706D01*
X102378531Y-99118305D01*
X102463458Y-98959417D01*
X102577751Y-98820151D01*
X102717017Y-98705858D01*
X102875905Y-98620931D01*
X103048306Y-98568633D01*
X103182669Y-98555400D01*
X103577331Y-98555400D01*
X103711694Y-98568633D01*
G37*
G36*
X118951694Y-96028633D02*
G01*
X119124095Y-96080931D01*
X119282983Y-96165858D01*
X119422249Y-96280151D01*
X119536542Y-96419417D01*
X119621469Y-96578305D01*
X119673767Y-96750706D01*
X119691425Y-96930000D01*
X119673767Y-97109294D01*
X119621469Y-97281695D01*
X119536542Y-97440583D01*
X119422249Y-97579849D01*
X119282983Y-97694142D01*
X119124095Y-97779069D01*
X118951694Y-97831367D01*
X118817331Y-97844600D01*
X118422669Y-97844600D01*
X118288306Y-97831367D01*
X118115905Y-97779069D01*
X117957017Y-97694142D01*
X117817751Y-97579849D01*
X117703458Y-97440583D01*
X117618531Y-97281695D01*
X117566233Y-97109294D01*
X117548575Y-96930000D01*
X117566233Y-96750706D01*
X117618531Y-96578305D01*
X117703458Y-96419417D01*
X117817751Y-96280151D01*
X117957017Y-96165858D01*
X118115905Y-96080931D01*
X118288306Y-96028633D01*
X118422669Y-96015400D01*
X118817331Y-96015400D01*
X118951694Y-96028633D01*
G37*
G36*
X103711694Y-96028633D02*
G01*
X103884095Y-96080931D01*
X104042983Y-96165858D01*
X104182249Y-96280151D01*
X104296542Y-96419417D01*
X104381469Y-96578305D01*
X104433767Y-96750706D01*
X104451425Y-96930000D01*
X104433767Y-97109294D01*
X104381469Y-97281695D01*
X104296542Y-97440583D01*
X104182249Y-97579849D01*
X104042983Y-97694142D01*
X103884095Y-97779069D01*
X103711694Y-97831367D01*
X103577331Y-97844600D01*
X103182669Y-97844600D01*
X103048306Y-97831367D01*
X102875905Y-97779069D01*
X102717017Y-97694142D01*
X102577751Y-97579849D01*
X102463458Y-97440583D01*
X102378531Y-97281695D01*
X102326233Y-97109294D01*
X102308575Y-96930000D01*
X102326233Y-96750706D01*
X102378531Y-96578305D01*
X102463458Y-96419417D01*
X102577751Y-96280151D01*
X102717017Y-96165858D01*
X102875905Y-96080931D01*
X103048306Y-96028633D01*
X103182669Y-96015400D01*
X103577331Y-96015400D01*
X103711694Y-96028633D01*
G37*
G36*
X125575256Y-93591298D02*
G01*
X125681579Y-93612447D01*
X125982042Y-93736903D01*
X126252451Y-93917585D01*
X126482415Y-94147549D01*
X126663097Y-94417958D01*
X126787553Y-94718421D01*
X126851000Y-95037391D01*
X126851000Y-95362609D01*
X126787553Y-95681579D01*
X126663097Y-95982042D01*
X126482415Y-96252451D01*
X126252451Y-96482415D01*
X125982042Y-96663097D01*
X125681579Y-96787553D01*
X125575256Y-96808702D01*
X125362611Y-96851000D01*
X125037389Y-96851000D01*
X124824744Y-96808702D01*
X124718421Y-96787553D01*
X124417958Y-96663097D01*
X124147549Y-96482415D01*
X123917585Y-96252451D01*
X123736903Y-95982042D01*
X123612447Y-95681579D01*
X123549000Y-95362609D01*
X123549000Y-95037391D01*
X123612447Y-94718421D01*
X123736903Y-94417958D01*
X123917585Y-94147549D01*
X124147549Y-93917585D01*
X124417958Y-93736903D01*
X124718421Y-93612447D01*
X124824744Y-93591298D01*
X125037389Y-93549000D01*
X125362611Y-93549000D01*
X125575256Y-93591298D01*
G37*
G36*
X118951694Y-93488633D02*
G01*
X119124095Y-93540931D01*
X119282983Y-93625858D01*
X119422249Y-93740151D01*
X119536542Y-93879417D01*
X119621469Y-94038305D01*
X119673767Y-94210706D01*
X119691425Y-94390000D01*
X119673767Y-94569294D01*
X119621469Y-94741695D01*
X119536542Y-94900583D01*
X119422249Y-95039849D01*
X119282983Y-95154142D01*
X119124095Y-95239069D01*
X118951694Y-95291367D01*
X118817331Y-95304600D01*
X118422669Y-95304600D01*
X118288306Y-95291367D01*
X118115905Y-95239069D01*
X117957017Y-95154142D01*
X117817751Y-95039849D01*
X117703458Y-94900583D01*
X117618531Y-94741695D01*
X117566233Y-94569294D01*
X117548575Y-94390000D01*
X117566233Y-94210706D01*
X117618531Y-94038305D01*
X117703458Y-93879417D01*
X117817751Y-93740151D01*
X117957017Y-93625858D01*
X118115905Y-93540931D01*
X118288306Y-93488633D01*
X118422669Y-93475400D01*
X118817331Y-93475400D01*
X118951694Y-93488633D01*
G37*
G36*
X103711694Y-93488633D02*
G01*
X103884095Y-93540931D01*
X104042983Y-93625858D01*
X104182249Y-93740151D01*
X104296542Y-93879417D01*
X104381469Y-94038305D01*
X104433767Y-94210706D01*
X104451425Y-94390000D01*
X104433767Y-94569294D01*
X104381469Y-94741695D01*
X104296542Y-94900583D01*
X104182249Y-95039849D01*
X104042983Y-95154142D01*
X103884095Y-95239069D01*
X103711694Y-95291367D01*
X103577331Y-95304600D01*
X103182669Y-95304600D01*
X103048306Y-95291367D01*
X102875905Y-95239069D01*
X102717017Y-95154142D01*
X102577751Y-95039849D01*
X102463458Y-94900583D01*
X102378531Y-94741695D01*
X102326233Y-94569294D01*
X102308575Y-94390000D01*
X102326233Y-94210706D01*
X102378531Y-94038305D01*
X102463458Y-93879417D01*
X102577751Y-93740151D01*
X102717017Y-93625858D01*
X102875905Y-93540931D01*
X103048306Y-93488633D01*
X103182669Y-93475400D01*
X103577331Y-93475400D01*
X103711694Y-93488633D01*
G37*
G36*
X161087142Y-92468242D02*
G01*
X161235101Y-92529529D01*
X161368255Y-92618499D01*
X161481501Y-92731745D01*
X161570471Y-92864899D01*
X161631758Y-93012858D01*
X161663000Y-93169925D01*
X161663000Y-93330075D01*
X161631758Y-93487142D01*
X161570471Y-93635101D01*
X161481501Y-93768255D01*
X161368255Y-93881501D01*
X161235101Y-93970471D01*
X161087142Y-94031758D01*
X160930075Y-94063000D01*
X160769925Y-94063000D01*
X160612858Y-94031758D01*
X160464899Y-93970471D01*
X160331745Y-93881501D01*
X160218499Y-93768255D01*
X160129529Y-93635101D01*
X160068242Y-93487142D01*
X160037000Y-93330075D01*
X160037000Y-93169925D01*
X160068242Y-93012858D01*
X160129529Y-92864899D01*
X160218499Y-92731745D01*
X160331745Y-92618499D01*
X160464899Y-92529529D01*
X160612858Y-92468242D01*
X160769925Y-92437000D01*
X160930075Y-92437000D01*
X161087142Y-92468242D01*
G37*
G36*
X118951694Y-90948633D02*
G01*
X119124095Y-91000931D01*
X119282983Y-91085858D01*
X119422249Y-91200151D01*
X119536542Y-91339417D01*
X119621469Y-91498305D01*
X119673767Y-91670706D01*
X119691425Y-91850000D01*
X119673767Y-92029294D01*
X119621469Y-92201695D01*
X119536542Y-92360583D01*
X119422249Y-92499849D01*
X119282983Y-92614142D01*
X119124095Y-92699069D01*
X118951694Y-92751367D01*
X118817331Y-92764600D01*
X118422669Y-92764600D01*
X118288306Y-92751367D01*
X118115905Y-92699069D01*
X117957017Y-92614142D01*
X117817751Y-92499849D01*
X117703458Y-92360583D01*
X117618531Y-92201695D01*
X117566233Y-92029294D01*
X117548575Y-91850000D01*
X117566233Y-91670706D01*
X117618531Y-91498305D01*
X117703458Y-91339417D01*
X117817751Y-91200151D01*
X117957017Y-91085858D01*
X118115905Y-91000931D01*
X118288306Y-90948633D01*
X118422669Y-90935400D01*
X118817331Y-90935400D01*
X118951694Y-90948633D01*
G37*
G36*
X103711694Y-90948633D02*
G01*
X103884095Y-91000931D01*
X104042983Y-91085858D01*
X104182249Y-91200151D01*
X104296542Y-91339417D01*
X104381469Y-91498305D01*
X104433767Y-91670706D01*
X104451425Y-91850000D01*
X104433767Y-92029294D01*
X104381469Y-92201695D01*
X104296542Y-92360583D01*
X104182249Y-92499849D01*
X104042983Y-92614142D01*
X103884095Y-92699069D01*
X103711694Y-92751367D01*
X103577331Y-92764600D01*
X103182669Y-92764600D01*
X103048306Y-92751367D01*
X102875905Y-92699069D01*
X102717017Y-92614142D01*
X102577751Y-92499849D01*
X102463458Y-92360583D01*
X102378531Y-92201695D01*
X102326233Y-92029294D01*
X102308575Y-91850000D01*
X102326233Y-91670706D01*
X102378531Y-91498305D01*
X102463458Y-91339417D01*
X102577751Y-91200151D01*
X102717017Y-91085858D01*
X102875905Y-91000931D01*
X103048306Y-90948633D01*
X103182669Y-90935400D01*
X103577331Y-90935400D01*
X103711694Y-90948633D01*
G37*
G36*
X161087142Y-90468242D02*
G01*
X161235101Y-90529529D01*
X161368255Y-90618499D01*
X161481501Y-90731745D01*
X161570471Y-90864899D01*
X161631758Y-91012858D01*
X161663000Y-91169925D01*
X161663000Y-91330075D01*
X161631758Y-91487142D01*
X161570471Y-91635101D01*
X161481501Y-91768255D01*
X161368255Y-91881501D01*
X161235101Y-91970471D01*
X161087142Y-92031758D01*
X160930075Y-92063000D01*
X160769925Y-92063000D01*
X160612858Y-92031758D01*
X160464899Y-91970471D01*
X160331745Y-91881501D01*
X160218499Y-91768255D01*
X160129529Y-91635101D01*
X160068242Y-91487142D01*
X160037000Y-91330075D01*
X160037000Y-91169925D01*
X160068242Y-91012858D01*
X160129529Y-90864899D01*
X160218499Y-90731745D01*
X160331745Y-90618499D01*
X160464899Y-90529529D01*
X160612858Y-90468242D01*
X160769925Y-90437000D01*
X160930075Y-90437000D01*
X161087142Y-90468242D01*
G37*
G36*
X118951694Y-88408633D02*
G01*
X119124095Y-88460931D01*
X119282983Y-88545858D01*
X119422249Y-88660151D01*
X119536542Y-88799417D01*
X119621469Y-88958305D01*
X119673767Y-89130706D01*
X119691425Y-89310000D01*
X119673767Y-89489294D01*
X119621469Y-89661695D01*
X119536542Y-89820583D01*
X119422249Y-89959849D01*
X119282983Y-90074142D01*
X119124095Y-90159069D01*
X118951694Y-90211367D01*
X118817331Y-90224600D01*
X118422669Y-90224600D01*
X118288306Y-90211367D01*
X118115905Y-90159069D01*
X117957017Y-90074142D01*
X117817751Y-89959849D01*
X117703458Y-89820583D01*
X117618531Y-89661695D01*
X117566233Y-89489294D01*
X117548575Y-89310000D01*
X117566233Y-89130706D01*
X117618531Y-88958305D01*
X117703458Y-88799417D01*
X117817751Y-88660151D01*
X117957017Y-88545858D01*
X118115905Y-88460931D01*
X118288306Y-88408633D01*
X118422669Y-88395400D01*
X118817331Y-88395400D01*
X118951694Y-88408633D01*
G37*
G36*
X103711694Y-88408633D02*
G01*
X103884095Y-88460931D01*
X104042983Y-88545858D01*
X104182249Y-88660151D01*
X104296542Y-88799417D01*
X104381469Y-88958305D01*
X104433767Y-89130706D01*
X104451425Y-89310000D01*
X104433767Y-89489294D01*
X104381469Y-89661695D01*
X104296542Y-89820583D01*
X104182249Y-89959849D01*
X104042983Y-90074142D01*
X103884095Y-90159069D01*
X103711694Y-90211367D01*
X103577331Y-90224600D01*
X103182669Y-90224600D01*
X103048306Y-90211367D01*
X102875905Y-90159069D01*
X102717017Y-90074142D01*
X102577751Y-89959849D01*
X102463458Y-89820583D01*
X102378531Y-89661695D01*
X102326233Y-89489294D01*
X102308575Y-89310000D01*
X102326233Y-89130706D01*
X102378531Y-88958305D01*
X102463458Y-88799417D01*
X102577751Y-88660151D01*
X102717017Y-88545858D01*
X102875905Y-88460931D01*
X103048306Y-88408633D01*
X103182669Y-88395400D01*
X103577331Y-88395400D01*
X103711694Y-88408633D01*
G37*
G36*
X161087142Y-87968242D02*
G01*
X161235101Y-88029529D01*
X161368255Y-88118499D01*
X161481501Y-88231745D01*
X161570471Y-88364899D01*
X161631758Y-88512858D01*
X161663000Y-88669925D01*
X161663000Y-88830075D01*
X161631758Y-88987142D01*
X161570471Y-89135101D01*
X161481501Y-89268255D01*
X161368255Y-89381501D01*
X161235101Y-89470471D01*
X161087142Y-89531758D01*
X160930075Y-89563000D01*
X160769925Y-89563000D01*
X160612858Y-89531758D01*
X160464899Y-89470471D01*
X160331745Y-89381501D01*
X160218499Y-89268255D01*
X160129529Y-89135101D01*
X160068242Y-88987142D01*
X160037000Y-88830075D01*
X160037000Y-88669925D01*
X160068242Y-88512858D01*
X160129529Y-88364899D01*
X160218499Y-88231745D01*
X160331745Y-88118499D01*
X160464899Y-88029529D01*
X160612858Y-87968242D01*
X160769925Y-87937000D01*
X160930075Y-87937000D01*
X161087142Y-87968242D01*
G37*
G36*
X103711694Y-85868633D02*
G01*
X103884095Y-85920931D01*
X104042983Y-86005858D01*
X104182249Y-86120151D01*
X104296542Y-86259417D01*
X104381469Y-86418305D01*
X104433767Y-86590706D01*
X104451425Y-86770000D01*
X104433767Y-86949294D01*
X104381469Y-87121695D01*
X104296542Y-87280583D01*
X104182249Y-87419849D01*
X104042983Y-87534142D01*
X103884095Y-87619069D01*
X103711694Y-87671367D01*
X103577331Y-87684600D01*
X103182669Y-87684600D01*
X103048306Y-87671367D01*
X102875905Y-87619069D01*
X102717017Y-87534142D01*
X102577751Y-87419849D01*
X102463458Y-87280583D01*
X102378531Y-87121695D01*
X102326233Y-86949294D01*
X102308575Y-86770000D01*
X102326233Y-86590706D01*
X102378531Y-86418305D01*
X102463458Y-86259417D01*
X102577751Y-86120151D01*
X102717017Y-86005858D01*
X102875905Y-85920931D01*
X103048306Y-85868633D01*
X103182669Y-85855400D01*
X103577331Y-85855400D01*
X103711694Y-85868633D01*
G37*
G36*
X118951694Y-85868633D02*
G01*
X119124095Y-85920931D01*
X119282983Y-86005858D01*
X119422249Y-86120151D01*
X119536542Y-86259417D01*
X119621469Y-86418305D01*
X119673767Y-86590706D01*
X119691425Y-86770000D01*
X119673767Y-86949294D01*
X119621469Y-87121695D01*
X119536542Y-87280583D01*
X119422249Y-87419849D01*
X119282983Y-87534142D01*
X119124095Y-87619069D01*
X118951694Y-87671367D01*
X118817331Y-87684600D01*
X118422669Y-87684600D01*
X118288306Y-87671367D01*
X118115905Y-87619069D01*
X117957017Y-87534142D01*
X117817751Y-87419849D01*
X117703458Y-87280583D01*
X117618531Y-87121695D01*
X117566233Y-86949294D01*
X117548575Y-86770000D01*
X117566233Y-86590706D01*
X117618531Y-86418305D01*
X117703458Y-86259417D01*
X117817751Y-86120151D01*
X117957017Y-86005858D01*
X118115905Y-85920931D01*
X118288306Y-85868633D01*
X118422669Y-85855400D01*
X118817331Y-85855400D01*
X118951694Y-85868633D01*
G37*
G36*
X161087142Y-85468242D02*
G01*
X161235101Y-85529529D01*
X161368255Y-85618499D01*
X161481501Y-85731745D01*
X161570471Y-85864899D01*
X161631758Y-86012858D01*
X161663000Y-86169925D01*
X161663000Y-86330075D01*
X161631758Y-86487142D01*
X161570471Y-86635101D01*
X161481501Y-86768255D01*
X161368255Y-86881501D01*
X161235101Y-86970471D01*
X161087142Y-87031758D01*
X160930075Y-87063000D01*
X160769925Y-87063000D01*
X160612858Y-87031758D01*
X160464899Y-86970471D01*
X160331745Y-86881501D01*
X160218499Y-86768255D01*
X160129529Y-86635101D01*
X160068242Y-86487142D01*
X160037000Y-86330075D01*
X160037000Y-86169925D01*
X160068242Y-86012858D01*
X160129529Y-85864899D01*
X160218499Y-85731745D01*
X160331745Y-85618499D01*
X160464899Y-85529529D01*
X160612858Y-85468242D01*
X160769925Y-85437000D01*
X160930075Y-85437000D01*
X161087142Y-85468242D01*
G37*
G36*
X161087142Y-82968242D02*
G01*
X161235101Y-83029529D01*
X161368255Y-83118499D01*
X161481501Y-83231745D01*
X161570471Y-83364899D01*
X161631758Y-83512858D01*
X161663000Y-83669925D01*
X161663000Y-83830075D01*
X161631758Y-83987142D01*
X161570471Y-84135101D01*
X161481501Y-84268255D01*
X161368255Y-84381501D01*
X161235101Y-84470471D01*
X161087142Y-84531758D01*
X160930075Y-84563000D01*
X160769925Y-84563000D01*
X160612858Y-84531758D01*
X160464899Y-84470471D01*
X160331745Y-84381501D01*
X160218499Y-84268255D01*
X160129529Y-84135101D01*
X160068242Y-83987142D01*
X160037000Y-83830075D01*
X160037000Y-83669925D01*
X160068242Y-83512858D01*
X160129529Y-83364899D01*
X160218499Y-83231745D01*
X160331745Y-83118499D01*
X160464899Y-83029529D01*
X160612858Y-82968242D01*
X160769925Y-82937000D01*
X160930075Y-82937000D01*
X161087142Y-82968242D01*
G37*
G36*
X184287142Y-82018242D02*
G01*
X184435101Y-82079529D01*
X184568255Y-82168499D01*
X184681501Y-82281745D01*
X184770471Y-82414899D01*
X184831758Y-82562858D01*
X184863000Y-82719925D01*
X184863000Y-82880075D01*
X184831758Y-83037142D01*
X184770471Y-83185101D01*
X184681501Y-83318255D01*
X184568255Y-83431501D01*
X184435101Y-83520471D01*
X184287142Y-83581758D01*
X184130075Y-83613000D01*
X183969925Y-83613000D01*
X183812858Y-83581758D01*
X183664899Y-83520471D01*
X183531745Y-83431501D01*
X183418499Y-83318255D01*
X183329529Y-83185101D01*
X183268242Y-83037142D01*
X183237000Y-82880075D01*
X183237000Y-82719925D01*
X183268242Y-82562858D01*
X183329529Y-82414899D01*
X183418499Y-82281745D01*
X183531745Y-82168499D01*
X183664899Y-82079529D01*
X183812858Y-82018242D01*
X183969925Y-81987000D01*
X184130075Y-81987000D01*
X184287142Y-82018242D01*
G37*
G36*
X166787142Y-82018242D02*
G01*
X166935101Y-82079529D01*
X167068255Y-82168499D01*
X167181501Y-82281745D01*
X167270471Y-82414899D01*
X167331758Y-82562858D01*
X167363000Y-82719925D01*
X167363000Y-82880075D01*
X167331758Y-83037142D01*
X167270471Y-83185101D01*
X167181501Y-83318255D01*
X167068255Y-83431501D01*
X166935101Y-83520471D01*
X166787142Y-83581758D01*
X166630075Y-83613000D01*
X166469925Y-83613000D01*
X166312858Y-83581758D01*
X166164899Y-83520471D01*
X166031745Y-83431501D01*
X165918499Y-83318255D01*
X165829529Y-83185101D01*
X165768242Y-83037142D01*
X165737000Y-82880075D01*
X165737000Y-82719925D01*
X165768242Y-82562858D01*
X165829529Y-82414899D01*
X165918499Y-82281745D01*
X166031745Y-82168499D01*
X166164899Y-82079529D01*
X166312858Y-82018242D01*
X166469925Y-81987000D01*
X166630075Y-81987000D01*
X166787142Y-82018242D01*
G37*
G36*
X161087142Y-80468242D02*
G01*
X161235101Y-80529529D01*
X161368255Y-80618499D01*
X161481501Y-80731745D01*
X161570471Y-80864899D01*
X161631758Y-81012858D01*
X161663000Y-81169925D01*
X161663000Y-81330075D01*
X161631758Y-81487142D01*
X161570471Y-81635101D01*
X161481501Y-81768255D01*
X161368255Y-81881501D01*
X161235101Y-81970471D01*
X161087142Y-82031758D01*
X160930075Y-82063000D01*
X160769925Y-82063000D01*
X160612858Y-82031758D01*
X160464899Y-81970471D01*
X160331745Y-81881501D01*
X160218499Y-81768255D01*
X160129529Y-81635101D01*
X160068242Y-81487142D01*
X160037000Y-81330075D01*
X160037000Y-81169925D01*
X160068242Y-81012858D01*
X160129529Y-80864899D01*
X160218499Y-80731745D01*
X160331745Y-80618499D01*
X160464899Y-80529529D01*
X160612858Y-80468242D01*
X160769925Y-80437000D01*
X160930075Y-80437000D01*
X161087142Y-80468242D01*
G37*
G36*
X161663000Y-79563000D02*
G01*
X160037000Y-79563000D01*
X160037000Y-77937000D01*
X161663000Y-77937000D01*
X161663000Y-79563000D01*
G37*
G36*
X105875256Y-74291298D02*
G01*
X105981579Y-74312447D01*
X106282042Y-74436903D01*
X106552451Y-74617585D01*
X106782415Y-74847549D01*
X106963097Y-75117958D01*
X107087553Y-75418421D01*
X107151000Y-75737391D01*
X107151000Y-76062609D01*
X107087553Y-76381579D01*
X106963097Y-76682042D01*
X106782415Y-76952451D01*
X106552451Y-77182415D01*
X106282042Y-77363097D01*
X105981579Y-77487553D01*
X105875256Y-77508702D01*
X105662611Y-77551000D01*
X105337389Y-77551000D01*
X105124744Y-77508702D01*
X105018421Y-77487553D01*
X104717958Y-77363097D01*
X104447549Y-77182415D01*
X104217585Y-76952451D01*
X104036903Y-76682042D01*
X103912447Y-76381579D01*
X103849000Y-76062609D01*
X103849000Y-75737391D01*
X103912447Y-75418421D01*
X104036903Y-75117958D01*
X104217585Y-74847549D01*
X104447549Y-74617585D01*
X104717958Y-74436903D01*
X105018421Y-74312447D01*
X105124744Y-74291298D01*
X105337389Y-74249000D01*
X105662611Y-74249000D01*
X105875256Y-74291298D01*
G37*
G36*
X182375256Y-73991298D02*
G01*
X182481579Y-74012447D01*
X182694037Y-74100450D01*
X182769187Y-74131578D01*
X182782042Y-74136903D01*
X183052451Y-74317585D01*
X183282415Y-74547549D01*
X183463097Y-74817958D01*
X183587553Y-75118421D01*
X183590337Y-75132416D01*
X183626277Y-75313097D01*
X183651000Y-75437391D01*
X183651000Y-75762609D01*
X183587553Y-76081579D01*
X183463097Y-76382042D01*
X183282415Y-76652451D01*
X183052451Y-76882415D01*
X182782042Y-77063097D01*
X182481579Y-77187553D01*
X182375256Y-77208702D01*
X182162611Y-77251000D01*
X181837389Y-77251000D01*
X181624744Y-77208702D01*
X181518421Y-77187553D01*
X181217958Y-77063097D01*
X180947549Y-76882415D01*
X180717585Y-76652451D01*
X180536903Y-76382042D01*
X180412447Y-76081579D01*
X180349000Y-75762609D01*
X180349000Y-75437391D01*
X180373724Y-75313097D01*
X180409663Y-75132416D01*
X180412447Y-75118421D01*
X180536903Y-74817958D01*
X180717585Y-74547549D01*
X180947549Y-74317585D01*
X181217958Y-74136903D01*
X181230814Y-74131578D01*
X181305963Y-74100450D01*
X181518421Y-74012447D01*
X181624744Y-73991298D01*
X181837389Y-73949000D01*
X182162611Y-73949000D01*
X182375256Y-73991298D01*
G37*
G36*
X125775256Y-72241298D02*
G01*
X125881579Y-72262447D01*
X126182042Y-72386903D01*
X126452451Y-72567585D01*
X126682415Y-72797549D01*
X126682416Y-72797551D01*
X126863098Y-73067960D01*
X126987553Y-73368422D01*
X127051000Y-73687389D01*
X127051000Y-74012611D01*
X127008702Y-74225256D01*
X126987553Y-74331579D01*
X126863097Y-74632042D01*
X126682415Y-74902451D01*
X126452451Y-75132415D01*
X126182042Y-75313097D01*
X125881579Y-75437553D01*
X125775256Y-75458702D01*
X125562611Y-75501000D01*
X125237389Y-75501000D01*
X125024744Y-75458702D01*
X124918421Y-75437553D01*
X124617958Y-75313097D01*
X124347549Y-75132415D01*
X124117585Y-74902451D01*
X123936903Y-74632042D01*
X123812447Y-74331579D01*
X123791298Y-74225256D01*
X123749000Y-74012611D01*
X123749000Y-73687389D01*
X123812447Y-73368422D01*
X123936902Y-73067960D01*
X124117584Y-72797551D01*
X124117585Y-72797549D01*
X124347549Y-72567585D01*
X124617958Y-72386903D01*
X124918421Y-72262447D01*
X125024744Y-72241298D01*
X125237389Y-72199000D01*
X125562611Y-72199000D01*
X125775256Y-72241298D01*
G37*
G36*
X159725256Y-72041298D02*
G01*
X159831579Y-72062447D01*
X160132042Y-72186903D01*
X160402451Y-72367585D01*
X160632415Y-72597549D01*
X160813097Y-72867958D01*
X160895941Y-73067960D01*
X160937553Y-73168422D01*
X160977336Y-73368421D01*
X161001000Y-73487391D01*
X161001000Y-73812609D01*
X160937553Y-74131579D01*
X160813097Y-74432042D01*
X160632415Y-74702451D01*
X160402451Y-74932415D01*
X160132042Y-75113097D01*
X160132041Y-75113098D01*
X160132040Y-75113098D01*
X160085404Y-75132415D01*
X159831579Y-75237553D01*
X159725256Y-75258702D01*
X159512611Y-75301000D01*
X159187389Y-75301000D01*
X158974744Y-75258702D01*
X158868421Y-75237553D01*
X158614596Y-75132415D01*
X158567960Y-75113098D01*
X158567959Y-75113098D01*
X158567958Y-75113097D01*
X158297549Y-74932415D01*
X158067585Y-74702451D01*
X157886903Y-74432042D01*
X157762447Y-74131579D01*
X157699000Y-73812609D01*
X157699000Y-73487391D01*
X157722665Y-73368421D01*
X157762447Y-73168422D01*
X157804060Y-73067960D01*
X157886903Y-72867958D01*
X158067585Y-72597549D01*
X158297549Y-72367585D01*
X158567958Y-72186903D01*
X158868421Y-72062447D01*
X158974744Y-72041298D01*
X159187389Y-71999000D01*
X159512611Y-71999000D01*
X159725256Y-72041298D01*
G37*
M02*
