G04 #@! TF.GenerationSoftware,KiCad,Pcbnew,(5.1.5)-3*
G04 #@! TF.CreationDate,2021-05-03T11:12:42+02:00*
G04 #@! TF.ProjectId,GSM-Alarmanlage,47534d2d-416c-4617-926d-616e6c616765,rev?*
G04 #@! TF.SameCoordinates,Original*
G04 #@! TF.FileFunction,Legend,Bot*
G04 #@! TF.FilePolarity,Positive*
%FSLAX46Y46*%
G04 Gerber Fmt 4.6, Leading zero omitted, Abs format (unit mm)*
G04 Created by KiCad (PCBNEW (5.1.5)-3) date 2021-05-03 11:12:42*
%MOMM*%
%LPD*%
G04 APERTURE LIST*
%ADD10C,0.150000*%
%ADD11C,0.010000*%
%ADD12C,0.152400*%
%ADD13O,2.134000X1.829200*%
%ADD14C,1.626000*%
%ADD15C,1.902000*%
%ADD16R,1.902000X1.902000*%
%ADD17C,1.502000*%
%ADD18O,1.502000X1.502000*%
%ADD19R,1.626000X1.626000*%
%ADD20R,1.702000X1.702000*%
%ADD21C,1.702000*%
%ADD22C,3.102000*%
%ADD23C,3.302000*%
G04 APERTURE END LIST*
D10*
X180933333Y-90900000D02*
X181028571Y-90852380D01*
X181171428Y-90852380D01*
X181314285Y-90900000D01*
X181409523Y-90995238D01*
X181457142Y-91090476D01*
X181504761Y-91280952D01*
X181504761Y-91423809D01*
X181457142Y-91614285D01*
X181409523Y-91709523D01*
X181314285Y-91804761D01*
X181171428Y-91852380D01*
X181076190Y-91852380D01*
X180933333Y-91804761D01*
X180885714Y-91757142D01*
X180885714Y-91423809D01*
X181076190Y-91423809D01*
X180504761Y-91804761D02*
X180361904Y-91852380D01*
X180123809Y-91852380D01*
X180028571Y-91804761D01*
X179980952Y-91757142D01*
X179933333Y-91661904D01*
X179933333Y-91566666D01*
X179980952Y-91471428D01*
X180028571Y-91423809D01*
X180123809Y-91376190D01*
X180314285Y-91328571D01*
X180409523Y-91280952D01*
X180457142Y-91233333D01*
X180504761Y-91138095D01*
X180504761Y-91042857D01*
X180457142Y-90947619D01*
X180409523Y-90900000D01*
X180314285Y-90852380D01*
X180076190Y-90852380D01*
X179933333Y-90900000D01*
X179504761Y-91852380D02*
X179504761Y-90852380D01*
X179171428Y-91566666D01*
X178838095Y-90852380D01*
X178838095Y-91852380D01*
X177647619Y-91566666D02*
X177171428Y-91566666D01*
X177742857Y-91852380D02*
X177409523Y-90852380D01*
X177076190Y-91852380D01*
X176600000Y-91852380D02*
X176695238Y-91804761D01*
X176742857Y-91709523D01*
X176742857Y-90852380D01*
X175790476Y-91852380D02*
X175790476Y-91328571D01*
X175838095Y-91233333D01*
X175933333Y-91185714D01*
X176123809Y-91185714D01*
X176219047Y-91233333D01*
X175790476Y-91804761D02*
X175885714Y-91852380D01*
X176123809Y-91852380D01*
X176219047Y-91804761D01*
X176266666Y-91709523D01*
X176266666Y-91614285D01*
X176219047Y-91519047D01*
X176123809Y-91471428D01*
X175885714Y-91471428D01*
X175790476Y-91423809D01*
X175314285Y-91852380D02*
X175314285Y-91185714D01*
X175314285Y-91376190D02*
X175266666Y-91280952D01*
X175219047Y-91233333D01*
X175123809Y-91185714D01*
X175028571Y-91185714D01*
X174695238Y-91852380D02*
X174695238Y-91185714D01*
X174695238Y-91280952D02*
X174647619Y-91233333D01*
X174552380Y-91185714D01*
X174409523Y-91185714D01*
X174314285Y-91233333D01*
X174266666Y-91328571D01*
X174266666Y-91852380D01*
X174266666Y-91328571D02*
X174219047Y-91233333D01*
X174123809Y-91185714D01*
X173980952Y-91185714D01*
X173885714Y-91233333D01*
X173838095Y-91328571D01*
X173838095Y-91852380D01*
X173361904Y-91852380D02*
X173361904Y-91185714D01*
X173361904Y-91280952D02*
X173314285Y-91233333D01*
X173219047Y-91185714D01*
X173076190Y-91185714D01*
X172980952Y-91233333D01*
X172933333Y-91328571D01*
X172933333Y-91852380D01*
X172933333Y-91328571D02*
X172885714Y-91233333D01*
X172790476Y-91185714D01*
X172647619Y-91185714D01*
X172552380Y-91233333D01*
X172504761Y-91328571D01*
X172504761Y-91852380D01*
X171647619Y-91804761D02*
X171742857Y-91852380D01*
X171933333Y-91852380D01*
X172028571Y-91804761D01*
X172076190Y-91709523D01*
X172076190Y-91328571D01*
X172028571Y-91233333D01*
X171933333Y-91185714D01*
X171742857Y-91185714D01*
X171647619Y-91233333D01*
X171600000Y-91328571D01*
X171600000Y-91423809D01*
X172076190Y-91519047D01*
X171028571Y-91852380D02*
X171123809Y-91804761D01*
X171171428Y-91709523D01*
X171171428Y-90852380D01*
X170219047Y-91852380D02*
X170219047Y-90852380D01*
X170219047Y-91804761D02*
X170314285Y-91852380D01*
X170504761Y-91852380D01*
X170600000Y-91804761D01*
X170647619Y-91757142D01*
X170695238Y-91661904D01*
X170695238Y-91376190D01*
X170647619Y-91280952D01*
X170600000Y-91233333D01*
X170504761Y-91185714D01*
X170314285Y-91185714D01*
X170219047Y-91233333D01*
X169361904Y-91804761D02*
X169457142Y-91852380D01*
X169647619Y-91852380D01*
X169742857Y-91804761D01*
X169790476Y-91709523D01*
X169790476Y-91328571D01*
X169742857Y-91233333D01*
X169647619Y-91185714D01*
X169457142Y-91185714D01*
X169361904Y-91233333D01*
X169314285Y-91328571D01*
X169314285Y-91423809D01*
X169790476Y-91519047D01*
X168885714Y-91852380D02*
X168885714Y-91185714D01*
X168885714Y-91376190D02*
X168838095Y-91280952D01*
X168790476Y-91233333D01*
X168695238Y-91185714D01*
X168600000Y-91185714D01*
X182242857Y-93502380D02*
X182576190Y-93026190D01*
X182814285Y-93502380D02*
X182814285Y-92502380D01*
X182433333Y-92502380D01*
X182338095Y-92550000D01*
X182290476Y-92597619D01*
X182242857Y-92692857D01*
X182242857Y-92835714D01*
X182290476Y-92930952D01*
X182338095Y-92978571D01*
X182433333Y-93026190D01*
X182814285Y-93026190D01*
X181433333Y-93454761D02*
X181528571Y-93502380D01*
X181719047Y-93502380D01*
X181814285Y-93454761D01*
X181861904Y-93359523D01*
X181861904Y-92978571D01*
X181814285Y-92883333D01*
X181719047Y-92835714D01*
X181528571Y-92835714D01*
X181433333Y-92883333D01*
X181385714Y-92978571D01*
X181385714Y-93073809D01*
X181861904Y-93169047D01*
X181052380Y-92835714D02*
X180814285Y-93502380D01*
X180576190Y-92835714D01*
X180195238Y-93407142D02*
X180147619Y-93454761D01*
X180195238Y-93502380D01*
X180242857Y-93454761D01*
X180195238Y-93407142D01*
X180195238Y-93502380D01*
X179195238Y-93502380D02*
X179766666Y-93502380D01*
X179480952Y-93502380D02*
X179480952Y-92502380D01*
X179576190Y-92645238D01*
X179671428Y-92740476D01*
X179766666Y-92788095D01*
X176480952Y-93502380D02*
X176480952Y-92502380D01*
X176147619Y-93216666D01*
X175814285Y-92502380D01*
X175814285Y-93502380D01*
X174909523Y-93502380D02*
X174909523Y-92978571D01*
X174957142Y-92883333D01*
X175052380Y-92835714D01*
X175242857Y-92835714D01*
X175338095Y-92883333D01*
X174909523Y-93454761D02*
X175004761Y-93502380D01*
X175242857Y-93502380D01*
X175338095Y-93454761D01*
X175385714Y-93359523D01*
X175385714Y-93264285D01*
X175338095Y-93169047D01*
X175242857Y-93121428D01*
X175004761Y-93121428D01*
X174909523Y-93073809D01*
X174528571Y-92835714D02*
X174290476Y-93502380D01*
X174052380Y-92835714D02*
X174290476Y-93502380D01*
X174385714Y-93740476D01*
X174433333Y-93788095D01*
X174528571Y-93835714D01*
X172385714Y-93502380D02*
X172957142Y-93502380D01*
X172671428Y-93502380D02*
X172671428Y-92502380D01*
X172766666Y-92645238D01*
X172861904Y-92740476D01*
X172957142Y-92788095D01*
X171957142Y-93407142D02*
X171909523Y-93454761D01*
X171957142Y-93502380D01*
X172004761Y-93454761D01*
X171957142Y-93407142D01*
X171957142Y-93502380D01*
X170766666Y-92597619D02*
X170719047Y-92550000D01*
X170623809Y-92502380D01*
X170385714Y-92502380D01*
X170290476Y-92550000D01*
X170242857Y-92597619D01*
X170195238Y-92692857D01*
X170195238Y-92788095D01*
X170242857Y-92930952D01*
X170814285Y-93502380D01*
X170195238Y-93502380D01*
X169576190Y-92502380D02*
X169480952Y-92502380D01*
X169385714Y-92550000D01*
X169338095Y-92597619D01*
X169290476Y-92692857D01*
X169242857Y-92883333D01*
X169242857Y-93121428D01*
X169290476Y-93311904D01*
X169338095Y-93407142D01*
X169385714Y-93454761D01*
X169480952Y-93502380D01*
X169576190Y-93502380D01*
X169671428Y-93454761D01*
X169719047Y-93407142D01*
X169766666Y-93311904D01*
X169814285Y-93121428D01*
X169814285Y-92883333D01*
X169766666Y-92692857D01*
X169719047Y-92597619D01*
X169671428Y-92550000D01*
X169576190Y-92502380D01*
X168861904Y-92597619D02*
X168814285Y-92550000D01*
X168719047Y-92502380D01*
X168480952Y-92502380D01*
X168385714Y-92550000D01*
X168338095Y-92597619D01*
X168290476Y-92692857D01*
X168290476Y-92788095D01*
X168338095Y-92930952D01*
X168909523Y-93502380D01*
X168290476Y-93502380D01*
X167338095Y-93502380D02*
X167909523Y-93502380D01*
X167623809Y-93502380D02*
X167623809Y-92502380D01*
X167719047Y-92645238D01*
X167814285Y-92740476D01*
X167909523Y-92788095D01*
X178671428Y-95152380D02*
X178671428Y-94152380D01*
X178671428Y-94628571D02*
X178100000Y-94628571D01*
X178100000Y-95152380D02*
X178100000Y-94152380D01*
X177195238Y-95152380D02*
X177195238Y-94628571D01*
X177242857Y-94533333D01*
X177338095Y-94485714D01*
X177528571Y-94485714D01*
X177623809Y-94533333D01*
X177195238Y-95104761D02*
X177290476Y-95152380D01*
X177528571Y-95152380D01*
X177623809Y-95104761D01*
X177671428Y-95009523D01*
X177671428Y-94914285D01*
X177623809Y-94819047D01*
X177528571Y-94771428D01*
X177290476Y-94771428D01*
X177195238Y-94723809D01*
X176719047Y-94485714D02*
X176719047Y-95152380D01*
X176719047Y-94580952D02*
X176671428Y-94533333D01*
X176576190Y-94485714D01*
X176433333Y-94485714D01*
X176338095Y-94533333D01*
X176290476Y-94628571D01*
X176290476Y-95152380D01*
X175861904Y-95104761D02*
X175766666Y-95152380D01*
X175576190Y-95152380D01*
X175480952Y-95104761D01*
X175433333Y-95009523D01*
X175433333Y-94961904D01*
X175480952Y-94866666D01*
X175576190Y-94819047D01*
X175719047Y-94819047D01*
X175814285Y-94771428D01*
X175861904Y-94676190D01*
X175861904Y-94628571D01*
X175814285Y-94533333D01*
X175719047Y-94485714D01*
X175576190Y-94485714D01*
X175480952Y-94533333D01*
X175004761Y-94771428D02*
X174242857Y-94771428D01*
X173480952Y-94152380D02*
X173480952Y-94866666D01*
X173528571Y-95009523D01*
X173623809Y-95104761D01*
X173766666Y-95152380D01*
X173861904Y-95152380D01*
X173004761Y-95057142D02*
X172957142Y-95104761D01*
X173004761Y-95152380D01*
X173052380Y-95104761D01*
X173004761Y-95057142D01*
X173004761Y-95152380D01*
X171957142Y-95152380D02*
X172290476Y-94676190D01*
X172528571Y-95152380D02*
X172528571Y-94152380D01*
X172147619Y-94152380D01*
X172052380Y-94200000D01*
X172004761Y-94247619D01*
X171957142Y-94342857D01*
X171957142Y-94485714D01*
X172004761Y-94580952D01*
X172052380Y-94628571D01*
X172147619Y-94676190D01*
X172528571Y-94676190D01*
X171528571Y-95057142D02*
X171480952Y-95104761D01*
X171528571Y-95152380D01*
X171576190Y-95104761D01*
X171528571Y-95057142D01*
X171528571Y-95152380D01*
X183838095Y-96802380D02*
X183933333Y-96754761D01*
X183980952Y-96707142D01*
X184028571Y-96611904D01*
X184028571Y-96326190D01*
X183980952Y-96230952D01*
X183933333Y-96183333D01*
X183838095Y-96135714D01*
X183695238Y-96135714D01*
X183600000Y-96183333D01*
X183552380Y-96230952D01*
X183504761Y-96326190D01*
X183504761Y-96611904D01*
X183552380Y-96707142D01*
X183600000Y-96754761D01*
X183695238Y-96802380D01*
X183838095Y-96802380D01*
X183076190Y-96135714D02*
X183076190Y-97135714D01*
X183076190Y-96183333D02*
X182980952Y-96135714D01*
X182790476Y-96135714D01*
X182695238Y-96183333D01*
X182647619Y-96230952D01*
X182600000Y-96326190D01*
X182600000Y-96611904D01*
X182647619Y-96707142D01*
X182695238Y-96754761D01*
X182790476Y-96802380D01*
X182980952Y-96802380D01*
X183076190Y-96754761D01*
X181790476Y-96754761D02*
X181885714Y-96802380D01*
X182076190Y-96802380D01*
X182171428Y-96754761D01*
X182219047Y-96659523D01*
X182219047Y-96278571D01*
X182171428Y-96183333D01*
X182076190Y-96135714D01*
X181885714Y-96135714D01*
X181790476Y-96183333D01*
X181742857Y-96278571D01*
X181742857Y-96373809D01*
X182219047Y-96469047D01*
X181314285Y-96135714D02*
X181314285Y-96802380D01*
X181314285Y-96230952D02*
X181266666Y-96183333D01*
X181171428Y-96135714D01*
X181028571Y-96135714D01*
X180933333Y-96183333D01*
X180885714Y-96278571D01*
X180885714Y-96802380D01*
X180409523Y-96421428D02*
X179647619Y-96421428D01*
X179171428Y-96802380D02*
X179171428Y-95802380D01*
X179171428Y-96183333D02*
X179076190Y-96135714D01*
X178885714Y-96135714D01*
X178790476Y-96183333D01*
X178742857Y-96230952D01*
X178695238Y-96326190D01*
X178695238Y-96611904D01*
X178742857Y-96707142D01*
X178790476Y-96754761D01*
X178885714Y-96802380D01*
X179076190Y-96802380D01*
X179171428Y-96754761D01*
X178123809Y-96802380D02*
X178219047Y-96754761D01*
X178266666Y-96707142D01*
X178314285Y-96611904D01*
X178314285Y-96326190D01*
X178266666Y-96230952D01*
X178219047Y-96183333D01*
X178123809Y-96135714D01*
X177980952Y-96135714D01*
X177885714Y-96183333D01*
X177838095Y-96230952D01*
X177790476Y-96326190D01*
X177790476Y-96611904D01*
X177838095Y-96707142D01*
X177885714Y-96754761D01*
X177980952Y-96802380D01*
X178123809Y-96802380D01*
X176933333Y-96802380D02*
X176933333Y-96278571D01*
X176980952Y-96183333D01*
X177076190Y-96135714D01*
X177266666Y-96135714D01*
X177361904Y-96183333D01*
X176933333Y-96754761D02*
X177028571Y-96802380D01*
X177266666Y-96802380D01*
X177361904Y-96754761D01*
X177409523Y-96659523D01*
X177409523Y-96564285D01*
X177361904Y-96469047D01*
X177266666Y-96421428D01*
X177028571Y-96421428D01*
X176933333Y-96373809D01*
X176600000Y-96135714D02*
X176219047Y-96135714D01*
X176457142Y-95802380D02*
X176457142Y-96659523D01*
X176409523Y-96754761D01*
X176314285Y-96802380D01*
X176219047Y-96802380D01*
X175885714Y-96421428D02*
X175123809Y-96421428D01*
X174647619Y-96135714D02*
X174647619Y-97135714D01*
X174647619Y-96183333D02*
X174552380Y-96135714D01*
X174361904Y-96135714D01*
X174266666Y-96183333D01*
X174219047Y-96230952D01*
X174171428Y-96326190D01*
X174171428Y-96611904D01*
X174219047Y-96707142D01*
X174266666Y-96754761D01*
X174361904Y-96802380D01*
X174552380Y-96802380D01*
X174647619Y-96754761D01*
X173742857Y-96802380D02*
X173742857Y-96135714D01*
X173742857Y-96326190D02*
X173695238Y-96230952D01*
X173647619Y-96183333D01*
X173552380Y-96135714D01*
X173457142Y-96135714D01*
X172980952Y-96802380D02*
X173076190Y-96754761D01*
X173123809Y-96707142D01*
X173171428Y-96611904D01*
X173171428Y-96326190D01*
X173123809Y-96230952D01*
X173076190Y-96183333D01*
X172980952Y-96135714D01*
X172838095Y-96135714D01*
X172742857Y-96183333D01*
X172695238Y-96230952D01*
X172647619Y-96326190D01*
X172647619Y-96611904D01*
X172695238Y-96707142D01*
X172742857Y-96754761D01*
X172838095Y-96802380D01*
X172980952Y-96802380D01*
X172219047Y-96135714D02*
X172219047Y-96992857D01*
X172266666Y-97088095D01*
X172361904Y-97135714D01*
X172409523Y-97135714D01*
X172219047Y-95802380D02*
X172266666Y-95850000D01*
X172219047Y-95897619D01*
X172171428Y-95850000D01*
X172219047Y-95802380D01*
X172219047Y-95897619D01*
X171361904Y-96754761D02*
X171457142Y-96802380D01*
X171647619Y-96802380D01*
X171742857Y-96754761D01*
X171790476Y-96659523D01*
X171790476Y-96278571D01*
X171742857Y-96183333D01*
X171647619Y-96135714D01*
X171457142Y-96135714D01*
X171361904Y-96183333D01*
X171314285Y-96278571D01*
X171314285Y-96373809D01*
X171790476Y-96469047D01*
X170457142Y-96754761D02*
X170552380Y-96802380D01*
X170742857Y-96802380D01*
X170838095Y-96754761D01*
X170885714Y-96707142D01*
X170933333Y-96611904D01*
X170933333Y-96326190D01*
X170885714Y-96230952D01*
X170838095Y-96183333D01*
X170742857Y-96135714D01*
X170552380Y-96135714D01*
X170457142Y-96183333D01*
X170171428Y-96135714D02*
X169790476Y-96135714D01*
X170028571Y-95802380D02*
X170028571Y-96659523D01*
X169980952Y-96754761D01*
X169885714Y-96802380D01*
X169790476Y-96802380D01*
X169504761Y-96754761D02*
X169409523Y-96802380D01*
X169219047Y-96802380D01*
X169123809Y-96754761D01*
X169076190Y-96659523D01*
X169076190Y-96611904D01*
X169123809Y-96516666D01*
X169219047Y-96469047D01*
X169361904Y-96469047D01*
X169457142Y-96421428D01*
X169504761Y-96326190D01*
X169504761Y-96278571D01*
X169457142Y-96183333D01*
X169361904Y-96135714D01*
X169219047Y-96135714D01*
X169123809Y-96183333D01*
X168647619Y-96707142D02*
X168600000Y-96754761D01*
X168647619Y-96802380D01*
X168695238Y-96754761D01*
X168647619Y-96707142D01*
X168647619Y-96802380D01*
X168028571Y-96802380D02*
X168123809Y-96754761D01*
X168171428Y-96707142D01*
X168219047Y-96611904D01*
X168219047Y-96326190D01*
X168171428Y-96230952D01*
X168123809Y-96183333D01*
X168028571Y-96135714D01*
X167885714Y-96135714D01*
X167790476Y-96183333D01*
X167742857Y-96230952D01*
X167695238Y-96326190D01*
X167695238Y-96611904D01*
X167742857Y-96707142D01*
X167790476Y-96754761D01*
X167885714Y-96802380D01*
X168028571Y-96802380D01*
X167266666Y-96802380D02*
X167266666Y-96135714D01*
X167266666Y-96326190D02*
X167219047Y-96230952D01*
X167171428Y-96183333D01*
X167076190Y-96135714D01*
X166980952Y-96135714D01*
X166219047Y-96135714D02*
X166219047Y-96945238D01*
X166266666Y-97040476D01*
X166314285Y-97088095D01*
X166409523Y-97135714D01*
X166552380Y-97135714D01*
X166647619Y-97088095D01*
X166219047Y-96754761D02*
X166314285Y-96802380D01*
X166504761Y-96802380D01*
X166600000Y-96754761D01*
X166647619Y-96707142D01*
X166695238Y-96611904D01*
X166695238Y-96326190D01*
X166647619Y-96230952D01*
X166600000Y-96183333D01*
X166504761Y-96135714D01*
X166314285Y-96135714D01*
X166219047Y-96183333D01*
X179766666Y-98357142D02*
X179814285Y-98404761D01*
X179957142Y-98452380D01*
X180052380Y-98452380D01*
X180195238Y-98404761D01*
X180290476Y-98309523D01*
X180338095Y-98214285D01*
X180385714Y-98023809D01*
X180385714Y-97880952D01*
X180338095Y-97690476D01*
X180290476Y-97595238D01*
X180195238Y-97500000D01*
X180052380Y-97452380D01*
X179957142Y-97452380D01*
X179814285Y-97500000D01*
X179766666Y-97547619D01*
X178766666Y-98357142D02*
X178814285Y-98404761D01*
X178957142Y-98452380D01*
X179052380Y-98452380D01*
X179195238Y-98404761D01*
X179290476Y-98309523D01*
X179338095Y-98214285D01*
X179385714Y-98023809D01*
X179385714Y-97880952D01*
X179338095Y-97690476D01*
X179290476Y-97595238D01*
X179195238Y-97500000D01*
X179052380Y-97452380D01*
X178957142Y-97452380D01*
X178814285Y-97500000D01*
X178766666Y-97547619D01*
X177242857Y-97928571D02*
X177100000Y-97976190D01*
X177052380Y-98023809D01*
X177004761Y-98119047D01*
X177004761Y-98261904D01*
X177052380Y-98357142D01*
X177100000Y-98404761D01*
X177195238Y-98452380D01*
X177576190Y-98452380D01*
X177576190Y-97452380D01*
X177242857Y-97452380D01*
X177147619Y-97500000D01*
X177100000Y-97547619D01*
X177052380Y-97642857D01*
X177052380Y-97738095D01*
X177100000Y-97833333D01*
X177147619Y-97880952D01*
X177242857Y-97928571D01*
X177576190Y-97928571D01*
X176385714Y-97976190D02*
X176385714Y-98452380D01*
X176719047Y-97452380D02*
X176385714Y-97976190D01*
X176052380Y-97452380D01*
X175719047Y-98071428D02*
X174957142Y-98071428D01*
X174480952Y-98452380D02*
X174480952Y-97452380D01*
X173909523Y-98452380D01*
X173909523Y-97452380D01*
X172861904Y-98357142D02*
X172909523Y-98404761D01*
X173052380Y-98452380D01*
X173147619Y-98452380D01*
X173290476Y-98404761D01*
X173385714Y-98309523D01*
X173433333Y-98214285D01*
X173480952Y-98023809D01*
X173480952Y-97880952D01*
X173433333Y-97690476D01*
X173385714Y-97595238D01*
X173290476Y-97500000D01*
X173147619Y-97452380D01*
X173052380Y-97452380D01*
X172909523Y-97500000D01*
X172861904Y-97547619D01*
X172433333Y-98071428D02*
X171671428Y-98071428D01*
X171242857Y-98404761D02*
X171100000Y-98452380D01*
X170861904Y-98452380D01*
X170766666Y-98404761D01*
X170719047Y-98357142D01*
X170671428Y-98261904D01*
X170671428Y-98166666D01*
X170719047Y-98071428D01*
X170766666Y-98023809D01*
X170861904Y-97976190D01*
X171052380Y-97928571D01*
X171147619Y-97880952D01*
X171195238Y-97833333D01*
X171242857Y-97738095D01*
X171242857Y-97642857D01*
X171195238Y-97547619D01*
X171147619Y-97500000D01*
X171052380Y-97452380D01*
X170814285Y-97452380D01*
X170671428Y-97500000D01*
X170290476Y-98166666D02*
X169814285Y-98166666D01*
X170385714Y-98452380D02*
X170052380Y-97452380D01*
X169719047Y-98452380D01*
D11*
G36*
X174860122Y-102987776D02*
G01*
X174754388Y-102988355D01*
X174677868Y-102989922D01*
X174625628Y-102992972D01*
X174592737Y-102997996D01*
X174574263Y-103005489D01*
X174565273Y-103015944D01*
X174560837Y-103029853D01*
X174560406Y-103031654D01*
X174553667Y-103064145D01*
X174541192Y-103128252D01*
X174524281Y-103217151D01*
X174504229Y-103324019D01*
X174482336Y-103442033D01*
X174481571Y-103446178D01*
X174459641Y-103561831D01*
X174439123Y-103664014D01*
X174421341Y-103746598D01*
X174407619Y-103803456D01*
X174399282Y-103828458D01*
X174398884Y-103828901D01*
X174374323Y-103841110D01*
X174323685Y-103861456D01*
X174257905Y-103885545D01*
X174257539Y-103885674D01*
X174174683Y-103916818D01*
X174077000Y-103956491D01*
X173984923Y-103996381D01*
X173980566Y-103998353D01*
X173830593Y-104066420D01*
X173498502Y-103839639D01*
X173396626Y-103770504D01*
X173304343Y-103708697D01*
X173226997Y-103657733D01*
X173169936Y-103621127D01*
X173138505Y-103602394D01*
X173135521Y-103601004D01*
X173112679Y-103607190D01*
X173070018Y-103637035D01*
X173005872Y-103691947D01*
X172918579Y-103773334D01*
X172829465Y-103859922D01*
X172743559Y-103945247D01*
X172666673Y-104023108D01*
X172603436Y-104088697D01*
X172558477Y-104137205D01*
X172536424Y-104163825D01*
X172535604Y-104165195D01*
X172533166Y-104183463D01*
X172542350Y-104213295D01*
X172565426Y-104258721D01*
X172604663Y-104323770D01*
X172662330Y-104412470D01*
X172739205Y-104526657D01*
X172807430Y-104627162D01*
X172868418Y-104717303D01*
X172918644Y-104791849D01*
X172954584Y-104845565D01*
X172972713Y-104873218D01*
X172973854Y-104875095D01*
X172971641Y-104901590D01*
X172954862Y-104953086D01*
X172926858Y-105019851D01*
X172916878Y-105041172D01*
X172873328Y-105136159D01*
X172826866Y-105243937D01*
X172789123Y-105337192D01*
X172761927Y-105406406D01*
X172740325Y-105459006D01*
X172727842Y-105486497D01*
X172726291Y-105488616D01*
X172703332Y-105492124D01*
X172649214Y-105501738D01*
X172571132Y-105516089D01*
X172476281Y-105533807D01*
X172371857Y-105553525D01*
X172265056Y-105573874D01*
X172163074Y-105593486D01*
X172073106Y-105610991D01*
X172002347Y-105625022D01*
X171957994Y-105634209D01*
X171947115Y-105636807D01*
X171935878Y-105643218D01*
X171927395Y-105657697D01*
X171921286Y-105685133D01*
X171917168Y-105730411D01*
X171914659Y-105798420D01*
X171913379Y-105894047D01*
X171912946Y-106022180D01*
X171912923Y-106074701D01*
X171912923Y-106501845D01*
X172015500Y-106522091D01*
X172072569Y-106533070D01*
X172157731Y-106549095D01*
X172260628Y-106568233D01*
X172370904Y-106588551D01*
X172401385Y-106594132D01*
X172503145Y-106613917D01*
X172591795Y-106633373D01*
X172659892Y-106650697D01*
X172699996Y-106664088D01*
X172706677Y-106668079D01*
X172723081Y-106696342D01*
X172746601Y-106751109D01*
X172772684Y-106821588D01*
X172777858Y-106836769D01*
X172812044Y-106930896D01*
X172854477Y-107037101D01*
X172896003Y-107132473D01*
X172896208Y-107132916D01*
X172965360Y-107282525D01*
X172510488Y-107951617D01*
X172802500Y-108244116D01*
X172890820Y-108331170D01*
X172971375Y-108407909D01*
X173039640Y-108470237D01*
X173091092Y-108514056D01*
X173121206Y-108535270D01*
X173125526Y-108536616D01*
X173150889Y-108526016D01*
X173202642Y-108496547D01*
X173275132Y-108451705D01*
X173362706Y-108394984D01*
X173457388Y-108331462D01*
X173553484Y-108266668D01*
X173639163Y-108210287D01*
X173708984Y-108165788D01*
X173757506Y-108136639D01*
X173779218Y-108126308D01*
X173805707Y-108135050D01*
X173855938Y-108158087D01*
X173919549Y-108190631D01*
X173926292Y-108194249D01*
X174011954Y-108237210D01*
X174070694Y-108258279D01*
X174107228Y-108258503D01*
X174126269Y-108238928D01*
X174126380Y-108238654D01*
X174135898Y-108215472D01*
X174158597Y-108160441D01*
X174192718Y-108077822D01*
X174236500Y-107971872D01*
X174288184Y-107846852D01*
X174346008Y-107707020D01*
X174402009Y-107571637D01*
X174463553Y-107422234D01*
X174520061Y-107283832D01*
X174569839Y-107160673D01*
X174611194Y-107057002D01*
X174642432Y-106977059D01*
X174661859Y-106925088D01*
X174667846Y-106905692D01*
X174652832Y-106883443D01*
X174613561Y-106847982D01*
X174561193Y-106808887D01*
X174412059Y-106685245D01*
X174295489Y-106543522D01*
X174212882Y-106386704D01*
X174165634Y-106217775D01*
X174155143Y-106039722D01*
X174162769Y-105957539D01*
X174204318Y-105787031D01*
X174275877Y-105636459D01*
X174373005Y-105507309D01*
X174491266Y-105401064D01*
X174626220Y-105319210D01*
X174773429Y-105263232D01*
X174928456Y-105234615D01*
X175086861Y-105234844D01*
X175244206Y-105265405D01*
X175396054Y-105327782D01*
X175537965Y-105423460D01*
X175597197Y-105477572D01*
X175710797Y-105616520D01*
X175789894Y-105768361D01*
X175835014Y-105928667D01*
X175846684Y-106093012D01*
X175825431Y-106256971D01*
X175771780Y-106416118D01*
X175686260Y-106566025D01*
X175569395Y-106702267D01*
X175438807Y-106808887D01*
X175384412Y-106849642D01*
X175345986Y-106884718D01*
X175332154Y-106905726D01*
X175339397Y-106928635D01*
X175359995Y-106983365D01*
X175392254Y-107065672D01*
X175434479Y-107171315D01*
X175484977Y-107296050D01*
X175542052Y-107435636D01*
X175598146Y-107571670D01*
X175660033Y-107721201D01*
X175717356Y-107859767D01*
X175768356Y-107983107D01*
X175811273Y-108086964D01*
X175844347Y-108167080D01*
X175865819Y-108219195D01*
X175873775Y-108238654D01*
X175892571Y-108258423D01*
X175928926Y-108258365D01*
X175987521Y-108237441D01*
X176073032Y-108194613D01*
X176073708Y-108194249D01*
X176138093Y-108161012D01*
X176190139Y-108136802D01*
X176219488Y-108126404D01*
X176220783Y-108126308D01*
X176242876Y-108136855D01*
X176291652Y-108166184D01*
X176361669Y-108210827D01*
X176447486Y-108267314D01*
X176542612Y-108331462D01*
X176639460Y-108396411D01*
X176726747Y-108452896D01*
X176798819Y-108497421D01*
X176850023Y-108526490D01*
X176874474Y-108536616D01*
X176896990Y-108523307D01*
X176942258Y-108486112D01*
X177005756Y-108429128D01*
X177082961Y-108356449D01*
X177169349Y-108272171D01*
X177197601Y-108244016D01*
X177489713Y-107951416D01*
X177267369Y-107625104D01*
X177199798Y-107524897D01*
X177140493Y-107434963D01*
X177092783Y-107360510D01*
X177059993Y-107306751D01*
X177045452Y-107278894D01*
X177045026Y-107276912D01*
X177052692Y-107250655D01*
X177073311Y-107197837D01*
X177103315Y-107127310D01*
X177124375Y-107080093D01*
X177163752Y-106989694D01*
X177200835Y-106898366D01*
X177229585Y-106821200D01*
X177237395Y-106797692D01*
X177259583Y-106734916D01*
X177281273Y-106686411D01*
X177293187Y-106668079D01*
X177319477Y-106656859D01*
X177376858Y-106640954D01*
X177457882Y-106622167D01*
X177555105Y-106602299D01*
X177598615Y-106594132D01*
X177709104Y-106573829D01*
X177815084Y-106554170D01*
X177906199Y-106537088D01*
X177972092Y-106524518D01*
X177984500Y-106522091D01*
X178087077Y-106501845D01*
X178087077Y-106074701D01*
X178086847Y-105934246D01*
X178085901Y-105827979D01*
X178083859Y-105751013D01*
X178080338Y-105698460D01*
X178074957Y-105665433D01*
X178067334Y-105647045D01*
X178057088Y-105638408D01*
X178052885Y-105636807D01*
X178027530Y-105631127D01*
X177971516Y-105619795D01*
X177892036Y-105604179D01*
X177796288Y-105585647D01*
X177691467Y-105565569D01*
X177584768Y-105545312D01*
X177483387Y-105526246D01*
X177394521Y-105509739D01*
X177325363Y-105497159D01*
X177283111Y-105489875D01*
X177273710Y-105488616D01*
X177265193Y-105471763D01*
X177246340Y-105426870D01*
X177220676Y-105362430D01*
X177210877Y-105337192D01*
X177171352Y-105239686D01*
X177124808Y-105131959D01*
X177083123Y-105041172D01*
X177052450Y-104971753D01*
X177032044Y-104914710D01*
X177025232Y-104879777D01*
X177026318Y-104875095D01*
X177040715Y-104852991D01*
X177073588Y-104803831D01*
X177121410Y-104732848D01*
X177180652Y-104645278D01*
X177247785Y-104546357D01*
X177261059Y-104526830D01*
X177338954Y-104411140D01*
X177396213Y-104323044D01*
X177435119Y-104258486D01*
X177457956Y-104213411D01*
X177467006Y-104183763D01*
X177464552Y-104165485D01*
X177464489Y-104165369D01*
X177445173Y-104141361D01*
X177402449Y-104094947D01*
X177340949Y-104030937D01*
X177265302Y-103954145D01*
X177180139Y-103869382D01*
X177170535Y-103859922D01*
X177063210Y-103755989D01*
X176980385Y-103679675D01*
X176920395Y-103629571D01*
X176881577Y-103604270D01*
X176864480Y-103601004D01*
X176839527Y-103615250D01*
X176787745Y-103648156D01*
X176714480Y-103696208D01*
X176625080Y-103755890D01*
X176524889Y-103823688D01*
X176501499Y-103839639D01*
X176169407Y-104066420D01*
X176019435Y-103998353D01*
X175928230Y-103958685D01*
X175830331Y-103918791D01*
X175746169Y-103886983D01*
X175742462Y-103885674D01*
X175676631Y-103861576D01*
X175625884Y-103841200D01*
X175601158Y-103828936D01*
X175601116Y-103828901D01*
X175593271Y-103806734D01*
X175579934Y-103752217D01*
X175562430Y-103671480D01*
X175542083Y-103570650D01*
X175520218Y-103455856D01*
X175518429Y-103446178D01*
X175496496Y-103327904D01*
X175476360Y-103220542D01*
X175459320Y-103130917D01*
X175446672Y-103065851D01*
X175439716Y-103032168D01*
X175439594Y-103031654D01*
X175435361Y-103017325D01*
X175427129Y-103006507D01*
X175409967Y-102998706D01*
X175378942Y-102993429D01*
X175329122Y-102990182D01*
X175255576Y-102988472D01*
X175153371Y-102987807D01*
X175017575Y-102987693D01*
X175000000Y-102987692D01*
X174860122Y-102987776D01*
G37*
X174860122Y-102987776D02*
X174754388Y-102988355D01*
X174677868Y-102989922D01*
X174625628Y-102992972D01*
X174592737Y-102997996D01*
X174574263Y-103005489D01*
X174565273Y-103015944D01*
X174560837Y-103029853D01*
X174560406Y-103031654D01*
X174553667Y-103064145D01*
X174541192Y-103128252D01*
X174524281Y-103217151D01*
X174504229Y-103324019D01*
X174482336Y-103442033D01*
X174481571Y-103446178D01*
X174459641Y-103561831D01*
X174439123Y-103664014D01*
X174421341Y-103746598D01*
X174407619Y-103803456D01*
X174399282Y-103828458D01*
X174398884Y-103828901D01*
X174374323Y-103841110D01*
X174323685Y-103861456D01*
X174257905Y-103885545D01*
X174257539Y-103885674D01*
X174174683Y-103916818D01*
X174077000Y-103956491D01*
X173984923Y-103996381D01*
X173980566Y-103998353D01*
X173830593Y-104066420D01*
X173498502Y-103839639D01*
X173396626Y-103770504D01*
X173304343Y-103708697D01*
X173226997Y-103657733D01*
X173169936Y-103621127D01*
X173138505Y-103602394D01*
X173135521Y-103601004D01*
X173112679Y-103607190D01*
X173070018Y-103637035D01*
X173005872Y-103691947D01*
X172918579Y-103773334D01*
X172829465Y-103859922D01*
X172743559Y-103945247D01*
X172666673Y-104023108D01*
X172603436Y-104088697D01*
X172558477Y-104137205D01*
X172536424Y-104163825D01*
X172535604Y-104165195D01*
X172533166Y-104183463D01*
X172542350Y-104213295D01*
X172565426Y-104258721D01*
X172604663Y-104323770D01*
X172662330Y-104412470D01*
X172739205Y-104526657D01*
X172807430Y-104627162D01*
X172868418Y-104717303D01*
X172918644Y-104791849D01*
X172954584Y-104845565D01*
X172972713Y-104873218D01*
X172973854Y-104875095D01*
X172971641Y-104901590D01*
X172954862Y-104953086D01*
X172926858Y-105019851D01*
X172916878Y-105041172D01*
X172873328Y-105136159D01*
X172826866Y-105243937D01*
X172789123Y-105337192D01*
X172761927Y-105406406D01*
X172740325Y-105459006D01*
X172727842Y-105486497D01*
X172726291Y-105488616D01*
X172703332Y-105492124D01*
X172649214Y-105501738D01*
X172571132Y-105516089D01*
X172476281Y-105533807D01*
X172371857Y-105553525D01*
X172265056Y-105573874D01*
X172163074Y-105593486D01*
X172073106Y-105610991D01*
X172002347Y-105625022D01*
X171957994Y-105634209D01*
X171947115Y-105636807D01*
X171935878Y-105643218D01*
X171927395Y-105657697D01*
X171921286Y-105685133D01*
X171917168Y-105730411D01*
X171914659Y-105798420D01*
X171913379Y-105894047D01*
X171912946Y-106022180D01*
X171912923Y-106074701D01*
X171912923Y-106501845D01*
X172015500Y-106522091D01*
X172072569Y-106533070D01*
X172157731Y-106549095D01*
X172260628Y-106568233D01*
X172370904Y-106588551D01*
X172401385Y-106594132D01*
X172503145Y-106613917D01*
X172591795Y-106633373D01*
X172659892Y-106650697D01*
X172699996Y-106664088D01*
X172706677Y-106668079D01*
X172723081Y-106696342D01*
X172746601Y-106751109D01*
X172772684Y-106821588D01*
X172777858Y-106836769D01*
X172812044Y-106930896D01*
X172854477Y-107037101D01*
X172896003Y-107132473D01*
X172896208Y-107132916D01*
X172965360Y-107282525D01*
X172510488Y-107951617D01*
X172802500Y-108244116D01*
X172890820Y-108331170D01*
X172971375Y-108407909D01*
X173039640Y-108470237D01*
X173091092Y-108514056D01*
X173121206Y-108535270D01*
X173125526Y-108536616D01*
X173150889Y-108526016D01*
X173202642Y-108496547D01*
X173275132Y-108451705D01*
X173362706Y-108394984D01*
X173457388Y-108331462D01*
X173553484Y-108266668D01*
X173639163Y-108210287D01*
X173708984Y-108165788D01*
X173757506Y-108136639D01*
X173779218Y-108126308D01*
X173805707Y-108135050D01*
X173855938Y-108158087D01*
X173919549Y-108190631D01*
X173926292Y-108194249D01*
X174011954Y-108237210D01*
X174070694Y-108258279D01*
X174107228Y-108258503D01*
X174126269Y-108238928D01*
X174126380Y-108238654D01*
X174135898Y-108215472D01*
X174158597Y-108160441D01*
X174192718Y-108077822D01*
X174236500Y-107971872D01*
X174288184Y-107846852D01*
X174346008Y-107707020D01*
X174402009Y-107571637D01*
X174463553Y-107422234D01*
X174520061Y-107283832D01*
X174569839Y-107160673D01*
X174611194Y-107057002D01*
X174642432Y-106977059D01*
X174661859Y-106925088D01*
X174667846Y-106905692D01*
X174652832Y-106883443D01*
X174613561Y-106847982D01*
X174561193Y-106808887D01*
X174412059Y-106685245D01*
X174295489Y-106543522D01*
X174212882Y-106386704D01*
X174165634Y-106217775D01*
X174155143Y-106039722D01*
X174162769Y-105957539D01*
X174204318Y-105787031D01*
X174275877Y-105636459D01*
X174373005Y-105507309D01*
X174491266Y-105401064D01*
X174626220Y-105319210D01*
X174773429Y-105263232D01*
X174928456Y-105234615D01*
X175086861Y-105234844D01*
X175244206Y-105265405D01*
X175396054Y-105327782D01*
X175537965Y-105423460D01*
X175597197Y-105477572D01*
X175710797Y-105616520D01*
X175789894Y-105768361D01*
X175835014Y-105928667D01*
X175846684Y-106093012D01*
X175825431Y-106256971D01*
X175771780Y-106416118D01*
X175686260Y-106566025D01*
X175569395Y-106702267D01*
X175438807Y-106808887D01*
X175384412Y-106849642D01*
X175345986Y-106884718D01*
X175332154Y-106905726D01*
X175339397Y-106928635D01*
X175359995Y-106983365D01*
X175392254Y-107065672D01*
X175434479Y-107171315D01*
X175484977Y-107296050D01*
X175542052Y-107435636D01*
X175598146Y-107571670D01*
X175660033Y-107721201D01*
X175717356Y-107859767D01*
X175768356Y-107983107D01*
X175811273Y-108086964D01*
X175844347Y-108167080D01*
X175865819Y-108219195D01*
X175873775Y-108238654D01*
X175892571Y-108258423D01*
X175928926Y-108258365D01*
X175987521Y-108237441D01*
X176073032Y-108194613D01*
X176073708Y-108194249D01*
X176138093Y-108161012D01*
X176190139Y-108136802D01*
X176219488Y-108126404D01*
X176220783Y-108126308D01*
X176242876Y-108136855D01*
X176291652Y-108166184D01*
X176361669Y-108210827D01*
X176447486Y-108267314D01*
X176542612Y-108331462D01*
X176639460Y-108396411D01*
X176726747Y-108452896D01*
X176798819Y-108497421D01*
X176850023Y-108526490D01*
X176874474Y-108536616D01*
X176896990Y-108523307D01*
X176942258Y-108486112D01*
X177005756Y-108429128D01*
X177082961Y-108356449D01*
X177169349Y-108272171D01*
X177197601Y-108244016D01*
X177489713Y-107951416D01*
X177267369Y-107625104D01*
X177199798Y-107524897D01*
X177140493Y-107434963D01*
X177092783Y-107360510D01*
X177059993Y-107306751D01*
X177045452Y-107278894D01*
X177045026Y-107276912D01*
X177052692Y-107250655D01*
X177073311Y-107197837D01*
X177103315Y-107127310D01*
X177124375Y-107080093D01*
X177163752Y-106989694D01*
X177200835Y-106898366D01*
X177229585Y-106821200D01*
X177237395Y-106797692D01*
X177259583Y-106734916D01*
X177281273Y-106686411D01*
X177293187Y-106668079D01*
X177319477Y-106656859D01*
X177376858Y-106640954D01*
X177457882Y-106622167D01*
X177555105Y-106602299D01*
X177598615Y-106594132D01*
X177709104Y-106573829D01*
X177815084Y-106554170D01*
X177906199Y-106537088D01*
X177972092Y-106524518D01*
X177984500Y-106522091D01*
X178087077Y-106501845D01*
X178087077Y-106074701D01*
X178086847Y-105934246D01*
X178085901Y-105827979D01*
X178083859Y-105751013D01*
X178080338Y-105698460D01*
X178074957Y-105665433D01*
X178067334Y-105647045D01*
X178057088Y-105638408D01*
X178052885Y-105636807D01*
X178027530Y-105631127D01*
X177971516Y-105619795D01*
X177892036Y-105604179D01*
X177796288Y-105585647D01*
X177691467Y-105565569D01*
X177584768Y-105545312D01*
X177483387Y-105526246D01*
X177394521Y-105509739D01*
X177325363Y-105497159D01*
X177283111Y-105489875D01*
X177273710Y-105488616D01*
X177265193Y-105471763D01*
X177246340Y-105426870D01*
X177220676Y-105362430D01*
X177210877Y-105337192D01*
X177171352Y-105239686D01*
X177124808Y-105131959D01*
X177083123Y-105041172D01*
X177052450Y-104971753D01*
X177032044Y-104914710D01*
X177025232Y-104879777D01*
X177026318Y-104875095D01*
X177040715Y-104852991D01*
X177073588Y-104803831D01*
X177121410Y-104732848D01*
X177180652Y-104645278D01*
X177247785Y-104546357D01*
X177261059Y-104526830D01*
X177338954Y-104411140D01*
X177396213Y-104323044D01*
X177435119Y-104258486D01*
X177457956Y-104213411D01*
X177467006Y-104183763D01*
X177464552Y-104165485D01*
X177464489Y-104165369D01*
X177445173Y-104141361D01*
X177402449Y-104094947D01*
X177340949Y-104030937D01*
X177265302Y-103954145D01*
X177180139Y-103869382D01*
X177170535Y-103859922D01*
X177063210Y-103755989D01*
X176980385Y-103679675D01*
X176920395Y-103629571D01*
X176881577Y-103604270D01*
X176864480Y-103601004D01*
X176839527Y-103615250D01*
X176787745Y-103648156D01*
X176714480Y-103696208D01*
X176625080Y-103755890D01*
X176524889Y-103823688D01*
X176501499Y-103839639D01*
X176169407Y-104066420D01*
X176019435Y-103998353D01*
X175928230Y-103958685D01*
X175830331Y-103918791D01*
X175746169Y-103886983D01*
X175742462Y-103885674D01*
X175676631Y-103861576D01*
X175625884Y-103841200D01*
X175601158Y-103828936D01*
X175601116Y-103828901D01*
X175593271Y-103806734D01*
X175579934Y-103752217D01*
X175562430Y-103671480D01*
X175542083Y-103570650D01*
X175520218Y-103455856D01*
X175518429Y-103446178D01*
X175496496Y-103327904D01*
X175476360Y-103220542D01*
X175459320Y-103130917D01*
X175446672Y-103065851D01*
X175439716Y-103032168D01*
X175439594Y-103031654D01*
X175435361Y-103017325D01*
X175427129Y-103006507D01*
X175409967Y-102998706D01*
X175378942Y-102993429D01*
X175329122Y-102990182D01*
X175255576Y-102988472D01*
X175153371Y-102987807D01*
X175017575Y-102987693D01*
X175000000Y-102987692D01*
X174860122Y-102987776D01*
G36*
X170754776Y-109347838D02*
G01*
X170677472Y-109398361D01*
X170640186Y-109443590D01*
X170610647Y-109525663D01*
X170608301Y-109590607D01*
X170613615Y-109677445D01*
X170813885Y-109765103D01*
X170911261Y-109809887D01*
X170974887Y-109845913D01*
X171007971Y-109877117D01*
X171013720Y-109907436D01*
X170995342Y-109940805D01*
X170975077Y-109962923D01*
X170916111Y-109998393D01*
X170851976Y-110000879D01*
X170793074Y-109973235D01*
X170749803Y-109918320D01*
X170742064Y-109898928D01*
X170704994Y-109838364D01*
X170662346Y-109812552D01*
X170603846Y-109790471D01*
X170603846Y-109874184D01*
X170609018Y-109931150D01*
X170629277Y-109979189D01*
X170671738Y-110034346D01*
X170678049Y-110041514D01*
X170725280Y-110090585D01*
X170765879Y-110116920D01*
X170816672Y-110129035D01*
X170858780Y-110133003D01*
X170934098Y-110133991D01*
X170987714Y-110121466D01*
X171021162Y-110102869D01*
X171073732Y-110061975D01*
X171110121Y-110017748D01*
X171133150Y-109962126D01*
X171145641Y-109887047D01*
X171150413Y-109784449D01*
X171150794Y-109732376D01*
X171149499Y-109669948D01*
X171031529Y-109669948D01*
X171030161Y-109703438D01*
X171026751Y-109708923D01*
X171004247Y-109701472D01*
X170955818Y-109681753D01*
X170891092Y-109653718D01*
X170877557Y-109647692D01*
X170795756Y-109606096D01*
X170750688Y-109569538D01*
X170740783Y-109535296D01*
X170764474Y-109500648D01*
X170784040Y-109485339D01*
X170854640Y-109454721D01*
X170920720Y-109459780D01*
X170976041Y-109497151D01*
X171014364Y-109563473D01*
X171026651Y-109616116D01*
X171031529Y-109669948D01*
X171149499Y-109669948D01*
X171148270Y-109610720D01*
X171138968Y-109520710D01*
X171120540Y-109455167D01*
X171090640Y-109406912D01*
X171046920Y-109368767D01*
X171027859Y-109356440D01*
X170941274Y-109324336D01*
X170846478Y-109322316D01*
X170754776Y-109347838D01*
G37*
X170754776Y-109347838D02*
X170677472Y-109398361D01*
X170640186Y-109443590D01*
X170610647Y-109525663D01*
X170608301Y-109590607D01*
X170613615Y-109677445D01*
X170813885Y-109765103D01*
X170911261Y-109809887D01*
X170974887Y-109845913D01*
X171007971Y-109877117D01*
X171013720Y-109907436D01*
X170995342Y-109940805D01*
X170975077Y-109962923D01*
X170916111Y-109998393D01*
X170851976Y-110000879D01*
X170793074Y-109973235D01*
X170749803Y-109918320D01*
X170742064Y-109898928D01*
X170704994Y-109838364D01*
X170662346Y-109812552D01*
X170603846Y-109790471D01*
X170603846Y-109874184D01*
X170609018Y-109931150D01*
X170629277Y-109979189D01*
X170671738Y-110034346D01*
X170678049Y-110041514D01*
X170725280Y-110090585D01*
X170765879Y-110116920D01*
X170816672Y-110129035D01*
X170858780Y-110133003D01*
X170934098Y-110133991D01*
X170987714Y-110121466D01*
X171021162Y-110102869D01*
X171073732Y-110061975D01*
X171110121Y-110017748D01*
X171133150Y-109962126D01*
X171145641Y-109887047D01*
X171150413Y-109784449D01*
X171150794Y-109732376D01*
X171149499Y-109669948D01*
X171031529Y-109669948D01*
X171030161Y-109703438D01*
X171026751Y-109708923D01*
X171004247Y-109701472D01*
X170955818Y-109681753D01*
X170891092Y-109653718D01*
X170877557Y-109647692D01*
X170795756Y-109606096D01*
X170750688Y-109569538D01*
X170740783Y-109535296D01*
X170764474Y-109500648D01*
X170784040Y-109485339D01*
X170854640Y-109454721D01*
X170920720Y-109459780D01*
X170976041Y-109497151D01*
X171014364Y-109563473D01*
X171026651Y-109616116D01*
X171031529Y-109669948D01*
X171149499Y-109669948D01*
X171148270Y-109610720D01*
X171138968Y-109520710D01*
X171120540Y-109455167D01*
X171090640Y-109406912D01*
X171046920Y-109368767D01*
X171027859Y-109356440D01*
X170941274Y-109324336D01*
X170846478Y-109322316D01*
X170754776Y-109347838D01*
G36*
X171429193Y-109336782D02*
G01*
X171405839Y-109346988D01*
X171350098Y-109391134D01*
X171302431Y-109454967D01*
X171272952Y-109523087D01*
X171268154Y-109556670D01*
X171284240Y-109603556D01*
X171319525Y-109628365D01*
X171357356Y-109643387D01*
X171374679Y-109646155D01*
X171383114Y-109626066D01*
X171399770Y-109582351D01*
X171407077Y-109562598D01*
X171448052Y-109494271D01*
X171507378Y-109460191D01*
X171583448Y-109461239D01*
X171589082Y-109462581D01*
X171629695Y-109481836D01*
X171659552Y-109519375D01*
X171679945Y-109579809D01*
X171692164Y-109667751D01*
X171697500Y-109787813D01*
X171698000Y-109851698D01*
X171698248Y-109952403D01*
X171699874Y-110021054D01*
X171704199Y-110064673D01*
X171712546Y-110090282D01*
X171726235Y-110104903D01*
X171746589Y-110115558D01*
X171747766Y-110116095D01*
X171786962Y-110132667D01*
X171806381Y-110138769D01*
X171809365Y-110120319D01*
X171811919Y-110069323D01*
X171813860Y-109992308D01*
X171815003Y-109895805D01*
X171815231Y-109825184D01*
X171814068Y-109688525D01*
X171809521Y-109584851D01*
X171800001Y-109508108D01*
X171783919Y-109452246D01*
X171759687Y-109411212D01*
X171725714Y-109378954D01*
X171692167Y-109356440D01*
X171611501Y-109326476D01*
X171517619Y-109319718D01*
X171429193Y-109336782D01*
G37*
X171429193Y-109336782D02*
X171405839Y-109346988D01*
X171350098Y-109391134D01*
X171302431Y-109454967D01*
X171272952Y-109523087D01*
X171268154Y-109556670D01*
X171284240Y-109603556D01*
X171319525Y-109628365D01*
X171357356Y-109643387D01*
X171374679Y-109646155D01*
X171383114Y-109626066D01*
X171399770Y-109582351D01*
X171407077Y-109562598D01*
X171448052Y-109494271D01*
X171507378Y-109460191D01*
X171583448Y-109461239D01*
X171589082Y-109462581D01*
X171629695Y-109481836D01*
X171659552Y-109519375D01*
X171679945Y-109579809D01*
X171692164Y-109667751D01*
X171697500Y-109787813D01*
X171698000Y-109851698D01*
X171698248Y-109952403D01*
X171699874Y-110021054D01*
X171704199Y-110064673D01*
X171712546Y-110090282D01*
X171726235Y-110104903D01*
X171746589Y-110115558D01*
X171747766Y-110116095D01*
X171786962Y-110132667D01*
X171806381Y-110138769D01*
X171809365Y-110120319D01*
X171811919Y-110069323D01*
X171813860Y-109992308D01*
X171815003Y-109895805D01*
X171815231Y-109825184D01*
X171814068Y-109688525D01*
X171809521Y-109584851D01*
X171800001Y-109508108D01*
X171783919Y-109452246D01*
X171759687Y-109411212D01*
X171725714Y-109378954D01*
X171692167Y-109356440D01*
X171611501Y-109326476D01*
X171517619Y-109319718D01*
X171429193Y-109336782D01*
G36*
X172112667Y-109333528D02*
G01*
X172056410Y-109359117D01*
X172012253Y-109390124D01*
X171979899Y-109424795D01*
X171957562Y-109469520D01*
X171943454Y-109530692D01*
X171935789Y-109614701D01*
X171932780Y-109727940D01*
X171932462Y-109802509D01*
X171932462Y-110093420D01*
X171982227Y-110116095D01*
X172021424Y-110132667D01*
X172040843Y-110138769D01*
X172044558Y-110120610D01*
X172047505Y-110071648D01*
X172049309Y-110000153D01*
X172049692Y-109943385D01*
X172051339Y-109861371D01*
X172055778Y-109796309D01*
X172062260Y-109756467D01*
X172067410Y-109748000D01*
X172102023Y-109756646D01*
X172156360Y-109778823D01*
X172219278Y-109808886D01*
X172279632Y-109841192D01*
X172326279Y-109870098D01*
X172348074Y-109889961D01*
X172348161Y-109890175D01*
X172346286Y-109926935D01*
X172329475Y-109962026D01*
X172299961Y-109990528D01*
X172256884Y-110000061D01*
X172220068Y-109998950D01*
X172167926Y-109998133D01*
X172140556Y-110010349D01*
X172124118Y-110042624D01*
X172122045Y-110048710D01*
X172114919Y-110094739D01*
X172133976Y-110122687D01*
X172183647Y-110136007D01*
X172237303Y-110138470D01*
X172333858Y-110120210D01*
X172383841Y-110094131D01*
X172445571Y-110032868D01*
X172478310Y-109957670D01*
X172481247Y-109878211D01*
X172453576Y-109804167D01*
X172411953Y-109757769D01*
X172370396Y-109731793D01*
X172305078Y-109698907D01*
X172228962Y-109665557D01*
X172216274Y-109660461D01*
X172132667Y-109623565D01*
X172084470Y-109591046D01*
X172068970Y-109558718D01*
X172083450Y-109522394D01*
X172108308Y-109494000D01*
X172167061Y-109459039D01*
X172231707Y-109456417D01*
X172290992Y-109483358D01*
X172333661Y-109537088D01*
X172339261Y-109550950D01*
X172371867Y-109601936D01*
X172419470Y-109639787D01*
X172479539Y-109670850D01*
X172479539Y-109582768D01*
X172476003Y-109528951D01*
X172460844Y-109486534D01*
X172427232Y-109441279D01*
X172394965Y-109406420D01*
X172344791Y-109357062D01*
X172305807Y-109330547D01*
X172263936Y-109319911D01*
X172216540Y-109318154D01*
X172112667Y-109333528D01*
G37*
X172112667Y-109333528D02*
X172056410Y-109359117D01*
X172012253Y-109390124D01*
X171979899Y-109424795D01*
X171957562Y-109469520D01*
X171943454Y-109530692D01*
X171935789Y-109614701D01*
X171932780Y-109727940D01*
X171932462Y-109802509D01*
X171932462Y-110093420D01*
X171982227Y-110116095D01*
X172021424Y-110132667D01*
X172040843Y-110138769D01*
X172044558Y-110120610D01*
X172047505Y-110071648D01*
X172049309Y-110000153D01*
X172049692Y-109943385D01*
X172051339Y-109861371D01*
X172055778Y-109796309D01*
X172062260Y-109756467D01*
X172067410Y-109748000D01*
X172102023Y-109756646D01*
X172156360Y-109778823D01*
X172219278Y-109808886D01*
X172279632Y-109841192D01*
X172326279Y-109870098D01*
X172348074Y-109889961D01*
X172348161Y-109890175D01*
X172346286Y-109926935D01*
X172329475Y-109962026D01*
X172299961Y-109990528D01*
X172256884Y-110000061D01*
X172220068Y-109998950D01*
X172167926Y-109998133D01*
X172140556Y-110010349D01*
X172124118Y-110042624D01*
X172122045Y-110048710D01*
X172114919Y-110094739D01*
X172133976Y-110122687D01*
X172183647Y-110136007D01*
X172237303Y-110138470D01*
X172333858Y-110120210D01*
X172383841Y-110094131D01*
X172445571Y-110032868D01*
X172478310Y-109957670D01*
X172481247Y-109878211D01*
X172453576Y-109804167D01*
X172411953Y-109757769D01*
X172370396Y-109731793D01*
X172305078Y-109698907D01*
X172228962Y-109665557D01*
X172216274Y-109660461D01*
X172132667Y-109623565D01*
X172084470Y-109591046D01*
X172068970Y-109558718D01*
X172083450Y-109522394D01*
X172108308Y-109494000D01*
X172167061Y-109459039D01*
X172231707Y-109456417D01*
X172290992Y-109483358D01*
X172333661Y-109537088D01*
X172339261Y-109550950D01*
X172371867Y-109601936D01*
X172419470Y-109639787D01*
X172479539Y-109670850D01*
X172479539Y-109582768D01*
X172476003Y-109528951D01*
X172460844Y-109486534D01*
X172427232Y-109441279D01*
X172394965Y-109406420D01*
X172344791Y-109357062D01*
X172305807Y-109330547D01*
X172263936Y-109319911D01*
X172216540Y-109318154D01*
X172112667Y-109333528D01*
G36*
X172604071Y-109336662D02*
G01*
X172601089Y-109388068D01*
X172598753Y-109466192D01*
X172597251Y-109564857D01*
X172596769Y-109668343D01*
X172596769Y-110018533D01*
X172658599Y-110080363D01*
X172701207Y-110118462D01*
X172738610Y-110133895D01*
X172789730Y-110132918D01*
X172810022Y-110130433D01*
X172873446Y-110123200D01*
X172925905Y-110119055D01*
X172938692Y-110118672D01*
X172981801Y-110121176D01*
X173043456Y-110127462D01*
X173067362Y-110130433D01*
X173126078Y-110135028D01*
X173165536Y-110125046D01*
X173204662Y-110094228D01*
X173218785Y-110080363D01*
X173280615Y-110018533D01*
X173280615Y-109363503D01*
X173230850Y-109340829D01*
X173187998Y-109324034D01*
X173162927Y-109318154D01*
X173156499Y-109336736D01*
X173150491Y-109388655D01*
X173145303Y-109468172D01*
X173141336Y-109569546D01*
X173139423Y-109655192D01*
X173134077Y-109992231D01*
X173087440Y-109998825D01*
X173045024Y-109994214D01*
X173024240Y-109979287D01*
X173018430Y-109951377D01*
X173013470Y-109891925D01*
X173009754Y-109808466D01*
X173007676Y-109708532D01*
X173007376Y-109657104D01*
X173007077Y-109361054D01*
X172945546Y-109339604D01*
X172901996Y-109325020D01*
X172878306Y-109318219D01*
X172877623Y-109318154D01*
X172875246Y-109336642D01*
X172872634Y-109387906D01*
X172870005Y-109465649D01*
X172867579Y-109563574D01*
X172865885Y-109655192D01*
X172860539Y-109992231D01*
X172743308Y-109992231D01*
X172737928Y-109684746D01*
X172732549Y-109377261D01*
X172675399Y-109347707D01*
X172633203Y-109327413D01*
X172608230Y-109318204D01*
X172607509Y-109318154D01*
X172604071Y-109336662D01*
G37*
X172604071Y-109336662D02*
X172601089Y-109388068D01*
X172598753Y-109466192D01*
X172597251Y-109564857D01*
X172596769Y-109668343D01*
X172596769Y-110018533D01*
X172658599Y-110080363D01*
X172701207Y-110118462D01*
X172738610Y-110133895D01*
X172789730Y-110132918D01*
X172810022Y-110130433D01*
X172873446Y-110123200D01*
X172925905Y-110119055D01*
X172938692Y-110118672D01*
X172981801Y-110121176D01*
X173043456Y-110127462D01*
X173067362Y-110130433D01*
X173126078Y-110135028D01*
X173165536Y-110125046D01*
X173204662Y-110094228D01*
X173218785Y-110080363D01*
X173280615Y-110018533D01*
X173280615Y-109363503D01*
X173230850Y-109340829D01*
X173187998Y-109324034D01*
X173162927Y-109318154D01*
X173156499Y-109336736D01*
X173150491Y-109388655D01*
X173145303Y-109468172D01*
X173141336Y-109569546D01*
X173139423Y-109655192D01*
X173134077Y-109992231D01*
X173087440Y-109998825D01*
X173045024Y-109994214D01*
X173024240Y-109979287D01*
X173018430Y-109951377D01*
X173013470Y-109891925D01*
X173009754Y-109808466D01*
X173007676Y-109708532D01*
X173007376Y-109657104D01*
X173007077Y-109361054D01*
X172945546Y-109339604D01*
X172901996Y-109325020D01*
X172878306Y-109318219D01*
X172877623Y-109318154D01*
X172875246Y-109336642D01*
X172872634Y-109387906D01*
X172870005Y-109465649D01*
X172867579Y-109563574D01*
X172865885Y-109655192D01*
X172860539Y-109992231D01*
X172743308Y-109992231D01*
X172737928Y-109684746D01*
X172732549Y-109377261D01*
X172675399Y-109347707D01*
X172633203Y-109327413D01*
X172608230Y-109318204D01*
X172607509Y-109318154D01*
X172604071Y-109336662D01*
G36*
X173397919Y-109480289D02*
G01*
X173398167Y-109626320D01*
X173399128Y-109738655D01*
X173401206Y-109822678D01*
X173404807Y-109883769D01*
X173410335Y-109927309D01*
X173418196Y-109958679D01*
X173428793Y-109983262D01*
X173436818Y-109997294D01*
X173503272Y-110073388D01*
X173587530Y-110121084D01*
X173680751Y-110138199D01*
X173774100Y-110122546D01*
X173829688Y-110094418D01*
X173888043Y-110045760D01*
X173927814Y-109986333D01*
X173951810Y-109908507D01*
X173962839Y-109804652D01*
X173964401Y-109728462D01*
X173964191Y-109722986D01*
X173827692Y-109722986D01*
X173826859Y-109810355D01*
X173823039Y-109868192D01*
X173814254Y-109906029D01*
X173798526Y-109933398D01*
X173779734Y-109954042D01*
X173716625Y-109993890D01*
X173648863Y-109997295D01*
X173584821Y-109964025D01*
X173579836Y-109959517D01*
X173558561Y-109936067D01*
X173545221Y-109908166D01*
X173537999Y-109866641D01*
X173535077Y-109802316D01*
X173534615Y-109731200D01*
X173535617Y-109641858D01*
X173539762Y-109582258D01*
X173548764Y-109543089D01*
X173564333Y-109515040D01*
X173577098Y-109500144D01*
X173636400Y-109462575D01*
X173704699Y-109458057D01*
X173769890Y-109486753D01*
X173782472Y-109497406D01*
X173803889Y-109521063D01*
X173817256Y-109549251D01*
X173824434Y-109591245D01*
X173827281Y-109656319D01*
X173827692Y-109722986D01*
X173964191Y-109722986D01*
X173959678Y-109605765D01*
X173943638Y-109513577D01*
X173913472Y-109444269D01*
X173866371Y-109390211D01*
X173829688Y-109362505D01*
X173763010Y-109332572D01*
X173685728Y-109318678D01*
X173613890Y-109322397D01*
X173573692Y-109337400D01*
X173557918Y-109341670D01*
X173547450Y-109325750D01*
X173540144Y-109283089D01*
X173534615Y-109218106D01*
X173528563Y-109145732D01*
X173520156Y-109102187D01*
X173504859Y-109077287D01*
X173478136Y-109060845D01*
X173461346Y-109053564D01*
X173397846Y-109026963D01*
X173397919Y-109480289D01*
G37*
X173397919Y-109480289D02*
X173398167Y-109626320D01*
X173399128Y-109738655D01*
X173401206Y-109822678D01*
X173404807Y-109883769D01*
X173410335Y-109927309D01*
X173418196Y-109958679D01*
X173428793Y-109983262D01*
X173436818Y-109997294D01*
X173503272Y-110073388D01*
X173587530Y-110121084D01*
X173680751Y-110138199D01*
X173774100Y-110122546D01*
X173829688Y-110094418D01*
X173888043Y-110045760D01*
X173927814Y-109986333D01*
X173951810Y-109908507D01*
X173962839Y-109804652D01*
X173964401Y-109728462D01*
X173964191Y-109722986D01*
X173827692Y-109722986D01*
X173826859Y-109810355D01*
X173823039Y-109868192D01*
X173814254Y-109906029D01*
X173798526Y-109933398D01*
X173779734Y-109954042D01*
X173716625Y-109993890D01*
X173648863Y-109997295D01*
X173584821Y-109964025D01*
X173579836Y-109959517D01*
X173558561Y-109936067D01*
X173545221Y-109908166D01*
X173537999Y-109866641D01*
X173535077Y-109802316D01*
X173534615Y-109731200D01*
X173535617Y-109641858D01*
X173539762Y-109582258D01*
X173548764Y-109543089D01*
X173564333Y-109515040D01*
X173577098Y-109500144D01*
X173636400Y-109462575D01*
X173704699Y-109458057D01*
X173769890Y-109486753D01*
X173782472Y-109497406D01*
X173803889Y-109521063D01*
X173817256Y-109549251D01*
X173824434Y-109591245D01*
X173827281Y-109656319D01*
X173827692Y-109722986D01*
X173964191Y-109722986D01*
X173959678Y-109605765D01*
X173943638Y-109513577D01*
X173913472Y-109444269D01*
X173866371Y-109390211D01*
X173829688Y-109362505D01*
X173763010Y-109332572D01*
X173685728Y-109318678D01*
X173613890Y-109322397D01*
X173573692Y-109337400D01*
X173557918Y-109341670D01*
X173547450Y-109325750D01*
X173540144Y-109283089D01*
X173534615Y-109218106D01*
X173528563Y-109145732D01*
X173520156Y-109102187D01*
X173504859Y-109077287D01*
X173478136Y-109060845D01*
X173461346Y-109053564D01*
X173397846Y-109026963D01*
X173397919Y-109480289D01*
G36*
X174286638Y-109324670D02*
G01*
X174197883Y-109357421D01*
X174125978Y-109415350D01*
X174097856Y-109456128D01*
X174067198Y-109530954D01*
X174067835Y-109585058D01*
X174100013Y-109621446D01*
X174111919Y-109627633D01*
X174163325Y-109646925D01*
X174189578Y-109641982D01*
X174198470Y-109609587D01*
X174198923Y-109591692D01*
X174215203Y-109525859D01*
X174257635Y-109479807D01*
X174316612Y-109457564D01*
X174382525Y-109463161D01*
X174436105Y-109492229D01*
X174454202Y-109508810D01*
X174467029Y-109528925D01*
X174475694Y-109559332D01*
X174481304Y-109606788D01*
X174484965Y-109678050D01*
X174487785Y-109779875D01*
X174488516Y-109812115D01*
X174491180Y-109922410D01*
X174494208Y-110000036D01*
X174498750Y-110051396D01*
X174505954Y-110082890D01*
X174516967Y-110100920D01*
X174532940Y-110111888D01*
X174543166Y-110116733D01*
X174586594Y-110133301D01*
X174612158Y-110138769D01*
X174620605Y-110120507D01*
X174625761Y-110065296D01*
X174627654Y-109972499D01*
X174626311Y-109841478D01*
X174625893Y-109821269D01*
X174622942Y-109701733D01*
X174619452Y-109614449D01*
X174614486Y-109552591D01*
X174607107Y-109509336D01*
X174596376Y-109477860D01*
X174581355Y-109451339D01*
X174573498Y-109439975D01*
X174528447Y-109389692D01*
X174478060Y-109350581D01*
X174471892Y-109347167D01*
X174381542Y-109320212D01*
X174286638Y-109324670D01*
G37*
X174286638Y-109324670D02*
X174197883Y-109357421D01*
X174125978Y-109415350D01*
X174097856Y-109456128D01*
X174067198Y-109530954D01*
X174067835Y-109585058D01*
X174100013Y-109621446D01*
X174111919Y-109627633D01*
X174163325Y-109646925D01*
X174189578Y-109641982D01*
X174198470Y-109609587D01*
X174198923Y-109591692D01*
X174215203Y-109525859D01*
X174257635Y-109479807D01*
X174316612Y-109457564D01*
X174382525Y-109463161D01*
X174436105Y-109492229D01*
X174454202Y-109508810D01*
X174467029Y-109528925D01*
X174475694Y-109559332D01*
X174481304Y-109606788D01*
X174484965Y-109678050D01*
X174487785Y-109779875D01*
X174488516Y-109812115D01*
X174491180Y-109922410D01*
X174494208Y-110000036D01*
X174498750Y-110051396D01*
X174505954Y-110082890D01*
X174516967Y-110100920D01*
X174532940Y-110111888D01*
X174543166Y-110116733D01*
X174586594Y-110133301D01*
X174612158Y-110138769D01*
X174620605Y-110120507D01*
X174625761Y-110065296D01*
X174627654Y-109972499D01*
X174626311Y-109841478D01*
X174625893Y-109821269D01*
X174622942Y-109701733D01*
X174619452Y-109614449D01*
X174614486Y-109552591D01*
X174607107Y-109509336D01*
X174596376Y-109477860D01*
X174581355Y-109451339D01*
X174573498Y-109439975D01*
X174528447Y-109389692D01*
X174478060Y-109350581D01*
X174471892Y-109347167D01*
X174381542Y-109320212D01*
X174286638Y-109324670D01*
G36*
X174946499Y-109326303D02*
G01*
X174869940Y-109354733D01*
X174869064Y-109355279D01*
X174821715Y-109390127D01*
X174786759Y-109430852D01*
X174762175Y-109483925D01*
X174745938Y-109555814D01*
X174736025Y-109652992D01*
X174730414Y-109781928D01*
X174729923Y-109800298D01*
X174722859Y-110077287D01*
X174782305Y-110108028D01*
X174825319Y-110128802D01*
X174851290Y-110138646D01*
X174852491Y-110138769D01*
X174856986Y-110120606D01*
X174860556Y-110071612D01*
X174862752Y-110000031D01*
X174863231Y-109942068D01*
X174863242Y-109848170D01*
X174867534Y-109789203D01*
X174882497Y-109761079D01*
X174914518Y-109759706D01*
X174969986Y-109780998D01*
X175053731Y-109820136D01*
X175115311Y-109852643D01*
X175146983Y-109880845D01*
X175156294Y-109911582D01*
X175156308Y-109913104D01*
X175140943Y-109966054D01*
X175095453Y-109994660D01*
X175025834Y-109998803D01*
X174975687Y-109998084D01*
X174949246Y-110012527D01*
X174932757Y-110047218D01*
X174923267Y-110091416D01*
X174936943Y-110116493D01*
X174942093Y-110120082D01*
X174990575Y-110134496D01*
X175058469Y-110136537D01*
X175128388Y-110126983D01*
X175177932Y-110109522D01*
X175246430Y-110051364D01*
X175285366Y-109970408D01*
X175293077Y-109907160D01*
X175287193Y-109850111D01*
X175265899Y-109803542D01*
X175223735Y-109762181D01*
X175155241Y-109720755D01*
X175054956Y-109673993D01*
X175048846Y-109671350D01*
X174958510Y-109629617D01*
X174902765Y-109595391D01*
X174878871Y-109564635D01*
X174884087Y-109533311D01*
X174915672Y-109497383D01*
X174925117Y-109489116D01*
X174988383Y-109457058D01*
X175053936Y-109458407D01*
X175111028Y-109489838D01*
X175148907Y-109548024D01*
X175152426Y-109559446D01*
X175186700Y-109614837D01*
X175230191Y-109641518D01*
X175293077Y-109667960D01*
X175293077Y-109599548D01*
X175273948Y-109500110D01*
X175217169Y-109408902D01*
X175187622Y-109378389D01*
X175120458Y-109339228D01*
X175035044Y-109321500D01*
X174946499Y-109326303D01*
G37*
X174946499Y-109326303D02*
X174869940Y-109354733D01*
X174869064Y-109355279D01*
X174821715Y-109390127D01*
X174786759Y-109430852D01*
X174762175Y-109483925D01*
X174745938Y-109555814D01*
X174736025Y-109652992D01*
X174730414Y-109781928D01*
X174729923Y-109800298D01*
X174722859Y-110077287D01*
X174782305Y-110108028D01*
X174825319Y-110128802D01*
X174851290Y-110138646D01*
X174852491Y-110138769D01*
X174856986Y-110120606D01*
X174860556Y-110071612D01*
X174862752Y-110000031D01*
X174863231Y-109942068D01*
X174863242Y-109848170D01*
X174867534Y-109789203D01*
X174882497Y-109761079D01*
X174914518Y-109759706D01*
X174969986Y-109780998D01*
X175053731Y-109820136D01*
X175115311Y-109852643D01*
X175146983Y-109880845D01*
X175156294Y-109911582D01*
X175156308Y-109913104D01*
X175140943Y-109966054D01*
X175095453Y-109994660D01*
X175025834Y-109998803D01*
X174975687Y-109998084D01*
X174949246Y-110012527D01*
X174932757Y-110047218D01*
X174923267Y-110091416D01*
X174936943Y-110116493D01*
X174942093Y-110120082D01*
X174990575Y-110134496D01*
X175058469Y-110136537D01*
X175128388Y-110126983D01*
X175177932Y-110109522D01*
X175246430Y-110051364D01*
X175285366Y-109970408D01*
X175293077Y-109907160D01*
X175287193Y-109850111D01*
X175265899Y-109803542D01*
X175223735Y-109762181D01*
X175155241Y-109720755D01*
X175054956Y-109673993D01*
X175048846Y-109671350D01*
X174958510Y-109629617D01*
X174902765Y-109595391D01*
X174878871Y-109564635D01*
X174884087Y-109533311D01*
X174915672Y-109497383D01*
X174925117Y-109489116D01*
X174988383Y-109457058D01*
X175053936Y-109458407D01*
X175111028Y-109489838D01*
X175148907Y-109548024D01*
X175152426Y-109559446D01*
X175186700Y-109614837D01*
X175230191Y-109641518D01*
X175293077Y-109667960D01*
X175293077Y-109599548D01*
X175273948Y-109500110D01*
X175217169Y-109408902D01*
X175187622Y-109378389D01*
X175120458Y-109339228D01*
X175035044Y-109321500D01*
X174946499Y-109326303D01*
G36*
X175840154Y-109192120D02*
G01*
X175834428Y-109271980D01*
X175827851Y-109319039D01*
X175818738Y-109339566D01*
X175805402Y-109339829D01*
X175801077Y-109337378D01*
X175743556Y-109319636D01*
X175668732Y-109320672D01*
X175592661Y-109338910D01*
X175545082Y-109362505D01*
X175496298Y-109400198D01*
X175460636Y-109442855D01*
X175436155Y-109497057D01*
X175420913Y-109569384D01*
X175412970Y-109666419D01*
X175410384Y-109794742D01*
X175410338Y-109819358D01*
X175410308Y-110095870D01*
X175471839Y-110117320D01*
X175515541Y-110131912D01*
X175539518Y-110138706D01*
X175540223Y-110138769D01*
X175542585Y-110120345D01*
X175544594Y-110069526D01*
X175546099Y-109992993D01*
X175546947Y-109897430D01*
X175547077Y-109839329D01*
X175547349Y-109724771D01*
X175548748Y-109642667D01*
X175552151Y-109586393D01*
X175558433Y-109549326D01*
X175568471Y-109524844D01*
X175583139Y-109506325D01*
X175592298Y-109497406D01*
X175655211Y-109461466D01*
X175723864Y-109458775D01*
X175786152Y-109489170D01*
X175797671Y-109500144D01*
X175814567Y-109520779D01*
X175826286Y-109545256D01*
X175833767Y-109580647D01*
X175837946Y-109634026D01*
X175839763Y-109712466D01*
X175840154Y-109820617D01*
X175840154Y-110095870D01*
X175901685Y-110117320D01*
X175945387Y-110131912D01*
X175969364Y-110138706D01*
X175970070Y-110138769D01*
X175971874Y-110120069D01*
X175973500Y-110067322D01*
X175974883Y-109985557D01*
X175975958Y-109879805D01*
X175976660Y-109755094D01*
X175976923Y-109616455D01*
X175976923Y-109081806D01*
X175849923Y-109028236D01*
X175840154Y-109192120D01*
G37*
X175840154Y-109192120D02*
X175834428Y-109271980D01*
X175827851Y-109319039D01*
X175818738Y-109339566D01*
X175805402Y-109339829D01*
X175801077Y-109337378D01*
X175743556Y-109319636D01*
X175668732Y-109320672D01*
X175592661Y-109338910D01*
X175545082Y-109362505D01*
X175496298Y-109400198D01*
X175460636Y-109442855D01*
X175436155Y-109497057D01*
X175420913Y-109569384D01*
X175412970Y-109666419D01*
X175410384Y-109794742D01*
X175410338Y-109819358D01*
X175410308Y-110095870D01*
X175471839Y-110117320D01*
X175515541Y-110131912D01*
X175539518Y-110138706D01*
X175540223Y-110138769D01*
X175542585Y-110120345D01*
X175544594Y-110069526D01*
X175546099Y-109992993D01*
X175546947Y-109897430D01*
X175547077Y-109839329D01*
X175547349Y-109724771D01*
X175548748Y-109642667D01*
X175552151Y-109586393D01*
X175558433Y-109549326D01*
X175568471Y-109524844D01*
X175583139Y-109506325D01*
X175592298Y-109497406D01*
X175655211Y-109461466D01*
X175723864Y-109458775D01*
X175786152Y-109489170D01*
X175797671Y-109500144D01*
X175814567Y-109520779D01*
X175826286Y-109545256D01*
X175833767Y-109580647D01*
X175837946Y-109634026D01*
X175839763Y-109712466D01*
X175840154Y-109820617D01*
X175840154Y-110095870D01*
X175901685Y-110117320D01*
X175945387Y-110131912D01*
X175969364Y-110138706D01*
X175970070Y-110138769D01*
X175971874Y-110120069D01*
X175973500Y-110067322D01*
X175974883Y-109985557D01*
X175975958Y-109879805D01*
X175976660Y-109755094D01*
X175976923Y-109616455D01*
X175976923Y-109081806D01*
X175849923Y-109028236D01*
X175840154Y-109192120D01*
G36*
X177465746Y-109299745D02*
G01*
X177388714Y-109351567D01*
X177329184Y-109426412D01*
X177293622Y-109521654D01*
X177286429Y-109591756D01*
X177287246Y-109621009D01*
X177294086Y-109643407D01*
X177312888Y-109663474D01*
X177349592Y-109685733D01*
X177410138Y-109714709D01*
X177500466Y-109754927D01*
X177500923Y-109755129D01*
X177584067Y-109793210D01*
X177652247Y-109827025D01*
X177698495Y-109852933D01*
X177715842Y-109867295D01*
X177715846Y-109867411D01*
X177700557Y-109898685D01*
X177664804Y-109933157D01*
X177623758Y-109957990D01*
X177602963Y-109962923D01*
X177546230Y-109945862D01*
X177497373Y-109903133D01*
X177473535Y-109856155D01*
X177450603Y-109821522D01*
X177405682Y-109782081D01*
X177352877Y-109748009D01*
X177306290Y-109729480D01*
X177296548Y-109728462D01*
X177285582Y-109745215D01*
X177284921Y-109788039D01*
X177292980Y-109845781D01*
X177308173Y-109907289D01*
X177328914Y-109961409D01*
X177329962Y-109963510D01*
X177392379Y-110050660D01*
X177473274Y-110109939D01*
X177565144Y-110139034D01*
X177660487Y-110135634D01*
X177751802Y-110097428D01*
X177755862Y-110094741D01*
X177827694Y-110029642D01*
X177874927Y-109944705D01*
X177901066Y-109833021D01*
X177904574Y-109801643D01*
X177910787Y-109653536D01*
X177903339Y-109584468D01*
X177715846Y-109584468D01*
X177713410Y-109627552D01*
X177700086Y-109640126D01*
X177666868Y-109630719D01*
X177614506Y-109608483D01*
X177555976Y-109580610D01*
X177554521Y-109579872D01*
X177504911Y-109553777D01*
X177485000Y-109536363D01*
X177489910Y-109518107D01*
X177510584Y-109494120D01*
X177563181Y-109459406D01*
X177619823Y-109456856D01*
X177670631Y-109482119D01*
X177705724Y-109530847D01*
X177715846Y-109584468D01*
X177903339Y-109584468D01*
X177898008Y-109535036D01*
X177865222Y-109441055D01*
X177819579Y-109375215D01*
X177737198Y-109308681D01*
X177646454Y-109275676D01*
X177553815Y-109273573D01*
X177465746Y-109299745D01*
G37*
X177465746Y-109299745D02*
X177388714Y-109351567D01*
X177329184Y-109426412D01*
X177293622Y-109521654D01*
X177286429Y-109591756D01*
X177287246Y-109621009D01*
X177294086Y-109643407D01*
X177312888Y-109663474D01*
X177349592Y-109685733D01*
X177410138Y-109714709D01*
X177500466Y-109754927D01*
X177500923Y-109755129D01*
X177584067Y-109793210D01*
X177652247Y-109827025D01*
X177698495Y-109852933D01*
X177715842Y-109867295D01*
X177715846Y-109867411D01*
X177700557Y-109898685D01*
X177664804Y-109933157D01*
X177623758Y-109957990D01*
X177602963Y-109962923D01*
X177546230Y-109945862D01*
X177497373Y-109903133D01*
X177473535Y-109856155D01*
X177450603Y-109821522D01*
X177405682Y-109782081D01*
X177352877Y-109748009D01*
X177306290Y-109729480D01*
X177296548Y-109728462D01*
X177285582Y-109745215D01*
X177284921Y-109788039D01*
X177292980Y-109845781D01*
X177308173Y-109907289D01*
X177328914Y-109961409D01*
X177329962Y-109963510D01*
X177392379Y-110050660D01*
X177473274Y-110109939D01*
X177565144Y-110139034D01*
X177660487Y-110135634D01*
X177751802Y-110097428D01*
X177755862Y-110094741D01*
X177827694Y-110029642D01*
X177874927Y-109944705D01*
X177901066Y-109833021D01*
X177904574Y-109801643D01*
X177910787Y-109653536D01*
X177903339Y-109584468D01*
X177715846Y-109584468D01*
X177713410Y-109627552D01*
X177700086Y-109640126D01*
X177666868Y-109630719D01*
X177614506Y-109608483D01*
X177555976Y-109580610D01*
X177554521Y-109579872D01*
X177504911Y-109553777D01*
X177485000Y-109536363D01*
X177489910Y-109518107D01*
X177510584Y-109494120D01*
X177563181Y-109459406D01*
X177619823Y-109456856D01*
X177670631Y-109482119D01*
X177705724Y-109530847D01*
X177715846Y-109584468D01*
X177903339Y-109584468D01*
X177898008Y-109535036D01*
X177865222Y-109441055D01*
X177819579Y-109375215D01*
X177737198Y-109308681D01*
X177646454Y-109275676D01*
X177553815Y-109273573D01*
X177465746Y-109299745D01*
G36*
X178983114Y-109287256D02*
G01*
X178891536Y-109335409D01*
X178823951Y-109412905D01*
X178799943Y-109462727D01*
X178781262Y-109537533D01*
X178771699Y-109632052D01*
X178770792Y-109735210D01*
X178778079Y-109835935D01*
X178793097Y-109923153D01*
X178815385Y-109985791D01*
X178822235Y-109996579D01*
X178903368Y-110077105D01*
X178999734Y-110125336D01*
X179104299Y-110139450D01*
X179210032Y-110117629D01*
X179239457Y-110104547D01*
X179296759Y-110064231D01*
X179347050Y-110010775D01*
X179351803Y-110003995D01*
X179371122Y-109971321D01*
X179383892Y-109936394D01*
X179391436Y-109890414D01*
X179395076Y-109824584D01*
X179396135Y-109730105D01*
X179396154Y-109708923D01*
X179396106Y-109702182D01*
X179200769Y-109702182D01*
X179199632Y-109791349D01*
X179195159Y-109850520D01*
X179185754Y-109888741D01*
X179169824Y-109915053D01*
X179161692Y-109923846D01*
X179114942Y-109957261D01*
X179069553Y-109955737D01*
X179023660Y-109926752D01*
X178996288Y-109895809D01*
X178980077Y-109850643D01*
X178970974Y-109779420D01*
X178970349Y-109771114D01*
X178968796Y-109642037D01*
X178985035Y-109546172D01*
X179018848Y-109484107D01*
X179070016Y-109456432D01*
X179088280Y-109454923D01*
X179136240Y-109462513D01*
X179169047Y-109488808D01*
X179189105Y-109539095D01*
X179198822Y-109618664D01*
X179200769Y-109702182D01*
X179396106Y-109702182D01*
X179395426Y-109608249D01*
X179392371Y-109537906D01*
X179385678Y-109489163D01*
X179374040Y-109453288D01*
X179356147Y-109421548D01*
X179352192Y-109415648D01*
X179285733Y-109336104D01*
X179213315Y-109289929D01*
X179125151Y-109271599D01*
X179095213Y-109270703D01*
X178983114Y-109287256D01*
G37*
X178983114Y-109287256D02*
X178891536Y-109335409D01*
X178823951Y-109412905D01*
X178799943Y-109462727D01*
X178781262Y-109537533D01*
X178771699Y-109632052D01*
X178770792Y-109735210D01*
X178778079Y-109835935D01*
X178793097Y-109923153D01*
X178815385Y-109985791D01*
X178822235Y-109996579D01*
X178903368Y-110077105D01*
X178999734Y-110125336D01*
X179104299Y-110139450D01*
X179210032Y-110117629D01*
X179239457Y-110104547D01*
X179296759Y-110064231D01*
X179347050Y-110010775D01*
X179351803Y-110003995D01*
X179371122Y-109971321D01*
X179383892Y-109936394D01*
X179391436Y-109890414D01*
X179395076Y-109824584D01*
X179396135Y-109730105D01*
X179396154Y-109708923D01*
X179396106Y-109702182D01*
X179200769Y-109702182D01*
X179199632Y-109791349D01*
X179195159Y-109850520D01*
X179185754Y-109888741D01*
X179169824Y-109915053D01*
X179161692Y-109923846D01*
X179114942Y-109957261D01*
X179069553Y-109955737D01*
X179023660Y-109926752D01*
X178996288Y-109895809D01*
X178980077Y-109850643D01*
X178970974Y-109779420D01*
X178970349Y-109771114D01*
X178968796Y-109642037D01*
X178985035Y-109546172D01*
X179018848Y-109484107D01*
X179070016Y-109456432D01*
X179088280Y-109454923D01*
X179136240Y-109462513D01*
X179169047Y-109488808D01*
X179189105Y-109539095D01*
X179198822Y-109618664D01*
X179200769Y-109702182D01*
X179396106Y-109702182D01*
X179395426Y-109608249D01*
X179392371Y-109537906D01*
X179385678Y-109489163D01*
X179374040Y-109453288D01*
X179356147Y-109421548D01*
X179352192Y-109415648D01*
X179285733Y-109336104D01*
X179213315Y-109289929D01*
X179125151Y-109271599D01*
X179095213Y-109270703D01*
X178983114Y-109287256D01*
G36*
X176728336Y-109295089D02*
G01*
X176665633Y-109331358D01*
X176622039Y-109367358D01*
X176590155Y-109405075D01*
X176568190Y-109451199D01*
X176554351Y-109512421D01*
X176546847Y-109595431D01*
X176543883Y-109706919D01*
X176543539Y-109787062D01*
X176543539Y-110082065D01*
X176709615Y-110156515D01*
X176719385Y-109833402D01*
X176723421Y-109712729D01*
X176727656Y-109625141D01*
X176732903Y-109564650D01*
X176739975Y-109525268D01*
X176749689Y-109501007D01*
X176762856Y-109485880D01*
X176767081Y-109482606D01*
X176831091Y-109457034D01*
X176895792Y-109467153D01*
X176934308Y-109494000D01*
X176949975Y-109513024D01*
X176960820Y-109537988D01*
X176967712Y-109575834D01*
X176971521Y-109633502D01*
X176973117Y-109717935D01*
X176973385Y-109805928D01*
X176973437Y-109916323D01*
X176975328Y-109994463D01*
X176981655Y-110047165D01*
X176995017Y-110081242D01*
X177018015Y-110103511D01*
X177053246Y-110120787D01*
X177100303Y-110138738D01*
X177151697Y-110158278D01*
X177145579Y-109811485D01*
X177143116Y-109686468D01*
X177140233Y-109594082D01*
X177136102Y-109527881D01*
X177129893Y-109481420D01*
X177120774Y-109448256D01*
X177107917Y-109421944D01*
X177092416Y-109398729D01*
X177017629Y-109324569D01*
X176926372Y-109281684D01*
X176827117Y-109271412D01*
X176728336Y-109295089D01*
G37*
X176728336Y-109295089D02*
X176665633Y-109331358D01*
X176622039Y-109367358D01*
X176590155Y-109405075D01*
X176568190Y-109451199D01*
X176554351Y-109512421D01*
X176546847Y-109595431D01*
X176543883Y-109706919D01*
X176543539Y-109787062D01*
X176543539Y-110082065D01*
X176709615Y-110156515D01*
X176719385Y-109833402D01*
X176723421Y-109712729D01*
X176727656Y-109625141D01*
X176732903Y-109564650D01*
X176739975Y-109525268D01*
X176749689Y-109501007D01*
X176762856Y-109485880D01*
X176767081Y-109482606D01*
X176831091Y-109457034D01*
X176895792Y-109467153D01*
X176934308Y-109494000D01*
X176949975Y-109513024D01*
X176960820Y-109537988D01*
X176967712Y-109575834D01*
X176971521Y-109633502D01*
X176973117Y-109717935D01*
X176973385Y-109805928D01*
X176973437Y-109916323D01*
X176975328Y-109994463D01*
X176981655Y-110047165D01*
X176995017Y-110081242D01*
X177018015Y-110103511D01*
X177053246Y-110120787D01*
X177100303Y-110138738D01*
X177151697Y-110158278D01*
X177145579Y-109811485D01*
X177143116Y-109686468D01*
X177140233Y-109594082D01*
X177136102Y-109527881D01*
X177129893Y-109481420D01*
X177120774Y-109448256D01*
X177107917Y-109421944D01*
X177092416Y-109398729D01*
X177017629Y-109324569D01*
X176926372Y-109281684D01*
X176827117Y-109271412D01*
X176728336Y-109295089D01*
G36*
X178231114Y-109284505D02*
G01*
X178156461Y-109321727D01*
X178090569Y-109390261D01*
X178072423Y-109415648D01*
X178052655Y-109448866D01*
X178039828Y-109484945D01*
X178032490Y-109533098D01*
X178029187Y-109602536D01*
X178028462Y-109694206D01*
X178031737Y-109819830D01*
X178043123Y-109914154D01*
X178064959Y-109984523D01*
X178099581Y-110038286D01*
X178149330Y-110082788D01*
X178152986Y-110085423D01*
X178202015Y-110112377D01*
X178261055Y-110125712D01*
X178336141Y-110129000D01*
X178458205Y-110129000D01*
X178458256Y-110247497D01*
X178459392Y-110313492D01*
X178466314Y-110352202D01*
X178484402Y-110375419D01*
X178519038Y-110394933D01*
X178527355Y-110398920D01*
X178566280Y-110417603D01*
X178596417Y-110429403D01*
X178618826Y-110430422D01*
X178634567Y-110416761D01*
X178644698Y-110384522D01*
X178650277Y-110329804D01*
X178652365Y-110248711D01*
X178652019Y-110137344D01*
X178650300Y-109991802D01*
X178649763Y-109948269D01*
X178647828Y-109798205D01*
X178646096Y-109700042D01*
X178458308Y-109700042D01*
X178457252Y-109783364D01*
X178452562Y-109837880D01*
X178441949Y-109873837D01*
X178423128Y-109901482D01*
X178410350Y-109914965D01*
X178358110Y-109954417D01*
X178311858Y-109957628D01*
X178264133Y-109925049D01*
X178262923Y-109923846D01*
X178243506Y-109898668D01*
X178231693Y-109864447D01*
X178225735Y-109811748D01*
X178223880Y-109731131D01*
X178223846Y-109713271D01*
X178228330Y-109602175D01*
X178242926Y-109525161D01*
X178269350Y-109478147D01*
X178309317Y-109457050D01*
X178332416Y-109454923D01*
X178387238Y-109464900D01*
X178424842Y-109497752D01*
X178447477Y-109557857D01*
X178457394Y-109649598D01*
X178458308Y-109700042D01*
X178646096Y-109700042D01*
X178645778Y-109682060D01*
X178643127Y-109594679D01*
X178639394Y-109530905D01*
X178634093Y-109485582D01*
X178626742Y-109453555D01*
X178616857Y-109429668D01*
X178603954Y-109408764D01*
X178598421Y-109400898D01*
X178525031Y-109326595D01*
X178432240Y-109284467D01*
X178324904Y-109272722D01*
X178231114Y-109284505D01*
G37*
X178231114Y-109284505D02*
X178156461Y-109321727D01*
X178090569Y-109390261D01*
X178072423Y-109415648D01*
X178052655Y-109448866D01*
X178039828Y-109484945D01*
X178032490Y-109533098D01*
X178029187Y-109602536D01*
X178028462Y-109694206D01*
X178031737Y-109819830D01*
X178043123Y-109914154D01*
X178064959Y-109984523D01*
X178099581Y-110038286D01*
X178149330Y-110082788D01*
X178152986Y-110085423D01*
X178202015Y-110112377D01*
X178261055Y-110125712D01*
X178336141Y-110129000D01*
X178458205Y-110129000D01*
X178458256Y-110247497D01*
X178459392Y-110313492D01*
X178466314Y-110352202D01*
X178484402Y-110375419D01*
X178519038Y-110394933D01*
X178527355Y-110398920D01*
X178566280Y-110417603D01*
X178596417Y-110429403D01*
X178618826Y-110430422D01*
X178634567Y-110416761D01*
X178644698Y-110384522D01*
X178650277Y-110329804D01*
X178652365Y-110248711D01*
X178652019Y-110137344D01*
X178650300Y-109991802D01*
X178649763Y-109948269D01*
X178647828Y-109798205D01*
X178646096Y-109700042D01*
X178458308Y-109700042D01*
X178457252Y-109783364D01*
X178452562Y-109837880D01*
X178441949Y-109873837D01*
X178423128Y-109901482D01*
X178410350Y-109914965D01*
X178358110Y-109954417D01*
X178311858Y-109957628D01*
X178264133Y-109925049D01*
X178262923Y-109923846D01*
X178243506Y-109898668D01*
X178231693Y-109864447D01*
X178225735Y-109811748D01*
X178223880Y-109731131D01*
X178223846Y-109713271D01*
X178228330Y-109602175D01*
X178242926Y-109525161D01*
X178269350Y-109478147D01*
X178309317Y-109457050D01*
X178332416Y-109454923D01*
X178387238Y-109464900D01*
X178424842Y-109497752D01*
X178447477Y-109557857D01*
X178457394Y-109649598D01*
X178458308Y-109700042D01*
X178646096Y-109700042D01*
X178645778Y-109682060D01*
X178643127Y-109594679D01*
X178639394Y-109530905D01*
X178634093Y-109485582D01*
X178626742Y-109453555D01*
X178616857Y-109429668D01*
X178603954Y-109408764D01*
X178598421Y-109400898D01*
X178525031Y-109326595D01*
X178432240Y-109284467D01*
X178324904Y-109272722D01*
X178231114Y-109284505D01*
D12*
X109126067Y-133300000D02*
G75*
G03X109126067Y-133300000I-381000J0D01*
G01*
X152226065Y-133500000D02*
G75*
G03X152226065Y-133500000I-381000J0D01*
G01*
X165476065Y-133550000D02*
G75*
G03X165476065Y-133550000I-381000J0D01*
G01*
X131576066Y-138450000D02*
G75*
G03X131576066Y-138450000I-381000J0D01*
G01*
%LPC*%
D13*
X103380000Y-122330000D03*
X103380000Y-119790000D03*
X103380000Y-117250000D03*
X103380000Y-114710000D03*
X103380000Y-112170000D03*
X103380000Y-109630000D03*
X103380000Y-107090000D03*
X103380000Y-104550000D03*
X103380000Y-102010000D03*
X103380000Y-99470000D03*
X103380000Y-96930000D03*
X103380000Y-94390000D03*
X103380000Y-91850000D03*
X103380000Y-89310000D03*
X103380000Y-86770000D03*
X118620000Y-89310000D03*
X118620000Y-91850000D03*
X118620000Y-94390000D03*
X118620000Y-96930000D03*
X118620000Y-99470000D03*
X118620000Y-102010000D03*
X118620000Y-104550000D03*
X118620000Y-107090000D03*
X118620000Y-109630000D03*
X118620000Y-112170000D03*
X118620000Y-114710000D03*
X118620000Y-117250000D03*
X118620000Y-119790000D03*
X118620000Y-86770000D03*
X118620000Y-122330000D03*
D14*
X113900003Y-133300000D03*
X117400003Y-138300000D03*
X120900004Y-133300000D03*
X124400004Y-138300000D03*
D15*
X138540000Y-103900000D03*
D16*
X136000000Y-103900000D03*
X125850000Y-103850000D03*
D15*
X128390000Y-103850000D03*
D17*
X152800000Y-110900000D03*
D18*
X145180000Y-110900000D03*
X133580000Y-110850000D03*
D17*
X141200000Y-110850000D03*
X130800000Y-110800000D03*
D18*
X123180000Y-110800000D03*
D19*
X160850000Y-78750000D03*
D14*
X160850000Y-81250000D03*
X160850000Y-83750000D03*
X160850000Y-86250000D03*
X160850000Y-88750000D03*
X160850000Y-91250000D03*
X160850000Y-93250000D03*
X166450000Y-122400000D03*
X184050000Y-122400000D03*
X184050000Y-82800000D03*
X166550000Y-82800000D03*
D20*
X157800000Y-103900000D03*
D21*
X161300000Y-103900000D03*
D22*
X158850000Y-122200000D03*
X136250000Y-122200000D03*
D23*
X125200000Y-95200000D03*
X125400000Y-73850000D03*
X159350000Y-73650000D03*
D21*
X105900000Y-128750000D03*
X108400000Y-128750000D03*
D23*
X182000000Y-75600000D03*
X105500000Y-75900000D03*
X105500000Y-142800000D03*
X182000000Y-142900000D03*
D14*
X160500002Y-138500000D03*
X156999999Y-133500000D03*
X170249999Y-133550000D03*
X173750002Y-138550000D03*
X136350000Y-138450000D03*
X139850001Y-133450000D03*
X143350001Y-138450000D03*
M02*
