G04 #@! TF.GenerationSoftware,KiCad,Pcbnew,(5.1.5)-3*
G04 #@! TF.CreationDate,2021-05-14T14:20:20+02:00*
G04 #@! TF.ProjectId,GSM-Alarmanlage,47534d2d-416c-4617-926d-616e6c616765,rev?*
G04 #@! TF.SameCoordinates,Original*
G04 #@! TF.FileFunction,Legend,Bot*
G04 #@! TF.FilePolarity,Positive*
%FSLAX46Y46*%
G04 Gerber Fmt 4.6, Leading zero omitted, Abs format (unit mm)*
G04 Created by KiCad (PCBNEW (5.1.5)-3) date 2021-05-14 14:20:20*
%MOMM*%
%LPD*%
G04 APERTURE LIST*
%ADD10C,0.150000*%
%ADD11C,0.152400*%
%ADD12O,2.134000X1.829200*%
%ADD13C,1.626000*%
%ADD14C,1.902000*%
%ADD15R,1.902000X1.902000*%
%ADD16C,1.502000*%
%ADD17O,1.502000X1.502000*%
%ADD18R,1.702000X1.702000*%
%ADD19C,1.702000*%
%ADD20C,3.102000*%
%ADD21C,3.302000*%
%ADD22R,1.626000X1.626000*%
G04 APERTURE END LIST*
D10*
X180933333Y-90900000D02*
X181028571Y-90852380D01*
X181171428Y-90852380D01*
X181314285Y-90900000D01*
X181409523Y-90995238D01*
X181457142Y-91090476D01*
X181504761Y-91280952D01*
X181504761Y-91423809D01*
X181457142Y-91614285D01*
X181409523Y-91709523D01*
X181314285Y-91804761D01*
X181171428Y-91852380D01*
X181076190Y-91852380D01*
X180933333Y-91804761D01*
X180885714Y-91757142D01*
X180885714Y-91423809D01*
X181076190Y-91423809D01*
X180504761Y-91804761D02*
X180361904Y-91852380D01*
X180123809Y-91852380D01*
X180028571Y-91804761D01*
X179980952Y-91757142D01*
X179933333Y-91661904D01*
X179933333Y-91566666D01*
X179980952Y-91471428D01*
X180028571Y-91423809D01*
X180123809Y-91376190D01*
X180314285Y-91328571D01*
X180409523Y-91280952D01*
X180457142Y-91233333D01*
X180504761Y-91138095D01*
X180504761Y-91042857D01*
X180457142Y-90947619D01*
X180409523Y-90900000D01*
X180314285Y-90852380D01*
X180076190Y-90852380D01*
X179933333Y-90900000D01*
X179504761Y-91852380D02*
X179504761Y-90852380D01*
X179171428Y-91566666D01*
X178838095Y-90852380D01*
X178838095Y-91852380D01*
X177647619Y-91566666D02*
X177171428Y-91566666D01*
X177742857Y-91852380D02*
X177409523Y-90852380D01*
X177076190Y-91852380D01*
X176600000Y-91852380D02*
X176695238Y-91804761D01*
X176742857Y-91709523D01*
X176742857Y-90852380D01*
X175790476Y-91852380D02*
X175790476Y-91328571D01*
X175838095Y-91233333D01*
X175933333Y-91185714D01*
X176123809Y-91185714D01*
X176219047Y-91233333D01*
X175790476Y-91804761D02*
X175885714Y-91852380D01*
X176123809Y-91852380D01*
X176219047Y-91804761D01*
X176266666Y-91709523D01*
X176266666Y-91614285D01*
X176219047Y-91519047D01*
X176123809Y-91471428D01*
X175885714Y-91471428D01*
X175790476Y-91423809D01*
X175314285Y-91852380D02*
X175314285Y-91185714D01*
X175314285Y-91376190D02*
X175266666Y-91280952D01*
X175219047Y-91233333D01*
X175123809Y-91185714D01*
X175028571Y-91185714D01*
X174695238Y-91852380D02*
X174695238Y-91185714D01*
X174695238Y-91280952D02*
X174647619Y-91233333D01*
X174552380Y-91185714D01*
X174409523Y-91185714D01*
X174314285Y-91233333D01*
X174266666Y-91328571D01*
X174266666Y-91852380D01*
X174266666Y-91328571D02*
X174219047Y-91233333D01*
X174123809Y-91185714D01*
X173980952Y-91185714D01*
X173885714Y-91233333D01*
X173838095Y-91328571D01*
X173838095Y-91852380D01*
X173361904Y-91852380D02*
X173361904Y-91185714D01*
X173361904Y-91280952D02*
X173314285Y-91233333D01*
X173219047Y-91185714D01*
X173076190Y-91185714D01*
X172980952Y-91233333D01*
X172933333Y-91328571D01*
X172933333Y-91852380D01*
X172933333Y-91328571D02*
X172885714Y-91233333D01*
X172790476Y-91185714D01*
X172647619Y-91185714D01*
X172552380Y-91233333D01*
X172504761Y-91328571D01*
X172504761Y-91852380D01*
X171647619Y-91804761D02*
X171742857Y-91852380D01*
X171933333Y-91852380D01*
X172028571Y-91804761D01*
X172076190Y-91709523D01*
X172076190Y-91328571D01*
X172028571Y-91233333D01*
X171933333Y-91185714D01*
X171742857Y-91185714D01*
X171647619Y-91233333D01*
X171600000Y-91328571D01*
X171600000Y-91423809D01*
X172076190Y-91519047D01*
X171028571Y-91852380D02*
X171123809Y-91804761D01*
X171171428Y-91709523D01*
X171171428Y-90852380D01*
X170219047Y-91852380D02*
X170219047Y-90852380D01*
X170219047Y-91804761D02*
X170314285Y-91852380D01*
X170504761Y-91852380D01*
X170600000Y-91804761D01*
X170647619Y-91757142D01*
X170695238Y-91661904D01*
X170695238Y-91376190D01*
X170647619Y-91280952D01*
X170600000Y-91233333D01*
X170504761Y-91185714D01*
X170314285Y-91185714D01*
X170219047Y-91233333D01*
X169361904Y-91804761D02*
X169457142Y-91852380D01*
X169647619Y-91852380D01*
X169742857Y-91804761D01*
X169790476Y-91709523D01*
X169790476Y-91328571D01*
X169742857Y-91233333D01*
X169647619Y-91185714D01*
X169457142Y-91185714D01*
X169361904Y-91233333D01*
X169314285Y-91328571D01*
X169314285Y-91423809D01*
X169790476Y-91519047D01*
X168885714Y-91852380D02*
X168885714Y-91185714D01*
X168885714Y-91376190D02*
X168838095Y-91280952D01*
X168790476Y-91233333D01*
X168695238Y-91185714D01*
X168600000Y-91185714D01*
X182719047Y-93502380D02*
X183052380Y-93026190D01*
X183290476Y-93502380D02*
X183290476Y-92502380D01*
X182909523Y-92502380D01*
X182814285Y-92550000D01*
X182766666Y-92597619D01*
X182719047Y-92692857D01*
X182719047Y-92835714D01*
X182766666Y-92930952D01*
X182814285Y-92978571D01*
X182909523Y-93026190D01*
X183290476Y-93026190D01*
X181909523Y-93454761D02*
X182004761Y-93502380D01*
X182195238Y-93502380D01*
X182290476Y-93454761D01*
X182338095Y-93359523D01*
X182338095Y-92978571D01*
X182290476Y-92883333D01*
X182195238Y-92835714D01*
X182004761Y-92835714D01*
X181909523Y-92883333D01*
X181861904Y-92978571D01*
X181861904Y-93073809D01*
X182338095Y-93169047D01*
X181528571Y-92835714D02*
X181290476Y-93502380D01*
X181052380Y-92835714D01*
X180671428Y-93407142D02*
X180623809Y-93454761D01*
X180671428Y-93502380D01*
X180719047Y-93454761D01*
X180671428Y-93407142D01*
X180671428Y-93502380D01*
X180242857Y-92597619D02*
X180195238Y-92550000D01*
X180100000Y-92502380D01*
X179861904Y-92502380D01*
X179766666Y-92550000D01*
X179719047Y-92597619D01*
X179671428Y-92692857D01*
X179671428Y-92788095D01*
X179719047Y-92930952D01*
X180290476Y-93502380D01*
X179671428Y-93502380D01*
X176957142Y-93502380D02*
X176957142Y-92502380D01*
X176623809Y-93216666D01*
X176290476Y-92502380D01*
X176290476Y-93502380D01*
X175385714Y-93502380D02*
X175385714Y-92978571D01*
X175433333Y-92883333D01*
X175528571Y-92835714D01*
X175719047Y-92835714D01*
X175814285Y-92883333D01*
X175385714Y-93454761D02*
X175480952Y-93502380D01*
X175719047Y-93502380D01*
X175814285Y-93454761D01*
X175861904Y-93359523D01*
X175861904Y-93264285D01*
X175814285Y-93169047D01*
X175719047Y-93121428D01*
X175480952Y-93121428D01*
X175385714Y-93073809D01*
X175004761Y-92835714D02*
X174766666Y-93502380D01*
X174528571Y-92835714D02*
X174766666Y-93502380D01*
X174861904Y-93740476D01*
X174909523Y-93788095D01*
X175004761Y-93835714D01*
X172861904Y-93502380D02*
X173433333Y-93502380D01*
X173147619Y-93502380D02*
X173147619Y-92502380D01*
X173242857Y-92645238D01*
X173338095Y-92740476D01*
X173433333Y-92788095D01*
X172004761Y-92835714D02*
X172004761Y-93502380D01*
X172242857Y-92454761D02*
X172480952Y-93169047D01*
X171861904Y-93169047D01*
X171480952Y-93407142D02*
X171433333Y-93454761D01*
X171480952Y-93502380D01*
X171528571Y-93454761D01*
X171480952Y-93407142D01*
X171480952Y-93502380D01*
X170290476Y-92597619D02*
X170242857Y-92550000D01*
X170147619Y-92502380D01*
X169909523Y-92502380D01*
X169814285Y-92550000D01*
X169766666Y-92597619D01*
X169719047Y-92692857D01*
X169719047Y-92788095D01*
X169766666Y-92930952D01*
X170338095Y-93502380D01*
X169719047Y-93502380D01*
X169100000Y-92502380D02*
X169004761Y-92502380D01*
X168909523Y-92550000D01*
X168861904Y-92597619D01*
X168814285Y-92692857D01*
X168766666Y-92883333D01*
X168766666Y-93121428D01*
X168814285Y-93311904D01*
X168861904Y-93407142D01*
X168909523Y-93454761D01*
X169004761Y-93502380D01*
X169100000Y-93502380D01*
X169195238Y-93454761D01*
X169242857Y-93407142D01*
X169290476Y-93311904D01*
X169338095Y-93121428D01*
X169338095Y-92883333D01*
X169290476Y-92692857D01*
X169242857Y-92597619D01*
X169195238Y-92550000D01*
X169100000Y-92502380D01*
X168385714Y-92597619D02*
X168338095Y-92550000D01*
X168242857Y-92502380D01*
X168004761Y-92502380D01*
X167909523Y-92550000D01*
X167861904Y-92597619D01*
X167814285Y-92692857D01*
X167814285Y-92788095D01*
X167861904Y-92930952D01*
X168433333Y-93502380D01*
X167814285Y-93502380D01*
X166861904Y-93502380D02*
X167433333Y-93502380D01*
X167147619Y-93502380D02*
X167147619Y-92502380D01*
X167242857Y-92645238D01*
X167338095Y-92740476D01*
X167433333Y-92788095D01*
X178671428Y-95152380D02*
X178671428Y-94152380D01*
X178671428Y-94628571D02*
X178100000Y-94628571D01*
X178100000Y-95152380D02*
X178100000Y-94152380D01*
X177195238Y-95152380D02*
X177195238Y-94628571D01*
X177242857Y-94533333D01*
X177338095Y-94485714D01*
X177528571Y-94485714D01*
X177623809Y-94533333D01*
X177195238Y-95104761D02*
X177290476Y-95152380D01*
X177528571Y-95152380D01*
X177623809Y-95104761D01*
X177671428Y-95009523D01*
X177671428Y-94914285D01*
X177623809Y-94819047D01*
X177528571Y-94771428D01*
X177290476Y-94771428D01*
X177195238Y-94723809D01*
X176719047Y-94485714D02*
X176719047Y-95152380D01*
X176719047Y-94580952D02*
X176671428Y-94533333D01*
X176576190Y-94485714D01*
X176433333Y-94485714D01*
X176338095Y-94533333D01*
X176290476Y-94628571D01*
X176290476Y-95152380D01*
X175861904Y-95104761D02*
X175766666Y-95152380D01*
X175576190Y-95152380D01*
X175480952Y-95104761D01*
X175433333Y-95009523D01*
X175433333Y-94961904D01*
X175480952Y-94866666D01*
X175576190Y-94819047D01*
X175719047Y-94819047D01*
X175814285Y-94771428D01*
X175861904Y-94676190D01*
X175861904Y-94628571D01*
X175814285Y-94533333D01*
X175719047Y-94485714D01*
X175576190Y-94485714D01*
X175480952Y-94533333D01*
X175004761Y-94771428D02*
X174242857Y-94771428D01*
X173480952Y-94152380D02*
X173480952Y-94866666D01*
X173528571Y-95009523D01*
X173623809Y-95104761D01*
X173766666Y-95152380D01*
X173861904Y-95152380D01*
X173004761Y-95057142D02*
X172957142Y-95104761D01*
X173004761Y-95152380D01*
X173052380Y-95104761D01*
X173004761Y-95057142D01*
X173004761Y-95152380D01*
X171957142Y-95152380D02*
X172290476Y-94676190D01*
X172528571Y-95152380D02*
X172528571Y-94152380D01*
X172147619Y-94152380D01*
X172052380Y-94200000D01*
X172004761Y-94247619D01*
X171957142Y-94342857D01*
X171957142Y-94485714D01*
X172004761Y-94580952D01*
X172052380Y-94628571D01*
X172147619Y-94676190D01*
X172528571Y-94676190D01*
X171528571Y-95057142D02*
X171480952Y-95104761D01*
X171528571Y-95152380D01*
X171576190Y-95104761D01*
X171528571Y-95057142D01*
X171528571Y-95152380D01*
X183838095Y-96802380D02*
X183933333Y-96754761D01*
X183980952Y-96707142D01*
X184028571Y-96611904D01*
X184028571Y-96326190D01*
X183980952Y-96230952D01*
X183933333Y-96183333D01*
X183838095Y-96135714D01*
X183695238Y-96135714D01*
X183600000Y-96183333D01*
X183552380Y-96230952D01*
X183504761Y-96326190D01*
X183504761Y-96611904D01*
X183552380Y-96707142D01*
X183600000Y-96754761D01*
X183695238Y-96802380D01*
X183838095Y-96802380D01*
X183076190Y-96135714D02*
X183076190Y-97135714D01*
X183076190Y-96183333D02*
X182980952Y-96135714D01*
X182790476Y-96135714D01*
X182695238Y-96183333D01*
X182647619Y-96230952D01*
X182600000Y-96326190D01*
X182600000Y-96611904D01*
X182647619Y-96707142D01*
X182695238Y-96754761D01*
X182790476Y-96802380D01*
X182980952Y-96802380D01*
X183076190Y-96754761D01*
X181790476Y-96754761D02*
X181885714Y-96802380D01*
X182076190Y-96802380D01*
X182171428Y-96754761D01*
X182219047Y-96659523D01*
X182219047Y-96278571D01*
X182171428Y-96183333D01*
X182076190Y-96135714D01*
X181885714Y-96135714D01*
X181790476Y-96183333D01*
X181742857Y-96278571D01*
X181742857Y-96373809D01*
X182219047Y-96469047D01*
X181314285Y-96135714D02*
X181314285Y-96802380D01*
X181314285Y-96230952D02*
X181266666Y-96183333D01*
X181171428Y-96135714D01*
X181028571Y-96135714D01*
X180933333Y-96183333D01*
X180885714Y-96278571D01*
X180885714Y-96802380D01*
X180409523Y-96421428D02*
X179647619Y-96421428D01*
X179171428Y-96802380D02*
X179171428Y-95802380D01*
X179171428Y-96183333D02*
X179076190Y-96135714D01*
X178885714Y-96135714D01*
X178790476Y-96183333D01*
X178742857Y-96230952D01*
X178695238Y-96326190D01*
X178695238Y-96611904D01*
X178742857Y-96707142D01*
X178790476Y-96754761D01*
X178885714Y-96802380D01*
X179076190Y-96802380D01*
X179171428Y-96754761D01*
X178123809Y-96802380D02*
X178219047Y-96754761D01*
X178266666Y-96707142D01*
X178314285Y-96611904D01*
X178314285Y-96326190D01*
X178266666Y-96230952D01*
X178219047Y-96183333D01*
X178123809Y-96135714D01*
X177980952Y-96135714D01*
X177885714Y-96183333D01*
X177838095Y-96230952D01*
X177790476Y-96326190D01*
X177790476Y-96611904D01*
X177838095Y-96707142D01*
X177885714Y-96754761D01*
X177980952Y-96802380D01*
X178123809Y-96802380D01*
X176933333Y-96802380D02*
X176933333Y-96278571D01*
X176980952Y-96183333D01*
X177076190Y-96135714D01*
X177266666Y-96135714D01*
X177361904Y-96183333D01*
X176933333Y-96754761D02*
X177028571Y-96802380D01*
X177266666Y-96802380D01*
X177361904Y-96754761D01*
X177409523Y-96659523D01*
X177409523Y-96564285D01*
X177361904Y-96469047D01*
X177266666Y-96421428D01*
X177028571Y-96421428D01*
X176933333Y-96373809D01*
X176600000Y-96135714D02*
X176219047Y-96135714D01*
X176457142Y-95802380D02*
X176457142Y-96659523D01*
X176409523Y-96754761D01*
X176314285Y-96802380D01*
X176219047Y-96802380D01*
X175885714Y-96421428D02*
X175123809Y-96421428D01*
X174647619Y-96135714D02*
X174647619Y-97135714D01*
X174647619Y-96183333D02*
X174552380Y-96135714D01*
X174361904Y-96135714D01*
X174266666Y-96183333D01*
X174219047Y-96230952D01*
X174171428Y-96326190D01*
X174171428Y-96611904D01*
X174219047Y-96707142D01*
X174266666Y-96754761D01*
X174361904Y-96802380D01*
X174552380Y-96802380D01*
X174647619Y-96754761D01*
X173742857Y-96802380D02*
X173742857Y-96135714D01*
X173742857Y-96326190D02*
X173695238Y-96230952D01*
X173647619Y-96183333D01*
X173552380Y-96135714D01*
X173457142Y-96135714D01*
X172980952Y-96802380D02*
X173076190Y-96754761D01*
X173123809Y-96707142D01*
X173171428Y-96611904D01*
X173171428Y-96326190D01*
X173123809Y-96230952D01*
X173076190Y-96183333D01*
X172980952Y-96135714D01*
X172838095Y-96135714D01*
X172742857Y-96183333D01*
X172695238Y-96230952D01*
X172647619Y-96326190D01*
X172647619Y-96611904D01*
X172695238Y-96707142D01*
X172742857Y-96754761D01*
X172838095Y-96802380D01*
X172980952Y-96802380D01*
X172219047Y-96135714D02*
X172219047Y-96992857D01*
X172266666Y-97088095D01*
X172361904Y-97135714D01*
X172409523Y-97135714D01*
X172219047Y-95802380D02*
X172266666Y-95850000D01*
X172219047Y-95897619D01*
X172171428Y-95850000D01*
X172219047Y-95802380D01*
X172219047Y-95897619D01*
X171361904Y-96754761D02*
X171457142Y-96802380D01*
X171647619Y-96802380D01*
X171742857Y-96754761D01*
X171790476Y-96659523D01*
X171790476Y-96278571D01*
X171742857Y-96183333D01*
X171647619Y-96135714D01*
X171457142Y-96135714D01*
X171361904Y-96183333D01*
X171314285Y-96278571D01*
X171314285Y-96373809D01*
X171790476Y-96469047D01*
X170457142Y-96754761D02*
X170552380Y-96802380D01*
X170742857Y-96802380D01*
X170838095Y-96754761D01*
X170885714Y-96707142D01*
X170933333Y-96611904D01*
X170933333Y-96326190D01*
X170885714Y-96230952D01*
X170838095Y-96183333D01*
X170742857Y-96135714D01*
X170552380Y-96135714D01*
X170457142Y-96183333D01*
X170171428Y-96135714D02*
X169790476Y-96135714D01*
X170028571Y-95802380D02*
X170028571Y-96659523D01*
X169980952Y-96754761D01*
X169885714Y-96802380D01*
X169790476Y-96802380D01*
X169504761Y-96754761D02*
X169409523Y-96802380D01*
X169219047Y-96802380D01*
X169123809Y-96754761D01*
X169076190Y-96659523D01*
X169076190Y-96611904D01*
X169123809Y-96516666D01*
X169219047Y-96469047D01*
X169361904Y-96469047D01*
X169457142Y-96421428D01*
X169504761Y-96326190D01*
X169504761Y-96278571D01*
X169457142Y-96183333D01*
X169361904Y-96135714D01*
X169219047Y-96135714D01*
X169123809Y-96183333D01*
X168647619Y-96707142D02*
X168600000Y-96754761D01*
X168647619Y-96802380D01*
X168695238Y-96754761D01*
X168647619Y-96707142D01*
X168647619Y-96802380D01*
X168028571Y-96802380D02*
X168123809Y-96754761D01*
X168171428Y-96707142D01*
X168219047Y-96611904D01*
X168219047Y-96326190D01*
X168171428Y-96230952D01*
X168123809Y-96183333D01*
X168028571Y-96135714D01*
X167885714Y-96135714D01*
X167790476Y-96183333D01*
X167742857Y-96230952D01*
X167695238Y-96326190D01*
X167695238Y-96611904D01*
X167742857Y-96707142D01*
X167790476Y-96754761D01*
X167885714Y-96802380D01*
X168028571Y-96802380D01*
X167266666Y-96802380D02*
X167266666Y-96135714D01*
X167266666Y-96326190D02*
X167219047Y-96230952D01*
X167171428Y-96183333D01*
X167076190Y-96135714D01*
X166980952Y-96135714D01*
X166219047Y-96135714D02*
X166219047Y-96945238D01*
X166266666Y-97040476D01*
X166314285Y-97088095D01*
X166409523Y-97135714D01*
X166552380Y-97135714D01*
X166647619Y-97088095D01*
X166219047Y-96754761D02*
X166314285Y-96802380D01*
X166504761Y-96802380D01*
X166600000Y-96754761D01*
X166647619Y-96707142D01*
X166695238Y-96611904D01*
X166695238Y-96326190D01*
X166647619Y-96230952D01*
X166600000Y-96183333D01*
X166504761Y-96135714D01*
X166314285Y-96135714D01*
X166219047Y-96183333D01*
X179766666Y-98357142D02*
X179814285Y-98404761D01*
X179957142Y-98452380D01*
X180052380Y-98452380D01*
X180195238Y-98404761D01*
X180290476Y-98309523D01*
X180338095Y-98214285D01*
X180385714Y-98023809D01*
X180385714Y-97880952D01*
X180338095Y-97690476D01*
X180290476Y-97595238D01*
X180195238Y-97500000D01*
X180052380Y-97452380D01*
X179957142Y-97452380D01*
X179814285Y-97500000D01*
X179766666Y-97547619D01*
X178766666Y-98357142D02*
X178814285Y-98404761D01*
X178957142Y-98452380D01*
X179052380Y-98452380D01*
X179195238Y-98404761D01*
X179290476Y-98309523D01*
X179338095Y-98214285D01*
X179385714Y-98023809D01*
X179385714Y-97880952D01*
X179338095Y-97690476D01*
X179290476Y-97595238D01*
X179195238Y-97500000D01*
X179052380Y-97452380D01*
X178957142Y-97452380D01*
X178814285Y-97500000D01*
X178766666Y-97547619D01*
X177242857Y-97928571D02*
X177100000Y-97976190D01*
X177052380Y-98023809D01*
X177004761Y-98119047D01*
X177004761Y-98261904D01*
X177052380Y-98357142D01*
X177100000Y-98404761D01*
X177195238Y-98452380D01*
X177576190Y-98452380D01*
X177576190Y-97452380D01*
X177242857Y-97452380D01*
X177147619Y-97500000D01*
X177100000Y-97547619D01*
X177052380Y-97642857D01*
X177052380Y-97738095D01*
X177100000Y-97833333D01*
X177147619Y-97880952D01*
X177242857Y-97928571D01*
X177576190Y-97928571D01*
X176385714Y-97976190D02*
X176385714Y-98452380D01*
X176719047Y-97452380D02*
X176385714Y-97976190D01*
X176052380Y-97452380D01*
X175719047Y-98071428D02*
X174957142Y-98071428D01*
X174480952Y-98452380D02*
X174480952Y-97452380D01*
X173909523Y-98452380D01*
X173909523Y-97452380D01*
X172861904Y-98357142D02*
X172909523Y-98404761D01*
X173052380Y-98452380D01*
X173147619Y-98452380D01*
X173290476Y-98404761D01*
X173385714Y-98309523D01*
X173433333Y-98214285D01*
X173480952Y-98023809D01*
X173480952Y-97880952D01*
X173433333Y-97690476D01*
X173385714Y-97595238D01*
X173290476Y-97500000D01*
X173147619Y-97452380D01*
X173052380Y-97452380D01*
X172909523Y-97500000D01*
X172861904Y-97547619D01*
X172433333Y-98071428D02*
X171671428Y-98071428D01*
X171242857Y-98404761D02*
X171100000Y-98452380D01*
X170861904Y-98452380D01*
X170766666Y-98404761D01*
X170719047Y-98357142D01*
X170671428Y-98261904D01*
X170671428Y-98166666D01*
X170719047Y-98071428D01*
X170766666Y-98023809D01*
X170861904Y-97976190D01*
X171052380Y-97928571D01*
X171147619Y-97880952D01*
X171195238Y-97833333D01*
X171242857Y-97738095D01*
X171242857Y-97642857D01*
X171195238Y-97547619D01*
X171147619Y-97500000D01*
X171052380Y-97452380D01*
X170814285Y-97452380D01*
X170671428Y-97500000D01*
X170290476Y-98166666D02*
X169814285Y-98166666D01*
X170385714Y-98452380D02*
X170052380Y-97452380D01*
X169719047Y-98452380D01*
D11*
X109126067Y-133300000D02*
G75*
G03X109126067Y-133300000I-381000J0D01*
G01*
X152226065Y-133500000D02*
G75*
G03X152226065Y-133500000I-381000J0D01*
G01*
X165476065Y-133550000D02*
G75*
G03X165476065Y-133550000I-381000J0D01*
G01*
X131576066Y-138450000D02*
G75*
G03X131576066Y-138450000I-381000J0D01*
G01*
%LPC*%
D12*
X103380000Y-122330000D03*
X103380000Y-119790000D03*
X103380000Y-117250000D03*
X103380000Y-114710000D03*
X103380000Y-112170000D03*
X103380000Y-109630000D03*
X103380000Y-107090000D03*
X103380000Y-104550000D03*
X103380000Y-102010000D03*
X103380000Y-99470000D03*
X103380000Y-96930000D03*
X103380000Y-94390000D03*
X103380000Y-91850000D03*
X103380000Y-89310000D03*
X103380000Y-86770000D03*
X118620000Y-89310000D03*
X118620000Y-91850000D03*
X118620000Y-94390000D03*
X118620000Y-96930000D03*
X118620000Y-99470000D03*
X118620000Y-102010000D03*
X118620000Y-104550000D03*
X118620000Y-107090000D03*
X118620000Y-109630000D03*
X118620000Y-112170000D03*
X118620000Y-114710000D03*
X118620000Y-117250000D03*
X118620000Y-119790000D03*
X118620000Y-86770000D03*
X118620000Y-122330000D03*
D13*
X113900003Y-133300000D03*
X117400003Y-138300000D03*
X120900004Y-133300000D03*
X124400004Y-138300000D03*
D14*
X138540000Y-103900000D03*
D15*
X136000000Y-103900000D03*
X125850000Y-103850000D03*
D14*
X128390000Y-103850000D03*
D16*
X152800000Y-110900000D03*
D17*
X145180000Y-110900000D03*
X133580000Y-110850000D03*
D16*
X141200000Y-110850000D03*
X130800000Y-110800000D03*
D17*
X123180000Y-110800000D03*
D13*
X166450000Y-122400000D03*
X184050000Y-122400000D03*
X184050000Y-82800000D03*
X166550000Y-82800000D03*
D18*
X157800000Y-103900000D03*
D19*
X161300000Y-103900000D03*
D20*
X158850000Y-122200000D03*
X136250000Y-122200000D03*
D21*
X125200000Y-95200000D03*
X125400000Y-73850000D03*
X159350000Y-73650000D03*
D19*
X105900000Y-128750000D03*
X108400000Y-128750000D03*
D21*
X182000000Y-75600000D03*
X105500000Y-75900000D03*
X105500000Y-142800000D03*
X182000000Y-142900000D03*
D13*
X160500002Y-138500000D03*
X156999999Y-133500000D03*
X170249999Y-133550000D03*
X173750002Y-138550000D03*
X136350000Y-138450000D03*
X139850001Y-133450000D03*
X143350001Y-138450000D03*
D22*
X160800000Y-78800000D03*
D13*
X160800000Y-81300000D03*
X160800000Y-83800000D03*
X160800000Y-86300000D03*
X160800000Y-88800000D03*
X160800000Y-91300000D03*
X160800000Y-93800000D03*
M02*
