G04 #@! TF.GenerationSoftware,KiCad,Pcbnew,(5.1.5)-3*
G04 #@! TF.CreationDate,2021-05-14T19:35:04+02:00*
G04 #@! TF.ProjectId,GSM-Alarmanlage,47534d2d-416c-4617-926d-616e6c616765,rev?*
G04 #@! TF.SameCoordinates,Original*
G04 #@! TF.FileFunction,Legend,Top*
G04 #@! TF.FilePolarity,Positive*
%FSLAX46Y46*%
G04 Gerber Fmt 4.6, Leading zero omitted, Abs format (unit mm)*
G04 Created by KiCad (PCBNEW (5.1.5)-3) date 2021-05-14 19:35:04*
%MOMM*%
%LPD*%
G04 APERTURE LIST*
%ADD10C,0.150000*%
%ADD11C,0.120000*%
%ADD12C,0.152400*%
%ADD13C,1.702000*%
%ADD14O,1.702000X1.702000*%
%ADD15O,2.134000X1.829200*%
%ADD16C,1.626000*%
%ADD17C,1.902000*%
%ADD18R,1.902000X1.902000*%
%ADD19R,1.702000X1.702000*%
%ADD20C,3.102000*%
%ADD21C,3.302000*%
%ADD22R,1.626000X1.626000*%
G04 APERTURE END LIST*
D10*
X183038095Y-78800000D02*
X182942857Y-78752380D01*
X182800000Y-78752380D01*
X182657142Y-78800000D01*
X182561904Y-78895238D01*
X182514285Y-78990476D01*
X182466666Y-79180952D01*
X182466666Y-79323809D01*
X182514285Y-79514285D01*
X182561904Y-79609523D01*
X182657142Y-79704761D01*
X182800000Y-79752380D01*
X182895238Y-79752380D01*
X183038095Y-79704761D01*
X183085714Y-79657142D01*
X183085714Y-79323809D01*
X182895238Y-79323809D01*
X183514285Y-79752380D02*
X183514285Y-78752380D01*
X184085714Y-79752380D01*
X184085714Y-78752380D01*
X184561904Y-79752380D02*
X184561904Y-78752380D01*
X184800000Y-78752380D01*
X184942857Y-78800000D01*
X185038095Y-78895238D01*
X185085714Y-78990476D01*
X185133333Y-79180952D01*
X185133333Y-79323809D01*
X185085714Y-79514285D01*
X185038095Y-79609523D01*
X184942857Y-79704761D01*
X184800000Y-79752380D01*
X184561904Y-79752380D01*
X165314285Y-79271428D02*
X166076190Y-79271428D01*
X165695238Y-79652380D02*
X165695238Y-78890476D01*
X167028571Y-78652380D02*
X166552380Y-78652380D01*
X166504761Y-79128571D01*
X166552380Y-79080952D01*
X166647619Y-79033333D01*
X166885714Y-79033333D01*
X166980952Y-79080952D01*
X167028571Y-79128571D01*
X167076190Y-79223809D01*
X167076190Y-79461904D01*
X167028571Y-79557142D01*
X166980952Y-79604761D01*
X166885714Y-79652380D01*
X166647619Y-79652380D01*
X166552380Y-79604761D01*
X166504761Y-79557142D01*
X167361904Y-78652380D02*
X167695238Y-79652380D01*
X168028571Y-78652380D01*
X140576190Y-116652380D02*
X140004761Y-116652380D01*
X140290476Y-116652380D02*
X140290476Y-115652380D01*
X140195238Y-115795238D01*
X140100000Y-115890476D01*
X140004761Y-115938095D01*
X141004761Y-116557142D02*
X141052380Y-116604761D01*
X141004761Y-116652380D01*
X140957142Y-116604761D01*
X141004761Y-116557142D01*
X141004761Y-116652380D01*
X141957142Y-115652380D02*
X141480952Y-115652380D01*
X141433333Y-116128571D01*
X141480952Y-116080952D01*
X141576190Y-116033333D01*
X141814285Y-116033333D01*
X141909523Y-116080952D01*
X141957142Y-116128571D01*
X142004761Y-116223809D01*
X142004761Y-116461904D01*
X141957142Y-116557142D01*
X141909523Y-116604761D01*
X141814285Y-116652380D01*
X141576190Y-116652380D01*
X141480952Y-116604761D01*
X141433333Y-116557142D01*
X143147619Y-116366666D02*
X143623809Y-116366666D01*
X143052380Y-116652380D02*
X143385714Y-115652380D01*
X143719047Y-116652380D01*
X144052380Y-116652380D02*
X144052380Y-115985714D01*
X144052380Y-116080952D02*
X144100000Y-116033333D01*
X144195238Y-115985714D01*
X144338095Y-115985714D01*
X144433333Y-116033333D01*
X144480952Y-116128571D01*
X144480952Y-116652380D01*
X144480952Y-116128571D02*
X144528571Y-116033333D01*
X144623809Y-115985714D01*
X144766666Y-115985714D01*
X144861904Y-116033333D01*
X144909523Y-116128571D01*
X144909523Y-116652380D01*
X145385714Y-115985714D02*
X145385714Y-116985714D01*
X145385714Y-116033333D02*
X145480952Y-115985714D01*
X145671428Y-115985714D01*
X145766666Y-116033333D01*
X145814285Y-116080952D01*
X145861904Y-116176190D01*
X145861904Y-116461904D01*
X145814285Y-116557142D01*
X145766666Y-116604761D01*
X145671428Y-116652380D01*
X145480952Y-116652380D01*
X145385714Y-116604761D01*
X146671428Y-116604761D02*
X146576190Y-116652380D01*
X146385714Y-116652380D01*
X146290476Y-116604761D01*
X146242857Y-116509523D01*
X146242857Y-116128571D01*
X146290476Y-116033333D01*
X146385714Y-115985714D01*
X146576190Y-115985714D01*
X146671428Y-116033333D01*
X146719047Y-116128571D01*
X146719047Y-116223809D01*
X146242857Y-116319047D01*
X147147619Y-116652380D02*
X147147619Y-115985714D01*
X147147619Y-116176190D02*
X147195238Y-116080952D01*
X147242857Y-116033333D01*
X147338095Y-115985714D01*
X147433333Y-115985714D01*
X148147619Y-116604761D02*
X148052380Y-116652380D01*
X147861904Y-116652380D01*
X147766666Y-116604761D01*
X147719047Y-116509523D01*
X147719047Y-116128571D01*
X147766666Y-116033333D01*
X147861904Y-115985714D01*
X148052380Y-115985714D01*
X148147619Y-116033333D01*
X148195238Y-116128571D01*
X148195238Y-116223809D01*
X147719047Y-116319047D01*
X125452380Y-108327380D02*
X125452380Y-107803571D01*
X125404761Y-107708333D01*
X125309523Y-107660714D01*
X125119047Y-107660714D01*
X125023809Y-107708333D01*
X125452380Y-108279761D02*
X125357142Y-108327380D01*
X125119047Y-108327380D01*
X125023809Y-108279761D01*
X124976190Y-108184523D01*
X124976190Y-108089285D01*
X125023809Y-107994047D01*
X125119047Y-107946428D01*
X125357142Y-107946428D01*
X125452380Y-107898809D01*
X125928571Y-108327380D02*
X125928571Y-107660714D01*
X125928571Y-107851190D02*
X125976190Y-107755952D01*
X126023809Y-107708333D01*
X126119047Y-107660714D01*
X126214285Y-107660714D01*
X126547619Y-108327380D02*
X126547619Y-107660714D01*
X126547619Y-107755952D02*
X126595238Y-107708333D01*
X126690476Y-107660714D01*
X126833333Y-107660714D01*
X126928571Y-107708333D01*
X126976190Y-107803571D01*
X126976190Y-108327380D01*
X126976190Y-107803571D02*
X127023809Y-107708333D01*
X127119047Y-107660714D01*
X127261904Y-107660714D01*
X127357142Y-107708333D01*
X127404761Y-107803571D01*
X127404761Y-108327380D01*
X128261904Y-108279761D02*
X128166666Y-108327380D01*
X127976190Y-108327380D01*
X127880952Y-108279761D01*
X127833333Y-108184523D01*
X127833333Y-107803571D01*
X127880952Y-107708333D01*
X127976190Y-107660714D01*
X128166666Y-107660714D01*
X128261904Y-107708333D01*
X128309523Y-107803571D01*
X128309523Y-107898809D01*
X127833333Y-107994047D01*
X129166666Y-108327380D02*
X129166666Y-107327380D01*
X129166666Y-108279761D02*
X129071428Y-108327380D01*
X128880952Y-108327380D01*
X128785714Y-108279761D01*
X128738095Y-108232142D01*
X128690476Y-108136904D01*
X128690476Y-107851190D01*
X128738095Y-107755952D01*
X128785714Y-107708333D01*
X128880952Y-107660714D01*
X129071428Y-107660714D01*
X129166666Y-107708333D01*
X131119047Y-107279761D02*
X130261904Y-108565476D01*
X125452380Y-109310714D02*
X125452380Y-109977380D01*
X125023809Y-109310714D02*
X125023809Y-109834523D01*
X125071428Y-109929761D01*
X125166666Y-109977380D01*
X125309523Y-109977380D01*
X125404761Y-109929761D01*
X125452380Y-109882142D01*
X125928571Y-109310714D02*
X125928571Y-109977380D01*
X125928571Y-109405952D02*
X125976190Y-109358333D01*
X126071428Y-109310714D01*
X126214285Y-109310714D01*
X126309523Y-109358333D01*
X126357142Y-109453571D01*
X126357142Y-109977380D01*
X127261904Y-109977380D02*
X127261904Y-109453571D01*
X127214285Y-109358333D01*
X127119047Y-109310714D01*
X126928571Y-109310714D01*
X126833333Y-109358333D01*
X127261904Y-109929761D02*
X127166666Y-109977380D01*
X126928571Y-109977380D01*
X126833333Y-109929761D01*
X126785714Y-109834523D01*
X126785714Y-109739285D01*
X126833333Y-109644047D01*
X126928571Y-109596428D01*
X127166666Y-109596428D01*
X127261904Y-109548809D01*
X127738095Y-109977380D02*
X127738095Y-109310714D01*
X127738095Y-109501190D02*
X127785714Y-109405952D01*
X127833333Y-109358333D01*
X127928571Y-109310714D01*
X128023809Y-109310714D01*
X128357142Y-109977380D02*
X128357142Y-109310714D01*
X128357142Y-109405952D02*
X128404761Y-109358333D01*
X128500000Y-109310714D01*
X128642857Y-109310714D01*
X128738095Y-109358333D01*
X128785714Y-109453571D01*
X128785714Y-109977380D01*
X128785714Y-109453571D02*
X128833333Y-109358333D01*
X128928571Y-109310714D01*
X129071428Y-109310714D01*
X129166666Y-109358333D01*
X129214285Y-109453571D01*
X129214285Y-109977380D01*
X130071428Y-109929761D02*
X129976190Y-109977380D01*
X129785714Y-109977380D01*
X129690476Y-109929761D01*
X129642857Y-109834523D01*
X129642857Y-109453571D01*
X129690476Y-109358333D01*
X129785714Y-109310714D01*
X129976190Y-109310714D01*
X130071428Y-109358333D01*
X130119047Y-109453571D01*
X130119047Y-109548809D01*
X129642857Y-109644047D01*
X130976190Y-109977380D02*
X130976190Y-108977380D01*
X130976190Y-109929761D02*
X130880952Y-109977380D01*
X130690476Y-109977380D01*
X130595238Y-109929761D01*
X130547619Y-109882142D01*
X130500000Y-109786904D01*
X130500000Y-109501190D01*
X130547619Y-109405952D01*
X130595238Y-109358333D01*
X130690476Y-109310714D01*
X130880952Y-109310714D01*
X130976190Y-109358333D01*
X135185714Y-108427380D02*
X135185714Y-107427380D01*
X135519047Y-108141666D01*
X135852380Y-107427380D01*
X135852380Y-108427380D01*
X136471428Y-108427380D02*
X136376190Y-108379761D01*
X136328571Y-108332142D01*
X136280952Y-108236904D01*
X136280952Y-107951190D01*
X136328571Y-107855952D01*
X136376190Y-107808333D01*
X136471428Y-107760714D01*
X136614285Y-107760714D01*
X136709523Y-107808333D01*
X136757142Y-107855952D01*
X136804761Y-107951190D01*
X136804761Y-108236904D01*
X136757142Y-108332142D01*
X136709523Y-108379761D01*
X136614285Y-108427380D01*
X136471428Y-108427380D01*
X137090476Y-107760714D02*
X137471428Y-107760714D01*
X137233333Y-107427380D02*
X137233333Y-108284523D01*
X137280952Y-108379761D01*
X137376190Y-108427380D01*
X137471428Y-108427380D01*
X137804761Y-108427380D02*
X137804761Y-107760714D01*
X137804761Y-107427380D02*
X137757142Y-107475000D01*
X137804761Y-107522619D01*
X137852380Y-107475000D01*
X137804761Y-107427380D01*
X137804761Y-107522619D01*
X138423809Y-108427380D02*
X138328571Y-108379761D01*
X138280952Y-108332142D01*
X138233333Y-108236904D01*
X138233333Y-107951190D01*
X138280952Y-107855952D01*
X138328571Y-107808333D01*
X138423809Y-107760714D01*
X138566666Y-107760714D01*
X138661904Y-107808333D01*
X138709523Y-107855952D01*
X138757142Y-107951190D01*
X138757142Y-108236904D01*
X138709523Y-108332142D01*
X138661904Y-108379761D01*
X138566666Y-108427380D01*
X138423809Y-108427380D01*
X139185714Y-107760714D02*
X139185714Y-108427380D01*
X139185714Y-107855952D02*
X139233333Y-107808333D01*
X139328571Y-107760714D01*
X139471428Y-107760714D01*
X139566666Y-107808333D01*
X139614285Y-107903571D01*
X139614285Y-108427380D01*
X134876190Y-110077380D02*
X134876190Y-109077380D01*
X134876190Y-110029761D02*
X134780952Y-110077380D01*
X134590476Y-110077380D01*
X134495238Y-110029761D01*
X134447619Y-109982142D01*
X134400000Y-109886904D01*
X134400000Y-109601190D01*
X134447619Y-109505952D01*
X134495238Y-109458333D01*
X134590476Y-109410714D01*
X134780952Y-109410714D01*
X134876190Y-109458333D01*
X135733333Y-110029761D02*
X135638095Y-110077380D01*
X135447619Y-110077380D01*
X135352380Y-110029761D01*
X135304761Y-109934523D01*
X135304761Y-109553571D01*
X135352380Y-109458333D01*
X135447619Y-109410714D01*
X135638095Y-109410714D01*
X135733333Y-109458333D01*
X135780952Y-109553571D01*
X135780952Y-109648809D01*
X135304761Y-109744047D01*
X136066666Y-109410714D02*
X136447619Y-109410714D01*
X136209523Y-109077380D02*
X136209523Y-109934523D01*
X136257142Y-110029761D01*
X136352380Y-110077380D01*
X136447619Y-110077380D01*
X137161904Y-110029761D02*
X137066666Y-110077380D01*
X136876190Y-110077380D01*
X136780952Y-110029761D01*
X136733333Y-109934523D01*
X136733333Y-109553571D01*
X136780952Y-109458333D01*
X136876190Y-109410714D01*
X137066666Y-109410714D01*
X137161904Y-109458333D01*
X137209523Y-109553571D01*
X137209523Y-109648809D01*
X136733333Y-109744047D01*
X138066666Y-110029761D02*
X137971428Y-110077380D01*
X137780952Y-110077380D01*
X137685714Y-110029761D01*
X137638095Y-109982142D01*
X137590476Y-109886904D01*
X137590476Y-109601190D01*
X137638095Y-109505952D01*
X137685714Y-109458333D01*
X137780952Y-109410714D01*
X137971428Y-109410714D01*
X138066666Y-109458333D01*
X138352380Y-109410714D02*
X138733333Y-109410714D01*
X138495238Y-109077380D02*
X138495238Y-109934523D01*
X138542857Y-110029761D01*
X138638095Y-110077380D01*
X138733333Y-110077380D01*
X139447619Y-110029761D02*
X139352380Y-110077380D01*
X139161904Y-110077380D01*
X139066666Y-110029761D01*
X139019047Y-109934523D01*
X139019047Y-109553571D01*
X139066666Y-109458333D01*
X139161904Y-109410714D01*
X139352380Y-109410714D01*
X139447619Y-109458333D01*
X139495238Y-109553571D01*
X139495238Y-109648809D01*
X139019047Y-109744047D01*
X140352380Y-110077380D02*
X140352380Y-109077380D01*
X140352380Y-110029761D02*
X140257142Y-110077380D01*
X140066666Y-110077380D01*
X139971428Y-110029761D01*
X139923809Y-109982142D01*
X139876190Y-109886904D01*
X139876190Y-109601190D01*
X139923809Y-109505952D01*
X139971428Y-109458333D01*
X140066666Y-109410714D01*
X140257142Y-109410714D01*
X140352380Y-109458333D01*
X120597619Y-145402380D02*
X120597619Y-144735714D01*
X120597619Y-144402380D02*
X120550000Y-144450000D01*
X120597619Y-144497619D01*
X120645238Y-144450000D01*
X120597619Y-144402380D01*
X120597619Y-144497619D01*
X121073809Y-144735714D02*
X121073809Y-145402380D01*
X121073809Y-144830952D02*
X121121428Y-144783333D01*
X121216666Y-144735714D01*
X121359523Y-144735714D01*
X121454761Y-144783333D01*
X121502380Y-144878571D01*
X121502380Y-145402380D01*
X112897619Y-145452380D02*
X112897619Y-144785714D01*
X112897619Y-144452380D02*
X112850000Y-144500000D01*
X112897619Y-144547619D01*
X112945238Y-144500000D01*
X112897619Y-144452380D01*
X112897619Y-144547619D01*
X113373809Y-144785714D02*
X113373809Y-145452380D01*
X113373809Y-144880952D02*
X113421428Y-144833333D01*
X113516666Y-144785714D01*
X113659523Y-144785714D01*
X113754761Y-144833333D01*
X113802380Y-144928571D01*
X113802380Y-145452380D01*
X124088095Y-144550000D02*
X123992857Y-144502380D01*
X123850000Y-144502380D01*
X123707142Y-144550000D01*
X123611904Y-144645238D01*
X123564285Y-144740476D01*
X123516666Y-144930952D01*
X123516666Y-145073809D01*
X123564285Y-145264285D01*
X123611904Y-145359523D01*
X123707142Y-145454761D01*
X123850000Y-145502380D01*
X123945238Y-145502380D01*
X124088095Y-145454761D01*
X124135714Y-145407142D01*
X124135714Y-145073809D01*
X123945238Y-145073809D01*
X124564285Y-145502380D02*
X124564285Y-144502380D01*
X125135714Y-145502380D01*
X125135714Y-144502380D01*
X125611904Y-145502380D02*
X125611904Y-144502380D01*
X125850000Y-144502380D01*
X125992857Y-144550000D01*
X126088095Y-144645238D01*
X126135714Y-144740476D01*
X126183333Y-144930952D01*
X126183333Y-145073809D01*
X126135714Y-145264285D01*
X126088095Y-145359523D01*
X125992857Y-145454761D01*
X125850000Y-145502380D01*
X125611904Y-145502380D01*
X116138095Y-144650000D02*
X116042857Y-144602380D01*
X115900000Y-144602380D01*
X115757142Y-144650000D01*
X115661904Y-144745238D01*
X115614285Y-144840476D01*
X115566666Y-145030952D01*
X115566666Y-145173809D01*
X115614285Y-145364285D01*
X115661904Y-145459523D01*
X115757142Y-145554761D01*
X115900000Y-145602380D01*
X115995238Y-145602380D01*
X116138095Y-145554761D01*
X116185714Y-145507142D01*
X116185714Y-145173809D01*
X115995238Y-145173809D01*
X116614285Y-145602380D02*
X116614285Y-144602380D01*
X117185714Y-145602380D01*
X117185714Y-144602380D01*
X117661904Y-145602380D02*
X117661904Y-144602380D01*
X117900000Y-144602380D01*
X118042857Y-144650000D01*
X118138095Y-144745238D01*
X118185714Y-144840476D01*
X118233333Y-145030952D01*
X118233333Y-145173809D01*
X118185714Y-145364285D01*
X118138095Y-145459523D01*
X118042857Y-145554761D01*
X117900000Y-145602380D01*
X117661904Y-145602380D01*
X143188095Y-144500000D02*
X143092857Y-144452380D01*
X142950000Y-144452380D01*
X142807142Y-144500000D01*
X142711904Y-144595238D01*
X142664285Y-144690476D01*
X142616666Y-144880952D01*
X142616666Y-145023809D01*
X142664285Y-145214285D01*
X142711904Y-145309523D01*
X142807142Y-145404761D01*
X142950000Y-145452380D01*
X143045238Y-145452380D01*
X143188095Y-145404761D01*
X143235714Y-145357142D01*
X143235714Y-145023809D01*
X143045238Y-145023809D01*
X143664285Y-145452380D02*
X143664285Y-144452380D01*
X144235714Y-145452380D01*
X144235714Y-144452380D01*
X144711904Y-145452380D02*
X144711904Y-144452380D01*
X144950000Y-144452380D01*
X145092857Y-144500000D01*
X145188095Y-144595238D01*
X145235714Y-144690476D01*
X145283333Y-144880952D01*
X145283333Y-145023809D01*
X145235714Y-145214285D01*
X145188095Y-145309523D01*
X145092857Y-145404761D01*
X144950000Y-145452380D01*
X144711904Y-145452380D01*
X138435714Y-145254761D02*
X138578571Y-145302380D01*
X138816666Y-145302380D01*
X138911904Y-145254761D01*
X138959523Y-145207142D01*
X139007142Y-145111904D01*
X139007142Y-145016666D01*
X138959523Y-144921428D01*
X138911904Y-144873809D01*
X138816666Y-144826190D01*
X138626190Y-144778571D01*
X138530952Y-144730952D01*
X138483333Y-144683333D01*
X138435714Y-144588095D01*
X138435714Y-144492857D01*
X138483333Y-144397619D01*
X138530952Y-144350000D01*
X138626190Y-144302380D01*
X138864285Y-144302380D01*
X139007142Y-144350000D01*
X139435714Y-145302380D02*
X139435714Y-144635714D01*
X139435714Y-144302380D02*
X139388095Y-144350000D01*
X139435714Y-144397619D01*
X139483333Y-144350000D01*
X139435714Y-144302380D01*
X139435714Y-144397619D01*
X140340476Y-144635714D02*
X140340476Y-145445238D01*
X140292857Y-145540476D01*
X140245238Y-145588095D01*
X140150000Y-145635714D01*
X140007142Y-145635714D01*
X139911904Y-145588095D01*
X140340476Y-145254761D02*
X140245238Y-145302380D01*
X140054761Y-145302380D01*
X139959523Y-145254761D01*
X139911904Y-145207142D01*
X139864285Y-145111904D01*
X139864285Y-144826190D01*
X139911904Y-144730952D01*
X139959523Y-144683333D01*
X140054761Y-144635714D01*
X140245238Y-144635714D01*
X140340476Y-144683333D01*
X140816666Y-145207142D02*
X140864285Y-145254761D01*
X140816666Y-145302380D01*
X140769047Y-145254761D01*
X140816666Y-145207142D01*
X140816666Y-145302380D01*
X134064285Y-145121428D02*
X134826190Y-145121428D01*
X134445238Y-145502380D02*
X134445238Y-144740476D01*
X135778571Y-144502380D02*
X135302380Y-144502380D01*
X135254761Y-144978571D01*
X135302380Y-144930952D01*
X135397619Y-144883333D01*
X135635714Y-144883333D01*
X135730952Y-144930952D01*
X135778571Y-144978571D01*
X135826190Y-145073809D01*
X135826190Y-145311904D01*
X135778571Y-145407142D01*
X135730952Y-145454761D01*
X135635714Y-145502380D01*
X135397619Y-145502380D01*
X135302380Y-145454761D01*
X135254761Y-145407142D01*
X136111904Y-144502380D02*
X136445238Y-145502380D01*
X136778571Y-144502380D01*
X167123809Y-145452380D02*
X167123809Y-144928571D01*
X167076190Y-144833333D01*
X166980952Y-144785714D01*
X166790476Y-144785714D01*
X166695238Y-144833333D01*
X167123809Y-145404761D02*
X167028571Y-145452380D01*
X166790476Y-145452380D01*
X166695238Y-145404761D01*
X166647619Y-145309523D01*
X166647619Y-145214285D01*
X166695238Y-145119047D01*
X166790476Y-145071428D01*
X167028571Y-145071428D01*
X167123809Y-145023809D01*
X167600000Y-145452380D02*
X167600000Y-144785714D01*
X167600000Y-144976190D02*
X167647619Y-144880952D01*
X167695238Y-144833333D01*
X167790476Y-144785714D01*
X167885714Y-144785714D01*
X168219047Y-145452380D02*
X168219047Y-144785714D01*
X168219047Y-144880952D02*
X168266666Y-144833333D01*
X168361904Y-144785714D01*
X168504761Y-144785714D01*
X168600000Y-144833333D01*
X168647619Y-144928571D01*
X168647619Y-145452380D01*
X168647619Y-144928571D02*
X168695238Y-144833333D01*
X168790476Y-144785714D01*
X168933333Y-144785714D01*
X169028571Y-144833333D01*
X169076190Y-144928571D01*
X169076190Y-145452380D01*
X170266666Y-145404761D02*
X170361904Y-145452380D01*
X170552380Y-145452380D01*
X170647619Y-145404761D01*
X170695238Y-145309523D01*
X170695238Y-145261904D01*
X170647619Y-145166666D01*
X170552380Y-145119047D01*
X170409523Y-145119047D01*
X170314285Y-145071428D01*
X170266666Y-144976190D01*
X170266666Y-144928571D01*
X170314285Y-144833333D01*
X170409523Y-144785714D01*
X170552380Y-144785714D01*
X170647619Y-144833333D01*
X171028571Y-144785714D02*
X171219047Y-145452380D01*
X171409523Y-144976190D01*
X171600000Y-145452380D01*
X171790476Y-144785714D01*
X172171428Y-145452380D02*
X172171428Y-144785714D01*
X172171428Y-144452380D02*
X172123809Y-144500000D01*
X172171428Y-144547619D01*
X172219047Y-144500000D01*
X172171428Y-144452380D01*
X172171428Y-144547619D01*
X172504761Y-144785714D02*
X172885714Y-144785714D01*
X172647619Y-144452380D02*
X172647619Y-145309523D01*
X172695238Y-145404761D01*
X172790476Y-145452380D01*
X172885714Y-145452380D01*
X173647619Y-145404761D02*
X173552380Y-145452380D01*
X173361904Y-145452380D01*
X173266666Y-145404761D01*
X173219047Y-145357142D01*
X173171428Y-145261904D01*
X173171428Y-144976190D01*
X173219047Y-144880952D01*
X173266666Y-144833333D01*
X173361904Y-144785714D01*
X173552380Y-144785714D01*
X173647619Y-144833333D01*
X174076190Y-145452380D02*
X174076190Y-144452380D01*
X174504761Y-145452380D02*
X174504761Y-144928571D01*
X174457142Y-144833333D01*
X174361904Y-144785714D01*
X174219047Y-144785714D01*
X174123809Y-144833333D01*
X174076190Y-144880952D01*
X154257142Y-145321428D02*
X155019047Y-145321428D01*
X156780952Y-145702380D02*
X156209523Y-145702380D01*
X156495238Y-145702380D02*
X156495238Y-144702380D01*
X156400000Y-144845238D01*
X156304761Y-144940476D01*
X156209523Y-144988095D01*
X157161904Y-144797619D02*
X157209523Y-144750000D01*
X157304761Y-144702380D01*
X157542857Y-144702380D01*
X157638095Y-144750000D01*
X157685714Y-144797619D01*
X157733333Y-144892857D01*
X157733333Y-144988095D01*
X157685714Y-145130952D01*
X157114285Y-145702380D01*
X157733333Y-145702380D01*
X158019047Y-144702380D02*
X158352380Y-145702380D01*
X158685714Y-144702380D01*
X159780952Y-145321428D02*
X160542857Y-145321428D01*
X160161904Y-145702380D02*
X160161904Y-144940476D01*
D11*
X100000000Y-149300000D02*
X100000000Y-70000000D01*
X187500000Y-149300000D02*
X100000000Y-149300000D01*
X187500000Y-70000000D02*
X187500000Y-149300000D01*
X100000000Y-70000000D02*
X187500000Y-70000000D01*
X138270000Y-114820000D02*
X138270000Y-111380000D01*
X138270000Y-111380000D02*
X129030000Y-111380000D01*
X129030000Y-111380000D02*
X129030000Y-114820000D01*
X129030000Y-114820000D02*
X138270000Y-114820000D01*
X138960000Y-113100000D02*
X138270000Y-113100000D01*
X128340000Y-113100000D02*
X129030000Y-113100000D01*
D10*
X119505000Y-84484000D02*
G75*
G03X119505000Y-84484000I-885000J0D01*
G01*
X104269000Y-84484000D02*
G75*
G03X104269000Y-84484000I-885000J0D01*
G01*
X104265000Y-124620000D02*
G75*
G03X104265000Y-124620000I-885000J0D01*
G01*
X107190000Y-81055000D02*
X114810000Y-81055000D01*
X119505000Y-124620000D02*
G75*
G03X119505000Y-124620000I-885000J0D01*
G01*
X119890000Y-126140000D02*
X120525000Y-126140000D01*
X120525000Y-126140000D02*
X120525000Y-82960000D01*
X120525000Y-82960000D02*
X101475000Y-82960000D01*
X101475000Y-82960000D02*
X101475000Y-126140000D01*
X101475000Y-126140000D02*
X119890000Y-126140000D01*
X114810000Y-85500000D02*
X114810000Y-81055000D01*
X107190000Y-85500000D02*
X107190000Y-81055000D01*
X114810000Y-85500000D02*
X114810000Y-91850000D01*
X114810000Y-91850000D02*
X107190000Y-91850000D01*
X107190000Y-91850000D02*
X107190000Y-85500000D01*
D12*
X110523067Y-143126999D02*
X126277067Y-143126999D01*
X126277067Y-143126999D02*
X126277067Y-130872999D01*
X126277067Y-130872999D02*
X110523067Y-130872999D01*
X110523067Y-130872999D02*
X110523067Y-143126999D01*
X109126067Y-133300000D02*
G75*
G03X109126067Y-133300000I-381000J0D01*
G01*
D11*
X134710000Y-102355000D02*
X134710000Y-105445000D01*
X139770000Y-103900000D02*
G75*
G03X139770000Y-103900000I-2500000J0D01*
G01*
X140260000Y-103899538D02*
G75*
G02X134710000Y-105444830I-2990000J-462D01*
G01*
X140260000Y-103900462D02*
G75*
G03X134710000Y-102355170I-2990000J462D01*
G01*
X130110000Y-103850462D02*
G75*
G03X124560000Y-102305170I-2990000J462D01*
G01*
X130110000Y-103849538D02*
G75*
G02X124560000Y-105394830I-2990000J-462D01*
G01*
X129620000Y-103850000D02*
G75*
G03X129620000Y-103850000I-2500000J0D01*
G01*
X124560000Y-102305000D02*
X124560000Y-105395000D01*
D10*
X164650000Y-124300000D02*
X185986000Y-124300000D01*
X185986000Y-124300000D02*
X185950000Y-81000000D01*
X185986000Y-80866000D02*
X164650000Y-80866000D01*
X164650000Y-80866000D02*
X164650000Y-124300000D01*
X168750000Y-118000000D02*
G75*
G03X168750000Y-118000000I-1500000J0D01*
G01*
X184950000Y-87200000D02*
G75*
G03X184950000Y-87200000I-1500000J0D01*
G01*
X177751785Y-85600000D02*
G75*
G03X177751785Y-85600000I-2801785J0D01*
G01*
X177553570Y-120100000D02*
G75*
G03X177553570Y-120100000I-2801785J0D01*
G01*
X165950000Y-114300000D02*
X165950000Y-106900000D01*
X165950000Y-106900000D02*
X172950000Y-106900000D01*
X172950000Y-106900000D02*
X172950000Y-114300000D01*
X172950000Y-114300000D02*
X165950000Y-114300000D01*
X165950000Y-114300000D02*
X166050000Y-114200000D01*
X165950000Y-101200000D02*
X165950000Y-94400000D01*
X165950000Y-94400000D02*
X170250000Y-94400000D01*
X170250000Y-94400000D02*
X170250000Y-101200000D01*
X170250000Y-101200000D02*
X165950000Y-101200000D01*
X172750000Y-101100000D02*
X181850000Y-101100000D01*
X181850000Y-101100000D02*
X181850000Y-94300000D01*
X181850000Y-94300000D02*
X172750000Y-94300000D01*
X172750000Y-94300000D02*
X172750000Y-101000000D01*
X179550000Y-114300000D02*
X179550000Y-107300000D01*
X179550000Y-107300000D02*
X183750000Y-107300000D01*
X183750000Y-107300000D02*
X183750000Y-114300000D01*
X183750000Y-114300000D02*
X179650000Y-114300000D01*
X179850000Y-97600000D02*
G75*
G03X179850000Y-97600000I-2801785J0D01*
G01*
D11*
X163670000Y-103900000D02*
G75*
G03X163670000Y-103900000I-4120000J0D01*
G01*
X159550000Y-99820000D02*
X159550000Y-107980000D01*
X159590000Y-99820000D02*
X159590000Y-107980000D01*
X159630000Y-99820000D02*
X159630000Y-107980000D01*
X159670000Y-99821000D02*
X159670000Y-107979000D01*
X159710000Y-99823000D02*
X159710000Y-107977000D01*
X159750000Y-99824000D02*
X159750000Y-107976000D01*
X159790000Y-99826000D02*
X159790000Y-107974000D01*
X159830000Y-99829000D02*
X159830000Y-107971000D01*
X159870000Y-99832000D02*
X159870000Y-107968000D01*
X159910000Y-99835000D02*
X159910000Y-107965000D01*
X159950000Y-99839000D02*
X159950000Y-107961000D01*
X159990000Y-99843000D02*
X159990000Y-107957000D01*
X160030000Y-99848000D02*
X160030000Y-107952000D01*
X160070000Y-99852000D02*
X160070000Y-107948000D01*
X160110000Y-99858000D02*
X160110000Y-107942000D01*
X160150000Y-99863000D02*
X160150000Y-107937000D01*
X160190000Y-99870000D02*
X160190000Y-107930000D01*
X160230000Y-99876000D02*
X160230000Y-107924000D01*
X160271000Y-99883000D02*
X160271000Y-102860000D01*
X160271000Y-104940000D02*
X160271000Y-107917000D01*
X160311000Y-99890000D02*
X160311000Y-102860000D01*
X160311000Y-104940000D02*
X160311000Y-107910000D01*
X160351000Y-99898000D02*
X160351000Y-102860000D01*
X160351000Y-104940000D02*
X160351000Y-107902000D01*
X160391000Y-99906000D02*
X160391000Y-102860000D01*
X160391000Y-104940000D02*
X160391000Y-107894000D01*
X160431000Y-99915000D02*
X160431000Y-102860000D01*
X160431000Y-104940000D02*
X160431000Y-107885000D01*
X160471000Y-99924000D02*
X160471000Y-102860000D01*
X160471000Y-104940000D02*
X160471000Y-107876000D01*
X160511000Y-99933000D02*
X160511000Y-102860000D01*
X160511000Y-104940000D02*
X160511000Y-107867000D01*
X160551000Y-99943000D02*
X160551000Y-102860000D01*
X160551000Y-104940000D02*
X160551000Y-107857000D01*
X160591000Y-99953000D02*
X160591000Y-102860000D01*
X160591000Y-104940000D02*
X160591000Y-107847000D01*
X160631000Y-99964000D02*
X160631000Y-102860000D01*
X160631000Y-104940000D02*
X160631000Y-107836000D01*
X160671000Y-99975000D02*
X160671000Y-102860000D01*
X160671000Y-104940000D02*
X160671000Y-107825000D01*
X160711000Y-99986000D02*
X160711000Y-102860000D01*
X160711000Y-104940000D02*
X160711000Y-107814000D01*
X160751000Y-99998000D02*
X160751000Y-102860000D01*
X160751000Y-104940000D02*
X160751000Y-107802000D01*
X160791000Y-100011000D02*
X160791000Y-102860000D01*
X160791000Y-104940000D02*
X160791000Y-107789000D01*
X160831000Y-100023000D02*
X160831000Y-102860000D01*
X160831000Y-104940000D02*
X160831000Y-107777000D01*
X160871000Y-100037000D02*
X160871000Y-102860000D01*
X160871000Y-104940000D02*
X160871000Y-107763000D01*
X160911000Y-100050000D02*
X160911000Y-102860000D01*
X160911000Y-104940000D02*
X160911000Y-107750000D01*
X160951000Y-100065000D02*
X160951000Y-102860000D01*
X160951000Y-104940000D02*
X160951000Y-107735000D01*
X160991000Y-100079000D02*
X160991000Y-102860000D01*
X160991000Y-104940000D02*
X160991000Y-107721000D01*
X161031000Y-100095000D02*
X161031000Y-102860000D01*
X161031000Y-104940000D02*
X161031000Y-107705000D01*
X161071000Y-100110000D02*
X161071000Y-102860000D01*
X161071000Y-104940000D02*
X161071000Y-107690000D01*
X161111000Y-100126000D02*
X161111000Y-102860000D01*
X161111000Y-104940000D02*
X161111000Y-107674000D01*
X161151000Y-100143000D02*
X161151000Y-102860000D01*
X161151000Y-104940000D02*
X161151000Y-107657000D01*
X161191000Y-100160000D02*
X161191000Y-102860000D01*
X161191000Y-104940000D02*
X161191000Y-107640000D01*
X161231000Y-100178000D02*
X161231000Y-102860000D01*
X161231000Y-104940000D02*
X161231000Y-107622000D01*
X161271000Y-100196000D02*
X161271000Y-102860000D01*
X161271000Y-104940000D02*
X161271000Y-107604000D01*
X161311000Y-100214000D02*
X161311000Y-102860000D01*
X161311000Y-104940000D02*
X161311000Y-107586000D01*
X161351000Y-100234000D02*
X161351000Y-102860000D01*
X161351000Y-104940000D02*
X161351000Y-107566000D01*
X161391000Y-100253000D02*
X161391000Y-102860000D01*
X161391000Y-104940000D02*
X161391000Y-107547000D01*
X161431000Y-100273000D02*
X161431000Y-102860000D01*
X161431000Y-104940000D02*
X161431000Y-107527000D01*
X161471000Y-100294000D02*
X161471000Y-102860000D01*
X161471000Y-104940000D02*
X161471000Y-107506000D01*
X161511000Y-100316000D02*
X161511000Y-102860000D01*
X161511000Y-104940000D02*
X161511000Y-107484000D01*
X161551000Y-100338000D02*
X161551000Y-102860000D01*
X161551000Y-104940000D02*
X161551000Y-107462000D01*
X161591000Y-100360000D02*
X161591000Y-102860000D01*
X161591000Y-104940000D02*
X161591000Y-107440000D01*
X161631000Y-100383000D02*
X161631000Y-102860000D01*
X161631000Y-104940000D02*
X161631000Y-107417000D01*
X161671000Y-100407000D02*
X161671000Y-102860000D01*
X161671000Y-104940000D02*
X161671000Y-107393000D01*
X161711000Y-100431000D02*
X161711000Y-102860000D01*
X161711000Y-104940000D02*
X161711000Y-107369000D01*
X161751000Y-100456000D02*
X161751000Y-102860000D01*
X161751000Y-104940000D02*
X161751000Y-107344000D01*
X161791000Y-100482000D02*
X161791000Y-102860000D01*
X161791000Y-104940000D02*
X161791000Y-107318000D01*
X161831000Y-100508000D02*
X161831000Y-102860000D01*
X161831000Y-104940000D02*
X161831000Y-107292000D01*
X161871000Y-100535000D02*
X161871000Y-102860000D01*
X161871000Y-104940000D02*
X161871000Y-107265000D01*
X161911000Y-100562000D02*
X161911000Y-102860000D01*
X161911000Y-104940000D02*
X161911000Y-107238000D01*
X161951000Y-100591000D02*
X161951000Y-102860000D01*
X161951000Y-104940000D02*
X161951000Y-107209000D01*
X161991000Y-100620000D02*
X161991000Y-102860000D01*
X161991000Y-104940000D02*
X161991000Y-107180000D01*
X162031000Y-100650000D02*
X162031000Y-102860000D01*
X162031000Y-104940000D02*
X162031000Y-107150000D01*
X162071000Y-100680000D02*
X162071000Y-102860000D01*
X162071000Y-104940000D02*
X162071000Y-107120000D01*
X162111000Y-100711000D02*
X162111000Y-102860000D01*
X162111000Y-104940000D02*
X162111000Y-107089000D01*
X162151000Y-100744000D02*
X162151000Y-102860000D01*
X162151000Y-104940000D02*
X162151000Y-107056000D01*
X162191000Y-100776000D02*
X162191000Y-102860000D01*
X162191000Y-104940000D02*
X162191000Y-107024000D01*
X162231000Y-100810000D02*
X162231000Y-102860000D01*
X162231000Y-104940000D02*
X162231000Y-106990000D01*
X162271000Y-100845000D02*
X162271000Y-102860000D01*
X162271000Y-104940000D02*
X162271000Y-106955000D01*
X162311000Y-100881000D02*
X162311000Y-102860000D01*
X162311000Y-104940000D02*
X162311000Y-106919000D01*
X162351000Y-100917000D02*
X162351000Y-106883000D01*
X162391000Y-100955000D02*
X162391000Y-106845000D01*
X162431000Y-100993000D02*
X162431000Y-106807000D01*
X162471000Y-101033000D02*
X162471000Y-106767000D01*
X162511000Y-101074000D02*
X162511000Y-106726000D01*
X162551000Y-101116000D02*
X162551000Y-106684000D01*
X162591000Y-101159000D02*
X162591000Y-106641000D01*
X162631000Y-101203000D02*
X162631000Y-106597000D01*
X162671000Y-101249000D02*
X162671000Y-106551000D01*
X162711000Y-101296000D02*
X162711000Y-106504000D01*
X162751000Y-101344000D02*
X162751000Y-106456000D01*
X162791000Y-101395000D02*
X162791000Y-106405000D01*
X162831000Y-101446000D02*
X162831000Y-106354000D01*
X162871000Y-101500000D02*
X162871000Y-106300000D01*
X162911000Y-101555000D02*
X162911000Y-106245000D01*
X162951000Y-101613000D02*
X162951000Y-106187000D01*
X162991000Y-101672000D02*
X162991000Y-106128000D01*
X163031000Y-101734000D02*
X163031000Y-106066000D01*
X163071000Y-101798000D02*
X163071000Y-106002000D01*
X163111000Y-101866000D02*
X163111000Y-105934000D01*
X163151000Y-101936000D02*
X163151000Y-105864000D01*
X163191000Y-102010000D02*
X163191000Y-105790000D01*
X163231000Y-102087000D02*
X163231000Y-105713000D01*
X163271000Y-102169000D02*
X163271000Y-105631000D01*
X163311000Y-102255000D02*
X163311000Y-105545000D01*
X163351000Y-102348000D02*
X163351000Y-105452000D01*
X163391000Y-102447000D02*
X163391000Y-105353000D01*
X163431000Y-102554000D02*
X163431000Y-105246000D01*
X163471000Y-102671000D02*
X163471000Y-105129000D01*
X163511000Y-102802000D02*
X163511000Y-104998000D01*
X163551000Y-102952000D02*
X163551000Y-104848000D01*
X163591000Y-103132000D02*
X163591000Y-104668000D01*
X163631000Y-103367000D02*
X163631000Y-104433000D01*
X155140302Y-101585000D02*
X155940302Y-101585000D01*
X155540302Y-101185000D02*
X155540302Y-101985000D01*
X136250000Y-117400000D02*
X136250000Y-120200000D01*
X136250000Y-124200000D02*
X136250000Y-127000000D01*
X158850000Y-124200000D02*
X158850000Y-127000000D01*
X158850000Y-127000000D02*
X136250000Y-127000000D01*
X158850000Y-117400000D02*
X136250000Y-117400000D01*
X158850000Y-117400000D02*
X158850000Y-120200000D01*
X104530000Y-127380000D02*
X109770000Y-127380000D01*
X104530000Y-130120000D02*
X109770000Y-130120000D01*
X104530000Y-127380000D02*
X104530000Y-130120000D01*
X109770000Y-127380000D02*
X109770000Y-130120000D01*
D12*
X152226065Y-133500000D02*
G75*
G03X152226065Y-133500000I-381000J0D01*
G01*
X153623066Y-131072999D02*
X153623066Y-143326999D01*
X162377064Y-131072999D02*
X153623066Y-131072999D01*
X162377064Y-143326999D02*
X162377064Y-131072999D01*
X153623066Y-143326999D02*
X162377064Y-143326999D01*
X166873066Y-143376999D02*
X175627064Y-143376999D01*
X175627064Y-143376999D02*
X175627064Y-131122999D01*
X175627064Y-131122999D02*
X166873066Y-131122999D01*
X166873066Y-131122999D02*
X166873066Y-143376999D01*
X165476065Y-133550000D02*
G75*
G03X165476065Y-133550000I-381000J0D01*
G01*
X132973068Y-143276998D02*
X145227064Y-143276998D01*
X145227064Y-143276998D02*
X145227064Y-131022999D01*
X145227064Y-131022999D02*
X132973068Y-131022999D01*
X132973068Y-131022999D02*
X132973068Y-143276998D01*
X131576066Y-138450000D02*
G75*
G03X131576066Y-138450000I-381000J0D01*
G01*
D10*
X162300000Y-70900000D02*
X162300000Y-98300000D01*
X162300000Y-98300000D02*
X122300000Y-98300000D01*
X122300000Y-98300000D02*
X122300000Y-70800000D01*
X122300000Y-70800000D02*
X162300000Y-70800000D01*
X161150000Y-73700000D02*
G75*
G03X161150000Y-73700000I-1850000J0D01*
G01*
X127150000Y-73800000D02*
G75*
G03X127150000Y-73800000I-1850000J0D01*
G01*
X127050000Y-95300000D02*
G75*
G03X127050000Y-95300000I-1850000J0D01*
G01*
X152300000Y-95800000D02*
X132300000Y-95800000D01*
X132300000Y-95800000D02*
X132300000Y-80800000D01*
X132300000Y-80800000D02*
X152300000Y-80800000D01*
X152300000Y-80800000D02*
X152300000Y-95800000D01*
X129900000Y-80700000D02*
X129900000Y-87600000D01*
X129900000Y-87600000D02*
X127100000Y-87600000D01*
X127100000Y-87600000D02*
X127100000Y-80700000D01*
X127100000Y-80700000D02*
X129900000Y-80700000D01*
X156200000Y-71800000D02*
X156200000Y-74300000D01*
X156200000Y-74300000D02*
X152300000Y-74300000D01*
X152300000Y-74300000D02*
X152300000Y-71700000D01*
X152300000Y-71700000D02*
X156200000Y-71700000D01*
X157200000Y-90800000D02*
X154300000Y-90800000D01*
X154300000Y-90800000D02*
X154300000Y-92500000D01*
X154300000Y-92500000D02*
X157200000Y-92500000D01*
X157200000Y-92500000D02*
X157200000Y-90800000D01*
X158300000Y-83000000D02*
X156300000Y-83000000D01*
X156300000Y-83000000D02*
X156300000Y-84100000D01*
X156300000Y-84100000D02*
X158300000Y-84100000D01*
X158300000Y-84100000D02*
X158300000Y-83000000D01*
X155900000Y-83000000D02*
X153900000Y-83000000D01*
X153900000Y-83000000D02*
X153900000Y-84100000D01*
X153900000Y-84100000D02*
X155900000Y-84100000D01*
X155900000Y-84100000D02*
X155900000Y-83000000D01*
X150300000Y-71800000D02*
X150300000Y-73600000D01*
X150300000Y-73600000D02*
X149200000Y-73600000D01*
X149200000Y-73600000D02*
X149200000Y-71800000D01*
X149200000Y-71800000D02*
X150300000Y-71800000D01*
X148300000Y-71800000D02*
X148300000Y-73600000D01*
X148300000Y-73600000D02*
X147200000Y-73600000D01*
X147200000Y-73600000D02*
X147200000Y-71800000D01*
X147200000Y-71800000D02*
X148300000Y-71800000D01*
D11*
X149300000Y-112260000D02*
X149300000Y-111570000D01*
X149300000Y-101640000D02*
X149300000Y-102330000D01*
X151020000Y-111570000D02*
X151020000Y-102330000D01*
X147580000Y-111570000D02*
X151020000Y-111570000D01*
X147580000Y-102330000D02*
X147580000Y-111570000D01*
X151020000Y-102330000D02*
X147580000Y-102330000D01*
X147020000Y-102330000D02*
X143580000Y-102330000D01*
X143580000Y-102330000D02*
X143580000Y-111570000D01*
X143580000Y-111570000D02*
X147020000Y-111570000D01*
X147020000Y-111570000D02*
X147020000Y-102330000D01*
X145300000Y-101640000D02*
X145300000Y-102330000D01*
X145300000Y-112260000D02*
X145300000Y-111570000D01*
D10*
X133483333Y-116272380D02*
X133150000Y-115796190D01*
X132911904Y-116272380D02*
X132911904Y-115272380D01*
X133292857Y-115272380D01*
X133388095Y-115320000D01*
X133435714Y-115367619D01*
X133483333Y-115462857D01*
X133483333Y-115605714D01*
X133435714Y-115700952D01*
X133388095Y-115748571D01*
X133292857Y-115796190D01*
X132911904Y-115796190D01*
X134435714Y-116272380D02*
X133864285Y-116272380D01*
X134150000Y-116272380D02*
X134150000Y-115272380D01*
X134054761Y-115415238D01*
X133959523Y-115510476D01*
X133864285Y-115558095D01*
X116676190Y-81416666D02*
X117152380Y-81416666D01*
X116580952Y-81702380D02*
X116914285Y-80702380D01*
X117247619Y-81702380D01*
X117580952Y-81702380D02*
X117580952Y-81035714D01*
X117580952Y-81226190D02*
X117628571Y-81130952D01*
X117676190Y-81083333D01*
X117771428Y-81035714D01*
X117866666Y-81035714D01*
X118723809Y-81702380D02*
X118152380Y-81702380D01*
X118438095Y-81702380D02*
X118438095Y-80702380D01*
X118342857Y-80845238D01*
X118247619Y-80940476D01*
X118152380Y-80988095D01*
X106214285Y-105216666D02*
X106690476Y-105216666D01*
X106119047Y-105502380D02*
X106452380Y-104502380D01*
X106785714Y-105502380D01*
X107119047Y-105502380D02*
X107119047Y-104835714D01*
X107119047Y-105026190D02*
X107166666Y-104930952D01*
X107214285Y-104883333D01*
X107309523Y-104835714D01*
X107404761Y-104835714D01*
X108166666Y-105502380D02*
X108166666Y-104502380D01*
X108166666Y-105454761D02*
X108071428Y-105502380D01*
X107880952Y-105502380D01*
X107785714Y-105454761D01*
X107738095Y-105407142D01*
X107690476Y-105311904D01*
X107690476Y-105026190D01*
X107738095Y-104930952D01*
X107785714Y-104883333D01*
X107880952Y-104835714D01*
X108071428Y-104835714D01*
X108166666Y-104883333D01*
X109071428Y-104835714D02*
X109071428Y-105502380D01*
X108642857Y-104835714D02*
X108642857Y-105359523D01*
X108690476Y-105454761D01*
X108785714Y-105502380D01*
X108928571Y-105502380D01*
X109023809Y-105454761D01*
X109071428Y-105407142D01*
X109547619Y-105502380D02*
X109547619Y-104835714D01*
X109547619Y-104502380D02*
X109500000Y-104550000D01*
X109547619Y-104597619D01*
X109595238Y-104550000D01*
X109547619Y-104502380D01*
X109547619Y-104597619D01*
X110023809Y-104835714D02*
X110023809Y-105502380D01*
X110023809Y-104930952D02*
X110071428Y-104883333D01*
X110166666Y-104835714D01*
X110309523Y-104835714D01*
X110404761Y-104883333D01*
X110452380Y-104978571D01*
X110452380Y-105502380D01*
X111071428Y-105502380D02*
X110976190Y-105454761D01*
X110928571Y-105407142D01*
X110880952Y-105311904D01*
X110880952Y-105026190D01*
X110928571Y-104930952D01*
X110976190Y-104883333D01*
X111071428Y-104835714D01*
X111214285Y-104835714D01*
X111309523Y-104883333D01*
X111357142Y-104930952D01*
X111404761Y-105026190D01*
X111404761Y-105311904D01*
X111357142Y-105407142D01*
X111309523Y-105454761D01*
X111214285Y-105502380D01*
X111071428Y-105502380D01*
X111595238Y-105597619D02*
X112357142Y-105597619D01*
X112595238Y-104835714D02*
X112595238Y-105502380D01*
X112595238Y-104930952D02*
X112642857Y-104883333D01*
X112738095Y-104835714D01*
X112880952Y-104835714D01*
X112976190Y-104883333D01*
X113023809Y-104978571D01*
X113023809Y-105502380D01*
X113928571Y-105502380D02*
X113928571Y-104978571D01*
X113880952Y-104883333D01*
X113785714Y-104835714D01*
X113595238Y-104835714D01*
X113500000Y-104883333D01*
X113928571Y-105454761D02*
X113833333Y-105502380D01*
X113595238Y-105502380D01*
X113500000Y-105454761D01*
X113452380Y-105359523D01*
X113452380Y-105264285D01*
X113500000Y-105169047D01*
X113595238Y-105121428D01*
X113833333Y-105121428D01*
X113928571Y-105073809D01*
X114404761Y-104835714D02*
X114404761Y-105502380D01*
X114404761Y-104930952D02*
X114452380Y-104883333D01*
X114547619Y-104835714D01*
X114690476Y-104835714D01*
X114785714Y-104883333D01*
X114833333Y-104978571D01*
X114833333Y-105502380D01*
X115452380Y-105502380D02*
X115357142Y-105454761D01*
X115309523Y-105407142D01*
X115261904Y-105311904D01*
X115261904Y-105026190D01*
X115309523Y-104930952D01*
X115357142Y-104883333D01*
X115452380Y-104835714D01*
X115595238Y-104835714D01*
X115690476Y-104883333D01*
X115738095Y-104930952D01*
X115785714Y-105026190D01*
X115785714Y-105311904D01*
X115738095Y-105407142D01*
X115690476Y-105454761D01*
X115595238Y-105502380D01*
X115452380Y-105502380D01*
X109738095Y-89397380D02*
X109738095Y-90206904D01*
X109785714Y-90302142D01*
X109833333Y-90349761D01*
X109928571Y-90397380D01*
X110119047Y-90397380D01*
X110214285Y-90349761D01*
X110261904Y-90302142D01*
X110309523Y-90206904D01*
X110309523Y-89397380D01*
X110738095Y-90349761D02*
X110880952Y-90397380D01*
X111119047Y-90397380D01*
X111214285Y-90349761D01*
X111261904Y-90302142D01*
X111309523Y-90206904D01*
X111309523Y-90111666D01*
X111261904Y-90016428D01*
X111214285Y-89968809D01*
X111119047Y-89921190D01*
X110928571Y-89873571D01*
X110833333Y-89825952D01*
X110785714Y-89778333D01*
X110738095Y-89683095D01*
X110738095Y-89587857D01*
X110785714Y-89492619D01*
X110833333Y-89445000D01*
X110928571Y-89397380D01*
X111166666Y-89397380D01*
X111309523Y-89445000D01*
X112071428Y-89873571D02*
X112214285Y-89921190D01*
X112261904Y-89968809D01*
X112309523Y-90064047D01*
X112309523Y-90206904D01*
X112261904Y-90302142D01*
X112214285Y-90349761D01*
X112119047Y-90397380D01*
X111738095Y-90397380D01*
X111738095Y-89397380D01*
X112071428Y-89397380D01*
X112166666Y-89445000D01*
X112214285Y-89492619D01*
X112261904Y-89587857D01*
X112261904Y-89683095D01*
X112214285Y-89778333D01*
X112166666Y-89825952D01*
X112071428Y-89873571D01*
X111738095Y-89873571D01*
X118066733Y-137752380D02*
X118066733Y-138466666D01*
X118019114Y-138609523D01*
X117923876Y-138704761D01*
X117781019Y-138752380D01*
X117685781Y-138752380D01*
X118971495Y-138085714D02*
X118971495Y-138752380D01*
X118733400Y-137704761D02*
X118495305Y-138419047D01*
X119114352Y-138419047D01*
X115276190Y-129452380D02*
X115276190Y-128452380D01*
X115847619Y-129452380D02*
X115419047Y-128880952D01*
X115847619Y-128452380D02*
X115276190Y-129023809D01*
X116419047Y-129452380D02*
X116323809Y-129404761D01*
X116276190Y-129357142D01*
X116228571Y-129261904D01*
X116228571Y-128976190D01*
X116276190Y-128880952D01*
X116323809Y-128833333D01*
X116419047Y-128785714D01*
X116561904Y-128785714D01*
X116657142Y-128833333D01*
X116704761Y-128880952D01*
X116752380Y-128976190D01*
X116752380Y-129261904D01*
X116704761Y-129357142D01*
X116657142Y-129404761D01*
X116561904Y-129452380D01*
X116419047Y-129452380D01*
X117180952Y-128785714D02*
X117180952Y-129452380D01*
X117180952Y-128880952D02*
X117228571Y-128833333D01*
X117323809Y-128785714D01*
X117466666Y-128785714D01*
X117561904Y-128833333D01*
X117609523Y-128928571D01*
X117609523Y-129452380D01*
X117942857Y-128785714D02*
X118323809Y-128785714D01*
X118085714Y-128452380D02*
X118085714Y-129309523D01*
X118133333Y-129404761D01*
X118228571Y-129452380D01*
X118323809Y-129452380D01*
X119085714Y-129452380D02*
X119085714Y-128928571D01*
X119038095Y-128833333D01*
X118942857Y-128785714D01*
X118752380Y-128785714D01*
X118657142Y-128833333D01*
X119085714Y-129404761D02*
X118990476Y-129452380D01*
X118752380Y-129452380D01*
X118657142Y-129404761D01*
X118609523Y-129309523D01*
X118609523Y-129214285D01*
X118657142Y-129119047D01*
X118752380Y-129071428D01*
X118990476Y-129071428D01*
X119085714Y-129023809D01*
X119561904Y-129452380D02*
X119561904Y-128452380D01*
X119657142Y-129071428D02*
X119942857Y-129452380D01*
X119942857Y-128785714D02*
X119561904Y-129166666D01*
X120228571Y-128785714D02*
X120609523Y-128785714D01*
X120371428Y-128452380D02*
X120371428Y-129309523D01*
X120419047Y-129404761D01*
X120514285Y-129452380D01*
X120609523Y-129452380D01*
X121323809Y-129404761D02*
X121228571Y-129452380D01*
X121038095Y-129452380D01*
X120942857Y-129404761D01*
X120895238Y-129309523D01*
X120895238Y-128928571D01*
X120942857Y-128833333D01*
X121038095Y-128785714D01*
X121228571Y-128785714D01*
X121323809Y-128833333D01*
X121371428Y-128928571D01*
X121371428Y-129023809D01*
X120895238Y-129119047D01*
X113900000Y-132752380D02*
X113900000Y-132990476D01*
X113661904Y-132895238D02*
X113900000Y-132990476D01*
X114138095Y-132895238D01*
X113757142Y-133180952D02*
X113900000Y-132990476D01*
X114042857Y-133180952D01*
X141161904Y-104752380D02*
X141161904Y-103752380D01*
X141400000Y-103752380D01*
X141542857Y-103800000D01*
X141638095Y-103895238D01*
X141685714Y-103990476D01*
X141733333Y-104180952D01*
X141733333Y-104323809D01*
X141685714Y-104514285D01*
X141638095Y-104609523D01*
X141542857Y-104704761D01*
X141400000Y-104752380D01*
X141161904Y-104752380D01*
X142685714Y-104752380D02*
X142114285Y-104752380D01*
X142400000Y-104752380D02*
X142400000Y-103752380D01*
X142304761Y-103895238D01*
X142209523Y-103990476D01*
X142114285Y-104038095D01*
X131261904Y-104752380D02*
X131261904Y-103752380D01*
X131500000Y-103752380D01*
X131642857Y-103800000D01*
X131738095Y-103895238D01*
X131785714Y-103990476D01*
X131833333Y-104180952D01*
X131833333Y-104323809D01*
X131785714Y-104514285D01*
X131738095Y-104609523D01*
X131642857Y-104704761D01*
X131500000Y-104752380D01*
X131261904Y-104752380D01*
X132214285Y-103847619D02*
X132261904Y-103800000D01*
X132357142Y-103752380D01*
X132595238Y-103752380D01*
X132690476Y-103800000D01*
X132738095Y-103847619D01*
X132785714Y-103942857D01*
X132785714Y-104038095D01*
X132738095Y-104180952D01*
X132166666Y-104752380D01*
X132785714Y-104752380D01*
X169202380Y-79161904D02*
X170011904Y-79161904D01*
X170107142Y-79114285D01*
X170154761Y-79066666D01*
X170202380Y-78971428D01*
X170202380Y-78780952D01*
X170154761Y-78685714D01*
X170107142Y-78638095D01*
X170011904Y-78590476D01*
X169202380Y-78590476D01*
X170202380Y-77590476D02*
X170202380Y-78161904D01*
X170202380Y-77876190D02*
X169202380Y-77876190D01*
X169345238Y-77971428D01*
X169440476Y-78066666D01*
X169488095Y-78161904D01*
X168921428Y-123752380D02*
X168921428Y-122990476D01*
X169302380Y-123371428D02*
X168540476Y-123371428D01*
X169302380Y-121752380D02*
X168635714Y-121752380D01*
X168302380Y-121752380D02*
X168350000Y-121800000D01*
X168397619Y-121752380D01*
X168350000Y-121704761D01*
X168302380Y-121752380D01*
X168397619Y-121752380D01*
X168635714Y-121276190D02*
X169302380Y-121276190D01*
X168730952Y-121276190D02*
X168683333Y-121228571D01*
X168635714Y-121133333D01*
X168635714Y-120990476D01*
X168683333Y-120895238D01*
X168778571Y-120847619D01*
X169302380Y-120847619D01*
X182121428Y-123652380D02*
X182121428Y-122890476D01*
X182502380Y-121652380D02*
X181835714Y-121652380D01*
X181502380Y-121652380D02*
X181550000Y-121700000D01*
X181597619Y-121652380D01*
X181550000Y-121604761D01*
X181502380Y-121652380D01*
X181597619Y-121652380D01*
X181835714Y-121176190D02*
X182502380Y-121176190D01*
X181930952Y-121176190D02*
X181883333Y-121128571D01*
X181835714Y-121033333D01*
X181835714Y-120890476D01*
X181883333Y-120795238D01*
X181978571Y-120747619D01*
X182502380Y-120747619D01*
X169302380Y-85509523D02*
X169254761Y-85604761D01*
X169207142Y-85652380D01*
X169111904Y-85700000D01*
X168826190Y-85700000D01*
X168730952Y-85652380D01*
X168683333Y-85604761D01*
X168635714Y-85509523D01*
X168635714Y-85366666D01*
X168683333Y-85271428D01*
X168730952Y-85223809D01*
X168826190Y-85176190D01*
X169111904Y-85176190D01*
X169207142Y-85223809D01*
X169254761Y-85271428D01*
X169302380Y-85366666D01*
X169302380Y-85509523D01*
X168635714Y-84319047D02*
X169302380Y-84319047D01*
X168635714Y-84747619D02*
X169159523Y-84747619D01*
X169254761Y-84700000D01*
X169302380Y-84604761D01*
X169302380Y-84461904D01*
X169254761Y-84366666D01*
X169207142Y-84319047D01*
X168635714Y-83985714D02*
X168635714Y-83604761D01*
X168302380Y-83842857D02*
X169159523Y-83842857D01*
X169254761Y-83795238D01*
X169302380Y-83700000D01*
X169302380Y-83604761D01*
X168921428Y-82509523D02*
X168921428Y-81747619D01*
X169302380Y-82128571D02*
X168540476Y-82128571D01*
X182502380Y-85409523D02*
X182454761Y-85504761D01*
X182407142Y-85552380D01*
X182311904Y-85600000D01*
X182026190Y-85600000D01*
X181930952Y-85552380D01*
X181883333Y-85504761D01*
X181835714Y-85409523D01*
X181835714Y-85266666D01*
X181883333Y-85171428D01*
X181930952Y-85123809D01*
X182026190Y-85076190D01*
X182311904Y-85076190D01*
X182407142Y-85123809D01*
X182454761Y-85171428D01*
X182502380Y-85266666D01*
X182502380Y-85409523D01*
X181835714Y-84219047D02*
X182502380Y-84219047D01*
X181835714Y-84647619D02*
X182359523Y-84647619D01*
X182454761Y-84600000D01*
X182502380Y-84504761D01*
X182502380Y-84361904D01*
X182454761Y-84266666D01*
X182407142Y-84219047D01*
X181835714Y-83885714D02*
X181835714Y-83504761D01*
X181502380Y-83742857D02*
X182359523Y-83742857D01*
X182454761Y-83695238D01*
X182502380Y-83600000D01*
X182502380Y-83504761D01*
X182121428Y-82409523D02*
X182121428Y-81647619D01*
X159733333Y-111457142D02*
X159685714Y-111504761D01*
X159542857Y-111552380D01*
X159447619Y-111552380D01*
X159304761Y-111504761D01*
X159209523Y-111409523D01*
X159161904Y-111314285D01*
X159114285Y-111123809D01*
X159114285Y-110980952D01*
X159161904Y-110790476D01*
X159209523Y-110695238D01*
X159304761Y-110600000D01*
X159447619Y-110552380D01*
X159542857Y-110552380D01*
X159685714Y-110600000D01*
X159733333Y-110647619D01*
X160114285Y-110647619D02*
X160161904Y-110600000D01*
X160257142Y-110552380D01*
X160495238Y-110552380D01*
X160590476Y-110600000D01*
X160638095Y-110647619D01*
X160685714Y-110742857D01*
X160685714Y-110838095D01*
X160638095Y-110980952D01*
X160066666Y-111552380D01*
X160685714Y-111552380D01*
X148116666Y-123628571D02*
X147783333Y-123628571D01*
X147783333Y-124152380D02*
X147783333Y-123152380D01*
X148259523Y-123152380D01*
X149164285Y-124152380D02*
X148592857Y-124152380D01*
X148878571Y-124152380D02*
X148878571Y-123152380D01*
X148783333Y-123295238D01*
X148688095Y-123390476D01*
X148592857Y-123438095D01*
X106983333Y-126607142D02*
X106935714Y-126654761D01*
X106792857Y-126702380D01*
X106697619Y-126702380D01*
X106554761Y-126654761D01*
X106459523Y-126559523D01*
X106411904Y-126464285D01*
X106364285Y-126273809D01*
X106364285Y-126130952D01*
X106411904Y-125940476D01*
X106459523Y-125845238D01*
X106554761Y-125750000D01*
X106697619Y-125702380D01*
X106792857Y-125702380D01*
X106935714Y-125750000D01*
X106983333Y-125797619D01*
X107935714Y-126702380D02*
X107364285Y-126702380D01*
X107650000Y-126702380D02*
X107650000Y-125702380D01*
X107554761Y-125845238D01*
X107459523Y-125940476D01*
X107364285Y-125988095D01*
X157666731Y-137952380D02*
X157666731Y-138666666D01*
X157619112Y-138809523D01*
X157523874Y-138904761D01*
X157381017Y-138952380D01*
X157285779Y-138952380D01*
X158666731Y-138952380D02*
X158095303Y-138952380D01*
X158381017Y-138952380D02*
X158381017Y-137952380D01*
X158285779Y-138095238D01*
X158190541Y-138190476D01*
X158095303Y-138238095D01*
X156123809Y-129752380D02*
X156123809Y-128752380D01*
X156504761Y-128752380D01*
X156600000Y-128800000D01*
X156647619Y-128847619D01*
X156695238Y-128942857D01*
X156695238Y-129085714D01*
X156647619Y-129180952D01*
X156600000Y-129228571D01*
X156504761Y-129276190D01*
X156123809Y-129276190D01*
X157266666Y-129752380D02*
X157171428Y-129704761D01*
X157123809Y-129657142D01*
X157076190Y-129561904D01*
X157076190Y-129276190D01*
X157123809Y-129180952D01*
X157171428Y-129133333D01*
X157266666Y-129085714D01*
X157409523Y-129085714D01*
X157504761Y-129133333D01*
X157552380Y-129180952D01*
X157600000Y-129276190D01*
X157600000Y-129561904D01*
X157552380Y-129657142D01*
X157504761Y-129704761D01*
X157409523Y-129752380D01*
X157266666Y-129752380D01*
X157933333Y-129085714D02*
X158123809Y-129752380D01*
X158314285Y-129276190D01*
X158504761Y-129752380D01*
X158695238Y-129085714D01*
X159457142Y-129704761D02*
X159361904Y-129752380D01*
X159171428Y-129752380D01*
X159076190Y-129704761D01*
X159028571Y-129609523D01*
X159028571Y-129228571D01*
X159076190Y-129133333D01*
X159171428Y-129085714D01*
X159361904Y-129085714D01*
X159457142Y-129133333D01*
X159504761Y-129228571D01*
X159504761Y-129323809D01*
X159028571Y-129419047D01*
X159933333Y-129752380D02*
X159933333Y-129085714D01*
X159933333Y-129276190D02*
X159980952Y-129180952D01*
X160028571Y-129133333D01*
X160123809Y-129085714D01*
X160219047Y-129085714D01*
X157000000Y-132952380D02*
X157000000Y-133190476D01*
X156761904Y-133095238D02*
X157000000Y-133190476D01*
X157238095Y-133095238D01*
X156857142Y-133380952D02*
X157000000Y-133190476D01*
X157142857Y-133380952D01*
X170916731Y-138002380D02*
X170916731Y-138716666D01*
X170869112Y-138859523D01*
X170773874Y-138954761D01*
X170631017Y-139002380D01*
X170535779Y-139002380D01*
X171345303Y-138097619D02*
X171392922Y-138050000D01*
X171488160Y-138002380D01*
X171726255Y-138002380D01*
X171821493Y-138050000D01*
X171869112Y-138097619D01*
X171916731Y-138192857D01*
X171916731Y-138288095D01*
X171869112Y-138430952D01*
X171297684Y-139002380D01*
X171916731Y-139002380D01*
X164761904Y-129704761D02*
X164904761Y-129752380D01*
X165142857Y-129752380D01*
X165238095Y-129704761D01*
X165285714Y-129657142D01*
X165333333Y-129561904D01*
X165333333Y-129466666D01*
X165285714Y-129371428D01*
X165238095Y-129323809D01*
X165142857Y-129276190D01*
X164952380Y-129228571D01*
X164857142Y-129180952D01*
X164809523Y-129133333D01*
X164761904Y-129038095D01*
X164761904Y-128942857D01*
X164809523Y-128847619D01*
X164857142Y-128800000D01*
X164952380Y-128752380D01*
X165190476Y-128752380D01*
X165333333Y-128800000D01*
X166190476Y-129704761D02*
X166095238Y-129752380D01*
X165904761Y-129752380D01*
X165809523Y-129704761D01*
X165761904Y-129657142D01*
X165714285Y-129561904D01*
X165714285Y-129276190D01*
X165761904Y-129180952D01*
X165809523Y-129133333D01*
X165904761Y-129085714D01*
X166095238Y-129085714D01*
X166190476Y-129133333D01*
X166619047Y-129752380D02*
X166619047Y-128752380D01*
X167047619Y-129752380D02*
X167047619Y-129228571D01*
X167000000Y-129133333D01*
X166904761Y-129085714D01*
X166761904Y-129085714D01*
X166666666Y-129133333D01*
X166619047Y-129180952D01*
X167952380Y-129752380D02*
X167952380Y-129228571D01*
X167904761Y-129133333D01*
X167809523Y-129085714D01*
X167619047Y-129085714D01*
X167523809Y-129133333D01*
X167952380Y-129704761D02*
X167857142Y-129752380D01*
X167619047Y-129752380D01*
X167523809Y-129704761D01*
X167476190Y-129609523D01*
X167476190Y-129514285D01*
X167523809Y-129419047D01*
X167619047Y-129371428D01*
X167857142Y-129371428D01*
X167952380Y-129323809D01*
X168428571Y-129752380D02*
X168428571Y-129085714D01*
X168428571Y-129276190D02*
X168476190Y-129180952D01*
X168523809Y-129133333D01*
X168619047Y-129085714D01*
X168714285Y-129085714D01*
X168904761Y-129085714D02*
X169285714Y-129085714D01*
X169047619Y-129752380D02*
X169047619Y-128895238D01*
X169095238Y-128800000D01*
X169190476Y-128752380D01*
X169285714Y-128752380D01*
X171095238Y-128704761D02*
X170238095Y-129990476D01*
X172619047Y-129085714D02*
X172619047Y-129752380D01*
X172190476Y-129085714D02*
X172190476Y-129609523D01*
X172238095Y-129704761D01*
X172333333Y-129752380D01*
X172476190Y-129752380D01*
X172571428Y-129704761D01*
X172619047Y-129657142D01*
X173095238Y-129085714D02*
X173095238Y-129752380D01*
X173095238Y-129180952D02*
X173142857Y-129133333D01*
X173238095Y-129085714D01*
X173380952Y-129085714D01*
X173476190Y-129133333D01*
X173523809Y-129228571D01*
X173523809Y-129752380D01*
X173952380Y-129704761D02*
X174047619Y-129752380D01*
X174238095Y-129752380D01*
X174333333Y-129704761D01*
X174380952Y-129609523D01*
X174380952Y-129561904D01*
X174333333Y-129466666D01*
X174238095Y-129419047D01*
X174095238Y-129419047D01*
X174000000Y-129371428D01*
X173952380Y-129276190D01*
X173952380Y-129228571D01*
X174000000Y-129133333D01*
X174095238Y-129085714D01*
X174238095Y-129085714D01*
X174333333Y-129133333D01*
X175238095Y-129704761D02*
X175142857Y-129752380D01*
X174952380Y-129752380D01*
X174857142Y-129704761D01*
X174809523Y-129657142D01*
X174761904Y-129561904D01*
X174761904Y-129276190D01*
X174809523Y-129180952D01*
X174857142Y-129133333D01*
X174952380Y-129085714D01*
X175142857Y-129085714D01*
X175238095Y-129133333D01*
X175666666Y-129752380D02*
X175666666Y-128752380D01*
X176095238Y-129752380D02*
X176095238Y-129228571D01*
X176047619Y-129133333D01*
X175952380Y-129085714D01*
X175809523Y-129085714D01*
X175714285Y-129133333D01*
X175666666Y-129180952D01*
X177000000Y-129752380D02*
X177000000Y-129228571D01*
X176952380Y-129133333D01*
X176857142Y-129085714D01*
X176666666Y-129085714D01*
X176571428Y-129133333D01*
X177000000Y-129704761D02*
X176904761Y-129752380D01*
X176666666Y-129752380D01*
X176571428Y-129704761D01*
X176523809Y-129609523D01*
X176523809Y-129514285D01*
X176571428Y-129419047D01*
X176666666Y-129371428D01*
X176904761Y-129371428D01*
X177000000Y-129323809D01*
X177476190Y-129752380D02*
X177476190Y-129085714D01*
X177476190Y-129276190D02*
X177523809Y-129180952D01*
X177571428Y-129133333D01*
X177666666Y-129085714D01*
X177761904Y-129085714D01*
X177952380Y-129085714D02*
X178333333Y-129085714D01*
X178095238Y-129752380D02*
X178095238Y-128895238D01*
X178142857Y-128800000D01*
X178238095Y-128752380D01*
X178333333Y-128752380D01*
X170250000Y-133002380D02*
X170250000Y-133240476D01*
X170011904Y-133145238D02*
X170250000Y-133240476D01*
X170488095Y-133145238D01*
X170107142Y-133430952D02*
X170250000Y-133240476D01*
X170392857Y-133430952D01*
X138766732Y-137902380D02*
X138766732Y-138616666D01*
X138719113Y-138759523D01*
X138623875Y-138854761D01*
X138481018Y-138902380D01*
X138385780Y-138902380D01*
X139147685Y-137902380D02*
X139766732Y-137902380D01*
X139433399Y-138283333D01*
X139576256Y-138283333D01*
X139671494Y-138330952D01*
X139719113Y-138378571D01*
X139766732Y-138473809D01*
X139766732Y-138711904D01*
X139719113Y-138807142D01*
X139671494Y-138854761D01*
X139576256Y-138902380D01*
X139290542Y-138902380D01*
X139195304Y-138854761D01*
X139147685Y-138807142D01*
X134947619Y-129128571D02*
X135090476Y-129176190D01*
X135138095Y-129223809D01*
X135185714Y-129319047D01*
X135185714Y-129461904D01*
X135138095Y-129557142D01*
X135090476Y-129604761D01*
X134995238Y-129652380D01*
X134614285Y-129652380D01*
X134614285Y-128652380D01*
X134947619Y-128652380D01*
X135042857Y-128700000D01*
X135090476Y-128747619D01*
X135138095Y-128842857D01*
X135138095Y-128938095D01*
X135090476Y-129033333D01*
X135042857Y-129080952D01*
X134947619Y-129128571D01*
X134614285Y-129128571D01*
X135995238Y-129604761D02*
X135900000Y-129652380D01*
X135709523Y-129652380D01*
X135614285Y-129604761D01*
X135566666Y-129509523D01*
X135566666Y-129128571D01*
X135614285Y-129033333D01*
X135709523Y-128985714D01*
X135900000Y-128985714D01*
X135995238Y-129033333D01*
X136042857Y-129128571D01*
X136042857Y-129223809D01*
X135566666Y-129319047D01*
X136376190Y-128985714D02*
X136566666Y-129652380D01*
X136757142Y-129176190D01*
X136947619Y-129652380D01*
X137138095Y-128985714D01*
X137519047Y-129557142D02*
X137566666Y-129604761D01*
X137519047Y-129652380D01*
X137471428Y-129604761D01*
X137519047Y-129557142D01*
X137519047Y-129652380D01*
X138757142Y-129652380D02*
X138757142Y-128652380D01*
X139090476Y-129366666D01*
X139423809Y-128652380D01*
X139423809Y-129652380D01*
X140280952Y-129604761D02*
X140185714Y-129652380D01*
X139995238Y-129652380D01*
X139900000Y-129604761D01*
X139852380Y-129509523D01*
X139852380Y-129128571D01*
X139900000Y-129033333D01*
X139995238Y-128985714D01*
X140185714Y-128985714D01*
X140280952Y-129033333D01*
X140328571Y-129128571D01*
X140328571Y-129223809D01*
X139852380Y-129319047D01*
X140900000Y-129652380D02*
X140804761Y-129604761D01*
X140757142Y-129509523D01*
X140757142Y-128652380D01*
X141709523Y-129652380D02*
X141709523Y-128652380D01*
X141709523Y-129604761D02*
X141614285Y-129652380D01*
X141423809Y-129652380D01*
X141328571Y-129604761D01*
X141280952Y-129557142D01*
X141233333Y-129461904D01*
X141233333Y-129176190D01*
X141280952Y-129080952D01*
X141328571Y-129033333D01*
X141423809Y-128985714D01*
X141614285Y-128985714D01*
X141709523Y-129033333D01*
X142566666Y-129604761D02*
X142471428Y-129652380D01*
X142280952Y-129652380D01*
X142185714Y-129604761D01*
X142138095Y-129509523D01*
X142138095Y-129128571D01*
X142185714Y-129033333D01*
X142280952Y-128985714D01*
X142471428Y-128985714D01*
X142566666Y-129033333D01*
X142614285Y-129128571D01*
X142614285Y-129223809D01*
X142138095Y-129319047D01*
X143042857Y-129652380D02*
X143042857Y-128985714D01*
X143042857Y-129176190D02*
X143090476Y-129080952D01*
X143138095Y-129033333D01*
X143233333Y-128985714D01*
X143328571Y-128985714D01*
X136350000Y-137902380D02*
X136350000Y-138140476D01*
X136111904Y-138045238D02*
X136350000Y-138140476D01*
X136588095Y-138045238D01*
X136207142Y-138330952D02*
X136350000Y-138140476D01*
X136492857Y-138330952D01*
X164552380Y-85961904D02*
X165361904Y-85961904D01*
X165457142Y-85914285D01*
X165504761Y-85866666D01*
X165552380Y-85771428D01*
X165552380Y-85580952D01*
X165504761Y-85485714D01*
X165457142Y-85438095D01*
X165361904Y-85390476D01*
X164552380Y-85390476D01*
X164647619Y-84961904D02*
X164600000Y-84914285D01*
X164552380Y-84819047D01*
X164552380Y-84580952D01*
X164600000Y-84485714D01*
X164647619Y-84438095D01*
X164742857Y-84390476D01*
X164838095Y-84390476D01*
X164980952Y-84438095D01*
X165552380Y-85009523D01*
X165552380Y-84390476D01*
X131066666Y-75114285D02*
X131066666Y-74638095D01*
X131352380Y-75209523D02*
X130352380Y-74876190D01*
X131352380Y-74542857D01*
X130685714Y-74209523D02*
X131352380Y-74209523D01*
X130780952Y-74209523D02*
X130733333Y-74161904D01*
X130685714Y-74066666D01*
X130685714Y-73923809D01*
X130733333Y-73828571D01*
X130828571Y-73780952D01*
X131352380Y-73780952D01*
X130685714Y-73447619D02*
X130685714Y-73066666D01*
X130352380Y-73304761D02*
X131209523Y-73304761D01*
X131304761Y-73257142D01*
X131352380Y-73161904D01*
X131352380Y-73066666D01*
X131257142Y-72733333D02*
X131304761Y-72685714D01*
X131352380Y-72733333D01*
X131304761Y-72780952D01*
X131257142Y-72733333D01*
X131352380Y-72733333D01*
X152472380Y-107116666D02*
X151996190Y-107450000D01*
X152472380Y-107688095D02*
X151472380Y-107688095D01*
X151472380Y-107307142D01*
X151520000Y-107211904D01*
X151567619Y-107164285D01*
X151662857Y-107116666D01*
X151805714Y-107116666D01*
X151900952Y-107164285D01*
X151948571Y-107211904D01*
X151996190Y-107307142D01*
X151996190Y-107688095D01*
X151567619Y-106735714D02*
X151520000Y-106688095D01*
X151472380Y-106592857D01*
X151472380Y-106354761D01*
X151520000Y-106259523D01*
X151567619Y-106211904D01*
X151662857Y-106164285D01*
X151758095Y-106164285D01*
X151900952Y-106211904D01*
X152472380Y-106783333D01*
X152472380Y-106164285D01*
X142852380Y-107266666D02*
X142376190Y-107600000D01*
X142852380Y-107838095D02*
X141852380Y-107838095D01*
X141852380Y-107457142D01*
X141900000Y-107361904D01*
X141947619Y-107314285D01*
X142042857Y-107266666D01*
X142185714Y-107266666D01*
X142280952Y-107314285D01*
X142328571Y-107361904D01*
X142376190Y-107457142D01*
X142376190Y-107838095D01*
X141852380Y-106933333D02*
X141852380Y-106314285D01*
X142233333Y-106647619D01*
X142233333Y-106504761D01*
X142280952Y-106409523D01*
X142328571Y-106361904D01*
X142423809Y-106314285D01*
X142661904Y-106314285D01*
X142757142Y-106361904D01*
X142804761Y-106409523D01*
X142852380Y-106504761D01*
X142852380Y-106790476D01*
X142804761Y-106885714D01*
X142757142Y-106933333D01*
%LPC*%
D13*
X140000000Y-113100000D03*
D14*
X127300000Y-113100000D03*
D15*
X103380000Y-122330000D03*
X103380000Y-119790000D03*
X103380000Y-117250000D03*
X103380000Y-114710000D03*
X103380000Y-112170000D03*
X103380000Y-109630000D03*
X103380000Y-107090000D03*
X103380000Y-104550000D03*
X103380000Y-102010000D03*
X103380000Y-99470000D03*
X103380000Y-96930000D03*
X103380000Y-94390000D03*
X103380000Y-91850000D03*
X103380000Y-89310000D03*
X103380000Y-86770000D03*
X118620000Y-89310000D03*
X118620000Y-91850000D03*
X118620000Y-94390000D03*
X118620000Y-96930000D03*
X118620000Y-99470000D03*
X118620000Y-102010000D03*
X118620000Y-104550000D03*
X118620000Y-107090000D03*
X118620000Y-109630000D03*
X118620000Y-112170000D03*
X118620000Y-114710000D03*
X118620000Y-117250000D03*
X118620000Y-119790000D03*
X118620000Y-86770000D03*
X118620000Y-122330000D03*
D16*
X113900003Y-133300000D03*
X117400003Y-138300000D03*
X120900004Y-133300000D03*
X124400004Y-138300000D03*
D17*
X138540000Y-103900000D03*
D18*
X136000000Y-103900000D03*
X125850000Y-103850000D03*
D17*
X128390000Y-103850000D03*
D16*
X166450000Y-122400000D03*
X184050000Y-122400000D03*
X184050000Y-82800000D03*
X166550000Y-82800000D03*
D19*
X157800000Y-103900000D03*
D13*
X161300000Y-103900000D03*
D20*
X158850000Y-122200000D03*
X136250000Y-122200000D03*
D21*
X125200000Y-95200000D03*
X125400000Y-73850000D03*
X159350000Y-73650000D03*
D13*
X105900000Y-128750000D03*
X108400000Y-128750000D03*
D21*
X182000000Y-75600000D03*
X105500000Y-75900000D03*
X105500000Y-142800000D03*
X182000000Y-142900000D03*
D16*
X160500002Y-138500000D03*
X156999999Y-133500000D03*
X170249999Y-133550000D03*
X173750002Y-138550000D03*
X136350000Y-138450000D03*
X139850001Y-133450000D03*
X143350001Y-138450000D03*
X133400000Y-73800000D03*
D22*
X160800000Y-78800000D03*
D16*
X160800000Y-81300000D03*
X160800000Y-83800000D03*
X160800000Y-86300000D03*
X160800000Y-88800000D03*
X160800000Y-91300000D03*
X160800000Y-93800000D03*
D14*
X149300000Y-113300000D03*
D13*
X149300000Y-100600000D03*
X145300000Y-100600000D03*
D14*
X145300000Y-113300000D03*
M02*
