M48
; DRILL file {KiCad (5.1.5)-3} date 14.05.2021 19:35:09
; FORMAT={-:-/ absolute / metric / decimal}
; #@! TF.CreationDate,2021-05-14T19:35:09+02:00
; #@! TF.GenerationSoftware,Kicad,Pcbnew,(5.1.5)-3
; #@! TF.FileFunction,Plated,1,2,PTH
FMAT,2
METRIC
T1C0.400
T2C0.762
T3C0.800
T4C0.900
T5C1.016
T6C1.500
%
G90
G05
T1
X152.001Y-112.149
T2
X166.45Y-122.4
X166.55Y-82.8
X184.05Y-82.8
X184.05Y-122.4
T3
X157.8Y-103.9
X161.3Y-103.9
X127.3Y-113.1
X140.0Y-113.1
X149.3Y-100.6
X149.3Y-113.3
X105.9Y-128.75
X108.4Y-128.75
X145.3Y-100.6
X145.3Y-113.3
T4
X160.8Y-78.8
X160.8Y-81.3
X160.8Y-83.8
X160.8Y-86.3
X160.8Y-88.8
X160.8Y-91.3
X160.8Y-93.8
X125.85Y-103.85
X128.39Y-103.85
X136.0Y-103.9
X138.54Y-103.9
T5
X136.35Y-138.45
X139.85Y-133.45
X143.35Y-138.45
X170.25Y-133.55
X173.75Y-138.55
X103.38Y-86.77
X103.38Y-89.31
X103.38Y-91.85
X103.38Y-94.39
X103.38Y-96.93
X103.38Y-99.47
X103.38Y-102.01
X103.38Y-104.55
X103.38Y-107.09
X103.38Y-109.63
X103.38Y-112.17
X103.38Y-114.71
X103.38Y-117.25
X103.38Y-119.79
X103.38Y-122.33
X118.62Y-86.77
X118.62Y-89.31
X118.62Y-91.85
X118.62Y-94.39
X118.62Y-96.93
X118.62Y-99.47
X118.62Y-102.01
X118.62Y-104.55
X118.62Y-107.09
X118.62Y-109.63
X118.62Y-112.17
X118.62Y-114.71
X118.62Y-117.25
X118.62Y-119.79
X118.62Y-122.33
X157.0Y-133.5
X160.5Y-138.5
X113.9Y-133.3
X117.4Y-138.3
X120.9Y-133.3
X124.4Y-138.3
T6
X136.25Y-122.2
X158.85Y-122.2
T0
M30
