G04 #@! TF.GenerationSoftware,KiCad,Pcbnew,(5.1.5)-3*
G04 #@! TF.CreationDate,2021-05-03T11:12:42+02:00*
G04 #@! TF.ProjectId,GSM-Alarmanlage,47534d2d-416c-4617-926d-616e6c616765,rev?*
G04 #@! TF.SameCoordinates,Original*
G04 #@! TF.FileFunction,Copper,L2,Bot*
G04 #@! TF.FilePolarity,Positive*
%FSLAX46Y46*%
G04 Gerber Fmt 4.6, Leading zero omitted, Abs format (unit mm)*
G04 Created by KiCad (PCBNEW (5.1.5)-3) date 2021-05-03 11:12:42*
%MOMM*%
%LPD*%
G04 APERTURE LIST*
%ADD10O,2.032000X1.727200*%
%ADD11C,1.524000*%
%ADD12C,1.800000*%
%ADD13R,1.800000X1.800000*%
%ADD14C,1.400000*%
%ADD15O,1.400000X1.400000*%
%ADD16R,1.524000X1.524000*%
%ADD17R,1.600000X1.600000*%
%ADD18C,1.600000*%
%ADD19C,3.000000*%
%ADD20C,0.250000*%
%ADD21C,1.000000*%
%ADD22C,0.254000*%
G04 APERTURE END LIST*
D10*
X103380000Y-122330000D03*
X103380000Y-119790000D03*
X103380000Y-117250000D03*
X103380000Y-114710000D03*
X103380000Y-112170000D03*
X103380000Y-109630000D03*
X103380000Y-107090000D03*
X103380000Y-104550000D03*
X103380000Y-102010000D03*
X103380000Y-99470000D03*
X103380000Y-96930000D03*
X103380000Y-94390000D03*
X103380000Y-91850000D03*
X103380000Y-89310000D03*
X103380000Y-86770000D03*
X118620000Y-89310000D03*
X118620000Y-91850000D03*
X118620000Y-94390000D03*
X118620000Y-96930000D03*
X118620000Y-99470000D03*
X118620000Y-102010000D03*
X118620000Y-104550000D03*
X118620000Y-107090000D03*
X118620000Y-109630000D03*
X118620000Y-112170000D03*
X118620000Y-114710000D03*
X118620000Y-117250000D03*
X118620000Y-119790000D03*
X118620000Y-86770000D03*
X118620000Y-122330000D03*
D11*
X113900003Y-133300000D03*
X117400003Y-138300000D03*
X120900004Y-133300000D03*
X124400004Y-138300000D03*
D12*
X138540000Y-103900000D03*
D13*
X136000000Y-103900000D03*
X125850000Y-103850000D03*
D12*
X128390000Y-103850000D03*
D14*
X152800000Y-110900000D03*
D15*
X145180000Y-110900000D03*
X133580000Y-110850000D03*
D14*
X141200000Y-110850000D03*
X130800000Y-110800000D03*
D15*
X123180000Y-110800000D03*
D16*
X160850000Y-78750000D03*
D11*
X160850000Y-81250000D03*
X160850000Y-83750000D03*
X160850000Y-86250000D03*
X160850000Y-88750000D03*
X160850000Y-91250000D03*
X160850000Y-93250000D03*
X166450000Y-122400000D03*
X184050000Y-122400000D03*
X184050000Y-82800000D03*
X166550000Y-82800000D03*
D17*
X157800000Y-103900000D03*
D18*
X161300000Y-103900000D03*
D19*
X158850000Y-122200000D03*
X136250000Y-122200000D03*
D18*
X105900000Y-128750000D03*
X108400000Y-128750000D03*
D11*
X160500002Y-138500000D03*
X156999999Y-133500000D03*
X170249999Y-133550000D03*
X173750002Y-138550000D03*
X136350000Y-138450000D03*
X139850001Y-133450000D03*
X143350001Y-138450000D03*
D20*
X148990000Y-113219900D02*
X157184600Y-105025300D01*
X157184600Y-105025300D02*
X157800000Y-105025300D01*
X148990000Y-113219900D02*
X135436900Y-113219900D01*
X135436900Y-113219900D02*
X133580000Y-111363000D01*
X157800000Y-103900000D02*
X157800000Y-105025300D01*
X148990000Y-136400000D02*
X136656000Y-136400000D01*
X136656000Y-138144000D02*
X136350000Y-138450000D01*
X172572000Y-136400000D02*
X149000000Y-136400000D01*
X133580000Y-110850000D02*
X133580000Y-111363000D01*
X105900000Y-128750000D02*
X105900000Y-126039000D01*
X105900000Y-126039000D02*
X103380000Y-123519000D01*
X103380000Y-123519000D02*
X103380000Y-122330000D01*
D21*
X158350000Y-78750000D02*
X160850000Y-78750000D01*
X157800000Y-103900000D02*
X157800000Y-79300000D01*
X157800000Y-79300000D02*
X158350000Y-78750000D01*
D20*
X172572000Y-137371998D02*
X173750002Y-138550000D01*
X172572000Y-136400000D02*
X172572000Y-137371998D01*
X136350000Y-136706000D02*
X136350000Y-138450000D01*
X136656000Y-136400000D02*
X136350000Y-136706000D01*
X149000000Y-113229900D02*
X148990000Y-113219900D01*
X149000000Y-136400000D02*
X149000000Y-113229900D01*
X162900000Y-83900000D02*
X162900000Y-83890500D01*
D21*
X162900000Y-83900000D02*
X162900000Y-85000000D01*
X162900000Y-85000000D02*
X182860000Y-85000000D01*
X182860000Y-85000000D02*
X182860000Y-83990500D01*
X182860000Y-83990500D02*
X184050000Y-82800000D01*
X162800000Y-85000000D02*
X162900000Y-85000000D01*
X164600000Y-85000000D02*
X164600000Y-90111800D01*
X162900000Y-82500000D02*
X162900000Y-83890500D01*
D20*
X162900000Y-82397700D02*
X162900000Y-82500000D01*
D21*
X160850000Y-81250000D02*
X161998000Y-82397700D01*
X161998000Y-82397700D02*
X162798000Y-82397700D01*
D20*
X162798000Y-82397700D02*
X162900000Y-82500000D01*
X108400000Y-128750000D02*
X108400000Y-125479000D01*
X117400000Y-138300000D02*
X117328000Y-138300000D01*
X108400000Y-129372000D02*
X108400000Y-128750000D01*
D21*
X164600000Y-90111800D02*
X164600000Y-91300000D01*
D20*
X164550000Y-91250000D02*
X160850000Y-91250000D01*
X164600000Y-91300000D02*
X164550000Y-91250000D01*
D21*
X164600000Y-91300000D02*
X164600000Y-102200000D01*
X162900000Y-103900000D02*
X161300000Y-103900000D01*
X164600000Y-102200000D02*
X162900000Y-103900000D01*
D20*
X108400000Y-129881370D02*
X110100000Y-131581370D01*
X108400000Y-128750000D02*
X108400000Y-129881370D01*
X110100000Y-131581370D02*
X110100000Y-136800000D01*
X111600000Y-138300000D02*
X117400003Y-138300000D01*
X110100000Y-136800000D02*
X111600000Y-138300000D01*
X103380000Y-119790000D02*
X107490000Y-119790000D01*
X108400000Y-120700000D02*
X108400000Y-125479000D01*
X107490000Y-119790000D02*
X108400000Y-120700000D01*
X118620000Y-89310000D02*
X118620000Y-90498900D01*
X125850000Y-103850000D02*
X125850000Y-102624700D01*
X125850000Y-102624700D02*
X119971000Y-96745700D01*
X119971000Y-96745700D02*
X119971000Y-91329800D01*
X119971000Y-91329800D02*
X119140100Y-90498900D01*
X119140100Y-90498900D02*
X118620000Y-90498900D01*
X118620000Y-96930000D02*
X118620000Y-98118900D01*
X139850000Y-133450000D02*
X124306000Y-117906000D01*
X124306000Y-117906000D02*
X124306000Y-103284800D01*
X124306000Y-103284800D02*
X119140100Y-98118900D01*
X119140100Y-98118900D02*
X118620000Y-98118900D01*
X170250000Y-133550000D02*
X170250000Y-128350000D01*
X170250000Y-128350000D02*
X152800000Y-110900000D01*
X118467600Y-109630000D02*
X116997600Y-111100000D01*
X118620000Y-109630000D02*
X118467600Y-109630000D01*
X116997600Y-111100000D02*
X116997600Y-128202400D01*
X120900004Y-132104804D02*
X120900004Y-133300000D01*
X116997600Y-128202400D02*
X120900004Y-132104804D01*
X113900000Y-133300000D02*
X113900000Y-112514000D01*
X113900000Y-112514000D02*
X117999000Y-108415000D01*
X117999000Y-108415000D02*
X119256000Y-108415000D01*
X119256000Y-108415000D02*
X119963000Y-109122000D01*
X119963000Y-109122000D02*
X119963000Y-110827000D01*
X119963000Y-110827000D02*
X118620000Y-112170000D01*
X136000000Y-103900000D02*
X136000000Y-102674700D01*
X136000000Y-102674700D02*
X120095300Y-86770000D01*
X120095300Y-86770000D02*
X118620000Y-86770000D01*
X141200000Y-110850000D02*
X138540000Y-108190000D01*
X138540000Y-108190000D02*
X138540000Y-103900000D01*
X130800000Y-110800000D02*
X130800000Y-106260000D01*
X130800000Y-106260000D02*
X128390000Y-103850000D01*
D22*
G36*
X186840000Y-70726816D02*
G01*
X186840001Y-148640000D01*
X100660000Y-148640000D01*
X100660000Y-142579872D01*
X103265000Y-142579872D01*
X103265000Y-143020128D01*
X103350890Y-143451925D01*
X103519369Y-143858669D01*
X103763962Y-144224729D01*
X104075271Y-144536038D01*
X104441331Y-144780631D01*
X104848075Y-144949110D01*
X105279872Y-145035000D01*
X105720128Y-145035000D01*
X106151925Y-144949110D01*
X106558669Y-144780631D01*
X106924729Y-144536038D01*
X107236038Y-144224729D01*
X107480631Y-143858669D01*
X107649110Y-143451925D01*
X107735000Y-143020128D01*
X107735000Y-142679872D01*
X179765000Y-142679872D01*
X179765000Y-143120128D01*
X179850890Y-143551925D01*
X180019369Y-143958669D01*
X180263962Y-144324729D01*
X180575271Y-144636038D01*
X180941331Y-144880631D01*
X181348075Y-145049110D01*
X181779872Y-145135000D01*
X182220128Y-145135000D01*
X182651925Y-145049110D01*
X183058669Y-144880631D01*
X183424729Y-144636038D01*
X183736038Y-144324729D01*
X183980631Y-143958669D01*
X184149110Y-143551925D01*
X184235000Y-143120128D01*
X184235000Y-142679872D01*
X184149110Y-142248075D01*
X183980631Y-141841331D01*
X183736038Y-141475271D01*
X183424729Y-141163962D01*
X183058669Y-140919369D01*
X182651925Y-140750890D01*
X182220128Y-140665000D01*
X181779872Y-140665000D01*
X181348075Y-140750890D01*
X180941331Y-140919369D01*
X180575271Y-141163962D01*
X180263962Y-141475271D01*
X180019369Y-141841331D01*
X179850890Y-142248075D01*
X179765000Y-142679872D01*
X107735000Y-142679872D01*
X107735000Y-142579872D01*
X107649110Y-142148075D01*
X107480631Y-141741331D01*
X107236038Y-141375271D01*
X106924729Y-141063962D01*
X106558669Y-140819369D01*
X106151925Y-140650890D01*
X105720128Y-140565000D01*
X105279872Y-140565000D01*
X104848075Y-140650890D01*
X104441331Y-140819369D01*
X104075271Y-141063962D01*
X103763962Y-141375271D01*
X103519369Y-141741331D01*
X103350890Y-142148075D01*
X103265000Y-142579872D01*
X100660000Y-142579872D01*
X100660000Y-139265565D01*
X116614043Y-139265565D01*
X116681023Y-139505656D01*
X116930051Y-139622756D01*
X117197138Y-139689023D01*
X117472020Y-139701910D01*
X117744136Y-139660922D01*
X118003026Y-139567636D01*
X118118983Y-139505656D01*
X118185963Y-139265565D01*
X123614044Y-139265565D01*
X123681024Y-139505656D01*
X123930052Y-139622756D01*
X124197139Y-139689023D01*
X124472021Y-139701910D01*
X124744137Y-139660922D01*
X125003027Y-139567636D01*
X125118984Y-139505656D01*
X125185964Y-139265565D01*
X124400004Y-138479605D01*
X123614044Y-139265565D01*
X118185963Y-139265565D01*
X117400003Y-138479605D01*
X116614043Y-139265565D01*
X100660000Y-139265565D01*
X100660000Y-138372017D01*
X115998093Y-138372017D01*
X116039081Y-138644133D01*
X116132367Y-138903023D01*
X116194347Y-139018980D01*
X116434438Y-139085960D01*
X117220398Y-138300000D01*
X117579608Y-138300000D01*
X118365568Y-139085960D01*
X118605659Y-139018980D01*
X118722759Y-138769952D01*
X118789026Y-138502865D01*
X118795160Y-138372017D01*
X122998094Y-138372017D01*
X123039082Y-138644133D01*
X123132368Y-138903023D01*
X123194348Y-139018980D01*
X123434439Y-139085960D01*
X124220399Y-138300000D01*
X124579609Y-138300000D01*
X125365569Y-139085960D01*
X125605660Y-139018980D01*
X125722760Y-138769952D01*
X125789027Y-138502865D01*
X125801914Y-138227983D01*
X125760926Y-137955867D01*
X125667640Y-137696977D01*
X125605660Y-137581020D01*
X125365569Y-137514040D01*
X124579609Y-138300000D01*
X124220399Y-138300000D01*
X123434439Y-137514040D01*
X123194348Y-137581020D01*
X123077248Y-137830048D01*
X123010981Y-138097135D01*
X122998094Y-138372017D01*
X118795160Y-138372017D01*
X118801913Y-138227983D01*
X118760925Y-137955867D01*
X118667639Y-137696977D01*
X118605659Y-137581020D01*
X118365568Y-137514040D01*
X117579608Y-138300000D01*
X117220398Y-138300000D01*
X116434438Y-137514040D01*
X116194347Y-137581020D01*
X116077247Y-137830048D01*
X116010980Y-138097135D01*
X115998093Y-138372017D01*
X100660000Y-138372017D01*
X100660000Y-137334435D01*
X116614043Y-137334435D01*
X117400003Y-138120395D01*
X118185963Y-137334435D01*
X123614044Y-137334435D01*
X124400004Y-138120395D01*
X125185964Y-137334435D01*
X125118984Y-137094344D01*
X124869956Y-136977244D01*
X124602869Y-136910977D01*
X124327987Y-136898090D01*
X124055871Y-136939078D01*
X123796981Y-137032364D01*
X123681024Y-137094344D01*
X123614044Y-137334435D01*
X118185963Y-137334435D01*
X118118983Y-137094344D01*
X117869955Y-136977244D01*
X117602868Y-136910977D01*
X117327986Y-136898090D01*
X117055870Y-136939078D01*
X116796980Y-137032364D01*
X116681023Y-137094344D01*
X116614043Y-137334435D01*
X100660000Y-137334435D01*
X100660000Y-133162408D01*
X112503003Y-133162408D01*
X112503003Y-133437592D01*
X112556689Y-133707490D01*
X112661998Y-133961727D01*
X112814883Y-134190535D01*
X113009468Y-134385120D01*
X113238276Y-134538005D01*
X113492513Y-134643314D01*
X113762411Y-134697000D01*
X114037595Y-134697000D01*
X114307493Y-134643314D01*
X114561730Y-134538005D01*
X114790538Y-134385120D01*
X114985123Y-134190535D01*
X115138008Y-133961727D01*
X115243317Y-133707490D01*
X115297003Y-133437592D01*
X115297003Y-133162408D01*
X115243317Y-132892510D01*
X115138008Y-132638273D01*
X114985123Y-132409465D01*
X114790538Y-132214880D01*
X114660000Y-132127657D01*
X114660000Y-112828801D01*
X116237600Y-111251202D01*
X116237601Y-128165067D01*
X116233924Y-128202400D01*
X116237601Y-128239733D01*
X116248462Y-128350000D01*
X116248598Y-128351385D01*
X116292054Y-128494646D01*
X116362626Y-128626676D01*
X116433801Y-128713402D01*
X116457600Y-128742401D01*
X116486598Y-128766199D01*
X119972374Y-132251975D01*
X119814884Y-132409465D01*
X119661999Y-132638273D01*
X119556690Y-132892510D01*
X119503004Y-133162408D01*
X119503004Y-133437592D01*
X119556690Y-133707490D01*
X119661999Y-133961727D01*
X119814884Y-134190535D01*
X120009469Y-134385120D01*
X120238277Y-134538005D01*
X120492514Y-134643314D01*
X120762412Y-134697000D01*
X121037596Y-134697000D01*
X121307494Y-134643314D01*
X121561731Y-134538005D01*
X121790539Y-134385120D01*
X121985124Y-134190535D01*
X122138009Y-133961727D01*
X122243318Y-133707490D01*
X122297004Y-133437592D01*
X122297004Y-133162408D01*
X122243318Y-132892510D01*
X122138009Y-132638273D01*
X121985124Y-132409465D01*
X121790539Y-132214880D01*
X121661341Y-132128553D01*
X121663680Y-132104804D01*
X121660004Y-132067479D01*
X121660004Y-132067471D01*
X121649007Y-131955818D01*
X121605550Y-131812557D01*
X121534978Y-131680528D01*
X121440005Y-131564803D01*
X121411008Y-131541006D01*
X117757600Y-127887599D01*
X117757600Y-123649741D01*
X117891336Y-123721225D01*
X118173823Y-123806916D01*
X118393981Y-123828600D01*
X118846019Y-123828600D01*
X119066177Y-123806916D01*
X119348664Y-123721225D01*
X119609006Y-123582069D01*
X119837197Y-123394797D01*
X120024469Y-123166606D01*
X120163625Y-122906264D01*
X120249316Y-122623777D01*
X120278251Y-122330000D01*
X120249316Y-122036223D01*
X120163625Y-121753736D01*
X120024469Y-121493394D01*
X119837197Y-121265203D01*
X119609006Y-121077931D01*
X119575460Y-121060000D01*
X119609006Y-121042069D01*
X119837197Y-120854797D01*
X120024469Y-120626606D01*
X120163625Y-120366264D01*
X120249316Y-120083777D01*
X120278251Y-119790000D01*
X120249316Y-119496223D01*
X120163625Y-119213736D01*
X120024469Y-118953394D01*
X119837197Y-118725203D01*
X119609006Y-118537931D01*
X119575460Y-118520000D01*
X119609006Y-118502069D01*
X119837197Y-118314797D01*
X120024469Y-118086606D01*
X120163625Y-117826264D01*
X120249316Y-117543777D01*
X120278251Y-117250000D01*
X120249316Y-116956223D01*
X120163625Y-116673736D01*
X120024469Y-116413394D01*
X119837197Y-116185203D01*
X119609006Y-115997931D01*
X119569053Y-115976576D01*
X119771729Y-115828486D01*
X119970733Y-115612035D01*
X120123686Y-115360919D01*
X120224709Y-115084789D01*
X120227358Y-115069026D01*
X120106217Y-114837000D01*
X118747000Y-114837000D01*
X118747000Y-114857000D01*
X118493000Y-114857000D01*
X118493000Y-114837000D01*
X118473000Y-114837000D01*
X118473000Y-114583000D01*
X118493000Y-114583000D01*
X118493000Y-114563000D01*
X118747000Y-114563000D01*
X118747000Y-114583000D01*
X120106217Y-114583000D01*
X120227358Y-114350974D01*
X120224709Y-114335211D01*
X120123686Y-114059081D01*
X119970733Y-113807965D01*
X119771729Y-113591514D01*
X119569053Y-113443424D01*
X119609006Y-113422069D01*
X119837197Y-113234797D01*
X120024469Y-113006606D01*
X120163625Y-112746264D01*
X120249316Y-112463777D01*
X120278251Y-112170000D01*
X120249316Y-111876223D01*
X120188631Y-111676171D01*
X120474003Y-111390799D01*
X120503001Y-111367001D01*
X120597974Y-111251276D01*
X120668546Y-111119247D01*
X120712003Y-110975986D01*
X120723000Y-110864333D01*
X120723000Y-110864323D01*
X120726676Y-110827000D01*
X120723000Y-110789677D01*
X120723000Y-109159322D01*
X120726676Y-109122000D01*
X120723000Y-109084677D01*
X120723000Y-109084667D01*
X120712003Y-108973014D01*
X120668546Y-108829753D01*
X120665992Y-108824974D01*
X120597974Y-108697723D01*
X120526799Y-108610997D01*
X120503001Y-108581999D01*
X120474004Y-108558202D01*
X119942404Y-108026603D01*
X120024469Y-107926606D01*
X120163625Y-107666264D01*
X120249316Y-107383777D01*
X120278251Y-107090000D01*
X120249316Y-106796223D01*
X120163625Y-106513736D01*
X120024469Y-106253394D01*
X119837197Y-106025203D01*
X119609006Y-105837931D01*
X119575460Y-105820000D01*
X119609006Y-105802069D01*
X119837197Y-105614797D01*
X120024469Y-105386606D01*
X120163625Y-105126264D01*
X120249316Y-104843777D01*
X120278251Y-104550000D01*
X120249316Y-104256223D01*
X120163625Y-103973736D01*
X120024469Y-103713394D01*
X119837197Y-103485203D01*
X119609006Y-103297931D01*
X119575460Y-103280000D01*
X119609006Y-103262069D01*
X119837197Y-103074797D01*
X120024469Y-102846606D01*
X120163625Y-102586264D01*
X120249316Y-102303777D01*
X120278251Y-102010000D01*
X120249316Y-101716223D01*
X120163625Y-101433736D01*
X120024469Y-101173394D01*
X119837197Y-100945203D01*
X119609006Y-100757931D01*
X119575460Y-100740000D01*
X119609006Y-100722069D01*
X119837197Y-100534797D01*
X120024469Y-100306606D01*
X120104074Y-100157675D01*
X123546001Y-103599603D01*
X123546001Y-109511649D01*
X123311486Y-109465000D01*
X123048514Y-109465000D01*
X122790595Y-109516304D01*
X122547641Y-109616939D01*
X122328987Y-109763038D01*
X122143038Y-109948987D01*
X121996939Y-110167641D01*
X121896304Y-110410595D01*
X121845000Y-110668514D01*
X121845000Y-110931486D01*
X121896304Y-111189405D01*
X121996939Y-111432359D01*
X122143038Y-111651013D01*
X122328987Y-111836962D01*
X122547641Y-111983061D01*
X122790595Y-112083696D01*
X123048514Y-112135000D01*
X123311486Y-112135000D01*
X123546000Y-112088352D01*
X123546000Y-117868678D01*
X123542324Y-117906000D01*
X123546000Y-117943322D01*
X123546000Y-117943332D01*
X123556997Y-118054985D01*
X123600454Y-118198246D01*
X123671026Y-118330276D01*
X123707096Y-118374227D01*
X123765999Y-118446001D01*
X123795003Y-118469804D01*
X138483629Y-133158431D01*
X138453001Y-133312408D01*
X138453001Y-133587592D01*
X138506687Y-133857490D01*
X138611996Y-134111727D01*
X138764881Y-134340535D01*
X138959466Y-134535120D01*
X139188274Y-134688005D01*
X139442511Y-134793314D01*
X139712409Y-134847000D01*
X139987593Y-134847000D01*
X140257491Y-134793314D01*
X140511728Y-134688005D01*
X140740536Y-134535120D01*
X140935121Y-134340535D01*
X141088006Y-134111727D01*
X141193315Y-133857490D01*
X141247001Y-133587592D01*
X141247001Y-133312408D01*
X141193315Y-133042510D01*
X141088006Y-132788273D01*
X140935121Y-132559465D01*
X140740536Y-132364880D01*
X140511728Y-132211995D01*
X140257491Y-132106686D01*
X139987593Y-132053000D01*
X139712409Y-132053000D01*
X139558430Y-132083628D01*
X129464523Y-121989721D01*
X134115000Y-121989721D01*
X134115000Y-122410279D01*
X134197047Y-122822756D01*
X134357988Y-123211302D01*
X134591637Y-123560983D01*
X134889017Y-123858363D01*
X135238698Y-124092012D01*
X135627244Y-124252953D01*
X136039721Y-124335000D01*
X136460279Y-124335000D01*
X136872756Y-124252953D01*
X137261302Y-124092012D01*
X137610983Y-123858363D01*
X137908363Y-123560983D01*
X138142012Y-123211302D01*
X138302953Y-122822756D01*
X138385000Y-122410279D01*
X138385000Y-121989721D01*
X138302953Y-121577244D01*
X138142012Y-121188698D01*
X137908363Y-120839017D01*
X137610983Y-120541637D01*
X137261302Y-120307988D01*
X136872756Y-120147047D01*
X136460279Y-120065000D01*
X136039721Y-120065000D01*
X135627244Y-120147047D01*
X135238698Y-120307988D01*
X134889017Y-120541637D01*
X134591637Y-120839017D01*
X134357988Y-121188698D01*
X134197047Y-121577244D01*
X134115000Y-121989721D01*
X129464523Y-121989721D01*
X125066000Y-117591199D01*
X125066000Y-105388072D01*
X126750000Y-105388072D01*
X126874482Y-105375812D01*
X126994180Y-105339502D01*
X127104494Y-105280537D01*
X127201185Y-105201185D01*
X127280537Y-105104494D01*
X127339502Y-104994180D01*
X127345056Y-104975873D01*
X127411495Y-105042312D01*
X127662905Y-105210299D01*
X127942257Y-105326011D01*
X128238816Y-105385000D01*
X128541184Y-105385000D01*
X128798930Y-105333731D01*
X130040001Y-106574803D01*
X130040000Y-109702225D01*
X129948987Y-109763038D01*
X129763038Y-109948987D01*
X129616939Y-110167641D01*
X129516304Y-110410595D01*
X129465000Y-110668514D01*
X129465000Y-110931486D01*
X129516304Y-111189405D01*
X129616939Y-111432359D01*
X129763038Y-111651013D01*
X129948987Y-111836962D01*
X130167641Y-111983061D01*
X130410595Y-112083696D01*
X130668514Y-112135000D01*
X130931486Y-112135000D01*
X131189405Y-112083696D01*
X131432359Y-111983061D01*
X131651013Y-111836962D01*
X131836962Y-111651013D01*
X131983061Y-111432359D01*
X132083696Y-111189405D01*
X132135000Y-110931486D01*
X132135000Y-110718514D01*
X132245000Y-110718514D01*
X132245000Y-110981486D01*
X132296304Y-111239405D01*
X132396939Y-111482359D01*
X132543038Y-111701013D01*
X132728987Y-111886962D01*
X132947641Y-112033061D01*
X133190595Y-112133696D01*
X133297075Y-112154877D01*
X134873100Y-113730902D01*
X134896899Y-113759901D01*
X135012624Y-113854874D01*
X135144653Y-113925446D01*
X135287914Y-113968903D01*
X135399567Y-113979900D01*
X135399576Y-113979900D01*
X135436899Y-113983576D01*
X135474222Y-113979900D01*
X148240001Y-113979900D01*
X148240000Y-135640000D01*
X136693322Y-135640000D01*
X136655999Y-135636324D01*
X136618676Y-135640000D01*
X136618667Y-135640000D01*
X136507014Y-135650997D01*
X136363753Y-135694454D01*
X136231724Y-135765026D01*
X136115999Y-135859999D01*
X136092196Y-135889003D01*
X135839003Y-136142196D01*
X135809999Y-136165999D01*
X135754871Y-136233174D01*
X135715026Y-136281724D01*
X135671761Y-136362667D01*
X135644454Y-136413754D01*
X135600997Y-136557015D01*
X135590000Y-136668668D01*
X135590000Y-136668678D01*
X135586324Y-136706000D01*
X135590000Y-136743323D01*
X135590000Y-137277659D01*
X135459465Y-137364880D01*
X135264880Y-137559465D01*
X135111995Y-137788273D01*
X135006686Y-138042510D01*
X134953000Y-138312408D01*
X134953000Y-138587592D01*
X135006686Y-138857490D01*
X135111995Y-139111727D01*
X135264880Y-139340535D01*
X135459465Y-139535120D01*
X135688273Y-139688005D01*
X135942510Y-139793314D01*
X136212408Y-139847000D01*
X136487592Y-139847000D01*
X136757490Y-139793314D01*
X137011727Y-139688005D01*
X137240535Y-139535120D01*
X137360090Y-139415565D01*
X142564041Y-139415565D01*
X142631021Y-139655656D01*
X142880049Y-139772756D01*
X143147136Y-139839023D01*
X143422018Y-139851910D01*
X143694134Y-139810922D01*
X143953024Y-139717636D01*
X144068981Y-139655656D01*
X144135961Y-139415565D01*
X143350001Y-138629605D01*
X142564041Y-139415565D01*
X137360090Y-139415565D01*
X137435120Y-139340535D01*
X137588005Y-139111727D01*
X137693314Y-138857490D01*
X137747000Y-138587592D01*
X137747000Y-138522017D01*
X141948091Y-138522017D01*
X141989079Y-138794133D01*
X142082365Y-139053023D01*
X142144345Y-139168980D01*
X142384436Y-139235960D01*
X143170396Y-138450000D01*
X143529606Y-138450000D01*
X144315566Y-139235960D01*
X144555657Y-139168980D01*
X144672757Y-138919952D01*
X144739024Y-138652865D01*
X144751911Y-138377983D01*
X144710923Y-138105867D01*
X144617637Y-137846977D01*
X144555657Y-137731020D01*
X144315566Y-137664040D01*
X143529606Y-138450000D01*
X143170396Y-138450000D01*
X142384436Y-137664040D01*
X142144345Y-137731020D01*
X142027245Y-137980048D01*
X141960978Y-138247135D01*
X141948091Y-138522017D01*
X137747000Y-138522017D01*
X137747000Y-138312408D01*
X137693314Y-138042510D01*
X137588005Y-137788273D01*
X137435120Y-137559465D01*
X137240535Y-137364880D01*
X137110000Y-137277659D01*
X137110000Y-137160000D01*
X142809043Y-137160000D01*
X142746978Y-137182364D01*
X142631021Y-137244344D01*
X142564041Y-137484435D01*
X143350001Y-138270395D01*
X144135961Y-137484435D01*
X144068981Y-137244344D01*
X143889613Y-137160000D01*
X148962667Y-137160000D01*
X149000000Y-137163677D01*
X149037333Y-137160000D01*
X160084511Y-137160000D01*
X159838275Y-137261995D01*
X159609467Y-137414880D01*
X159414882Y-137609465D01*
X159261997Y-137838273D01*
X159156688Y-138092510D01*
X159103002Y-138362408D01*
X159103002Y-138637592D01*
X159156688Y-138907490D01*
X159261997Y-139161727D01*
X159414882Y-139390535D01*
X159609467Y-139585120D01*
X159838275Y-139738005D01*
X160092512Y-139843314D01*
X160362410Y-139897000D01*
X160637594Y-139897000D01*
X160907492Y-139843314D01*
X161161729Y-139738005D01*
X161390537Y-139585120D01*
X161585122Y-139390535D01*
X161738007Y-139161727D01*
X161843316Y-138907490D01*
X161897002Y-138637592D01*
X161897002Y-138362408D01*
X161843316Y-138092510D01*
X161738007Y-137838273D01*
X161585122Y-137609465D01*
X161390537Y-137414880D01*
X161161729Y-137261995D01*
X160915493Y-137160000D01*
X171812001Y-137160000D01*
X171812001Y-137334666D01*
X171808324Y-137371998D01*
X171812001Y-137409331D01*
X171814870Y-137438455D01*
X171822998Y-137520983D01*
X171866454Y-137664244D01*
X171937026Y-137796274D01*
X171982558Y-137851754D01*
X172032000Y-137911999D01*
X172060998Y-137935797D01*
X172383630Y-138258430D01*
X172353002Y-138412408D01*
X172353002Y-138687592D01*
X172406688Y-138957490D01*
X172511997Y-139211727D01*
X172664882Y-139440535D01*
X172859467Y-139635120D01*
X173088275Y-139788005D01*
X173342512Y-139893314D01*
X173612410Y-139947000D01*
X173887594Y-139947000D01*
X174157492Y-139893314D01*
X174411729Y-139788005D01*
X174640537Y-139635120D01*
X174835122Y-139440535D01*
X174988007Y-139211727D01*
X175093316Y-138957490D01*
X175147002Y-138687592D01*
X175147002Y-138412408D01*
X175093316Y-138142510D01*
X174988007Y-137888273D01*
X174835122Y-137659465D01*
X174640537Y-137464880D01*
X174411729Y-137311995D01*
X174157492Y-137206686D01*
X173887594Y-137153000D01*
X173612410Y-137153000D01*
X173458432Y-137183628D01*
X173332000Y-137057197D01*
X173332000Y-136437332D01*
X173335677Y-136400000D01*
X173321003Y-136251014D01*
X173277546Y-136107753D01*
X173206974Y-135975724D01*
X173112001Y-135859999D01*
X172996276Y-135765026D01*
X172864247Y-135694454D01*
X172720986Y-135650997D01*
X172609333Y-135640000D01*
X172572000Y-135636323D01*
X172534667Y-135640000D01*
X149760000Y-135640000D01*
X149760000Y-133362408D01*
X155602999Y-133362408D01*
X155602999Y-133637592D01*
X155656685Y-133907490D01*
X155761994Y-134161727D01*
X155914879Y-134390535D01*
X156109464Y-134585120D01*
X156338272Y-134738005D01*
X156592509Y-134843314D01*
X156862407Y-134897000D01*
X157137591Y-134897000D01*
X157407489Y-134843314D01*
X157661726Y-134738005D01*
X157890534Y-134585120D01*
X158085119Y-134390535D01*
X158238004Y-134161727D01*
X158343313Y-133907490D01*
X158396999Y-133637592D01*
X158396999Y-133362408D01*
X158343313Y-133092510D01*
X158238004Y-132838273D01*
X158085119Y-132609465D01*
X157890534Y-132414880D01*
X157661726Y-132261995D01*
X157407489Y-132156686D01*
X157137591Y-132103000D01*
X156862407Y-132103000D01*
X156592509Y-132156686D01*
X156338272Y-132261995D01*
X156109464Y-132414880D01*
X155914879Y-132609465D01*
X155761994Y-132838273D01*
X155656685Y-133092510D01*
X155602999Y-133362408D01*
X149760000Y-133362408D01*
X149760000Y-121989721D01*
X156715000Y-121989721D01*
X156715000Y-122410279D01*
X156797047Y-122822756D01*
X156957988Y-123211302D01*
X157191637Y-123560983D01*
X157489017Y-123858363D01*
X157838698Y-124092012D01*
X158227244Y-124252953D01*
X158639721Y-124335000D01*
X159060279Y-124335000D01*
X159472756Y-124252953D01*
X159861302Y-124092012D01*
X160210983Y-123858363D01*
X160508363Y-123560983D01*
X160742012Y-123211302D01*
X160902953Y-122822756D01*
X160985000Y-122410279D01*
X160985000Y-121989721D01*
X160902953Y-121577244D01*
X160742012Y-121188698D01*
X160508363Y-120839017D01*
X160210983Y-120541637D01*
X159861302Y-120307988D01*
X159472756Y-120147047D01*
X159060279Y-120065000D01*
X158639721Y-120065000D01*
X158227244Y-120147047D01*
X157838698Y-120307988D01*
X157489017Y-120541637D01*
X157191637Y-120839017D01*
X156957988Y-121188698D01*
X156797047Y-121577244D01*
X156715000Y-121989721D01*
X149760000Y-121989721D01*
X149760000Y-113524701D01*
X151671174Y-111613528D01*
X151763038Y-111751013D01*
X151948987Y-111936962D01*
X152167641Y-112083061D01*
X152410595Y-112183696D01*
X152668514Y-112235000D01*
X152931486Y-112235000D01*
X153038844Y-112213645D01*
X169490001Y-128664803D01*
X169490000Y-132377658D01*
X169359464Y-132464880D01*
X169164879Y-132659465D01*
X169011994Y-132888273D01*
X168906685Y-133142510D01*
X168852999Y-133412408D01*
X168852999Y-133687592D01*
X168906685Y-133957490D01*
X169011994Y-134211727D01*
X169164879Y-134440535D01*
X169359464Y-134635120D01*
X169588272Y-134788005D01*
X169842509Y-134893314D01*
X170112407Y-134947000D01*
X170387591Y-134947000D01*
X170657489Y-134893314D01*
X170911726Y-134788005D01*
X171140534Y-134635120D01*
X171335119Y-134440535D01*
X171488004Y-134211727D01*
X171593313Y-133957490D01*
X171646999Y-133687592D01*
X171646999Y-133412408D01*
X171593313Y-133142510D01*
X171488004Y-132888273D01*
X171335119Y-132659465D01*
X171140534Y-132464880D01*
X171010000Y-132377660D01*
X171010000Y-128387325D01*
X171013676Y-128350000D01*
X171010000Y-128312675D01*
X171010000Y-128312667D01*
X170999003Y-128201014D01*
X170955546Y-128057753D01*
X170884974Y-127925724D01*
X170790001Y-127809999D01*
X170761003Y-127786201D01*
X166741239Y-123766438D01*
X166857490Y-123743314D01*
X167111727Y-123638005D01*
X167340535Y-123485120D01*
X167535120Y-123290535D01*
X167688005Y-123061727D01*
X167793314Y-122807490D01*
X167847000Y-122537592D01*
X167847000Y-122262408D01*
X182653000Y-122262408D01*
X182653000Y-122537592D01*
X182706686Y-122807490D01*
X182811995Y-123061727D01*
X182964880Y-123290535D01*
X183159465Y-123485120D01*
X183388273Y-123638005D01*
X183642510Y-123743314D01*
X183912408Y-123797000D01*
X184187592Y-123797000D01*
X184457490Y-123743314D01*
X184711727Y-123638005D01*
X184940535Y-123485120D01*
X185135120Y-123290535D01*
X185288005Y-123061727D01*
X185393314Y-122807490D01*
X185447000Y-122537592D01*
X185447000Y-122262408D01*
X185393314Y-121992510D01*
X185288005Y-121738273D01*
X185135120Y-121509465D01*
X184940535Y-121314880D01*
X184711727Y-121161995D01*
X184457490Y-121056686D01*
X184187592Y-121003000D01*
X183912408Y-121003000D01*
X183642510Y-121056686D01*
X183388273Y-121161995D01*
X183159465Y-121314880D01*
X182964880Y-121509465D01*
X182811995Y-121738273D01*
X182706686Y-121992510D01*
X182653000Y-122262408D01*
X167847000Y-122262408D01*
X167793314Y-121992510D01*
X167688005Y-121738273D01*
X167535120Y-121509465D01*
X167340535Y-121314880D01*
X167111727Y-121161995D01*
X166857490Y-121056686D01*
X166587592Y-121003000D01*
X166312408Y-121003000D01*
X166042510Y-121056686D01*
X165788273Y-121161995D01*
X165559465Y-121314880D01*
X165364880Y-121509465D01*
X165211995Y-121738273D01*
X165106686Y-121992510D01*
X165083562Y-122108761D01*
X154113645Y-111138844D01*
X154135000Y-111031486D01*
X154135000Y-110768514D01*
X154083696Y-110510595D01*
X153983061Y-110267641D01*
X153836962Y-110048987D01*
X153651013Y-109863038D01*
X153513528Y-109771174D01*
X157499403Y-105785300D01*
X157762667Y-105785300D01*
X157800000Y-105788977D01*
X157948986Y-105774303D01*
X158092247Y-105730846D01*
X158224276Y-105660274D01*
X158340001Y-105565301D01*
X158434974Y-105449576D01*
X158494575Y-105338072D01*
X158600000Y-105338072D01*
X158724482Y-105325812D01*
X158844180Y-105289502D01*
X158954494Y-105230537D01*
X159051185Y-105151185D01*
X159130537Y-105054494D01*
X159189502Y-104944180D01*
X159205117Y-104892702D01*
X160486903Y-104892702D01*
X160558486Y-105136671D01*
X160813996Y-105257571D01*
X161088184Y-105326300D01*
X161370512Y-105340217D01*
X161650130Y-105298787D01*
X161916292Y-105203603D01*
X162041514Y-105136671D01*
X162113097Y-104892702D01*
X161300000Y-104079605D01*
X160486903Y-104892702D01*
X159205117Y-104892702D01*
X159225812Y-104824482D01*
X159238072Y-104700000D01*
X159238072Y-103970512D01*
X159859783Y-103970512D01*
X159901213Y-104250130D01*
X159996397Y-104516292D01*
X160063329Y-104641514D01*
X160307298Y-104713097D01*
X161120395Y-103900000D01*
X161479605Y-103900000D01*
X162292702Y-104713097D01*
X162536671Y-104641514D01*
X162657571Y-104386004D01*
X162726300Y-104111816D01*
X162740217Y-103829488D01*
X162698787Y-103549870D01*
X162603603Y-103283708D01*
X162536671Y-103158486D01*
X162292702Y-103086903D01*
X161479605Y-103900000D01*
X161120395Y-103900000D01*
X160307298Y-103086903D01*
X160063329Y-103158486D01*
X159942429Y-103413996D01*
X159873700Y-103688184D01*
X159859783Y-103970512D01*
X159238072Y-103970512D01*
X159238072Y-103100000D01*
X159225812Y-102975518D01*
X159205118Y-102907298D01*
X160486903Y-102907298D01*
X161300000Y-103720395D01*
X162113097Y-102907298D01*
X162041514Y-102663329D01*
X161786004Y-102542429D01*
X161511816Y-102473700D01*
X161229488Y-102459783D01*
X160949870Y-102501213D01*
X160683708Y-102596397D01*
X160558486Y-102663329D01*
X160486903Y-102907298D01*
X159205118Y-102907298D01*
X159189502Y-102855820D01*
X159130537Y-102745506D01*
X159051185Y-102648815D01*
X158954494Y-102569463D01*
X158935000Y-102559043D01*
X158935000Y-93112408D01*
X159453000Y-93112408D01*
X159453000Y-93387592D01*
X159506686Y-93657490D01*
X159611995Y-93911727D01*
X159764880Y-94140535D01*
X159959465Y-94335120D01*
X160188273Y-94488005D01*
X160442510Y-94593314D01*
X160712408Y-94647000D01*
X160987592Y-94647000D01*
X161257490Y-94593314D01*
X161511727Y-94488005D01*
X161740535Y-94335120D01*
X161935120Y-94140535D01*
X162088005Y-93911727D01*
X162193314Y-93657490D01*
X162247000Y-93387592D01*
X162247000Y-93112408D01*
X162193314Y-92842510D01*
X162088005Y-92588273D01*
X161935120Y-92359465D01*
X161740535Y-92164880D01*
X161511727Y-92011995D01*
X161376290Y-91955895D01*
X160850000Y-91429605D01*
X160323710Y-91955895D01*
X160188273Y-92011995D01*
X159959465Y-92164880D01*
X159764880Y-92359465D01*
X159611995Y-92588273D01*
X159506686Y-92842510D01*
X159453000Y-93112408D01*
X158935000Y-93112408D01*
X158935000Y-91322017D01*
X159448090Y-91322017D01*
X159489078Y-91594133D01*
X159582364Y-91853023D01*
X159644344Y-91968980D01*
X159884435Y-92035960D01*
X160670395Y-91250000D01*
X161029605Y-91250000D01*
X161815565Y-92035960D01*
X162055656Y-91968980D01*
X162172756Y-91719952D01*
X162239023Y-91452865D01*
X162251910Y-91177983D01*
X162210922Y-90905867D01*
X162117636Y-90646977D01*
X162055656Y-90531020D01*
X161815565Y-90464040D01*
X161029605Y-91250000D01*
X160670395Y-91250000D01*
X159884435Y-90464040D01*
X159644344Y-90531020D01*
X159527244Y-90780048D01*
X159460977Y-91047135D01*
X159448090Y-91322017D01*
X158935000Y-91322017D01*
X158935000Y-83612408D01*
X159453000Y-83612408D01*
X159453000Y-83887592D01*
X159506686Y-84157490D01*
X159611995Y-84411727D01*
X159764880Y-84640535D01*
X159959465Y-84835120D01*
X160188273Y-84988005D01*
X160217231Y-85000000D01*
X160188273Y-85011995D01*
X159959465Y-85164880D01*
X159764880Y-85359465D01*
X159611995Y-85588273D01*
X159506686Y-85842510D01*
X159453000Y-86112408D01*
X159453000Y-86387592D01*
X159506686Y-86657490D01*
X159611995Y-86911727D01*
X159764880Y-87140535D01*
X159959465Y-87335120D01*
X160188273Y-87488005D01*
X160217231Y-87500000D01*
X160188273Y-87511995D01*
X159959465Y-87664880D01*
X159764880Y-87859465D01*
X159611995Y-88088273D01*
X159506686Y-88342510D01*
X159453000Y-88612408D01*
X159453000Y-88887592D01*
X159506686Y-89157490D01*
X159611995Y-89411727D01*
X159764880Y-89640535D01*
X159959465Y-89835120D01*
X160188273Y-89988005D01*
X160215401Y-89999242D01*
X160131020Y-90044344D01*
X160064040Y-90284435D01*
X160850000Y-91070395D01*
X161635960Y-90284435D01*
X161568980Y-90044344D01*
X161478467Y-90001782D01*
X161511727Y-89988005D01*
X161740535Y-89835120D01*
X161935120Y-89640535D01*
X162088005Y-89411727D01*
X162193314Y-89157490D01*
X162247000Y-88887592D01*
X162247000Y-88612408D01*
X162193314Y-88342510D01*
X162088005Y-88088273D01*
X161935120Y-87859465D01*
X161740535Y-87664880D01*
X161511727Y-87511995D01*
X161482769Y-87500000D01*
X161511727Y-87488005D01*
X161740535Y-87335120D01*
X161935120Y-87140535D01*
X162088005Y-86911727D01*
X162193314Y-86657490D01*
X162247000Y-86387592D01*
X162247000Y-86112408D01*
X162193314Y-85842510D01*
X162088005Y-85588273D01*
X161935120Y-85359465D01*
X161740535Y-85164880D01*
X161511727Y-85011995D01*
X161482769Y-85000000D01*
X161511727Y-84988005D01*
X161740535Y-84835120D01*
X161935120Y-84640535D01*
X162088005Y-84411727D01*
X162193314Y-84157490D01*
X162247000Y-83887592D01*
X162247000Y-83612408D01*
X162193314Y-83342510D01*
X162088005Y-83088273D01*
X161935120Y-82859465D01*
X161740535Y-82664880D01*
X161736836Y-82662408D01*
X165153000Y-82662408D01*
X165153000Y-82937592D01*
X165206686Y-83207490D01*
X165311995Y-83461727D01*
X165464880Y-83690535D01*
X165659465Y-83885120D01*
X165888273Y-84038005D01*
X166142510Y-84143314D01*
X166412408Y-84197000D01*
X166687592Y-84197000D01*
X166957490Y-84143314D01*
X167211727Y-84038005D01*
X167440535Y-83885120D01*
X167560090Y-83765565D01*
X183264040Y-83765565D01*
X183331020Y-84005656D01*
X183580048Y-84122756D01*
X183847135Y-84189023D01*
X184122017Y-84201910D01*
X184394133Y-84160922D01*
X184653023Y-84067636D01*
X184768980Y-84005656D01*
X184835960Y-83765565D01*
X184050000Y-82979605D01*
X183264040Y-83765565D01*
X167560090Y-83765565D01*
X167635120Y-83690535D01*
X167788005Y-83461727D01*
X167893314Y-83207490D01*
X167947000Y-82937592D01*
X167947000Y-82872017D01*
X182648090Y-82872017D01*
X182689078Y-83144133D01*
X182782364Y-83403023D01*
X182844344Y-83518980D01*
X183084435Y-83585960D01*
X183870395Y-82800000D01*
X184229605Y-82800000D01*
X185015565Y-83585960D01*
X185255656Y-83518980D01*
X185372756Y-83269952D01*
X185439023Y-83002865D01*
X185451910Y-82727983D01*
X185410922Y-82455867D01*
X185317636Y-82196977D01*
X185255656Y-82081020D01*
X185015565Y-82014040D01*
X184229605Y-82800000D01*
X183870395Y-82800000D01*
X183084435Y-82014040D01*
X182844344Y-82081020D01*
X182727244Y-82330048D01*
X182660977Y-82597135D01*
X182648090Y-82872017D01*
X167947000Y-82872017D01*
X167947000Y-82662408D01*
X167893314Y-82392510D01*
X167788005Y-82138273D01*
X167635120Y-81909465D01*
X167560090Y-81834435D01*
X183264040Y-81834435D01*
X184050000Y-82620395D01*
X184835960Y-81834435D01*
X184768980Y-81594344D01*
X184519952Y-81477244D01*
X184252865Y-81410977D01*
X183977983Y-81398090D01*
X183705867Y-81439078D01*
X183446977Y-81532364D01*
X183331020Y-81594344D01*
X183264040Y-81834435D01*
X167560090Y-81834435D01*
X167440535Y-81714880D01*
X167211727Y-81561995D01*
X166957490Y-81456686D01*
X166687592Y-81403000D01*
X166412408Y-81403000D01*
X166142510Y-81456686D01*
X165888273Y-81561995D01*
X165659465Y-81714880D01*
X165464880Y-81909465D01*
X165311995Y-82138273D01*
X165206686Y-82392510D01*
X165153000Y-82662408D01*
X161736836Y-82662408D01*
X161511727Y-82511995D01*
X161484599Y-82500758D01*
X161568980Y-82455656D01*
X161635960Y-82215565D01*
X160850000Y-81429605D01*
X160064040Y-82215565D01*
X160131020Y-82455656D01*
X160221533Y-82498218D01*
X160188273Y-82511995D01*
X159959465Y-82664880D01*
X159764880Y-82859465D01*
X159611995Y-83088273D01*
X159506686Y-83342510D01*
X159453000Y-83612408D01*
X158935000Y-83612408D01*
X158935000Y-81322017D01*
X159448090Y-81322017D01*
X159489078Y-81594133D01*
X159582364Y-81853023D01*
X159644344Y-81968980D01*
X159884435Y-82035960D01*
X160670395Y-81250000D01*
X161029605Y-81250000D01*
X161815565Y-82035960D01*
X162055656Y-81968980D01*
X162172756Y-81719952D01*
X162239023Y-81452865D01*
X162251910Y-81177983D01*
X162210922Y-80905867D01*
X162117636Y-80646977D01*
X162055656Y-80531020D01*
X161815565Y-80464040D01*
X161029605Y-81250000D01*
X160670395Y-81250000D01*
X159884435Y-80464040D01*
X159644344Y-80531020D01*
X159527244Y-80780048D01*
X159460977Y-81047135D01*
X159448090Y-81322017D01*
X158935000Y-81322017D01*
X158935000Y-79885000D01*
X159572650Y-79885000D01*
X159636815Y-79963185D01*
X159733506Y-80042537D01*
X159843820Y-80101502D01*
X159963518Y-80137812D01*
X160088000Y-80150072D01*
X160101524Y-80150072D01*
X160064040Y-80284435D01*
X160850000Y-81070395D01*
X161635960Y-80284435D01*
X161598476Y-80150072D01*
X161612000Y-80150072D01*
X161736482Y-80137812D01*
X161856180Y-80101502D01*
X161966494Y-80042537D01*
X162063185Y-79963185D01*
X162142537Y-79866494D01*
X162201502Y-79756180D01*
X162237812Y-79636482D01*
X162250072Y-79512000D01*
X162250072Y-77988000D01*
X162237812Y-77863518D01*
X162201502Y-77743820D01*
X162142537Y-77633506D01*
X162063185Y-77536815D01*
X161966494Y-77457463D01*
X161856180Y-77398498D01*
X161736482Y-77362188D01*
X161612000Y-77349928D01*
X160088000Y-77349928D01*
X159963518Y-77362188D01*
X159843820Y-77398498D01*
X159733506Y-77457463D01*
X159636815Y-77536815D01*
X159572650Y-77615000D01*
X158405741Y-77615000D01*
X158349999Y-77609510D01*
X158294257Y-77615000D01*
X158294248Y-77615000D01*
X158127501Y-77631423D01*
X157913553Y-77696324D01*
X157716377Y-77801716D01*
X157543551Y-77943551D01*
X157508004Y-77986865D01*
X157036860Y-78458009D01*
X156993552Y-78493551D01*
X156851717Y-78666377D01*
X156807020Y-78750000D01*
X156746324Y-78863554D01*
X156681423Y-79077502D01*
X156659509Y-79300000D01*
X156665001Y-79355762D01*
X156665000Y-102559043D01*
X156645506Y-102569463D01*
X156548815Y-102648815D01*
X156469463Y-102745506D01*
X156410498Y-102855820D01*
X156374188Y-102975518D01*
X156361928Y-103100000D01*
X156361928Y-104700000D01*
X156368488Y-104766609D01*
X148675199Y-112459900D01*
X135751702Y-112459900D01*
X134766312Y-111474511D01*
X134863696Y-111239405D01*
X134915000Y-110981486D01*
X134915000Y-110718514D01*
X134863696Y-110460595D01*
X134763061Y-110217641D01*
X134616962Y-109998987D01*
X134431013Y-109813038D01*
X134212359Y-109666939D01*
X133969405Y-109566304D01*
X133711486Y-109515000D01*
X133448514Y-109515000D01*
X133190595Y-109566304D01*
X132947641Y-109666939D01*
X132728987Y-109813038D01*
X132543038Y-109998987D01*
X132396939Y-110217641D01*
X132296304Y-110460595D01*
X132245000Y-110718514D01*
X132135000Y-110718514D01*
X132135000Y-110668514D01*
X132083696Y-110410595D01*
X131983061Y-110167641D01*
X131836962Y-109948987D01*
X131651013Y-109763038D01*
X131560000Y-109702225D01*
X131560000Y-106297325D01*
X131563676Y-106260000D01*
X131560000Y-106222675D01*
X131560000Y-106222667D01*
X131549003Y-106111014D01*
X131505546Y-105967753D01*
X131434974Y-105835724D01*
X131340001Y-105719999D01*
X131311003Y-105696201D01*
X129873731Y-104258930D01*
X129925000Y-104001184D01*
X129925000Y-103698816D01*
X129866011Y-103402257D01*
X129750299Y-103122905D01*
X129582312Y-102871495D01*
X129368505Y-102657688D01*
X129117095Y-102489701D01*
X128837743Y-102373989D01*
X128541184Y-102315000D01*
X128238816Y-102315000D01*
X127942257Y-102373989D01*
X127662905Y-102489701D01*
X127411495Y-102657688D01*
X127345056Y-102724127D01*
X127339502Y-102705820D01*
X127280537Y-102595506D01*
X127201185Y-102498815D01*
X127104494Y-102419463D01*
X126994180Y-102360498D01*
X126874482Y-102324188D01*
X126750000Y-102311928D01*
X126544575Y-102311928D01*
X126484974Y-102200424D01*
X126413799Y-102113697D01*
X126390001Y-102084699D01*
X126361003Y-102060901D01*
X120731000Y-96430899D01*
X120731000Y-91367122D01*
X120734676Y-91329799D01*
X120731000Y-91292476D01*
X120731000Y-91292467D01*
X120720003Y-91180814D01*
X120676546Y-91037553D01*
X120661766Y-91009902D01*
X120605974Y-90905523D01*
X120534799Y-90818797D01*
X120511001Y-90789799D01*
X120482002Y-90766001D01*
X119951509Y-90235508D01*
X120024469Y-90146606D01*
X120163625Y-89886264D01*
X120249316Y-89603777D01*
X120278251Y-89310000D01*
X120249316Y-89016223D01*
X120163625Y-88733736D01*
X120024469Y-88473394D01*
X119837197Y-88245203D01*
X119609006Y-88057931D01*
X119575460Y-88040000D01*
X119609006Y-88022069D01*
X119837197Y-87834797D01*
X119949029Y-87698530D01*
X125215498Y-92965000D01*
X124979872Y-92965000D01*
X124548075Y-93050890D01*
X124141331Y-93219369D01*
X123775271Y-93463962D01*
X123463962Y-93775271D01*
X123219369Y-94141331D01*
X123050890Y-94548075D01*
X122965000Y-94979872D01*
X122965000Y-95420128D01*
X123050890Y-95851925D01*
X123219369Y-96258669D01*
X123463962Y-96624729D01*
X123775271Y-96936038D01*
X124141331Y-97180631D01*
X124548075Y-97349110D01*
X124979872Y-97435000D01*
X125420128Y-97435000D01*
X125851925Y-97349110D01*
X126258669Y-97180631D01*
X126624729Y-96936038D01*
X126936038Y-96624729D01*
X127180631Y-96258669D01*
X127349110Y-95851925D01*
X127435000Y-95420128D01*
X127435000Y-95184502D01*
X134731475Y-102480978D01*
X134648815Y-102548815D01*
X134569463Y-102645506D01*
X134510498Y-102755820D01*
X134474188Y-102875518D01*
X134461928Y-103000000D01*
X134461928Y-104800000D01*
X134474188Y-104924482D01*
X134510498Y-105044180D01*
X134569463Y-105154494D01*
X134648815Y-105251185D01*
X134745506Y-105330537D01*
X134855820Y-105389502D01*
X134975518Y-105425812D01*
X135100000Y-105438072D01*
X136900000Y-105438072D01*
X137024482Y-105425812D01*
X137144180Y-105389502D01*
X137254494Y-105330537D01*
X137351185Y-105251185D01*
X137430537Y-105154494D01*
X137489502Y-105044180D01*
X137495056Y-105025873D01*
X137561495Y-105092312D01*
X137780001Y-105238313D01*
X137780000Y-108152677D01*
X137776324Y-108190000D01*
X137780000Y-108227322D01*
X137780000Y-108227332D01*
X137790997Y-108338985D01*
X137814056Y-108415000D01*
X137834454Y-108482246D01*
X137905026Y-108614276D01*
X137944871Y-108662826D01*
X137999999Y-108730001D01*
X138029003Y-108753804D01*
X139886355Y-110611157D01*
X139865000Y-110718514D01*
X139865000Y-110981486D01*
X139916304Y-111239405D01*
X140016939Y-111482359D01*
X140163038Y-111701013D01*
X140348987Y-111886962D01*
X140567641Y-112033061D01*
X140810595Y-112133696D01*
X141068514Y-112185000D01*
X141331486Y-112185000D01*
X141589405Y-112133696D01*
X141832359Y-112033061D01*
X142051013Y-111886962D01*
X142236962Y-111701013D01*
X142383061Y-111482359D01*
X142483696Y-111239405D01*
X142484904Y-111233329D01*
X143887284Y-111233329D01*
X143919953Y-111341044D01*
X144030208Y-111578392D01*
X144184649Y-111789670D01*
X144377340Y-111966759D01*
X144600877Y-112102853D01*
X144846670Y-112192722D01*
X145053000Y-112070201D01*
X145053000Y-111027000D01*
X145307000Y-111027000D01*
X145307000Y-112070201D01*
X145513330Y-112192722D01*
X145759123Y-112102853D01*
X145982660Y-111966759D01*
X146175351Y-111789670D01*
X146329792Y-111578392D01*
X146440047Y-111341044D01*
X146472716Y-111233329D01*
X146349374Y-111027000D01*
X145307000Y-111027000D01*
X145053000Y-111027000D01*
X144010626Y-111027000D01*
X143887284Y-111233329D01*
X142484904Y-111233329D01*
X142535000Y-110981486D01*
X142535000Y-110718514D01*
X142504797Y-110566671D01*
X143887284Y-110566671D01*
X144010626Y-110773000D01*
X145053000Y-110773000D01*
X145053000Y-109729799D01*
X145307000Y-109729799D01*
X145307000Y-110773000D01*
X146349374Y-110773000D01*
X146472716Y-110566671D01*
X146440047Y-110458956D01*
X146329792Y-110221608D01*
X146175351Y-110010330D01*
X145982660Y-109833241D01*
X145759123Y-109697147D01*
X145513330Y-109607278D01*
X145307000Y-109729799D01*
X145053000Y-109729799D01*
X144846670Y-109607278D01*
X144600877Y-109697147D01*
X144377340Y-109833241D01*
X144184649Y-110010330D01*
X144030208Y-110221608D01*
X143919953Y-110458956D01*
X143887284Y-110566671D01*
X142504797Y-110566671D01*
X142483696Y-110460595D01*
X142383061Y-110217641D01*
X142236962Y-109998987D01*
X142051013Y-109813038D01*
X141832359Y-109666939D01*
X141589405Y-109566304D01*
X141331486Y-109515000D01*
X141068514Y-109515000D01*
X140961157Y-109536355D01*
X139300000Y-107875199D01*
X139300000Y-105238313D01*
X139518505Y-105092312D01*
X139732312Y-104878505D01*
X139900299Y-104627095D01*
X140016011Y-104347743D01*
X140075000Y-104051184D01*
X140075000Y-103748816D01*
X140016011Y-103452257D01*
X139900299Y-103172905D01*
X139732312Y-102921495D01*
X139518505Y-102707688D01*
X139267095Y-102539701D01*
X138987743Y-102423989D01*
X138691184Y-102365000D01*
X138388816Y-102365000D01*
X138092257Y-102423989D01*
X137812905Y-102539701D01*
X137561495Y-102707688D01*
X137495056Y-102774127D01*
X137489502Y-102755820D01*
X137430537Y-102645506D01*
X137351185Y-102548815D01*
X137254494Y-102469463D01*
X137144180Y-102410498D01*
X137024482Y-102374188D01*
X136900000Y-102361928D01*
X136694575Y-102361928D01*
X136634974Y-102250424D01*
X136593940Y-102200424D01*
X136563799Y-102163696D01*
X136563795Y-102163692D01*
X136540001Y-102134699D01*
X136511008Y-102110905D01*
X120659104Y-86259003D01*
X120635301Y-86229999D01*
X120519576Y-86135026D01*
X120387547Y-86064454D01*
X120244286Y-86020997D01*
X120132633Y-86010000D01*
X120132622Y-86010000D01*
X120095300Y-86006324D01*
X120065044Y-86009304D01*
X120024469Y-85933394D01*
X119837197Y-85705203D01*
X119609006Y-85517931D01*
X119348664Y-85378775D01*
X119066177Y-85293084D01*
X118846019Y-85271400D01*
X118393981Y-85271400D01*
X118173823Y-85293084D01*
X117891336Y-85378775D01*
X117630994Y-85517931D01*
X117402803Y-85705203D01*
X117215531Y-85933394D01*
X117076375Y-86193736D01*
X116990684Y-86476223D01*
X116961749Y-86770000D01*
X116990684Y-87063777D01*
X117076375Y-87346264D01*
X117215531Y-87606606D01*
X117402803Y-87834797D01*
X117630994Y-88022069D01*
X117664540Y-88040000D01*
X117630994Y-88057931D01*
X117402803Y-88245203D01*
X117215531Y-88473394D01*
X117076375Y-88733736D01*
X116990684Y-89016223D01*
X116961749Y-89310000D01*
X116990684Y-89603777D01*
X117076375Y-89886264D01*
X117215531Y-90146606D01*
X117402803Y-90374797D01*
X117630994Y-90562069D01*
X117664540Y-90580000D01*
X117630994Y-90597931D01*
X117402803Y-90785203D01*
X117215531Y-91013394D01*
X117076375Y-91273736D01*
X116990684Y-91556223D01*
X116961749Y-91850000D01*
X116990684Y-92143777D01*
X117076375Y-92426264D01*
X117215531Y-92686606D01*
X117402803Y-92914797D01*
X117630994Y-93102069D01*
X117664540Y-93120000D01*
X117630994Y-93137931D01*
X117402803Y-93325203D01*
X117215531Y-93553394D01*
X117076375Y-93813736D01*
X116990684Y-94096223D01*
X116961749Y-94390000D01*
X116990684Y-94683777D01*
X117076375Y-94966264D01*
X117215531Y-95226606D01*
X117402803Y-95454797D01*
X117630994Y-95642069D01*
X117664540Y-95660000D01*
X117630994Y-95677931D01*
X117402803Y-95865203D01*
X117215531Y-96093394D01*
X117076375Y-96353736D01*
X116990684Y-96636223D01*
X116961749Y-96930000D01*
X116990684Y-97223777D01*
X117076375Y-97506264D01*
X117215531Y-97766606D01*
X117402803Y-97994797D01*
X117630994Y-98182069D01*
X117664540Y-98200000D01*
X117630994Y-98217931D01*
X117402803Y-98405203D01*
X117215531Y-98633394D01*
X117076375Y-98893736D01*
X116990684Y-99176223D01*
X116961749Y-99470000D01*
X116990684Y-99763777D01*
X117076375Y-100046264D01*
X117215531Y-100306606D01*
X117402803Y-100534797D01*
X117630994Y-100722069D01*
X117664540Y-100740000D01*
X117630994Y-100757931D01*
X117402803Y-100945203D01*
X117215531Y-101173394D01*
X117076375Y-101433736D01*
X116990684Y-101716223D01*
X116961749Y-102010000D01*
X116990684Y-102303777D01*
X117076375Y-102586264D01*
X117215531Y-102846606D01*
X117402803Y-103074797D01*
X117630994Y-103262069D01*
X117664540Y-103280000D01*
X117630994Y-103297931D01*
X117402803Y-103485203D01*
X117215531Y-103713394D01*
X117076375Y-103973736D01*
X116990684Y-104256223D01*
X116961749Y-104550000D01*
X116990684Y-104843777D01*
X117076375Y-105126264D01*
X117215531Y-105386606D01*
X117402803Y-105614797D01*
X117630994Y-105802069D01*
X117664540Y-105820000D01*
X117630994Y-105837931D01*
X117402803Y-106025203D01*
X117215531Y-106253394D01*
X117076375Y-106513736D01*
X116990684Y-106796223D01*
X116961749Y-107090000D01*
X116990684Y-107383777D01*
X117076375Y-107666264D01*
X117215531Y-107926606D01*
X117304357Y-108034840D01*
X113388998Y-111950201D01*
X113360000Y-111973999D01*
X113336202Y-112002997D01*
X113336201Y-112002998D01*
X113265026Y-112089724D01*
X113194454Y-112221754D01*
X113164180Y-112321558D01*
X113150998Y-112365014D01*
X113141652Y-112459900D01*
X113136324Y-112514000D01*
X113140001Y-112551333D01*
X113140000Y-132127661D01*
X113009468Y-132214880D01*
X112814883Y-132409465D01*
X112661998Y-132638273D01*
X112556689Y-132892510D01*
X112503003Y-133162408D01*
X100660000Y-133162408D01*
X100660000Y-122330000D01*
X101721749Y-122330000D01*
X101750684Y-122623777D01*
X101836375Y-122906264D01*
X101975531Y-123166606D01*
X102162803Y-123394797D01*
X102390994Y-123582069D01*
X102646336Y-123718553D01*
X102670133Y-123797000D01*
X102674454Y-123811246D01*
X102745026Y-123943276D01*
X102784871Y-123991826D01*
X102839999Y-124059001D01*
X102869003Y-124082804D01*
X105140001Y-126353803D01*
X105140000Y-127531956D01*
X104985241Y-127635363D01*
X104785363Y-127835241D01*
X104628320Y-128070273D01*
X104520147Y-128331426D01*
X104465000Y-128608665D01*
X104465000Y-128891335D01*
X104520147Y-129168574D01*
X104628320Y-129429727D01*
X104785363Y-129664759D01*
X104985241Y-129864637D01*
X105220273Y-130021680D01*
X105481426Y-130129853D01*
X105758665Y-130185000D01*
X106041335Y-130185000D01*
X106318574Y-130129853D01*
X106579727Y-130021680D01*
X106814759Y-129864637D01*
X106936694Y-129742702D01*
X107586903Y-129742702D01*
X107658486Y-129986671D01*
X107913996Y-130107571D01*
X108188184Y-130176300D01*
X108470512Y-130190217D01*
X108750130Y-130148787D01*
X109016292Y-130053603D01*
X109141514Y-129986671D01*
X109213097Y-129742702D01*
X108400000Y-128929605D01*
X107586903Y-129742702D01*
X106936694Y-129742702D01*
X107014637Y-129664759D01*
X107148692Y-129464131D01*
X107163329Y-129491514D01*
X107407298Y-129563097D01*
X108220395Y-128750000D01*
X108579605Y-128750000D01*
X109392702Y-129563097D01*
X109636671Y-129491514D01*
X109757571Y-129236004D01*
X109826300Y-128961816D01*
X109840217Y-128679488D01*
X109798787Y-128399870D01*
X109703603Y-128133708D01*
X109636671Y-128008486D01*
X109392702Y-127936903D01*
X108579605Y-128750000D01*
X108220395Y-128750000D01*
X107407298Y-127936903D01*
X107163329Y-128008486D01*
X107149676Y-128037341D01*
X107014637Y-127835241D01*
X106936694Y-127757298D01*
X107586903Y-127757298D01*
X108400000Y-128570395D01*
X109213097Y-127757298D01*
X109141514Y-127513329D01*
X108886004Y-127392429D01*
X108611816Y-127323700D01*
X108329488Y-127309783D01*
X108049870Y-127351213D01*
X107783708Y-127446397D01*
X107658486Y-127513329D01*
X107586903Y-127757298D01*
X106936694Y-127757298D01*
X106814759Y-127635363D01*
X106660000Y-127531957D01*
X106660000Y-126076322D01*
X106663676Y-126038999D01*
X106660000Y-126001676D01*
X106660000Y-126001667D01*
X106649003Y-125890014D01*
X106605546Y-125746753D01*
X106534974Y-125614724D01*
X106440001Y-125498999D01*
X106411003Y-125475201D01*
X104450769Y-123514968D01*
X104597197Y-123394797D01*
X104784469Y-123166606D01*
X104923625Y-122906264D01*
X105009316Y-122623777D01*
X105038251Y-122330000D01*
X105009316Y-122036223D01*
X104923625Y-121753736D01*
X104784469Y-121493394D01*
X104597197Y-121265203D01*
X104369006Y-121077931D01*
X104329053Y-121056576D01*
X104531729Y-120908486D01*
X104730733Y-120692035D01*
X104883686Y-120440919D01*
X104984709Y-120164789D01*
X104987358Y-120149026D01*
X104866217Y-119917000D01*
X103507000Y-119917000D01*
X103507000Y-119937000D01*
X103253000Y-119937000D01*
X103253000Y-119917000D01*
X101893783Y-119917000D01*
X101772642Y-120149026D01*
X101775291Y-120164789D01*
X101876314Y-120440919D01*
X102029267Y-120692035D01*
X102228271Y-120908486D01*
X102430947Y-121056576D01*
X102390994Y-121077931D01*
X102162803Y-121265203D01*
X101975531Y-121493394D01*
X101836375Y-121753736D01*
X101750684Y-122036223D01*
X101721749Y-122330000D01*
X100660000Y-122330000D01*
X100660000Y-86770000D01*
X101721749Y-86770000D01*
X101750684Y-87063777D01*
X101836375Y-87346264D01*
X101975531Y-87606606D01*
X102162803Y-87834797D01*
X102390994Y-88022069D01*
X102424540Y-88040000D01*
X102390994Y-88057931D01*
X102162803Y-88245203D01*
X101975531Y-88473394D01*
X101836375Y-88733736D01*
X101750684Y-89016223D01*
X101721749Y-89310000D01*
X101750684Y-89603777D01*
X101836375Y-89886264D01*
X101975531Y-90146606D01*
X102162803Y-90374797D01*
X102390994Y-90562069D01*
X102424540Y-90580000D01*
X102390994Y-90597931D01*
X102162803Y-90785203D01*
X101975531Y-91013394D01*
X101836375Y-91273736D01*
X101750684Y-91556223D01*
X101721749Y-91850000D01*
X101750684Y-92143777D01*
X101836375Y-92426264D01*
X101975531Y-92686606D01*
X102162803Y-92914797D01*
X102390994Y-93102069D01*
X102424540Y-93120000D01*
X102390994Y-93137931D01*
X102162803Y-93325203D01*
X101975531Y-93553394D01*
X101836375Y-93813736D01*
X101750684Y-94096223D01*
X101721749Y-94390000D01*
X101750684Y-94683777D01*
X101836375Y-94966264D01*
X101975531Y-95226606D01*
X102162803Y-95454797D01*
X102390994Y-95642069D01*
X102424540Y-95660000D01*
X102390994Y-95677931D01*
X102162803Y-95865203D01*
X101975531Y-96093394D01*
X101836375Y-96353736D01*
X101750684Y-96636223D01*
X101721749Y-96930000D01*
X101750684Y-97223777D01*
X101836375Y-97506264D01*
X101975531Y-97766606D01*
X102162803Y-97994797D01*
X102390994Y-98182069D01*
X102424540Y-98200000D01*
X102390994Y-98217931D01*
X102162803Y-98405203D01*
X101975531Y-98633394D01*
X101836375Y-98893736D01*
X101750684Y-99176223D01*
X101721749Y-99470000D01*
X101750684Y-99763777D01*
X101836375Y-100046264D01*
X101975531Y-100306606D01*
X102162803Y-100534797D01*
X102390994Y-100722069D01*
X102424540Y-100740000D01*
X102390994Y-100757931D01*
X102162803Y-100945203D01*
X101975531Y-101173394D01*
X101836375Y-101433736D01*
X101750684Y-101716223D01*
X101721749Y-102010000D01*
X101750684Y-102303777D01*
X101836375Y-102586264D01*
X101975531Y-102846606D01*
X102162803Y-103074797D01*
X102390994Y-103262069D01*
X102424540Y-103280000D01*
X102390994Y-103297931D01*
X102162803Y-103485203D01*
X101975531Y-103713394D01*
X101836375Y-103973736D01*
X101750684Y-104256223D01*
X101721749Y-104550000D01*
X101750684Y-104843777D01*
X101836375Y-105126264D01*
X101975531Y-105386606D01*
X102162803Y-105614797D01*
X102390994Y-105802069D01*
X102424540Y-105820000D01*
X102390994Y-105837931D01*
X102162803Y-106025203D01*
X101975531Y-106253394D01*
X101836375Y-106513736D01*
X101750684Y-106796223D01*
X101721749Y-107090000D01*
X101750684Y-107383777D01*
X101836375Y-107666264D01*
X101975531Y-107926606D01*
X102162803Y-108154797D01*
X102390994Y-108342069D01*
X102424540Y-108360000D01*
X102390994Y-108377931D01*
X102162803Y-108565203D01*
X101975531Y-108793394D01*
X101836375Y-109053736D01*
X101750684Y-109336223D01*
X101721749Y-109630000D01*
X101750684Y-109923777D01*
X101836375Y-110206264D01*
X101975531Y-110466606D01*
X102162803Y-110694797D01*
X102390994Y-110882069D01*
X102424540Y-110900000D01*
X102390994Y-110917931D01*
X102162803Y-111105203D01*
X101975531Y-111333394D01*
X101836375Y-111593736D01*
X101750684Y-111876223D01*
X101721749Y-112170000D01*
X101750684Y-112463777D01*
X101836375Y-112746264D01*
X101975531Y-113006606D01*
X102162803Y-113234797D01*
X102390994Y-113422069D01*
X102424540Y-113440000D01*
X102390994Y-113457931D01*
X102162803Y-113645203D01*
X101975531Y-113873394D01*
X101836375Y-114133736D01*
X101750684Y-114416223D01*
X101721749Y-114710000D01*
X101750684Y-115003777D01*
X101836375Y-115286264D01*
X101975531Y-115546606D01*
X102162803Y-115774797D01*
X102390994Y-115962069D01*
X102424540Y-115980000D01*
X102390994Y-115997931D01*
X102162803Y-116185203D01*
X101975531Y-116413394D01*
X101836375Y-116673736D01*
X101750684Y-116956223D01*
X101721749Y-117250000D01*
X101750684Y-117543777D01*
X101836375Y-117826264D01*
X101975531Y-118086606D01*
X102162803Y-118314797D01*
X102390994Y-118502069D01*
X102430947Y-118523424D01*
X102228271Y-118671514D01*
X102029267Y-118887965D01*
X101876314Y-119139081D01*
X101775291Y-119415211D01*
X101772642Y-119430974D01*
X101893783Y-119663000D01*
X103253000Y-119663000D01*
X103253000Y-119643000D01*
X103507000Y-119643000D01*
X103507000Y-119663000D01*
X104866217Y-119663000D01*
X104987358Y-119430974D01*
X104984709Y-119415211D01*
X104883686Y-119139081D01*
X104730733Y-118887965D01*
X104531729Y-118671514D01*
X104329053Y-118523424D01*
X104369006Y-118502069D01*
X104597197Y-118314797D01*
X104784469Y-118086606D01*
X104923625Y-117826264D01*
X105009316Y-117543777D01*
X105038251Y-117250000D01*
X105009316Y-116956223D01*
X104923625Y-116673736D01*
X104784469Y-116413394D01*
X104597197Y-116185203D01*
X104369006Y-115997931D01*
X104335460Y-115980000D01*
X104369006Y-115962069D01*
X104597197Y-115774797D01*
X104784469Y-115546606D01*
X104923625Y-115286264D01*
X105009316Y-115003777D01*
X105038251Y-114710000D01*
X105009316Y-114416223D01*
X104923625Y-114133736D01*
X104784469Y-113873394D01*
X104597197Y-113645203D01*
X104369006Y-113457931D01*
X104335460Y-113440000D01*
X104369006Y-113422069D01*
X104597197Y-113234797D01*
X104784469Y-113006606D01*
X104923625Y-112746264D01*
X105009316Y-112463777D01*
X105038251Y-112170000D01*
X105009316Y-111876223D01*
X104923625Y-111593736D01*
X104784469Y-111333394D01*
X104597197Y-111105203D01*
X104369006Y-110917931D01*
X104335460Y-110900000D01*
X104369006Y-110882069D01*
X104597197Y-110694797D01*
X104784469Y-110466606D01*
X104923625Y-110206264D01*
X105009316Y-109923777D01*
X105038251Y-109630000D01*
X105009316Y-109336223D01*
X104923625Y-109053736D01*
X104784469Y-108793394D01*
X104597197Y-108565203D01*
X104369006Y-108377931D01*
X104335460Y-108360000D01*
X104369006Y-108342069D01*
X104597197Y-108154797D01*
X104784469Y-107926606D01*
X104923625Y-107666264D01*
X105009316Y-107383777D01*
X105038251Y-107090000D01*
X105009316Y-106796223D01*
X104923625Y-106513736D01*
X104784469Y-106253394D01*
X104597197Y-106025203D01*
X104369006Y-105837931D01*
X104335460Y-105820000D01*
X104369006Y-105802069D01*
X104597197Y-105614797D01*
X104784469Y-105386606D01*
X104923625Y-105126264D01*
X105009316Y-104843777D01*
X105038251Y-104550000D01*
X105009316Y-104256223D01*
X104923625Y-103973736D01*
X104784469Y-103713394D01*
X104597197Y-103485203D01*
X104369006Y-103297931D01*
X104335460Y-103280000D01*
X104369006Y-103262069D01*
X104597197Y-103074797D01*
X104784469Y-102846606D01*
X104923625Y-102586264D01*
X105009316Y-102303777D01*
X105038251Y-102010000D01*
X105009316Y-101716223D01*
X104923625Y-101433736D01*
X104784469Y-101173394D01*
X104597197Y-100945203D01*
X104369006Y-100757931D01*
X104335460Y-100740000D01*
X104369006Y-100722069D01*
X104597197Y-100534797D01*
X104784469Y-100306606D01*
X104923625Y-100046264D01*
X105009316Y-99763777D01*
X105038251Y-99470000D01*
X105009316Y-99176223D01*
X104923625Y-98893736D01*
X104784469Y-98633394D01*
X104597197Y-98405203D01*
X104369006Y-98217931D01*
X104335460Y-98200000D01*
X104369006Y-98182069D01*
X104597197Y-97994797D01*
X104784469Y-97766606D01*
X104923625Y-97506264D01*
X105009316Y-97223777D01*
X105038251Y-96930000D01*
X105009316Y-96636223D01*
X104923625Y-96353736D01*
X104784469Y-96093394D01*
X104597197Y-95865203D01*
X104369006Y-95677931D01*
X104335460Y-95660000D01*
X104369006Y-95642069D01*
X104597197Y-95454797D01*
X104784469Y-95226606D01*
X104923625Y-94966264D01*
X105009316Y-94683777D01*
X105038251Y-94390000D01*
X105009316Y-94096223D01*
X104923625Y-93813736D01*
X104784469Y-93553394D01*
X104597197Y-93325203D01*
X104369006Y-93137931D01*
X104335460Y-93120000D01*
X104369006Y-93102069D01*
X104597197Y-92914797D01*
X104784469Y-92686606D01*
X104923625Y-92426264D01*
X105009316Y-92143777D01*
X105038251Y-91850000D01*
X105009316Y-91556223D01*
X104923625Y-91273736D01*
X104784469Y-91013394D01*
X104597197Y-90785203D01*
X104369006Y-90597931D01*
X104335460Y-90580000D01*
X104369006Y-90562069D01*
X104597197Y-90374797D01*
X104784469Y-90146606D01*
X104923625Y-89886264D01*
X105009316Y-89603777D01*
X105038251Y-89310000D01*
X105009316Y-89016223D01*
X104923625Y-88733736D01*
X104784469Y-88473394D01*
X104597197Y-88245203D01*
X104369006Y-88057931D01*
X104335460Y-88040000D01*
X104369006Y-88022069D01*
X104597197Y-87834797D01*
X104784469Y-87606606D01*
X104923625Y-87346264D01*
X105009316Y-87063777D01*
X105038251Y-86770000D01*
X105009316Y-86476223D01*
X104923625Y-86193736D01*
X104784469Y-85933394D01*
X104597197Y-85705203D01*
X104369006Y-85517931D01*
X104108664Y-85378775D01*
X103826177Y-85293084D01*
X103606019Y-85271400D01*
X103153981Y-85271400D01*
X102933823Y-85293084D01*
X102651336Y-85378775D01*
X102390994Y-85517931D01*
X102162803Y-85705203D01*
X101975531Y-85933394D01*
X101836375Y-86193736D01*
X101750684Y-86476223D01*
X101721749Y-86770000D01*
X100660000Y-86770000D01*
X100660000Y-75679872D01*
X103265000Y-75679872D01*
X103265000Y-76120128D01*
X103350890Y-76551925D01*
X103519369Y-76958669D01*
X103763962Y-77324729D01*
X104075271Y-77636038D01*
X104441331Y-77880631D01*
X104848075Y-78049110D01*
X105279872Y-78135000D01*
X105720128Y-78135000D01*
X106151925Y-78049110D01*
X106558669Y-77880631D01*
X106924729Y-77636038D01*
X107236038Y-77324729D01*
X107480631Y-76958669D01*
X107649110Y-76551925D01*
X107735000Y-76120128D01*
X107735000Y-75679872D01*
X107649110Y-75248075D01*
X107480631Y-74841331D01*
X107236038Y-74475271D01*
X106924729Y-74163962D01*
X106558669Y-73919369D01*
X106151925Y-73750890D01*
X105720128Y-73665000D01*
X105279872Y-73665000D01*
X104848075Y-73750890D01*
X104441331Y-73919369D01*
X104075271Y-74163962D01*
X103763962Y-74475271D01*
X103519369Y-74841331D01*
X103350890Y-75248075D01*
X103265000Y-75679872D01*
X100660000Y-75679872D01*
X100660000Y-73629872D01*
X123165000Y-73629872D01*
X123165000Y-74070128D01*
X123250890Y-74501925D01*
X123419369Y-74908669D01*
X123663962Y-75274729D01*
X123975271Y-75586038D01*
X124341331Y-75830631D01*
X124748075Y-75999110D01*
X125179872Y-76085000D01*
X125620128Y-76085000D01*
X126051925Y-75999110D01*
X126458669Y-75830631D01*
X126824729Y-75586038D01*
X127136038Y-75274729D01*
X127380631Y-74908669D01*
X127549110Y-74501925D01*
X127635000Y-74070128D01*
X127635000Y-73629872D01*
X127595218Y-73429872D01*
X157115000Y-73429872D01*
X157115000Y-73870128D01*
X157200890Y-74301925D01*
X157369369Y-74708669D01*
X157613962Y-75074729D01*
X157925271Y-75386038D01*
X158291331Y-75630631D01*
X158698075Y-75799110D01*
X159129872Y-75885000D01*
X159570128Y-75885000D01*
X160001925Y-75799110D01*
X160408669Y-75630631D01*
X160774729Y-75386038D01*
X160780895Y-75379872D01*
X179765000Y-75379872D01*
X179765000Y-75820128D01*
X179850890Y-76251925D01*
X180019369Y-76658669D01*
X180263962Y-77024729D01*
X180575271Y-77336038D01*
X180941331Y-77580631D01*
X181348075Y-77749110D01*
X181779872Y-77835000D01*
X182220128Y-77835000D01*
X182651925Y-77749110D01*
X183058669Y-77580631D01*
X183424729Y-77336038D01*
X183736038Y-77024729D01*
X183980631Y-76658669D01*
X184149110Y-76251925D01*
X184235000Y-75820128D01*
X184235000Y-75379872D01*
X184149110Y-74948075D01*
X183980631Y-74541331D01*
X183736038Y-74175271D01*
X183424729Y-73863962D01*
X183058669Y-73619369D01*
X182651925Y-73450890D01*
X182220128Y-73365000D01*
X181779872Y-73365000D01*
X181348075Y-73450890D01*
X180941331Y-73619369D01*
X180575271Y-73863962D01*
X180263962Y-74175271D01*
X180019369Y-74541331D01*
X179850890Y-74948075D01*
X179765000Y-75379872D01*
X160780895Y-75379872D01*
X161086038Y-75074729D01*
X161330631Y-74708669D01*
X161499110Y-74301925D01*
X161585000Y-73870128D01*
X161585000Y-73429872D01*
X161499110Y-72998075D01*
X161330631Y-72591331D01*
X161086038Y-72225271D01*
X160774729Y-71913962D01*
X160408669Y-71669369D01*
X160001925Y-71500890D01*
X159570128Y-71415000D01*
X159129872Y-71415000D01*
X158698075Y-71500890D01*
X158291331Y-71669369D01*
X157925271Y-71913962D01*
X157613962Y-72225271D01*
X157369369Y-72591331D01*
X157200890Y-72998075D01*
X157115000Y-73429872D01*
X127595218Y-73429872D01*
X127549110Y-73198075D01*
X127380631Y-72791331D01*
X127136038Y-72425271D01*
X126824729Y-72113962D01*
X126458669Y-71869369D01*
X126051925Y-71700890D01*
X125620128Y-71615000D01*
X125179872Y-71615000D01*
X124748075Y-71700890D01*
X124341331Y-71869369D01*
X123975271Y-72113962D01*
X123663962Y-72425271D01*
X123419369Y-72791331D01*
X123250890Y-73198075D01*
X123165000Y-73629872D01*
X100660000Y-73629872D01*
X100660000Y-70660000D01*
X128977679Y-70660000D01*
X186840000Y-70726816D01*
G37*
X186840000Y-70726816D02*
X186840001Y-148640000D01*
X100660000Y-148640000D01*
X100660000Y-142579872D01*
X103265000Y-142579872D01*
X103265000Y-143020128D01*
X103350890Y-143451925D01*
X103519369Y-143858669D01*
X103763962Y-144224729D01*
X104075271Y-144536038D01*
X104441331Y-144780631D01*
X104848075Y-144949110D01*
X105279872Y-145035000D01*
X105720128Y-145035000D01*
X106151925Y-144949110D01*
X106558669Y-144780631D01*
X106924729Y-144536038D01*
X107236038Y-144224729D01*
X107480631Y-143858669D01*
X107649110Y-143451925D01*
X107735000Y-143020128D01*
X107735000Y-142679872D01*
X179765000Y-142679872D01*
X179765000Y-143120128D01*
X179850890Y-143551925D01*
X180019369Y-143958669D01*
X180263962Y-144324729D01*
X180575271Y-144636038D01*
X180941331Y-144880631D01*
X181348075Y-145049110D01*
X181779872Y-145135000D01*
X182220128Y-145135000D01*
X182651925Y-145049110D01*
X183058669Y-144880631D01*
X183424729Y-144636038D01*
X183736038Y-144324729D01*
X183980631Y-143958669D01*
X184149110Y-143551925D01*
X184235000Y-143120128D01*
X184235000Y-142679872D01*
X184149110Y-142248075D01*
X183980631Y-141841331D01*
X183736038Y-141475271D01*
X183424729Y-141163962D01*
X183058669Y-140919369D01*
X182651925Y-140750890D01*
X182220128Y-140665000D01*
X181779872Y-140665000D01*
X181348075Y-140750890D01*
X180941331Y-140919369D01*
X180575271Y-141163962D01*
X180263962Y-141475271D01*
X180019369Y-141841331D01*
X179850890Y-142248075D01*
X179765000Y-142679872D01*
X107735000Y-142679872D01*
X107735000Y-142579872D01*
X107649110Y-142148075D01*
X107480631Y-141741331D01*
X107236038Y-141375271D01*
X106924729Y-141063962D01*
X106558669Y-140819369D01*
X106151925Y-140650890D01*
X105720128Y-140565000D01*
X105279872Y-140565000D01*
X104848075Y-140650890D01*
X104441331Y-140819369D01*
X104075271Y-141063962D01*
X103763962Y-141375271D01*
X103519369Y-141741331D01*
X103350890Y-142148075D01*
X103265000Y-142579872D01*
X100660000Y-142579872D01*
X100660000Y-139265565D01*
X116614043Y-139265565D01*
X116681023Y-139505656D01*
X116930051Y-139622756D01*
X117197138Y-139689023D01*
X117472020Y-139701910D01*
X117744136Y-139660922D01*
X118003026Y-139567636D01*
X118118983Y-139505656D01*
X118185963Y-139265565D01*
X123614044Y-139265565D01*
X123681024Y-139505656D01*
X123930052Y-139622756D01*
X124197139Y-139689023D01*
X124472021Y-139701910D01*
X124744137Y-139660922D01*
X125003027Y-139567636D01*
X125118984Y-139505656D01*
X125185964Y-139265565D01*
X124400004Y-138479605D01*
X123614044Y-139265565D01*
X118185963Y-139265565D01*
X117400003Y-138479605D01*
X116614043Y-139265565D01*
X100660000Y-139265565D01*
X100660000Y-138372017D01*
X115998093Y-138372017D01*
X116039081Y-138644133D01*
X116132367Y-138903023D01*
X116194347Y-139018980D01*
X116434438Y-139085960D01*
X117220398Y-138300000D01*
X117579608Y-138300000D01*
X118365568Y-139085960D01*
X118605659Y-139018980D01*
X118722759Y-138769952D01*
X118789026Y-138502865D01*
X118795160Y-138372017D01*
X122998094Y-138372017D01*
X123039082Y-138644133D01*
X123132368Y-138903023D01*
X123194348Y-139018980D01*
X123434439Y-139085960D01*
X124220399Y-138300000D01*
X124579609Y-138300000D01*
X125365569Y-139085960D01*
X125605660Y-139018980D01*
X125722760Y-138769952D01*
X125789027Y-138502865D01*
X125801914Y-138227983D01*
X125760926Y-137955867D01*
X125667640Y-137696977D01*
X125605660Y-137581020D01*
X125365569Y-137514040D01*
X124579609Y-138300000D01*
X124220399Y-138300000D01*
X123434439Y-137514040D01*
X123194348Y-137581020D01*
X123077248Y-137830048D01*
X123010981Y-138097135D01*
X122998094Y-138372017D01*
X118795160Y-138372017D01*
X118801913Y-138227983D01*
X118760925Y-137955867D01*
X118667639Y-137696977D01*
X118605659Y-137581020D01*
X118365568Y-137514040D01*
X117579608Y-138300000D01*
X117220398Y-138300000D01*
X116434438Y-137514040D01*
X116194347Y-137581020D01*
X116077247Y-137830048D01*
X116010980Y-138097135D01*
X115998093Y-138372017D01*
X100660000Y-138372017D01*
X100660000Y-137334435D01*
X116614043Y-137334435D01*
X117400003Y-138120395D01*
X118185963Y-137334435D01*
X123614044Y-137334435D01*
X124400004Y-138120395D01*
X125185964Y-137334435D01*
X125118984Y-137094344D01*
X124869956Y-136977244D01*
X124602869Y-136910977D01*
X124327987Y-136898090D01*
X124055871Y-136939078D01*
X123796981Y-137032364D01*
X123681024Y-137094344D01*
X123614044Y-137334435D01*
X118185963Y-137334435D01*
X118118983Y-137094344D01*
X117869955Y-136977244D01*
X117602868Y-136910977D01*
X117327986Y-136898090D01*
X117055870Y-136939078D01*
X116796980Y-137032364D01*
X116681023Y-137094344D01*
X116614043Y-137334435D01*
X100660000Y-137334435D01*
X100660000Y-133162408D01*
X112503003Y-133162408D01*
X112503003Y-133437592D01*
X112556689Y-133707490D01*
X112661998Y-133961727D01*
X112814883Y-134190535D01*
X113009468Y-134385120D01*
X113238276Y-134538005D01*
X113492513Y-134643314D01*
X113762411Y-134697000D01*
X114037595Y-134697000D01*
X114307493Y-134643314D01*
X114561730Y-134538005D01*
X114790538Y-134385120D01*
X114985123Y-134190535D01*
X115138008Y-133961727D01*
X115243317Y-133707490D01*
X115297003Y-133437592D01*
X115297003Y-133162408D01*
X115243317Y-132892510D01*
X115138008Y-132638273D01*
X114985123Y-132409465D01*
X114790538Y-132214880D01*
X114660000Y-132127657D01*
X114660000Y-112828801D01*
X116237600Y-111251202D01*
X116237601Y-128165067D01*
X116233924Y-128202400D01*
X116237601Y-128239733D01*
X116248462Y-128350000D01*
X116248598Y-128351385D01*
X116292054Y-128494646D01*
X116362626Y-128626676D01*
X116433801Y-128713402D01*
X116457600Y-128742401D01*
X116486598Y-128766199D01*
X119972374Y-132251975D01*
X119814884Y-132409465D01*
X119661999Y-132638273D01*
X119556690Y-132892510D01*
X119503004Y-133162408D01*
X119503004Y-133437592D01*
X119556690Y-133707490D01*
X119661999Y-133961727D01*
X119814884Y-134190535D01*
X120009469Y-134385120D01*
X120238277Y-134538005D01*
X120492514Y-134643314D01*
X120762412Y-134697000D01*
X121037596Y-134697000D01*
X121307494Y-134643314D01*
X121561731Y-134538005D01*
X121790539Y-134385120D01*
X121985124Y-134190535D01*
X122138009Y-133961727D01*
X122243318Y-133707490D01*
X122297004Y-133437592D01*
X122297004Y-133162408D01*
X122243318Y-132892510D01*
X122138009Y-132638273D01*
X121985124Y-132409465D01*
X121790539Y-132214880D01*
X121661341Y-132128553D01*
X121663680Y-132104804D01*
X121660004Y-132067479D01*
X121660004Y-132067471D01*
X121649007Y-131955818D01*
X121605550Y-131812557D01*
X121534978Y-131680528D01*
X121440005Y-131564803D01*
X121411008Y-131541006D01*
X117757600Y-127887599D01*
X117757600Y-123649741D01*
X117891336Y-123721225D01*
X118173823Y-123806916D01*
X118393981Y-123828600D01*
X118846019Y-123828600D01*
X119066177Y-123806916D01*
X119348664Y-123721225D01*
X119609006Y-123582069D01*
X119837197Y-123394797D01*
X120024469Y-123166606D01*
X120163625Y-122906264D01*
X120249316Y-122623777D01*
X120278251Y-122330000D01*
X120249316Y-122036223D01*
X120163625Y-121753736D01*
X120024469Y-121493394D01*
X119837197Y-121265203D01*
X119609006Y-121077931D01*
X119575460Y-121060000D01*
X119609006Y-121042069D01*
X119837197Y-120854797D01*
X120024469Y-120626606D01*
X120163625Y-120366264D01*
X120249316Y-120083777D01*
X120278251Y-119790000D01*
X120249316Y-119496223D01*
X120163625Y-119213736D01*
X120024469Y-118953394D01*
X119837197Y-118725203D01*
X119609006Y-118537931D01*
X119575460Y-118520000D01*
X119609006Y-118502069D01*
X119837197Y-118314797D01*
X120024469Y-118086606D01*
X120163625Y-117826264D01*
X120249316Y-117543777D01*
X120278251Y-117250000D01*
X120249316Y-116956223D01*
X120163625Y-116673736D01*
X120024469Y-116413394D01*
X119837197Y-116185203D01*
X119609006Y-115997931D01*
X119569053Y-115976576D01*
X119771729Y-115828486D01*
X119970733Y-115612035D01*
X120123686Y-115360919D01*
X120224709Y-115084789D01*
X120227358Y-115069026D01*
X120106217Y-114837000D01*
X118747000Y-114837000D01*
X118747000Y-114857000D01*
X118493000Y-114857000D01*
X118493000Y-114837000D01*
X118473000Y-114837000D01*
X118473000Y-114583000D01*
X118493000Y-114583000D01*
X118493000Y-114563000D01*
X118747000Y-114563000D01*
X118747000Y-114583000D01*
X120106217Y-114583000D01*
X120227358Y-114350974D01*
X120224709Y-114335211D01*
X120123686Y-114059081D01*
X119970733Y-113807965D01*
X119771729Y-113591514D01*
X119569053Y-113443424D01*
X119609006Y-113422069D01*
X119837197Y-113234797D01*
X120024469Y-113006606D01*
X120163625Y-112746264D01*
X120249316Y-112463777D01*
X120278251Y-112170000D01*
X120249316Y-111876223D01*
X120188631Y-111676171D01*
X120474003Y-111390799D01*
X120503001Y-111367001D01*
X120597974Y-111251276D01*
X120668546Y-111119247D01*
X120712003Y-110975986D01*
X120723000Y-110864333D01*
X120723000Y-110864323D01*
X120726676Y-110827000D01*
X120723000Y-110789677D01*
X120723000Y-109159322D01*
X120726676Y-109122000D01*
X120723000Y-109084677D01*
X120723000Y-109084667D01*
X120712003Y-108973014D01*
X120668546Y-108829753D01*
X120665992Y-108824974D01*
X120597974Y-108697723D01*
X120526799Y-108610997D01*
X120503001Y-108581999D01*
X120474004Y-108558202D01*
X119942404Y-108026603D01*
X120024469Y-107926606D01*
X120163625Y-107666264D01*
X120249316Y-107383777D01*
X120278251Y-107090000D01*
X120249316Y-106796223D01*
X120163625Y-106513736D01*
X120024469Y-106253394D01*
X119837197Y-106025203D01*
X119609006Y-105837931D01*
X119575460Y-105820000D01*
X119609006Y-105802069D01*
X119837197Y-105614797D01*
X120024469Y-105386606D01*
X120163625Y-105126264D01*
X120249316Y-104843777D01*
X120278251Y-104550000D01*
X120249316Y-104256223D01*
X120163625Y-103973736D01*
X120024469Y-103713394D01*
X119837197Y-103485203D01*
X119609006Y-103297931D01*
X119575460Y-103280000D01*
X119609006Y-103262069D01*
X119837197Y-103074797D01*
X120024469Y-102846606D01*
X120163625Y-102586264D01*
X120249316Y-102303777D01*
X120278251Y-102010000D01*
X120249316Y-101716223D01*
X120163625Y-101433736D01*
X120024469Y-101173394D01*
X119837197Y-100945203D01*
X119609006Y-100757931D01*
X119575460Y-100740000D01*
X119609006Y-100722069D01*
X119837197Y-100534797D01*
X120024469Y-100306606D01*
X120104074Y-100157675D01*
X123546001Y-103599603D01*
X123546001Y-109511649D01*
X123311486Y-109465000D01*
X123048514Y-109465000D01*
X122790595Y-109516304D01*
X122547641Y-109616939D01*
X122328987Y-109763038D01*
X122143038Y-109948987D01*
X121996939Y-110167641D01*
X121896304Y-110410595D01*
X121845000Y-110668514D01*
X121845000Y-110931486D01*
X121896304Y-111189405D01*
X121996939Y-111432359D01*
X122143038Y-111651013D01*
X122328987Y-111836962D01*
X122547641Y-111983061D01*
X122790595Y-112083696D01*
X123048514Y-112135000D01*
X123311486Y-112135000D01*
X123546000Y-112088352D01*
X123546000Y-117868678D01*
X123542324Y-117906000D01*
X123546000Y-117943322D01*
X123546000Y-117943332D01*
X123556997Y-118054985D01*
X123600454Y-118198246D01*
X123671026Y-118330276D01*
X123707096Y-118374227D01*
X123765999Y-118446001D01*
X123795003Y-118469804D01*
X138483629Y-133158431D01*
X138453001Y-133312408D01*
X138453001Y-133587592D01*
X138506687Y-133857490D01*
X138611996Y-134111727D01*
X138764881Y-134340535D01*
X138959466Y-134535120D01*
X139188274Y-134688005D01*
X139442511Y-134793314D01*
X139712409Y-134847000D01*
X139987593Y-134847000D01*
X140257491Y-134793314D01*
X140511728Y-134688005D01*
X140740536Y-134535120D01*
X140935121Y-134340535D01*
X141088006Y-134111727D01*
X141193315Y-133857490D01*
X141247001Y-133587592D01*
X141247001Y-133312408D01*
X141193315Y-133042510D01*
X141088006Y-132788273D01*
X140935121Y-132559465D01*
X140740536Y-132364880D01*
X140511728Y-132211995D01*
X140257491Y-132106686D01*
X139987593Y-132053000D01*
X139712409Y-132053000D01*
X139558430Y-132083628D01*
X129464523Y-121989721D01*
X134115000Y-121989721D01*
X134115000Y-122410279D01*
X134197047Y-122822756D01*
X134357988Y-123211302D01*
X134591637Y-123560983D01*
X134889017Y-123858363D01*
X135238698Y-124092012D01*
X135627244Y-124252953D01*
X136039721Y-124335000D01*
X136460279Y-124335000D01*
X136872756Y-124252953D01*
X137261302Y-124092012D01*
X137610983Y-123858363D01*
X137908363Y-123560983D01*
X138142012Y-123211302D01*
X138302953Y-122822756D01*
X138385000Y-122410279D01*
X138385000Y-121989721D01*
X138302953Y-121577244D01*
X138142012Y-121188698D01*
X137908363Y-120839017D01*
X137610983Y-120541637D01*
X137261302Y-120307988D01*
X136872756Y-120147047D01*
X136460279Y-120065000D01*
X136039721Y-120065000D01*
X135627244Y-120147047D01*
X135238698Y-120307988D01*
X134889017Y-120541637D01*
X134591637Y-120839017D01*
X134357988Y-121188698D01*
X134197047Y-121577244D01*
X134115000Y-121989721D01*
X129464523Y-121989721D01*
X125066000Y-117591199D01*
X125066000Y-105388072D01*
X126750000Y-105388072D01*
X126874482Y-105375812D01*
X126994180Y-105339502D01*
X127104494Y-105280537D01*
X127201185Y-105201185D01*
X127280537Y-105104494D01*
X127339502Y-104994180D01*
X127345056Y-104975873D01*
X127411495Y-105042312D01*
X127662905Y-105210299D01*
X127942257Y-105326011D01*
X128238816Y-105385000D01*
X128541184Y-105385000D01*
X128798930Y-105333731D01*
X130040001Y-106574803D01*
X130040000Y-109702225D01*
X129948987Y-109763038D01*
X129763038Y-109948987D01*
X129616939Y-110167641D01*
X129516304Y-110410595D01*
X129465000Y-110668514D01*
X129465000Y-110931486D01*
X129516304Y-111189405D01*
X129616939Y-111432359D01*
X129763038Y-111651013D01*
X129948987Y-111836962D01*
X130167641Y-111983061D01*
X130410595Y-112083696D01*
X130668514Y-112135000D01*
X130931486Y-112135000D01*
X131189405Y-112083696D01*
X131432359Y-111983061D01*
X131651013Y-111836962D01*
X131836962Y-111651013D01*
X131983061Y-111432359D01*
X132083696Y-111189405D01*
X132135000Y-110931486D01*
X132135000Y-110718514D01*
X132245000Y-110718514D01*
X132245000Y-110981486D01*
X132296304Y-111239405D01*
X132396939Y-111482359D01*
X132543038Y-111701013D01*
X132728987Y-111886962D01*
X132947641Y-112033061D01*
X133190595Y-112133696D01*
X133297075Y-112154877D01*
X134873100Y-113730902D01*
X134896899Y-113759901D01*
X135012624Y-113854874D01*
X135144653Y-113925446D01*
X135287914Y-113968903D01*
X135399567Y-113979900D01*
X135399576Y-113979900D01*
X135436899Y-113983576D01*
X135474222Y-113979900D01*
X148240001Y-113979900D01*
X148240000Y-135640000D01*
X136693322Y-135640000D01*
X136655999Y-135636324D01*
X136618676Y-135640000D01*
X136618667Y-135640000D01*
X136507014Y-135650997D01*
X136363753Y-135694454D01*
X136231724Y-135765026D01*
X136115999Y-135859999D01*
X136092196Y-135889003D01*
X135839003Y-136142196D01*
X135809999Y-136165999D01*
X135754871Y-136233174D01*
X135715026Y-136281724D01*
X135671761Y-136362667D01*
X135644454Y-136413754D01*
X135600997Y-136557015D01*
X135590000Y-136668668D01*
X135590000Y-136668678D01*
X135586324Y-136706000D01*
X135590000Y-136743323D01*
X135590000Y-137277659D01*
X135459465Y-137364880D01*
X135264880Y-137559465D01*
X135111995Y-137788273D01*
X135006686Y-138042510D01*
X134953000Y-138312408D01*
X134953000Y-138587592D01*
X135006686Y-138857490D01*
X135111995Y-139111727D01*
X135264880Y-139340535D01*
X135459465Y-139535120D01*
X135688273Y-139688005D01*
X135942510Y-139793314D01*
X136212408Y-139847000D01*
X136487592Y-139847000D01*
X136757490Y-139793314D01*
X137011727Y-139688005D01*
X137240535Y-139535120D01*
X137360090Y-139415565D01*
X142564041Y-139415565D01*
X142631021Y-139655656D01*
X142880049Y-139772756D01*
X143147136Y-139839023D01*
X143422018Y-139851910D01*
X143694134Y-139810922D01*
X143953024Y-139717636D01*
X144068981Y-139655656D01*
X144135961Y-139415565D01*
X143350001Y-138629605D01*
X142564041Y-139415565D01*
X137360090Y-139415565D01*
X137435120Y-139340535D01*
X137588005Y-139111727D01*
X137693314Y-138857490D01*
X137747000Y-138587592D01*
X137747000Y-138522017D01*
X141948091Y-138522017D01*
X141989079Y-138794133D01*
X142082365Y-139053023D01*
X142144345Y-139168980D01*
X142384436Y-139235960D01*
X143170396Y-138450000D01*
X143529606Y-138450000D01*
X144315566Y-139235960D01*
X144555657Y-139168980D01*
X144672757Y-138919952D01*
X144739024Y-138652865D01*
X144751911Y-138377983D01*
X144710923Y-138105867D01*
X144617637Y-137846977D01*
X144555657Y-137731020D01*
X144315566Y-137664040D01*
X143529606Y-138450000D01*
X143170396Y-138450000D01*
X142384436Y-137664040D01*
X142144345Y-137731020D01*
X142027245Y-137980048D01*
X141960978Y-138247135D01*
X141948091Y-138522017D01*
X137747000Y-138522017D01*
X137747000Y-138312408D01*
X137693314Y-138042510D01*
X137588005Y-137788273D01*
X137435120Y-137559465D01*
X137240535Y-137364880D01*
X137110000Y-137277659D01*
X137110000Y-137160000D01*
X142809043Y-137160000D01*
X142746978Y-137182364D01*
X142631021Y-137244344D01*
X142564041Y-137484435D01*
X143350001Y-138270395D01*
X144135961Y-137484435D01*
X144068981Y-137244344D01*
X143889613Y-137160000D01*
X148962667Y-137160000D01*
X149000000Y-137163677D01*
X149037333Y-137160000D01*
X160084511Y-137160000D01*
X159838275Y-137261995D01*
X159609467Y-137414880D01*
X159414882Y-137609465D01*
X159261997Y-137838273D01*
X159156688Y-138092510D01*
X159103002Y-138362408D01*
X159103002Y-138637592D01*
X159156688Y-138907490D01*
X159261997Y-139161727D01*
X159414882Y-139390535D01*
X159609467Y-139585120D01*
X159838275Y-139738005D01*
X160092512Y-139843314D01*
X160362410Y-139897000D01*
X160637594Y-139897000D01*
X160907492Y-139843314D01*
X161161729Y-139738005D01*
X161390537Y-139585120D01*
X161585122Y-139390535D01*
X161738007Y-139161727D01*
X161843316Y-138907490D01*
X161897002Y-138637592D01*
X161897002Y-138362408D01*
X161843316Y-138092510D01*
X161738007Y-137838273D01*
X161585122Y-137609465D01*
X161390537Y-137414880D01*
X161161729Y-137261995D01*
X160915493Y-137160000D01*
X171812001Y-137160000D01*
X171812001Y-137334666D01*
X171808324Y-137371998D01*
X171812001Y-137409331D01*
X171814870Y-137438455D01*
X171822998Y-137520983D01*
X171866454Y-137664244D01*
X171937026Y-137796274D01*
X171982558Y-137851754D01*
X172032000Y-137911999D01*
X172060998Y-137935797D01*
X172383630Y-138258430D01*
X172353002Y-138412408D01*
X172353002Y-138687592D01*
X172406688Y-138957490D01*
X172511997Y-139211727D01*
X172664882Y-139440535D01*
X172859467Y-139635120D01*
X173088275Y-139788005D01*
X173342512Y-139893314D01*
X173612410Y-139947000D01*
X173887594Y-139947000D01*
X174157492Y-139893314D01*
X174411729Y-139788005D01*
X174640537Y-139635120D01*
X174835122Y-139440535D01*
X174988007Y-139211727D01*
X175093316Y-138957490D01*
X175147002Y-138687592D01*
X175147002Y-138412408D01*
X175093316Y-138142510D01*
X174988007Y-137888273D01*
X174835122Y-137659465D01*
X174640537Y-137464880D01*
X174411729Y-137311995D01*
X174157492Y-137206686D01*
X173887594Y-137153000D01*
X173612410Y-137153000D01*
X173458432Y-137183628D01*
X173332000Y-137057197D01*
X173332000Y-136437332D01*
X173335677Y-136400000D01*
X173321003Y-136251014D01*
X173277546Y-136107753D01*
X173206974Y-135975724D01*
X173112001Y-135859999D01*
X172996276Y-135765026D01*
X172864247Y-135694454D01*
X172720986Y-135650997D01*
X172609333Y-135640000D01*
X172572000Y-135636323D01*
X172534667Y-135640000D01*
X149760000Y-135640000D01*
X149760000Y-133362408D01*
X155602999Y-133362408D01*
X155602999Y-133637592D01*
X155656685Y-133907490D01*
X155761994Y-134161727D01*
X155914879Y-134390535D01*
X156109464Y-134585120D01*
X156338272Y-134738005D01*
X156592509Y-134843314D01*
X156862407Y-134897000D01*
X157137591Y-134897000D01*
X157407489Y-134843314D01*
X157661726Y-134738005D01*
X157890534Y-134585120D01*
X158085119Y-134390535D01*
X158238004Y-134161727D01*
X158343313Y-133907490D01*
X158396999Y-133637592D01*
X158396999Y-133362408D01*
X158343313Y-133092510D01*
X158238004Y-132838273D01*
X158085119Y-132609465D01*
X157890534Y-132414880D01*
X157661726Y-132261995D01*
X157407489Y-132156686D01*
X157137591Y-132103000D01*
X156862407Y-132103000D01*
X156592509Y-132156686D01*
X156338272Y-132261995D01*
X156109464Y-132414880D01*
X155914879Y-132609465D01*
X155761994Y-132838273D01*
X155656685Y-133092510D01*
X155602999Y-133362408D01*
X149760000Y-133362408D01*
X149760000Y-121989721D01*
X156715000Y-121989721D01*
X156715000Y-122410279D01*
X156797047Y-122822756D01*
X156957988Y-123211302D01*
X157191637Y-123560983D01*
X157489017Y-123858363D01*
X157838698Y-124092012D01*
X158227244Y-124252953D01*
X158639721Y-124335000D01*
X159060279Y-124335000D01*
X159472756Y-124252953D01*
X159861302Y-124092012D01*
X160210983Y-123858363D01*
X160508363Y-123560983D01*
X160742012Y-123211302D01*
X160902953Y-122822756D01*
X160985000Y-122410279D01*
X160985000Y-121989721D01*
X160902953Y-121577244D01*
X160742012Y-121188698D01*
X160508363Y-120839017D01*
X160210983Y-120541637D01*
X159861302Y-120307988D01*
X159472756Y-120147047D01*
X159060279Y-120065000D01*
X158639721Y-120065000D01*
X158227244Y-120147047D01*
X157838698Y-120307988D01*
X157489017Y-120541637D01*
X157191637Y-120839017D01*
X156957988Y-121188698D01*
X156797047Y-121577244D01*
X156715000Y-121989721D01*
X149760000Y-121989721D01*
X149760000Y-113524701D01*
X151671174Y-111613528D01*
X151763038Y-111751013D01*
X151948987Y-111936962D01*
X152167641Y-112083061D01*
X152410595Y-112183696D01*
X152668514Y-112235000D01*
X152931486Y-112235000D01*
X153038844Y-112213645D01*
X169490001Y-128664803D01*
X169490000Y-132377658D01*
X169359464Y-132464880D01*
X169164879Y-132659465D01*
X169011994Y-132888273D01*
X168906685Y-133142510D01*
X168852999Y-133412408D01*
X168852999Y-133687592D01*
X168906685Y-133957490D01*
X169011994Y-134211727D01*
X169164879Y-134440535D01*
X169359464Y-134635120D01*
X169588272Y-134788005D01*
X169842509Y-134893314D01*
X170112407Y-134947000D01*
X170387591Y-134947000D01*
X170657489Y-134893314D01*
X170911726Y-134788005D01*
X171140534Y-134635120D01*
X171335119Y-134440535D01*
X171488004Y-134211727D01*
X171593313Y-133957490D01*
X171646999Y-133687592D01*
X171646999Y-133412408D01*
X171593313Y-133142510D01*
X171488004Y-132888273D01*
X171335119Y-132659465D01*
X171140534Y-132464880D01*
X171010000Y-132377660D01*
X171010000Y-128387325D01*
X171013676Y-128350000D01*
X171010000Y-128312675D01*
X171010000Y-128312667D01*
X170999003Y-128201014D01*
X170955546Y-128057753D01*
X170884974Y-127925724D01*
X170790001Y-127809999D01*
X170761003Y-127786201D01*
X166741239Y-123766438D01*
X166857490Y-123743314D01*
X167111727Y-123638005D01*
X167340535Y-123485120D01*
X167535120Y-123290535D01*
X167688005Y-123061727D01*
X167793314Y-122807490D01*
X167847000Y-122537592D01*
X167847000Y-122262408D01*
X182653000Y-122262408D01*
X182653000Y-122537592D01*
X182706686Y-122807490D01*
X182811995Y-123061727D01*
X182964880Y-123290535D01*
X183159465Y-123485120D01*
X183388273Y-123638005D01*
X183642510Y-123743314D01*
X183912408Y-123797000D01*
X184187592Y-123797000D01*
X184457490Y-123743314D01*
X184711727Y-123638005D01*
X184940535Y-123485120D01*
X185135120Y-123290535D01*
X185288005Y-123061727D01*
X185393314Y-122807490D01*
X185447000Y-122537592D01*
X185447000Y-122262408D01*
X185393314Y-121992510D01*
X185288005Y-121738273D01*
X185135120Y-121509465D01*
X184940535Y-121314880D01*
X184711727Y-121161995D01*
X184457490Y-121056686D01*
X184187592Y-121003000D01*
X183912408Y-121003000D01*
X183642510Y-121056686D01*
X183388273Y-121161995D01*
X183159465Y-121314880D01*
X182964880Y-121509465D01*
X182811995Y-121738273D01*
X182706686Y-121992510D01*
X182653000Y-122262408D01*
X167847000Y-122262408D01*
X167793314Y-121992510D01*
X167688005Y-121738273D01*
X167535120Y-121509465D01*
X167340535Y-121314880D01*
X167111727Y-121161995D01*
X166857490Y-121056686D01*
X166587592Y-121003000D01*
X166312408Y-121003000D01*
X166042510Y-121056686D01*
X165788273Y-121161995D01*
X165559465Y-121314880D01*
X165364880Y-121509465D01*
X165211995Y-121738273D01*
X165106686Y-121992510D01*
X165083562Y-122108761D01*
X154113645Y-111138844D01*
X154135000Y-111031486D01*
X154135000Y-110768514D01*
X154083696Y-110510595D01*
X153983061Y-110267641D01*
X153836962Y-110048987D01*
X153651013Y-109863038D01*
X153513528Y-109771174D01*
X157499403Y-105785300D01*
X157762667Y-105785300D01*
X157800000Y-105788977D01*
X157948986Y-105774303D01*
X158092247Y-105730846D01*
X158224276Y-105660274D01*
X158340001Y-105565301D01*
X158434974Y-105449576D01*
X158494575Y-105338072D01*
X158600000Y-105338072D01*
X158724482Y-105325812D01*
X158844180Y-105289502D01*
X158954494Y-105230537D01*
X159051185Y-105151185D01*
X159130537Y-105054494D01*
X159189502Y-104944180D01*
X159205117Y-104892702D01*
X160486903Y-104892702D01*
X160558486Y-105136671D01*
X160813996Y-105257571D01*
X161088184Y-105326300D01*
X161370512Y-105340217D01*
X161650130Y-105298787D01*
X161916292Y-105203603D01*
X162041514Y-105136671D01*
X162113097Y-104892702D01*
X161300000Y-104079605D01*
X160486903Y-104892702D01*
X159205117Y-104892702D01*
X159225812Y-104824482D01*
X159238072Y-104700000D01*
X159238072Y-103970512D01*
X159859783Y-103970512D01*
X159901213Y-104250130D01*
X159996397Y-104516292D01*
X160063329Y-104641514D01*
X160307298Y-104713097D01*
X161120395Y-103900000D01*
X161479605Y-103900000D01*
X162292702Y-104713097D01*
X162536671Y-104641514D01*
X162657571Y-104386004D01*
X162726300Y-104111816D01*
X162740217Y-103829488D01*
X162698787Y-103549870D01*
X162603603Y-103283708D01*
X162536671Y-103158486D01*
X162292702Y-103086903D01*
X161479605Y-103900000D01*
X161120395Y-103900000D01*
X160307298Y-103086903D01*
X160063329Y-103158486D01*
X159942429Y-103413996D01*
X159873700Y-103688184D01*
X159859783Y-103970512D01*
X159238072Y-103970512D01*
X159238072Y-103100000D01*
X159225812Y-102975518D01*
X159205118Y-102907298D01*
X160486903Y-102907298D01*
X161300000Y-103720395D01*
X162113097Y-102907298D01*
X162041514Y-102663329D01*
X161786004Y-102542429D01*
X161511816Y-102473700D01*
X161229488Y-102459783D01*
X160949870Y-102501213D01*
X160683708Y-102596397D01*
X160558486Y-102663329D01*
X160486903Y-102907298D01*
X159205118Y-102907298D01*
X159189502Y-102855820D01*
X159130537Y-102745506D01*
X159051185Y-102648815D01*
X158954494Y-102569463D01*
X158935000Y-102559043D01*
X158935000Y-93112408D01*
X159453000Y-93112408D01*
X159453000Y-93387592D01*
X159506686Y-93657490D01*
X159611995Y-93911727D01*
X159764880Y-94140535D01*
X159959465Y-94335120D01*
X160188273Y-94488005D01*
X160442510Y-94593314D01*
X160712408Y-94647000D01*
X160987592Y-94647000D01*
X161257490Y-94593314D01*
X161511727Y-94488005D01*
X161740535Y-94335120D01*
X161935120Y-94140535D01*
X162088005Y-93911727D01*
X162193314Y-93657490D01*
X162247000Y-93387592D01*
X162247000Y-93112408D01*
X162193314Y-92842510D01*
X162088005Y-92588273D01*
X161935120Y-92359465D01*
X161740535Y-92164880D01*
X161511727Y-92011995D01*
X161376290Y-91955895D01*
X160850000Y-91429605D01*
X160323710Y-91955895D01*
X160188273Y-92011995D01*
X159959465Y-92164880D01*
X159764880Y-92359465D01*
X159611995Y-92588273D01*
X159506686Y-92842510D01*
X159453000Y-93112408D01*
X158935000Y-93112408D01*
X158935000Y-91322017D01*
X159448090Y-91322017D01*
X159489078Y-91594133D01*
X159582364Y-91853023D01*
X159644344Y-91968980D01*
X159884435Y-92035960D01*
X160670395Y-91250000D01*
X161029605Y-91250000D01*
X161815565Y-92035960D01*
X162055656Y-91968980D01*
X162172756Y-91719952D01*
X162239023Y-91452865D01*
X162251910Y-91177983D01*
X162210922Y-90905867D01*
X162117636Y-90646977D01*
X162055656Y-90531020D01*
X161815565Y-90464040D01*
X161029605Y-91250000D01*
X160670395Y-91250000D01*
X159884435Y-90464040D01*
X159644344Y-90531020D01*
X159527244Y-90780048D01*
X159460977Y-91047135D01*
X159448090Y-91322017D01*
X158935000Y-91322017D01*
X158935000Y-83612408D01*
X159453000Y-83612408D01*
X159453000Y-83887592D01*
X159506686Y-84157490D01*
X159611995Y-84411727D01*
X159764880Y-84640535D01*
X159959465Y-84835120D01*
X160188273Y-84988005D01*
X160217231Y-85000000D01*
X160188273Y-85011995D01*
X159959465Y-85164880D01*
X159764880Y-85359465D01*
X159611995Y-85588273D01*
X159506686Y-85842510D01*
X159453000Y-86112408D01*
X159453000Y-86387592D01*
X159506686Y-86657490D01*
X159611995Y-86911727D01*
X159764880Y-87140535D01*
X159959465Y-87335120D01*
X160188273Y-87488005D01*
X160217231Y-87500000D01*
X160188273Y-87511995D01*
X159959465Y-87664880D01*
X159764880Y-87859465D01*
X159611995Y-88088273D01*
X159506686Y-88342510D01*
X159453000Y-88612408D01*
X159453000Y-88887592D01*
X159506686Y-89157490D01*
X159611995Y-89411727D01*
X159764880Y-89640535D01*
X159959465Y-89835120D01*
X160188273Y-89988005D01*
X160215401Y-89999242D01*
X160131020Y-90044344D01*
X160064040Y-90284435D01*
X160850000Y-91070395D01*
X161635960Y-90284435D01*
X161568980Y-90044344D01*
X161478467Y-90001782D01*
X161511727Y-89988005D01*
X161740535Y-89835120D01*
X161935120Y-89640535D01*
X162088005Y-89411727D01*
X162193314Y-89157490D01*
X162247000Y-88887592D01*
X162247000Y-88612408D01*
X162193314Y-88342510D01*
X162088005Y-88088273D01*
X161935120Y-87859465D01*
X161740535Y-87664880D01*
X161511727Y-87511995D01*
X161482769Y-87500000D01*
X161511727Y-87488005D01*
X161740535Y-87335120D01*
X161935120Y-87140535D01*
X162088005Y-86911727D01*
X162193314Y-86657490D01*
X162247000Y-86387592D01*
X162247000Y-86112408D01*
X162193314Y-85842510D01*
X162088005Y-85588273D01*
X161935120Y-85359465D01*
X161740535Y-85164880D01*
X161511727Y-85011995D01*
X161482769Y-85000000D01*
X161511727Y-84988005D01*
X161740535Y-84835120D01*
X161935120Y-84640535D01*
X162088005Y-84411727D01*
X162193314Y-84157490D01*
X162247000Y-83887592D01*
X162247000Y-83612408D01*
X162193314Y-83342510D01*
X162088005Y-83088273D01*
X161935120Y-82859465D01*
X161740535Y-82664880D01*
X161736836Y-82662408D01*
X165153000Y-82662408D01*
X165153000Y-82937592D01*
X165206686Y-83207490D01*
X165311995Y-83461727D01*
X165464880Y-83690535D01*
X165659465Y-83885120D01*
X165888273Y-84038005D01*
X166142510Y-84143314D01*
X166412408Y-84197000D01*
X166687592Y-84197000D01*
X166957490Y-84143314D01*
X167211727Y-84038005D01*
X167440535Y-83885120D01*
X167560090Y-83765565D01*
X183264040Y-83765565D01*
X183331020Y-84005656D01*
X183580048Y-84122756D01*
X183847135Y-84189023D01*
X184122017Y-84201910D01*
X184394133Y-84160922D01*
X184653023Y-84067636D01*
X184768980Y-84005656D01*
X184835960Y-83765565D01*
X184050000Y-82979605D01*
X183264040Y-83765565D01*
X167560090Y-83765565D01*
X167635120Y-83690535D01*
X167788005Y-83461727D01*
X167893314Y-83207490D01*
X167947000Y-82937592D01*
X167947000Y-82872017D01*
X182648090Y-82872017D01*
X182689078Y-83144133D01*
X182782364Y-83403023D01*
X182844344Y-83518980D01*
X183084435Y-83585960D01*
X183870395Y-82800000D01*
X184229605Y-82800000D01*
X185015565Y-83585960D01*
X185255656Y-83518980D01*
X185372756Y-83269952D01*
X185439023Y-83002865D01*
X185451910Y-82727983D01*
X185410922Y-82455867D01*
X185317636Y-82196977D01*
X185255656Y-82081020D01*
X185015565Y-82014040D01*
X184229605Y-82800000D01*
X183870395Y-82800000D01*
X183084435Y-82014040D01*
X182844344Y-82081020D01*
X182727244Y-82330048D01*
X182660977Y-82597135D01*
X182648090Y-82872017D01*
X167947000Y-82872017D01*
X167947000Y-82662408D01*
X167893314Y-82392510D01*
X167788005Y-82138273D01*
X167635120Y-81909465D01*
X167560090Y-81834435D01*
X183264040Y-81834435D01*
X184050000Y-82620395D01*
X184835960Y-81834435D01*
X184768980Y-81594344D01*
X184519952Y-81477244D01*
X184252865Y-81410977D01*
X183977983Y-81398090D01*
X183705867Y-81439078D01*
X183446977Y-81532364D01*
X183331020Y-81594344D01*
X183264040Y-81834435D01*
X167560090Y-81834435D01*
X167440535Y-81714880D01*
X167211727Y-81561995D01*
X166957490Y-81456686D01*
X166687592Y-81403000D01*
X166412408Y-81403000D01*
X166142510Y-81456686D01*
X165888273Y-81561995D01*
X165659465Y-81714880D01*
X165464880Y-81909465D01*
X165311995Y-82138273D01*
X165206686Y-82392510D01*
X165153000Y-82662408D01*
X161736836Y-82662408D01*
X161511727Y-82511995D01*
X161484599Y-82500758D01*
X161568980Y-82455656D01*
X161635960Y-82215565D01*
X160850000Y-81429605D01*
X160064040Y-82215565D01*
X160131020Y-82455656D01*
X160221533Y-82498218D01*
X160188273Y-82511995D01*
X159959465Y-82664880D01*
X159764880Y-82859465D01*
X159611995Y-83088273D01*
X159506686Y-83342510D01*
X159453000Y-83612408D01*
X158935000Y-83612408D01*
X158935000Y-81322017D01*
X159448090Y-81322017D01*
X159489078Y-81594133D01*
X159582364Y-81853023D01*
X159644344Y-81968980D01*
X159884435Y-82035960D01*
X160670395Y-81250000D01*
X161029605Y-81250000D01*
X161815565Y-82035960D01*
X162055656Y-81968980D01*
X162172756Y-81719952D01*
X162239023Y-81452865D01*
X162251910Y-81177983D01*
X162210922Y-80905867D01*
X162117636Y-80646977D01*
X162055656Y-80531020D01*
X161815565Y-80464040D01*
X161029605Y-81250000D01*
X160670395Y-81250000D01*
X159884435Y-80464040D01*
X159644344Y-80531020D01*
X159527244Y-80780048D01*
X159460977Y-81047135D01*
X159448090Y-81322017D01*
X158935000Y-81322017D01*
X158935000Y-79885000D01*
X159572650Y-79885000D01*
X159636815Y-79963185D01*
X159733506Y-80042537D01*
X159843820Y-80101502D01*
X159963518Y-80137812D01*
X160088000Y-80150072D01*
X160101524Y-80150072D01*
X160064040Y-80284435D01*
X160850000Y-81070395D01*
X161635960Y-80284435D01*
X161598476Y-80150072D01*
X161612000Y-80150072D01*
X161736482Y-80137812D01*
X161856180Y-80101502D01*
X161966494Y-80042537D01*
X162063185Y-79963185D01*
X162142537Y-79866494D01*
X162201502Y-79756180D01*
X162237812Y-79636482D01*
X162250072Y-79512000D01*
X162250072Y-77988000D01*
X162237812Y-77863518D01*
X162201502Y-77743820D01*
X162142537Y-77633506D01*
X162063185Y-77536815D01*
X161966494Y-77457463D01*
X161856180Y-77398498D01*
X161736482Y-77362188D01*
X161612000Y-77349928D01*
X160088000Y-77349928D01*
X159963518Y-77362188D01*
X159843820Y-77398498D01*
X159733506Y-77457463D01*
X159636815Y-77536815D01*
X159572650Y-77615000D01*
X158405741Y-77615000D01*
X158349999Y-77609510D01*
X158294257Y-77615000D01*
X158294248Y-77615000D01*
X158127501Y-77631423D01*
X157913553Y-77696324D01*
X157716377Y-77801716D01*
X157543551Y-77943551D01*
X157508004Y-77986865D01*
X157036860Y-78458009D01*
X156993552Y-78493551D01*
X156851717Y-78666377D01*
X156807020Y-78750000D01*
X156746324Y-78863554D01*
X156681423Y-79077502D01*
X156659509Y-79300000D01*
X156665001Y-79355762D01*
X156665000Y-102559043D01*
X156645506Y-102569463D01*
X156548815Y-102648815D01*
X156469463Y-102745506D01*
X156410498Y-102855820D01*
X156374188Y-102975518D01*
X156361928Y-103100000D01*
X156361928Y-104700000D01*
X156368488Y-104766609D01*
X148675199Y-112459900D01*
X135751702Y-112459900D01*
X134766312Y-111474511D01*
X134863696Y-111239405D01*
X134915000Y-110981486D01*
X134915000Y-110718514D01*
X134863696Y-110460595D01*
X134763061Y-110217641D01*
X134616962Y-109998987D01*
X134431013Y-109813038D01*
X134212359Y-109666939D01*
X133969405Y-109566304D01*
X133711486Y-109515000D01*
X133448514Y-109515000D01*
X133190595Y-109566304D01*
X132947641Y-109666939D01*
X132728987Y-109813038D01*
X132543038Y-109998987D01*
X132396939Y-110217641D01*
X132296304Y-110460595D01*
X132245000Y-110718514D01*
X132135000Y-110718514D01*
X132135000Y-110668514D01*
X132083696Y-110410595D01*
X131983061Y-110167641D01*
X131836962Y-109948987D01*
X131651013Y-109763038D01*
X131560000Y-109702225D01*
X131560000Y-106297325D01*
X131563676Y-106260000D01*
X131560000Y-106222675D01*
X131560000Y-106222667D01*
X131549003Y-106111014D01*
X131505546Y-105967753D01*
X131434974Y-105835724D01*
X131340001Y-105719999D01*
X131311003Y-105696201D01*
X129873731Y-104258930D01*
X129925000Y-104001184D01*
X129925000Y-103698816D01*
X129866011Y-103402257D01*
X129750299Y-103122905D01*
X129582312Y-102871495D01*
X129368505Y-102657688D01*
X129117095Y-102489701D01*
X128837743Y-102373989D01*
X128541184Y-102315000D01*
X128238816Y-102315000D01*
X127942257Y-102373989D01*
X127662905Y-102489701D01*
X127411495Y-102657688D01*
X127345056Y-102724127D01*
X127339502Y-102705820D01*
X127280537Y-102595506D01*
X127201185Y-102498815D01*
X127104494Y-102419463D01*
X126994180Y-102360498D01*
X126874482Y-102324188D01*
X126750000Y-102311928D01*
X126544575Y-102311928D01*
X126484974Y-102200424D01*
X126413799Y-102113697D01*
X126390001Y-102084699D01*
X126361003Y-102060901D01*
X120731000Y-96430899D01*
X120731000Y-91367122D01*
X120734676Y-91329799D01*
X120731000Y-91292476D01*
X120731000Y-91292467D01*
X120720003Y-91180814D01*
X120676546Y-91037553D01*
X120661766Y-91009902D01*
X120605974Y-90905523D01*
X120534799Y-90818797D01*
X120511001Y-90789799D01*
X120482002Y-90766001D01*
X119951509Y-90235508D01*
X120024469Y-90146606D01*
X120163625Y-89886264D01*
X120249316Y-89603777D01*
X120278251Y-89310000D01*
X120249316Y-89016223D01*
X120163625Y-88733736D01*
X120024469Y-88473394D01*
X119837197Y-88245203D01*
X119609006Y-88057931D01*
X119575460Y-88040000D01*
X119609006Y-88022069D01*
X119837197Y-87834797D01*
X119949029Y-87698530D01*
X125215498Y-92965000D01*
X124979872Y-92965000D01*
X124548075Y-93050890D01*
X124141331Y-93219369D01*
X123775271Y-93463962D01*
X123463962Y-93775271D01*
X123219369Y-94141331D01*
X123050890Y-94548075D01*
X122965000Y-94979872D01*
X122965000Y-95420128D01*
X123050890Y-95851925D01*
X123219369Y-96258669D01*
X123463962Y-96624729D01*
X123775271Y-96936038D01*
X124141331Y-97180631D01*
X124548075Y-97349110D01*
X124979872Y-97435000D01*
X125420128Y-97435000D01*
X125851925Y-97349110D01*
X126258669Y-97180631D01*
X126624729Y-96936038D01*
X126936038Y-96624729D01*
X127180631Y-96258669D01*
X127349110Y-95851925D01*
X127435000Y-95420128D01*
X127435000Y-95184502D01*
X134731475Y-102480978D01*
X134648815Y-102548815D01*
X134569463Y-102645506D01*
X134510498Y-102755820D01*
X134474188Y-102875518D01*
X134461928Y-103000000D01*
X134461928Y-104800000D01*
X134474188Y-104924482D01*
X134510498Y-105044180D01*
X134569463Y-105154494D01*
X134648815Y-105251185D01*
X134745506Y-105330537D01*
X134855820Y-105389502D01*
X134975518Y-105425812D01*
X135100000Y-105438072D01*
X136900000Y-105438072D01*
X137024482Y-105425812D01*
X137144180Y-105389502D01*
X137254494Y-105330537D01*
X137351185Y-105251185D01*
X137430537Y-105154494D01*
X137489502Y-105044180D01*
X137495056Y-105025873D01*
X137561495Y-105092312D01*
X137780001Y-105238313D01*
X137780000Y-108152677D01*
X137776324Y-108190000D01*
X137780000Y-108227322D01*
X137780000Y-108227332D01*
X137790997Y-108338985D01*
X137814056Y-108415000D01*
X137834454Y-108482246D01*
X137905026Y-108614276D01*
X137944871Y-108662826D01*
X137999999Y-108730001D01*
X138029003Y-108753804D01*
X139886355Y-110611157D01*
X139865000Y-110718514D01*
X139865000Y-110981486D01*
X139916304Y-111239405D01*
X140016939Y-111482359D01*
X140163038Y-111701013D01*
X140348987Y-111886962D01*
X140567641Y-112033061D01*
X140810595Y-112133696D01*
X141068514Y-112185000D01*
X141331486Y-112185000D01*
X141589405Y-112133696D01*
X141832359Y-112033061D01*
X142051013Y-111886962D01*
X142236962Y-111701013D01*
X142383061Y-111482359D01*
X142483696Y-111239405D01*
X142484904Y-111233329D01*
X143887284Y-111233329D01*
X143919953Y-111341044D01*
X144030208Y-111578392D01*
X144184649Y-111789670D01*
X144377340Y-111966759D01*
X144600877Y-112102853D01*
X144846670Y-112192722D01*
X145053000Y-112070201D01*
X145053000Y-111027000D01*
X145307000Y-111027000D01*
X145307000Y-112070201D01*
X145513330Y-112192722D01*
X145759123Y-112102853D01*
X145982660Y-111966759D01*
X146175351Y-111789670D01*
X146329792Y-111578392D01*
X146440047Y-111341044D01*
X146472716Y-111233329D01*
X146349374Y-111027000D01*
X145307000Y-111027000D01*
X145053000Y-111027000D01*
X144010626Y-111027000D01*
X143887284Y-111233329D01*
X142484904Y-111233329D01*
X142535000Y-110981486D01*
X142535000Y-110718514D01*
X142504797Y-110566671D01*
X143887284Y-110566671D01*
X144010626Y-110773000D01*
X145053000Y-110773000D01*
X145053000Y-109729799D01*
X145307000Y-109729799D01*
X145307000Y-110773000D01*
X146349374Y-110773000D01*
X146472716Y-110566671D01*
X146440047Y-110458956D01*
X146329792Y-110221608D01*
X146175351Y-110010330D01*
X145982660Y-109833241D01*
X145759123Y-109697147D01*
X145513330Y-109607278D01*
X145307000Y-109729799D01*
X145053000Y-109729799D01*
X144846670Y-109607278D01*
X144600877Y-109697147D01*
X144377340Y-109833241D01*
X144184649Y-110010330D01*
X144030208Y-110221608D01*
X143919953Y-110458956D01*
X143887284Y-110566671D01*
X142504797Y-110566671D01*
X142483696Y-110460595D01*
X142383061Y-110217641D01*
X142236962Y-109998987D01*
X142051013Y-109813038D01*
X141832359Y-109666939D01*
X141589405Y-109566304D01*
X141331486Y-109515000D01*
X141068514Y-109515000D01*
X140961157Y-109536355D01*
X139300000Y-107875199D01*
X139300000Y-105238313D01*
X139518505Y-105092312D01*
X139732312Y-104878505D01*
X139900299Y-104627095D01*
X140016011Y-104347743D01*
X140075000Y-104051184D01*
X140075000Y-103748816D01*
X140016011Y-103452257D01*
X139900299Y-103172905D01*
X139732312Y-102921495D01*
X139518505Y-102707688D01*
X139267095Y-102539701D01*
X138987743Y-102423989D01*
X138691184Y-102365000D01*
X138388816Y-102365000D01*
X138092257Y-102423989D01*
X137812905Y-102539701D01*
X137561495Y-102707688D01*
X137495056Y-102774127D01*
X137489502Y-102755820D01*
X137430537Y-102645506D01*
X137351185Y-102548815D01*
X137254494Y-102469463D01*
X137144180Y-102410498D01*
X137024482Y-102374188D01*
X136900000Y-102361928D01*
X136694575Y-102361928D01*
X136634974Y-102250424D01*
X136593940Y-102200424D01*
X136563799Y-102163696D01*
X136563795Y-102163692D01*
X136540001Y-102134699D01*
X136511008Y-102110905D01*
X120659104Y-86259003D01*
X120635301Y-86229999D01*
X120519576Y-86135026D01*
X120387547Y-86064454D01*
X120244286Y-86020997D01*
X120132633Y-86010000D01*
X120132622Y-86010000D01*
X120095300Y-86006324D01*
X120065044Y-86009304D01*
X120024469Y-85933394D01*
X119837197Y-85705203D01*
X119609006Y-85517931D01*
X119348664Y-85378775D01*
X119066177Y-85293084D01*
X118846019Y-85271400D01*
X118393981Y-85271400D01*
X118173823Y-85293084D01*
X117891336Y-85378775D01*
X117630994Y-85517931D01*
X117402803Y-85705203D01*
X117215531Y-85933394D01*
X117076375Y-86193736D01*
X116990684Y-86476223D01*
X116961749Y-86770000D01*
X116990684Y-87063777D01*
X117076375Y-87346264D01*
X117215531Y-87606606D01*
X117402803Y-87834797D01*
X117630994Y-88022069D01*
X117664540Y-88040000D01*
X117630994Y-88057931D01*
X117402803Y-88245203D01*
X117215531Y-88473394D01*
X117076375Y-88733736D01*
X116990684Y-89016223D01*
X116961749Y-89310000D01*
X116990684Y-89603777D01*
X117076375Y-89886264D01*
X117215531Y-90146606D01*
X117402803Y-90374797D01*
X117630994Y-90562069D01*
X117664540Y-90580000D01*
X117630994Y-90597931D01*
X117402803Y-90785203D01*
X117215531Y-91013394D01*
X117076375Y-91273736D01*
X116990684Y-91556223D01*
X116961749Y-91850000D01*
X116990684Y-92143777D01*
X117076375Y-92426264D01*
X117215531Y-92686606D01*
X117402803Y-92914797D01*
X117630994Y-93102069D01*
X117664540Y-93120000D01*
X117630994Y-93137931D01*
X117402803Y-93325203D01*
X117215531Y-93553394D01*
X117076375Y-93813736D01*
X116990684Y-94096223D01*
X116961749Y-94390000D01*
X116990684Y-94683777D01*
X117076375Y-94966264D01*
X117215531Y-95226606D01*
X117402803Y-95454797D01*
X117630994Y-95642069D01*
X117664540Y-95660000D01*
X117630994Y-95677931D01*
X117402803Y-95865203D01*
X117215531Y-96093394D01*
X117076375Y-96353736D01*
X116990684Y-96636223D01*
X116961749Y-96930000D01*
X116990684Y-97223777D01*
X117076375Y-97506264D01*
X117215531Y-97766606D01*
X117402803Y-97994797D01*
X117630994Y-98182069D01*
X117664540Y-98200000D01*
X117630994Y-98217931D01*
X117402803Y-98405203D01*
X117215531Y-98633394D01*
X117076375Y-98893736D01*
X116990684Y-99176223D01*
X116961749Y-99470000D01*
X116990684Y-99763777D01*
X117076375Y-100046264D01*
X117215531Y-100306606D01*
X117402803Y-100534797D01*
X117630994Y-100722069D01*
X117664540Y-100740000D01*
X117630994Y-100757931D01*
X117402803Y-100945203D01*
X117215531Y-101173394D01*
X117076375Y-101433736D01*
X116990684Y-101716223D01*
X116961749Y-102010000D01*
X116990684Y-102303777D01*
X117076375Y-102586264D01*
X117215531Y-102846606D01*
X117402803Y-103074797D01*
X117630994Y-103262069D01*
X117664540Y-103280000D01*
X117630994Y-103297931D01*
X117402803Y-103485203D01*
X117215531Y-103713394D01*
X117076375Y-103973736D01*
X116990684Y-104256223D01*
X116961749Y-104550000D01*
X116990684Y-104843777D01*
X117076375Y-105126264D01*
X117215531Y-105386606D01*
X117402803Y-105614797D01*
X117630994Y-105802069D01*
X117664540Y-105820000D01*
X117630994Y-105837931D01*
X117402803Y-106025203D01*
X117215531Y-106253394D01*
X117076375Y-106513736D01*
X116990684Y-106796223D01*
X116961749Y-107090000D01*
X116990684Y-107383777D01*
X117076375Y-107666264D01*
X117215531Y-107926606D01*
X117304357Y-108034840D01*
X113388998Y-111950201D01*
X113360000Y-111973999D01*
X113336202Y-112002997D01*
X113336201Y-112002998D01*
X113265026Y-112089724D01*
X113194454Y-112221754D01*
X113164180Y-112321558D01*
X113150998Y-112365014D01*
X113141652Y-112459900D01*
X113136324Y-112514000D01*
X113140001Y-112551333D01*
X113140000Y-132127661D01*
X113009468Y-132214880D01*
X112814883Y-132409465D01*
X112661998Y-132638273D01*
X112556689Y-132892510D01*
X112503003Y-133162408D01*
X100660000Y-133162408D01*
X100660000Y-122330000D01*
X101721749Y-122330000D01*
X101750684Y-122623777D01*
X101836375Y-122906264D01*
X101975531Y-123166606D01*
X102162803Y-123394797D01*
X102390994Y-123582069D01*
X102646336Y-123718553D01*
X102670133Y-123797000D01*
X102674454Y-123811246D01*
X102745026Y-123943276D01*
X102784871Y-123991826D01*
X102839999Y-124059001D01*
X102869003Y-124082804D01*
X105140001Y-126353803D01*
X105140000Y-127531956D01*
X104985241Y-127635363D01*
X104785363Y-127835241D01*
X104628320Y-128070273D01*
X104520147Y-128331426D01*
X104465000Y-128608665D01*
X104465000Y-128891335D01*
X104520147Y-129168574D01*
X104628320Y-129429727D01*
X104785363Y-129664759D01*
X104985241Y-129864637D01*
X105220273Y-130021680D01*
X105481426Y-130129853D01*
X105758665Y-130185000D01*
X106041335Y-130185000D01*
X106318574Y-130129853D01*
X106579727Y-130021680D01*
X106814759Y-129864637D01*
X106936694Y-129742702D01*
X107586903Y-129742702D01*
X107658486Y-129986671D01*
X107913996Y-130107571D01*
X108188184Y-130176300D01*
X108470512Y-130190217D01*
X108750130Y-130148787D01*
X109016292Y-130053603D01*
X109141514Y-129986671D01*
X109213097Y-129742702D01*
X108400000Y-128929605D01*
X107586903Y-129742702D01*
X106936694Y-129742702D01*
X107014637Y-129664759D01*
X107148692Y-129464131D01*
X107163329Y-129491514D01*
X107407298Y-129563097D01*
X108220395Y-128750000D01*
X108579605Y-128750000D01*
X109392702Y-129563097D01*
X109636671Y-129491514D01*
X109757571Y-129236004D01*
X109826300Y-128961816D01*
X109840217Y-128679488D01*
X109798787Y-128399870D01*
X109703603Y-128133708D01*
X109636671Y-128008486D01*
X109392702Y-127936903D01*
X108579605Y-128750000D01*
X108220395Y-128750000D01*
X107407298Y-127936903D01*
X107163329Y-128008486D01*
X107149676Y-128037341D01*
X107014637Y-127835241D01*
X106936694Y-127757298D01*
X107586903Y-127757298D01*
X108400000Y-128570395D01*
X109213097Y-127757298D01*
X109141514Y-127513329D01*
X108886004Y-127392429D01*
X108611816Y-127323700D01*
X108329488Y-127309783D01*
X108049870Y-127351213D01*
X107783708Y-127446397D01*
X107658486Y-127513329D01*
X107586903Y-127757298D01*
X106936694Y-127757298D01*
X106814759Y-127635363D01*
X106660000Y-127531957D01*
X106660000Y-126076322D01*
X106663676Y-126038999D01*
X106660000Y-126001676D01*
X106660000Y-126001667D01*
X106649003Y-125890014D01*
X106605546Y-125746753D01*
X106534974Y-125614724D01*
X106440001Y-125498999D01*
X106411003Y-125475201D01*
X104450769Y-123514968D01*
X104597197Y-123394797D01*
X104784469Y-123166606D01*
X104923625Y-122906264D01*
X105009316Y-122623777D01*
X105038251Y-122330000D01*
X105009316Y-122036223D01*
X104923625Y-121753736D01*
X104784469Y-121493394D01*
X104597197Y-121265203D01*
X104369006Y-121077931D01*
X104329053Y-121056576D01*
X104531729Y-120908486D01*
X104730733Y-120692035D01*
X104883686Y-120440919D01*
X104984709Y-120164789D01*
X104987358Y-120149026D01*
X104866217Y-119917000D01*
X103507000Y-119917000D01*
X103507000Y-119937000D01*
X103253000Y-119937000D01*
X103253000Y-119917000D01*
X101893783Y-119917000D01*
X101772642Y-120149026D01*
X101775291Y-120164789D01*
X101876314Y-120440919D01*
X102029267Y-120692035D01*
X102228271Y-120908486D01*
X102430947Y-121056576D01*
X102390994Y-121077931D01*
X102162803Y-121265203D01*
X101975531Y-121493394D01*
X101836375Y-121753736D01*
X101750684Y-122036223D01*
X101721749Y-122330000D01*
X100660000Y-122330000D01*
X100660000Y-86770000D01*
X101721749Y-86770000D01*
X101750684Y-87063777D01*
X101836375Y-87346264D01*
X101975531Y-87606606D01*
X102162803Y-87834797D01*
X102390994Y-88022069D01*
X102424540Y-88040000D01*
X102390994Y-88057931D01*
X102162803Y-88245203D01*
X101975531Y-88473394D01*
X101836375Y-88733736D01*
X101750684Y-89016223D01*
X101721749Y-89310000D01*
X101750684Y-89603777D01*
X101836375Y-89886264D01*
X101975531Y-90146606D01*
X102162803Y-90374797D01*
X102390994Y-90562069D01*
X102424540Y-90580000D01*
X102390994Y-90597931D01*
X102162803Y-90785203D01*
X101975531Y-91013394D01*
X101836375Y-91273736D01*
X101750684Y-91556223D01*
X101721749Y-91850000D01*
X101750684Y-92143777D01*
X101836375Y-92426264D01*
X101975531Y-92686606D01*
X102162803Y-92914797D01*
X102390994Y-93102069D01*
X102424540Y-93120000D01*
X102390994Y-93137931D01*
X102162803Y-93325203D01*
X101975531Y-93553394D01*
X101836375Y-93813736D01*
X101750684Y-94096223D01*
X101721749Y-94390000D01*
X101750684Y-94683777D01*
X101836375Y-94966264D01*
X101975531Y-95226606D01*
X102162803Y-95454797D01*
X102390994Y-95642069D01*
X102424540Y-95660000D01*
X102390994Y-95677931D01*
X102162803Y-95865203D01*
X101975531Y-96093394D01*
X101836375Y-96353736D01*
X101750684Y-96636223D01*
X101721749Y-96930000D01*
X101750684Y-97223777D01*
X101836375Y-97506264D01*
X101975531Y-97766606D01*
X102162803Y-97994797D01*
X102390994Y-98182069D01*
X102424540Y-98200000D01*
X102390994Y-98217931D01*
X102162803Y-98405203D01*
X101975531Y-98633394D01*
X101836375Y-98893736D01*
X101750684Y-99176223D01*
X101721749Y-99470000D01*
X101750684Y-99763777D01*
X101836375Y-100046264D01*
X101975531Y-100306606D01*
X102162803Y-100534797D01*
X102390994Y-100722069D01*
X102424540Y-100740000D01*
X102390994Y-100757931D01*
X102162803Y-100945203D01*
X101975531Y-101173394D01*
X101836375Y-101433736D01*
X101750684Y-101716223D01*
X101721749Y-102010000D01*
X101750684Y-102303777D01*
X101836375Y-102586264D01*
X101975531Y-102846606D01*
X102162803Y-103074797D01*
X102390994Y-103262069D01*
X102424540Y-103280000D01*
X102390994Y-103297931D01*
X102162803Y-103485203D01*
X101975531Y-103713394D01*
X101836375Y-103973736D01*
X101750684Y-104256223D01*
X101721749Y-104550000D01*
X101750684Y-104843777D01*
X101836375Y-105126264D01*
X101975531Y-105386606D01*
X102162803Y-105614797D01*
X102390994Y-105802069D01*
X102424540Y-105820000D01*
X102390994Y-105837931D01*
X102162803Y-106025203D01*
X101975531Y-106253394D01*
X101836375Y-106513736D01*
X101750684Y-106796223D01*
X101721749Y-107090000D01*
X101750684Y-107383777D01*
X101836375Y-107666264D01*
X101975531Y-107926606D01*
X102162803Y-108154797D01*
X102390994Y-108342069D01*
X102424540Y-108360000D01*
X102390994Y-108377931D01*
X102162803Y-108565203D01*
X101975531Y-108793394D01*
X101836375Y-109053736D01*
X101750684Y-109336223D01*
X101721749Y-109630000D01*
X101750684Y-109923777D01*
X101836375Y-110206264D01*
X101975531Y-110466606D01*
X102162803Y-110694797D01*
X102390994Y-110882069D01*
X102424540Y-110900000D01*
X102390994Y-110917931D01*
X102162803Y-111105203D01*
X101975531Y-111333394D01*
X101836375Y-111593736D01*
X101750684Y-111876223D01*
X101721749Y-112170000D01*
X101750684Y-112463777D01*
X101836375Y-112746264D01*
X101975531Y-113006606D01*
X102162803Y-113234797D01*
X102390994Y-113422069D01*
X102424540Y-113440000D01*
X102390994Y-113457931D01*
X102162803Y-113645203D01*
X101975531Y-113873394D01*
X101836375Y-114133736D01*
X101750684Y-114416223D01*
X101721749Y-114710000D01*
X101750684Y-115003777D01*
X101836375Y-115286264D01*
X101975531Y-115546606D01*
X102162803Y-115774797D01*
X102390994Y-115962069D01*
X102424540Y-115980000D01*
X102390994Y-115997931D01*
X102162803Y-116185203D01*
X101975531Y-116413394D01*
X101836375Y-116673736D01*
X101750684Y-116956223D01*
X101721749Y-117250000D01*
X101750684Y-117543777D01*
X101836375Y-117826264D01*
X101975531Y-118086606D01*
X102162803Y-118314797D01*
X102390994Y-118502069D01*
X102430947Y-118523424D01*
X102228271Y-118671514D01*
X102029267Y-118887965D01*
X101876314Y-119139081D01*
X101775291Y-119415211D01*
X101772642Y-119430974D01*
X101893783Y-119663000D01*
X103253000Y-119663000D01*
X103253000Y-119643000D01*
X103507000Y-119643000D01*
X103507000Y-119663000D01*
X104866217Y-119663000D01*
X104987358Y-119430974D01*
X104984709Y-119415211D01*
X104883686Y-119139081D01*
X104730733Y-118887965D01*
X104531729Y-118671514D01*
X104329053Y-118523424D01*
X104369006Y-118502069D01*
X104597197Y-118314797D01*
X104784469Y-118086606D01*
X104923625Y-117826264D01*
X105009316Y-117543777D01*
X105038251Y-117250000D01*
X105009316Y-116956223D01*
X104923625Y-116673736D01*
X104784469Y-116413394D01*
X104597197Y-116185203D01*
X104369006Y-115997931D01*
X104335460Y-115980000D01*
X104369006Y-115962069D01*
X104597197Y-115774797D01*
X104784469Y-115546606D01*
X104923625Y-115286264D01*
X105009316Y-115003777D01*
X105038251Y-114710000D01*
X105009316Y-114416223D01*
X104923625Y-114133736D01*
X104784469Y-113873394D01*
X104597197Y-113645203D01*
X104369006Y-113457931D01*
X104335460Y-113440000D01*
X104369006Y-113422069D01*
X104597197Y-113234797D01*
X104784469Y-113006606D01*
X104923625Y-112746264D01*
X105009316Y-112463777D01*
X105038251Y-112170000D01*
X105009316Y-111876223D01*
X104923625Y-111593736D01*
X104784469Y-111333394D01*
X104597197Y-111105203D01*
X104369006Y-110917931D01*
X104335460Y-110900000D01*
X104369006Y-110882069D01*
X104597197Y-110694797D01*
X104784469Y-110466606D01*
X104923625Y-110206264D01*
X105009316Y-109923777D01*
X105038251Y-109630000D01*
X105009316Y-109336223D01*
X104923625Y-109053736D01*
X104784469Y-108793394D01*
X104597197Y-108565203D01*
X104369006Y-108377931D01*
X104335460Y-108360000D01*
X104369006Y-108342069D01*
X104597197Y-108154797D01*
X104784469Y-107926606D01*
X104923625Y-107666264D01*
X105009316Y-107383777D01*
X105038251Y-107090000D01*
X105009316Y-106796223D01*
X104923625Y-106513736D01*
X104784469Y-106253394D01*
X104597197Y-106025203D01*
X104369006Y-105837931D01*
X104335460Y-105820000D01*
X104369006Y-105802069D01*
X104597197Y-105614797D01*
X104784469Y-105386606D01*
X104923625Y-105126264D01*
X105009316Y-104843777D01*
X105038251Y-104550000D01*
X105009316Y-104256223D01*
X104923625Y-103973736D01*
X104784469Y-103713394D01*
X104597197Y-103485203D01*
X104369006Y-103297931D01*
X104335460Y-103280000D01*
X104369006Y-103262069D01*
X104597197Y-103074797D01*
X104784469Y-102846606D01*
X104923625Y-102586264D01*
X105009316Y-102303777D01*
X105038251Y-102010000D01*
X105009316Y-101716223D01*
X104923625Y-101433736D01*
X104784469Y-101173394D01*
X104597197Y-100945203D01*
X104369006Y-100757931D01*
X104335460Y-100740000D01*
X104369006Y-100722069D01*
X104597197Y-100534797D01*
X104784469Y-100306606D01*
X104923625Y-100046264D01*
X105009316Y-99763777D01*
X105038251Y-99470000D01*
X105009316Y-99176223D01*
X104923625Y-98893736D01*
X104784469Y-98633394D01*
X104597197Y-98405203D01*
X104369006Y-98217931D01*
X104335460Y-98200000D01*
X104369006Y-98182069D01*
X104597197Y-97994797D01*
X104784469Y-97766606D01*
X104923625Y-97506264D01*
X105009316Y-97223777D01*
X105038251Y-96930000D01*
X105009316Y-96636223D01*
X104923625Y-96353736D01*
X104784469Y-96093394D01*
X104597197Y-95865203D01*
X104369006Y-95677931D01*
X104335460Y-95660000D01*
X104369006Y-95642069D01*
X104597197Y-95454797D01*
X104784469Y-95226606D01*
X104923625Y-94966264D01*
X105009316Y-94683777D01*
X105038251Y-94390000D01*
X105009316Y-94096223D01*
X104923625Y-93813736D01*
X104784469Y-93553394D01*
X104597197Y-93325203D01*
X104369006Y-93137931D01*
X104335460Y-93120000D01*
X104369006Y-93102069D01*
X104597197Y-92914797D01*
X104784469Y-92686606D01*
X104923625Y-92426264D01*
X105009316Y-92143777D01*
X105038251Y-91850000D01*
X105009316Y-91556223D01*
X104923625Y-91273736D01*
X104784469Y-91013394D01*
X104597197Y-90785203D01*
X104369006Y-90597931D01*
X104335460Y-90580000D01*
X104369006Y-90562069D01*
X104597197Y-90374797D01*
X104784469Y-90146606D01*
X104923625Y-89886264D01*
X105009316Y-89603777D01*
X105038251Y-89310000D01*
X105009316Y-89016223D01*
X104923625Y-88733736D01*
X104784469Y-88473394D01*
X104597197Y-88245203D01*
X104369006Y-88057931D01*
X104335460Y-88040000D01*
X104369006Y-88022069D01*
X104597197Y-87834797D01*
X104784469Y-87606606D01*
X104923625Y-87346264D01*
X105009316Y-87063777D01*
X105038251Y-86770000D01*
X105009316Y-86476223D01*
X104923625Y-86193736D01*
X104784469Y-85933394D01*
X104597197Y-85705203D01*
X104369006Y-85517931D01*
X104108664Y-85378775D01*
X103826177Y-85293084D01*
X103606019Y-85271400D01*
X103153981Y-85271400D01*
X102933823Y-85293084D01*
X102651336Y-85378775D01*
X102390994Y-85517931D01*
X102162803Y-85705203D01*
X101975531Y-85933394D01*
X101836375Y-86193736D01*
X101750684Y-86476223D01*
X101721749Y-86770000D01*
X100660000Y-86770000D01*
X100660000Y-75679872D01*
X103265000Y-75679872D01*
X103265000Y-76120128D01*
X103350890Y-76551925D01*
X103519369Y-76958669D01*
X103763962Y-77324729D01*
X104075271Y-77636038D01*
X104441331Y-77880631D01*
X104848075Y-78049110D01*
X105279872Y-78135000D01*
X105720128Y-78135000D01*
X106151925Y-78049110D01*
X106558669Y-77880631D01*
X106924729Y-77636038D01*
X107236038Y-77324729D01*
X107480631Y-76958669D01*
X107649110Y-76551925D01*
X107735000Y-76120128D01*
X107735000Y-75679872D01*
X107649110Y-75248075D01*
X107480631Y-74841331D01*
X107236038Y-74475271D01*
X106924729Y-74163962D01*
X106558669Y-73919369D01*
X106151925Y-73750890D01*
X105720128Y-73665000D01*
X105279872Y-73665000D01*
X104848075Y-73750890D01*
X104441331Y-73919369D01*
X104075271Y-74163962D01*
X103763962Y-74475271D01*
X103519369Y-74841331D01*
X103350890Y-75248075D01*
X103265000Y-75679872D01*
X100660000Y-75679872D01*
X100660000Y-73629872D01*
X123165000Y-73629872D01*
X123165000Y-74070128D01*
X123250890Y-74501925D01*
X123419369Y-74908669D01*
X123663962Y-75274729D01*
X123975271Y-75586038D01*
X124341331Y-75830631D01*
X124748075Y-75999110D01*
X125179872Y-76085000D01*
X125620128Y-76085000D01*
X126051925Y-75999110D01*
X126458669Y-75830631D01*
X126824729Y-75586038D01*
X127136038Y-75274729D01*
X127380631Y-74908669D01*
X127549110Y-74501925D01*
X127635000Y-74070128D01*
X127635000Y-73629872D01*
X127595218Y-73429872D01*
X157115000Y-73429872D01*
X157115000Y-73870128D01*
X157200890Y-74301925D01*
X157369369Y-74708669D01*
X157613962Y-75074729D01*
X157925271Y-75386038D01*
X158291331Y-75630631D01*
X158698075Y-75799110D01*
X159129872Y-75885000D01*
X159570128Y-75885000D01*
X160001925Y-75799110D01*
X160408669Y-75630631D01*
X160774729Y-75386038D01*
X160780895Y-75379872D01*
X179765000Y-75379872D01*
X179765000Y-75820128D01*
X179850890Y-76251925D01*
X180019369Y-76658669D01*
X180263962Y-77024729D01*
X180575271Y-77336038D01*
X180941331Y-77580631D01*
X181348075Y-77749110D01*
X181779872Y-77835000D01*
X182220128Y-77835000D01*
X182651925Y-77749110D01*
X183058669Y-77580631D01*
X183424729Y-77336038D01*
X183736038Y-77024729D01*
X183980631Y-76658669D01*
X184149110Y-76251925D01*
X184235000Y-75820128D01*
X184235000Y-75379872D01*
X184149110Y-74948075D01*
X183980631Y-74541331D01*
X183736038Y-74175271D01*
X183424729Y-73863962D01*
X183058669Y-73619369D01*
X182651925Y-73450890D01*
X182220128Y-73365000D01*
X181779872Y-73365000D01*
X181348075Y-73450890D01*
X180941331Y-73619369D01*
X180575271Y-73863962D01*
X180263962Y-74175271D01*
X180019369Y-74541331D01*
X179850890Y-74948075D01*
X179765000Y-75379872D01*
X160780895Y-75379872D01*
X161086038Y-75074729D01*
X161330631Y-74708669D01*
X161499110Y-74301925D01*
X161585000Y-73870128D01*
X161585000Y-73429872D01*
X161499110Y-72998075D01*
X161330631Y-72591331D01*
X161086038Y-72225271D01*
X160774729Y-71913962D01*
X160408669Y-71669369D01*
X160001925Y-71500890D01*
X159570128Y-71415000D01*
X159129872Y-71415000D01*
X158698075Y-71500890D01*
X158291331Y-71669369D01*
X157925271Y-71913962D01*
X157613962Y-72225271D01*
X157369369Y-72591331D01*
X157200890Y-72998075D01*
X157115000Y-73429872D01*
X127595218Y-73429872D01*
X127549110Y-73198075D01*
X127380631Y-72791331D01*
X127136038Y-72425271D01*
X126824729Y-72113962D01*
X126458669Y-71869369D01*
X126051925Y-71700890D01*
X125620128Y-71615000D01*
X125179872Y-71615000D01*
X124748075Y-71700890D01*
X124341331Y-71869369D01*
X123975271Y-72113962D01*
X123663962Y-72425271D01*
X123419369Y-72791331D01*
X123250890Y-73198075D01*
X123165000Y-73629872D01*
X100660000Y-73629872D01*
X100660000Y-70660000D01*
X128977679Y-70660000D01*
X186840000Y-70726816D01*
M02*
